<svg id="Capa_1" data-name="Capa 1" xmlns="http://www.w3.org/2000/svg" viewBox="0 0 269.1 392"><defs><style>.cls-1,.cls-2{fill:none;}.cls-2{stroke:#f0be15;stroke-miterlimit:10;stroke-width:3px;}.cls-3{isolation:isolate;}.cls-4{fill:#7d7d7d;}.cls-5{fill:#fff;}.cls-6{fill:#f8afa0;}.cls-7{opacity:0.13;}.cls-8{fill:#aad2f5;}</style></defs><title>timeline</title><rect class="cls-1" x="-91.4" y="78.25" width="178.9" height="68"/><line class="cls-2" x1="-1145.78" y1="206.85" x2="547.12" y2="206.85"/><g class="cls-3"><path d="M127.1,171.25a.35.35,0,0,1,.4.4c0,.1,0,.3-.1.3a.37.37,0,0,1-.3.1h-6.2a.6.6,0,0,1-.4-.1.52.52,0,0,1-.2-.4.37.37,0,0,1,.1-.3l3.8-4.2a15,15,0,0,0,1.4-1.8,3.74,3.74,0,0,0,.5-1.5,2.06,2.06,0,0,0-.7-1.7,2.48,2.48,0,0,0-1.8-.7,3.55,3.55,0,0,0-1,.2,2.36,2.36,0,0,0-.9.6,1.56,1.56,0,0,0-.6.8c-.1.1-.1.2-.2.2a.35.35,0,0,0-.2.1.35.35,0,0,1-.4-.4c0-.1,0-.2.1-.2s.1-.2.2-.3a3.45,3.45,0,0,1,.8-.9,4.73,4.73,0,0,1,1.2-.7,3.08,3.08,0,0,1,1.3-.3,3.42,3.42,0,0,1,1.8.4,4.26,4.26,0,0,1,1.2,1.1,3.29,3.29,0,0,1,.4,1.7,4.89,4.89,0,0,1-.5,1.9,13.39,13.39,0,0,1-1.6,2.2l-3.2,3.6-.2-.2h5.3Z"/><path d="M133.4,172.35a3.29,3.29,0,0,1-2.2-.8,4.44,4.44,0,0,1-1.3-2.1,11.45,11.45,0,0,1,0-6,4.44,4.44,0,0,1,1.3-2.1,3.43,3.43,0,0,1,4.4,0,4.44,4.44,0,0,1,1.3,2.1,11.45,11.45,0,0,1,0,6,4.44,4.44,0,0,1-1.3,2.1A3.29,3.29,0,0,1,133.4,172.35Zm0-1a2.27,2.27,0,0,0,1.6-.6,4,4,0,0,0,1-1.7,11.42,11.42,0,0,0,0-5.2,3.23,3.23,0,0,0-1-1.7,2.45,2.45,0,0,0-1.6-.6,2.27,2.27,0,0,0-1.6.6,4,4,0,0,0-1,1.7,9.78,9.78,0,0,0-.3,2.6,10.32,10.32,0,0,0,.3,2.6,4,4,0,0,0,1,1.7A2.11,2.11,0,0,0,133.4,171.35Z"/><path d="M146.1,171.25a.35.35,0,0,1,.4.4c0,.1,0,.3-.1.3a.37.37,0,0,1-.3.1h-6.2a.6.6,0,0,1-.4-.1.52.52,0,0,1-.2-.4.37.37,0,0,1,.1-.3l3.8-4.2a15,15,0,0,0,1.4-1.8,3.74,3.74,0,0,0,.5-1.5,2.06,2.06,0,0,0-.7-1.7,2.48,2.48,0,0,0-1.8-.7,3.55,3.55,0,0,0-1,.2,2.36,2.36,0,0,0-.9.6,1.56,1.56,0,0,0-.6.8c-.1.1-.1.2-.2.2a.35.35,0,0,0-.2.1.35.35,0,0,1-.4-.4c0-.1,0-.2.1-.2s.1-.2.2-.3a3.45,3.45,0,0,1,.8-.9,4.73,4.73,0,0,1,1.2-.7,3.08,3.08,0,0,1,1.3-.3,3.42,3.42,0,0,1,1.8.4,4.26,4.26,0,0,1,1.2,1.1,3.29,3.29,0,0,1,.4,1.7,4.89,4.89,0,0,1-.5,1.9,13.39,13.39,0,0,1-1.6,2.2l-3.2,3.6-.2-.2h5.3Z"/><path d="M155.3,171.25a.35.35,0,0,1,.4.4c0,.1,0,.3-.1.3s-.2.1-.3.1h-6.2a.6.6,0,0,1-.4-.1.52.52,0,0,1-.2-.4.37.37,0,0,1,.1-.3l3.8-4.2a15,15,0,0,0,1.4-1.8,3.74,3.74,0,0,0,.5-1.5,2.06,2.06,0,0,0-.7-1.7,2.48,2.48,0,0,0-1.8-.7,3.55,3.55,0,0,0-1,.2,2.36,2.36,0,0,0-.9.6,1.56,1.56,0,0,0-.6.8c-.1.1-.1.2-.2.2a.35.35,0,0,0-.2.1.35.35,0,0,1-.4-.4c0-.1,0-.2.1-.2s.1-.2.2-.3a3.45,3.45,0,0,1,.8-.9,4.73,4.73,0,0,1,1.2-.7,3.08,3.08,0,0,1,1.3-.3,3.42,3.42,0,0,1,1.8.4,4.26,4.26,0,0,1,1.2,1.1,3.29,3.29,0,0,1,.4,1.7,4.89,4.89,0,0,1-.5,1.9,13.39,13.39,0,0,1-1.6,2.2l-3.2,3.6-.2-.2h5.3Z"/></g><g class="cls-3"><path class="cls-4" d="M81.5,224.68c.2.1.3.2.3.4s0,.4-.2.5a.52.52,0,0,1-.4.2.6.6,0,0,1-.4-.1,6.89,6.89,0,0,0-.8-.3,2.77,2.77,0,0,0-.9-.1,5.07,5.07,0,0,0-1.3.2,3.59,3.59,0,0,0-1,.7,2.07,2.07,0,0,0-.6,1,5.07,5.07,0,0,0-.2,1.3,5.9,5.9,0,0,0,.2,1.4,1.83,1.83,0,0,0,.7,1,3.33,3.33,0,0,0,1,.6,5,5,0,0,0,1.2.2,2,2,0,0,0,.8-.1c.3-.1.5-.2.8-.3a.62.62,0,0,1,.8.1,1.69,1.69,0,0,1,.2.5c0,.2-.1.3-.3.4a4.88,4.88,0,0,1-.7.3,2.35,2.35,0,0,1-.8.2c-.3,0-.5.1-.8.1a4.67,4.67,0,0,1-1.7-.3,4.19,4.19,0,0,1-1.4-.9,4.51,4.51,0,0,1-1-1.4,5.85,5.85,0,0,1-.4-1.9,4.84,4.84,0,0,1,.3-1.8,3.32,3.32,0,0,1,1-1.4,4.19,4.19,0,0,1,1.4-.9,5.23,5.23,0,0,1,1.8-.3,5,5,0,0,1,1.2.2C80.8,224.38,81.2,224.58,81.5,224.68Z"/><path class="cls-4" d="M89.6,226.28c.2,0,.3.1.5.2a.76.76,0,0,1,.2.5v5.5c0,.2-.1.3-.2.5a.76.76,0,0,1-.5.2c-.2,0-.3-.1-.5-.2a.76.76,0,0,1-.2-.5v-.9l.3.1a1.69,1.69,0,0,1-.2.5,1.21,1.21,0,0,1-.5.5,2.51,2.51,0,0,1-.7.4,2.92,2.92,0,0,1-.9.2,3,3,0,0,1-1.6-.5,3.18,3.18,0,0,1-1.1-1.2,4.25,4.25,0,0,1,0-3.6,3.18,3.18,0,0,1,1.1-1.2,2.82,2.82,0,0,1,1.5-.4,3,3,0,0,1,1,.2,2.18,2.18,0,0,1,.8.5,2.65,2.65,0,0,1,.5.6,1.42,1.42,0,0,1,.2.6h-.4V227c0-.2.1-.3.2-.5S89.4,226.28,89.6,226.28Zm-2.6,5.8a2.28,2.28,0,0,0,1.1-.3c.4-.2.5-.5.7-.8a2.38,2.38,0,0,0,.3-1.2,2.66,2.66,0,0,0-.3-1.2,1.85,1.85,0,0,0-.7-.8,2,2,0,0,0-1.1-.3,1.69,1.69,0,0,0-1,.3,2.7,2.7,0,0,0-.7.8,2.13,2.13,0,0,0-.3,1.2,2.66,2.66,0,0,0,.3,1.2,1.85,1.85,0,0,0,.7.8A1.69,1.69,0,0,0,87,232.08Z"/><path class="cls-4" d="M96.4,226.28a2,2,0,0,1,1.4.5,2.4,2.4,0,0,1,.7,1.2l-.2-.1.1-.2c.1-.2.3-.4.5-.7a5.55,5.55,0,0,1,.8-.6,3,3,0,0,1,1-.2,2.12,2.12,0,0,1,1.4.4,2.55,2.55,0,0,1,.7,1,3.18,3.18,0,0,1,.2,1.4v3.4c0,.2-.1.3-.2.5a.76.76,0,0,1-.5.2c-.2,0-.3-.1-.5-.2a.76.76,0,0,1-.2-.5v-3.3a2,2,0,0,0-.1-.8,2.09,2.09,0,0,0-.4-.6,1.88,1.88,0,0,0-.8-.2,2.92,2.92,0,0,0-.9.2.9.9,0,0,0-.6.6,1.88,1.88,0,0,0-.2.8v3.3c0,.2-.1.3-.2.5a.76.76,0,0,1-.5.2c-.2,0-.3-.1-.5-.2a.76.76,0,0,1-.2-.5V229a2,2,0,0,0-.1-.8,2.09,2.09,0,0,0-.4-.6,1.88,1.88,0,0,0-.8-.2,2.92,2.92,0,0,0-.9.2.9.9,0,0,0-.6.6,1.88,1.88,0,0,0-.2.8v3.4c0,.2-.1.3-.2.5a.76.76,0,0,1-.5.2c-.2,0-.3-.1-.5-.2a.76.76,0,0,1-.2-.5V227c0-.2.1-.3.2-.5a.76.76,0,0,1,.5-.2c.2,0,.3.1.5.2a.76.76,0,0,1,.2.5v.7l-.2.1.3-.6a1.21,1.21,0,0,1,.5-.5,1.61,1.61,0,0,1,.7-.4A2.72,2.72,0,0,0,96.4,226.28Z"/><path class="cls-4" d="M109,226.28a2.93,2.93,0,0,1,1.6.4,3.18,3.18,0,0,1,1.1,1.2,4.25,4.25,0,0,1,0,3.6,3.18,3.18,0,0,1-1.1,1.2,3,3,0,0,1-1.5.5,2.92,2.92,0,0,1-.9-.2,3,3,0,0,1-.8-.4,1.18,1.18,0,0,1-.5-.5,2.19,2.19,0,0,0-.3-.5l.3-.2v1.1c0,.2-.1.3-.2.5a.76.76,0,0,1-.5.2c-.2,0-.3-.1-.5-.2a.76.76,0,0,1-.2-.5v-8.2c0-.2.1-.3.2-.5a.76.76,0,0,1,.5-.2c.2,0,.3.1.5.2a.76.76,0,0,1,.2.5v3.6l-.2-.1c0-.2.1-.3.2-.5s.3-.3.5-.5a1.61,1.61,0,0,1,.7-.4A3.08,3.08,0,0,1,109,226.28Zm-.1,1.2a2,2,0,0,0-1.1.3,2.7,2.7,0,0,0-.7.8,2.13,2.13,0,0,0-.3,1.2,2.38,2.38,0,0,0,.3,1.2,1.85,1.85,0,0,0,.7.8,2,2,0,0,0,1.1.3,1.69,1.69,0,0,0,1-.3,2.7,2.7,0,0,0,.7-.8,2.13,2.13,0,0,0,.3-1.2,2.66,2.66,0,0,0-.3-1.2,2.7,2.7,0,0,0-.7-.8A1.69,1.69,0,0,0,108.9,227.48Z"/><path class="cls-4" d="M115.1,225.48a.75.75,0,0,1-.5-.1.59.59,0,0,1-.2-.5v-.2c0-.2.1-.4.2-.4a.75.75,0,0,1,.5-.1c.3,0,.4,0,.5.1a.52.52,0,0,1,.2.4v.2a.76.76,0,0,1-.2.5A.75.75,0,0,1,115.1,225.48Zm.6,7c0,.2-.1.3-.2.5a.76.76,0,0,1-.5.2c-.2,0-.3-.1-.5-.2a.76.76,0,0,1-.2-.5V227c0-.2.1-.3.2-.5a.76.76,0,0,1,.5-.2c.2,0,.3.1.5.2a.76.76,0,0,1,.2.5Z"/><path class="cls-4" d="M124.8,229.78a3.17,3.17,0,0,1-1.6,3,3.81,3.81,0,0,1-3.4,0,3.5,3.5,0,0,1-1.7-3,2.73,2.73,0,0,1,.5-1.8,3.45,3.45,0,0,1,1.2-1.2,3.37,3.37,0,0,1,1.7-.5,2.62,2.62,0,0,1,1.7.5,3.17,3.17,0,0,1,1.6,3Zm-1.3,0a2.13,2.13,0,0,0-.3-1.2,2,2,0,0,0-.8-.8,2,2,0,0,0-1.1-.3,2.28,2.28,0,0,0-1.1.3,3,3,0,0,0-.8.8,2.13,2.13,0,0,0-.3,1.2,2.66,2.66,0,0,0,.3,1.2,2,2,0,0,0,.8.8,2,2,0,0,0,1.1.3,2.28,2.28,0,0,0,1.1-.3,3,3,0,0,0,.8-.8A1.8,1.8,0,0,0,123.5,229.78Z"/><path class="cls-4" d="M137.2,223.68c.2,0,.3.1.5.2a.76.76,0,0,1,.2.5v8.1c0,.2-.1.3-.2.5a.76.76,0,0,1-.5.2c-.2,0-.3-.1-.5-.2a.76.76,0,0,1-.2-.5v-.9h.3c0,.2-.1.3-.2.5a1.21,1.21,0,0,1-.5.5,2.51,2.51,0,0,1-.7.4,2.92,2.92,0,0,1-.9.2,3,3,0,0,1-1.6-.5,3.18,3.18,0,0,1-1.1-1.2,4.25,4.25,0,0,1,0-3.6,3.18,3.18,0,0,1,1.1-1.2,2.54,2.54,0,0,1,2.5-.3,2.18,2.18,0,0,1,.8.5,2.65,2.65,0,0,1,.5.6,1.42,1.42,0,0,1,.2.6h-.4v-3.8c0-.2.1-.3.2-.5C136.9,223.78,137,223.68,137.2,223.68Zm-2.6,8.4a2,2,0,0,0,1.1-.3,2.7,2.7,0,0,0,.7-.8,2.13,2.13,0,0,0,.3-1.2,2.38,2.38,0,0,0-.3-1.2,2.7,2.7,0,0,0-.7-.8,2,2,0,0,0-1.1-.3,1.69,1.69,0,0,0-1,.3,2.7,2.7,0,0,0-.7.8,2.13,2.13,0,0,0-.3,1.2,2.38,2.38,0,0,0,.3,1.2,2.7,2.7,0,0,0,.7.8A1.69,1.69,0,0,0,134.6,232.08Z"/><path class="cls-4" d="M143.7,233.18a3.17,3.17,0,0,1-3.4-3.4,3,3,0,0,1,.5-1.9,3.45,3.45,0,0,1,1.2-1.2,2.82,2.82,0,0,1,1.5-.4,5,5,0,0,1,1.2.2,2.29,2.29,0,0,1,1,.7,3.59,3.59,0,0,1,.7,1,2.77,2.77,0,0,1,.3,1.3.52.52,0,0,1-.2.4.76.76,0,0,1-.4.2h-4.9l-.3-1.1h4.8l-.2.2v-.3a1.14,1.14,0,0,0-.3-.8,1.79,1.79,0,0,0-.7-.5,2.35,2.35,0,0,0-.8-.2,1.48,1.48,0,0,0-.7.1,2.09,2.09,0,0,0-.6.4,1.61,1.61,0,0,0-.4.7,3.59,3.59,0,0,0-.2,1.1,2.13,2.13,0,0,0,.3,1.2,3,3,0,0,0,.8.8,2,2,0,0,0,1.1.3,2,2,0,0,0,.8-.1c.2-.1.4-.1.5-.2s.3-.2.4-.3a.6.6,0,0,1,.4-.1.71.71,0,0,1,.6.6.55.55,0,0,1-.3.5,3.49,3.49,0,0,1-.9.6A5.24,5.24,0,0,1,143.7,233.18Z"/><path class="cls-4" d="M156.5,226.28a4.12,4.12,0,0,1,1.2.1,1.51,1.51,0,0,1,.8.4.86.86,0,0,1,.3.6.6.6,0,0,1-.1.4.52.52,0,0,1-.4.2.37.37,0,0,1-.3-.1c-.1-.1-.2-.1-.2-.2s-.1-.1-.2-.2-.2-.1-.4-.1h-.5a2.66,2.66,0,0,0-1.2.3,3,3,0,0,0-.8.8,2.13,2.13,0,0,0-.3,1.2,2.38,2.38,0,0,0,.3,1.2,2.7,2.7,0,0,0,.7.8,2,2,0,0,0,1.1.3c.2,0,.5,0,.6-.1a.6.6,0,0,1,.4-.1c.1-.1.2-.2.3-.2s.2-.1.4-.1a.52.52,0,0,1,.4.2.6.6,0,0,1,.1.4.55.55,0,0,1-.3.5,1.88,1.88,0,0,1-.9.4,5,5,0,0,1-1.2.2,3.1,3.1,0,0,1-1.7-.5,2.54,2.54,0,0,1-1.1-1.2,4.78,4.78,0,0,1-.4-1.8,3.17,3.17,0,0,1,3.4-3.4Z"/><path class="cls-4" d="M166.5,226.28c.2,0,.3.1.5.2a.76.76,0,0,1,.2.5v5.5c0,.2-.1.3-.2.5a.76.76,0,0,1-.5.2c-.2,0-.3-.1-.5-.2a.76.76,0,0,1-.2-.5v-.9l.3.1a1.69,1.69,0,0,1-.2.5,1.21,1.21,0,0,1-.5.5,2.51,2.51,0,0,1-.7.4,2.92,2.92,0,0,1-.9.2,3,3,0,0,1-1.6-.5,3.18,3.18,0,0,1-1.1-1.2,4.25,4.25,0,0,1,0-3.6,3.18,3.18,0,0,1,1.1-1.2,2.82,2.82,0,0,1,1.5-.4,3,3,0,0,1,1,.2,2.18,2.18,0,0,1,.8.5,2.65,2.65,0,0,1,.5.6,1.42,1.42,0,0,1,.2.6h-.4V227c0-.2.1-.3.2-.5A1.69,1.69,0,0,1,166.5,226.28Zm-2.5,5.8a2.28,2.28,0,0,0,1.1-.3c.4-.2.5-.5.7-.8a2.38,2.38,0,0,0,.3-1.2,2.66,2.66,0,0,0-.3-1.2,1.85,1.85,0,0,0-.7-.8,2,2,0,0,0-1.1-.3,1.69,1.69,0,0,0-1,.3,2.7,2.7,0,0,0-.7.8,2.13,2.13,0,0,0-.3,1.2,2.66,2.66,0,0,0,.3,1.2,1.85,1.85,0,0,0,.7.8A1.49,1.49,0,0,0,164,232.08Z"/><path class="cls-4" d="M170.6,233.08c-.2,0-.3-.1-.5-.2a.76.76,0,0,1-.2-.5V227c0-.2.1-.3.2-.5a.76.76,0,0,1,.5-.2c.2,0,.3.1.5.2a.76.76,0,0,1,.2.5v1.4l-.1-.5c.1-.2.2-.5.3-.7a1.21,1.21,0,0,1,.5-.5,1.61,1.61,0,0,1,.7-.4,2,2,0,0,1,.8-.1,1.42,1.42,0,0,1,.6.2.4.4,0,0,1,.2.4.69.69,0,0,1-.6.7.76.76,0,0,1-.4-.1.6.6,0,0,0-.4-.1.75.75,0,0,0-.5.1,1,1,0,0,0-.5.4c-.1.2-.3.4-.4.6a2,2,0,0,0-.1.8v3c0,.2-.1.3-.2.5C170.9,233,170.8,233.08,170.6,233.08Z"/><path class="cls-4" d="M176.9,233.08c-.2,0-.3-.1-.5-.2a.76.76,0,0,1-.2-.5V227c0-.2.1-.3.2-.5a.76.76,0,0,1,.5-.2c.2,0,.3.1.5.2a.76.76,0,0,1,.2.5v1.4l-.1-.5c.1-.2.2-.5.3-.7a1.21,1.21,0,0,1,.5-.5,1.61,1.61,0,0,1,.7-.4,2,2,0,0,1,.8-.1,1.42,1.42,0,0,1,.6.2.4.4,0,0,1,.2.4.69.69,0,0,1-.6.7.76.76,0,0,1-.4-.1.6.6,0,0,0-.4-.1.75.75,0,0,0-.5.1,1,1,0,0,0-.5.4c-.1.2-.3.4-.4.6a2,2,0,0,0-.1.8v3c0,.2-.1.3-.2.5C177.2,233,177.1,233.08,176.9,233.08Z"/><path class="cls-4" d="M185.6,233.18a3.17,3.17,0,0,1-3.4-3.4,3,3,0,0,1,.5-1.9,3.45,3.45,0,0,1,1.2-1.2,2.82,2.82,0,0,1,1.5-.4,5,5,0,0,1,1.2.2,2.29,2.29,0,0,1,1,.7,3.59,3.59,0,0,1,.7,1,2.77,2.77,0,0,1,.3,1.3.52.52,0,0,1-.2.4.76.76,0,0,1-.4.2h-4.9l-.3-1.1h4.8l-.2.2v-.3a1.14,1.14,0,0,0-.3-.8,1.79,1.79,0,0,0-.7-.5,2.35,2.35,0,0,0-.8-.2,1.48,1.48,0,0,0-.7.1,2.09,2.09,0,0,0-.6.4,1.61,1.61,0,0,0-.4.7,3.59,3.59,0,0,0-.2,1.1,2.13,2.13,0,0,0,.3,1.2,3,3,0,0,0,.8.8,2,2,0,0,0,1.1.3,2,2,0,0,0,.8-.1c.2-.1.4-.1.5-.2s.3-.2.4-.3a.6.6,0,0,1,.4-.1.71.71,0,0,1,.6.6.55.55,0,0,1-.3.5,3.49,3.49,0,0,1-.9.6A5.24,5.24,0,0,1,185.6,233.18Z"/><path class="cls-4" d="M191.5,233.08c-.2,0-.3-.1-.5-.2a.76.76,0,0,1-.2-.5V227c0-.2.1-.3.2-.5a.76.76,0,0,1,.5-.2c.2,0,.3.1.5.2a.76.76,0,0,1,.2.5v1.4l-.1-.5c.1-.2.2-.5.3-.7a1.21,1.21,0,0,1,.5-.5,1.61,1.61,0,0,1,.7-.4,2,2,0,0,1,.8-.1,1.42,1.42,0,0,1,.6.2.4.4,0,0,1,.2.4.69.69,0,0,1-.6.7.76.76,0,0,1-.4-.1.6.6,0,0,0-.4-.1.75.75,0,0,0-.5.1,1,1,0,0,0-.5.4c-.1.2-.3.4-.4.6a2,2,0,0,0-.1.8v3c0,.2-.1.3-.2.5A.72.72,0,0,1,191.5,233.08Z"/><path class="cls-4" d="M202.7,226.28c.2,0,.3.1.5.2a.76.76,0,0,1,.2.5v5.5c0,.2-.1.3-.2.5a.76.76,0,0,1-.5.2c-.2,0-.3-.1-.5-.2a.76.76,0,0,1-.2-.5v-.9l.3.1a1.69,1.69,0,0,1-.2.5,1.21,1.21,0,0,1-.5.5,2.51,2.51,0,0,1-.7.4,2.92,2.92,0,0,1-.9.2,3,3,0,0,1-1.6-.5,3.18,3.18,0,0,1-1.1-1.2,4.25,4.25,0,0,1,0-3.6,3.18,3.18,0,0,1,1.1-1.2,2.82,2.82,0,0,1,1.5-.4,3,3,0,0,1,1,.2,2.18,2.18,0,0,1,.8.5,2.65,2.65,0,0,1,.5.6,1.42,1.42,0,0,1,.2.6H202V227c0-.2.1-.3.2-.5A.76.76,0,0,1,202.7,226.28Zm-2.6,5.8a2.28,2.28,0,0,0,1.1-.3c.4-.2.5-.5.7-.8a2.38,2.38,0,0,0,.3-1.2,2.66,2.66,0,0,0-.3-1.2,1.85,1.85,0,0,0-.7-.8,2,2,0,0,0-1.1-.3,1.69,1.69,0,0,0-1,.3,2.7,2.7,0,0,0-.7.8,2.13,2.13,0,0,0-.3,1.2,2.66,2.66,0,0,0,.3,1.2,1.85,1.85,0,0,0,.7.8A1.49,1.49,0,0,0,200.1,232.08Z"/><path class="cls-4" d="M206.5,233.08a.68.68,0,0,1-.7-.7v-.2a.68.68,0,0,1,.7-.7h.1a.68.68,0,0,1,.7.7v.2a.68.68,0,0,1-.7.7Z"/></g><g class="cls-3"><path class="cls-4" d="M67.8,239.88c.2.1.3.2.3.4s0,.4-.2.5a.52.52,0,0,1-.4.2.6.6,0,0,1-.4-.1,6.89,6.89,0,0,0-.8-.3,2.77,2.77,0,0,0-.9-.1,5.07,5.07,0,0,0-1.3.2,3.59,3.59,0,0,0-1,.7,2.07,2.07,0,0,0-.6,1,5.07,5.07,0,0,0-.2,1.3,5.9,5.9,0,0,0,.2,1.4,2.55,2.55,0,0,0,.7,1,3.33,3.33,0,0,0,1,.6,5,5,0,0,0,1.2.2,2,2,0,0,0,.8-.1c.3-.1.5-.2.8-.3a.62.62,0,0,1,.8.1,1.69,1.69,0,0,1,.2.5c0,.2-.1.3-.3.4a4.88,4.88,0,0,1-.7.3,2.35,2.35,0,0,1-.8.2c-.3,0-.5.1-.8.1a4.67,4.67,0,0,1-1.7-.3,4.19,4.19,0,0,1-1.4-.9,4.51,4.51,0,0,1-1-1.4,5.85,5.85,0,0,1-.4-1.9,4.84,4.84,0,0,1,.3-1.8,3.32,3.32,0,0,1,1-1.4,4.19,4.19,0,0,1,1.4-.9,4.84,4.84,0,0,1,1.8-.3,5,5,0,0,1,1.2.2C67.1,239.58,67.5,239.78,67.8,239.88Z"/><path class="cls-4" d="M76.8,245a3.17,3.17,0,0,1-1.6,3,3.81,3.81,0,0,1-3.4,0,3.5,3.5,0,0,1,0-6,3.37,3.37,0,0,1,1.7-.5,2.62,2.62,0,0,1,1.7.5,3.17,3.17,0,0,1,1.6,3Zm-1.2,0a2.13,2.13,0,0,0-.3-1.2,2,2,0,0,0-.8-.8,2,2,0,0,0-1.1-.3,2.28,2.28,0,0,0-1.1.3,3,3,0,0,0-.8.8,2.13,2.13,0,0,0-.3,1.2,2.66,2.66,0,0,0,.3,1.2,2,2,0,0,0,.8.8,2.17,2.17,0,0,0,2.2,0,2,2,0,0,0,.8-.8A2.66,2.66,0,0,0,75.6,245Z"/><path class="cls-4" d="M82.6,241.48a2,2,0,0,1,1.4.5,2.4,2.4,0,0,1,.7,1.2l-.2-.1.1-.2c.1-.2.3-.4.5-.7a5.55,5.55,0,0,1,.8-.6,3,3,0,0,1,1-.2,2.12,2.12,0,0,1,1.4.4,2.55,2.55,0,0,1,.7,1,5.9,5.9,0,0,1,.2,1.4v3.4c0,.2-.1.3-.2.5a.76.76,0,0,1-.5.2c-.2,0-.3-.1-.5-.2a.76.76,0,0,1-.2-.5v-3.3a2,2,0,0,0-.1-.8,2.09,2.09,0,0,0-.4-.6,1.88,1.88,0,0,0-.8-.2,2.92,2.92,0,0,0-.9.2.9.9,0,0,0-.6.6,1.88,1.88,0,0,0-.2.8v3.3c0,.2-.1.3-.2.5a.76.76,0,0,1-.5.2c-.2,0-.3-.1-.5-.2a.76.76,0,0,1-.2-.5v-3.4a2,2,0,0,0-.1-.8,2.09,2.09,0,0,0-.4-.6,1.88,1.88,0,0,0-.8-.2,2.92,2.92,0,0,0-.9.2.9.9,0,0,0-.6.6,1.88,1.88,0,0,0-.2.8v3.4c0,.2-.1.3-.2.5a.76.76,0,0,1-.5.2c-.2,0-.3-.1-.5-.2a.76.76,0,0,1-.2-.5v-5.4c0-.2.1-.3.2-.5a.76.76,0,0,1,.5-.2c.2,0,.3.1.5.2a.76.76,0,0,1,.2.5v.7l-.2.1.3-.6a1.21,1.21,0,0,1,.5-.5,1.61,1.61,0,0,1,.7-.4A2.72,2.72,0,0,0,82.6,241.48Z"/><path class="cls-4" d="M92.5,240.68a.75.75,0,0,1-.5-.1.59.59,0,0,1-.2-.5V240c0-.2.1-.4.2-.4a.75.75,0,0,1,.5-.1c.3,0,.4,0,.5.1a.52.52,0,0,1,.2.4v.2a.76.76,0,0,1-.2.5Zm.6,7c0,.2-.1.3-.2.5a.76.76,0,0,1-.5.2c-.2,0-.3-.1-.5-.2a.76.76,0,0,1-.2-.5v-5.4c0-.2.1-.3.2-.5a.76.76,0,0,1,.5-.2c.2,0,.3.1.5.2a.76.76,0,0,1,.2.5Z"/><path class="cls-4" d="M98.9,248.38a3.17,3.17,0,0,1-3.4-3.4,3,3,0,0,1,.5-1.9,3.45,3.45,0,0,1,1.2-1.2,2.82,2.82,0,0,1,1.5-.4,5,5,0,0,1,1.2.2,2.29,2.29,0,0,1,1,.7,3.59,3.59,0,0,1,.7,1,2.77,2.77,0,0,1,.3,1.3.52.52,0,0,1-.2.4.76.76,0,0,1-.4.2H96.2l-.3-1.1h4.8l-.2.2v-.3a1.14,1.14,0,0,0-.3-.8,1.79,1.79,0,0,0-.7-.5,2.35,2.35,0,0,0-.8-.2,1.48,1.48,0,0,0-.7.1,2.09,2.09,0,0,0-.6.4,1.61,1.61,0,0,0-.4.7,3.59,3.59,0,0,0-.2,1.1,2.13,2.13,0,0,0,.3,1.2,3,3,0,0,0,.8.8,2,2,0,0,0,1.1.3,2,2,0,0,0,.8-.1c.2-.1.4-.1.5-.2s.3-.2.4-.3a.6.6,0,0,1,.4-.1.71.71,0,0,1,.6.6.55.55,0,0,1-.3.5,3.49,3.49,0,0,1-.9.6A4.14,4.14,0,0,1,98.9,248.38Z"/><path class="cls-4" d="M107.6,241.48a2,2,0,0,1,1.4.4,1.83,1.83,0,0,1,.7,1,5.9,5.9,0,0,1,.2,1.4v3.4c0,.2-.1.3-.2.5a.76.76,0,0,1-.5.2c-.2,0-.3-.1-.5-.2a.76.76,0,0,1-.2-.5v-3.4a2,2,0,0,0-.1-.8,2.09,2.09,0,0,0-.4-.6,2,2,0,0,0-.9-.2,2.39,2.39,0,0,0-.9.2.9.9,0,0,0-.6.6,1.88,1.88,0,0,0-.2.8v3.4c0,.2-.1.3-.2.5a.76.76,0,0,1-.5.2c-.2,0-.3-.1-.5-.2a.76.76,0,0,1-.2-.5v-5.4c0-.2.1-.3.2-.5a.76.76,0,0,1,.5-.2c.2,0,.3.1.5.2a.76.76,0,0,1,.2.5v.7l-.2.1.3-.6a1.21,1.21,0,0,1,.5-.5,1.61,1.61,0,0,1,.7-.4A2.77,2.77,0,0,1,107.6,241.48Z"/><path class="cls-4" d="M116.9,247.08a.57.57,0,0,1,.4,1,.76.76,0,0,1-.4.2h-4.1a.52.52,0,0,1-.4-.2c-.1-.1-.2-.3-.1-.4v-.3c0-.1.1-.2.1-.3l3.4-4.5v.2H113a.52.52,0,0,1-.4-.2.76.76,0,0,1-.2-.4.52.52,0,0,1,.2-.4.76.76,0,0,1,.4-.2h3.9a.52.52,0,0,1,.4.2.44.44,0,0,1,.1.5v.2a.35.35,0,0,1-.1.2l-3.3,4.4-.1-.1h3Z"/><path class="cls-4" d="M126.1,245a3.17,3.17,0,0,1-1.6,3,3.81,3.81,0,0,1-3.4,0,3.5,3.5,0,0,1-1.7-3,2.73,2.73,0,0,1,.5-1.8,3.45,3.45,0,0,1,1.2-1.2,3.37,3.37,0,0,1,1.7-.5,2.62,2.62,0,0,1,1.7.5,3.17,3.17,0,0,1,1.6,3Zm-1.2,0a2.13,2.13,0,0,0-.3-1.2,2,2,0,0,0-.8-.8,2,2,0,0,0-1.1-.3,2.28,2.28,0,0,0-1.1.3,3,3,0,0,0-.8.8,2.13,2.13,0,0,0-.3,1.2,2.66,2.66,0,0,0,.3,1.2,2,2,0,0,0,.8.8,2,2,0,0,0,1.1.3,2.28,2.28,0,0,0,1.1-.3,3,3,0,0,0,.8-.8A2.66,2.66,0,0,0,124.9,245Z"/><path class="cls-4" d="M136.4,241.48a2,2,0,0,1,1.4.5,2.4,2.4,0,0,1,.7,1.2l-.2-.1.1-.2c.1-.2.3-.4.5-.7a5.55,5.55,0,0,1,.8-.6,3,3,0,0,1,1-.2,2.12,2.12,0,0,1,1.4.4,2.55,2.55,0,0,1,.7,1,3.18,3.18,0,0,1,.2,1.4v3.4c0,.2-.1.3-.2.5a.76.76,0,0,1-.5.2c-.2,0-.3-.1-.5-.2a.76.76,0,0,1-.2-.5v-3.3a2,2,0,0,0-.1-.8,2.09,2.09,0,0,0-.4-.6,1.88,1.88,0,0,0-.8-.2,2.92,2.92,0,0,0-.9.2.9.9,0,0,0-.6.6,1.88,1.88,0,0,0-.2.8v3.3c0,.2-.1.3-.2.5a.76.76,0,0,1-.5.2c-.2,0-.3-.1-.5-.2a.76.76,0,0,1-.2-.5v-3.4a2,2,0,0,0-.1-.8,2.09,2.09,0,0,0-.4-.6,1.88,1.88,0,0,0-.8-.2,2.92,2.92,0,0,0-.9.2.9.9,0,0,0-.6.6,1.88,1.88,0,0,0-.2.8v3.4c0,.2-.1.3-.2.5a.76.76,0,0,1-.5.2c-.2,0-.3-.1-.5-.2a.76.76,0,0,1-.2-.5v-5.4c0-.2.1-.3.2-.5a.76.76,0,0,1,.5-.2c.2,0,.3.1.5.2a.76.76,0,0,1,.2.5v.7l-.2.1.3-.6a1.21,1.21,0,0,1,.5-.5,1.61,1.61,0,0,1,.7-.4A2.7,2.7,0,0,0,136.4,241.48Z"/><path class="cls-4" d="M146.3,240.68a.75.75,0,0,1-.5-.1.59.59,0,0,1-.2-.5V240c0-.2.1-.4.2-.4a.75.75,0,0,1,.5-.1c.3,0,.4,0,.5.1a.52.52,0,0,1,.2.4v.2a.76.76,0,0,1-.2.5Zm.6,7c0,.2-.1.3-.2.5a.76.76,0,0,1-.5.2c-.2,0-.3-.1-.5-.2a.76.76,0,0,1-.2-.5v-5.4c0-.2.1-.3.2-.5a.76.76,0,0,1,.5-.2c.2,0,.3.1.5.2a.76.76,0,0,1,.2.5Z"/><path class="cls-4" d="M149.2,247.28a.6.6,0,0,1-.1-.4c0-.2.1-.3.3-.4s.2-.1.4-.1a.76.76,0,0,1,.4.2,1.56,1.56,0,0,0,.8.6,1.82,1.82,0,0,0,1.1.2.9.9,0,0,0,.5-.1c.2,0,.3-.1.5-.3a.72.72,0,0,0,0-1,2.19,2.19,0,0,0-.5-.3,1.85,1.85,0,0,0-.7-.2c-.3-.1-.5-.2-.8-.3a1.61,1.61,0,0,1-.7-.4,1,1,0,0,1-.5-.6,2,2,0,0,1-.2-.9,1.69,1.69,0,0,1,.3-1,2.18,2.18,0,0,1,.9-.7,2.54,2.54,0,0,1,1.2-.2,2.2,2.2,0,0,1,.8.1c.3.1.5.2.8.3a1.79,1.79,0,0,1,.7.5c.1.1.1.2.1.4a.52.52,0,0,1-.2.4c-.1.1-.2.1-.4.1s-.3-.1-.4-.1a2.65,2.65,0,0,0-.6-.5,2.39,2.39,0,0,0-.9-.2.9.9,0,0,0-.5.1.52.52,0,0,0-.4.2.73.73,0,0,0,0,1,1.63,1.63,0,0,0,.6.3,1.85,1.85,0,0,0,.7.2c.3.1.5.1.8.2a1.61,1.61,0,0,1,.7.4,1,1,0,0,1,.5.6,2.39,2.39,0,0,1,.2.9,1.5,1.5,0,0,1-.4,1.1,3.11,3.11,0,0,1-.9.7,2.54,2.54,0,0,1-1.2.2,3.19,3.19,0,0,1-1.4-.3A2,2,0,0,1,149.2,247.28Z"/><path class="cls-4" d="M164.3,248.38a3.17,3.17,0,0,1-3.4-3.4,3,3,0,0,1,.5-1.9,3.45,3.45,0,0,1,1.2-1.2,2.82,2.82,0,0,1,1.5-.4,5,5,0,0,1,1.2.2,2.29,2.29,0,0,1,1,.7,3.59,3.59,0,0,1,.7,1,2.77,2.77,0,0,1,.3,1.3.52.52,0,0,1-.2.4.76.76,0,0,1-.4.2h-4.9l-.3-1.1h4.8l-.2.2v-.3a1.14,1.14,0,0,0-.3-.8,1.79,1.79,0,0,0-.7-.5,2.35,2.35,0,0,0-.8-.2,1.48,1.48,0,0,0-.7.1,2.09,2.09,0,0,0-.6.4,1.61,1.61,0,0,0-.4.7,3.59,3.59,0,0,0-.2,1.1,2.13,2.13,0,0,0,.3,1.2,3,3,0,0,0,.8.8,2,2,0,0,0,1.1.3,2,2,0,0,0,.8-.1c.2-.1.4-.1.5-.2s.3-.2.4-.3a.6.6,0,0,1,.4-.1.71.71,0,0,1,.6.6.55.55,0,0,1-.3.5,3.49,3.49,0,0,1-.9.6A5.54,5.54,0,0,1,164.3,248.38Z"/><path class="cls-4" d="M169.2,247.28a.6.6,0,0,1-.1-.4c0-.2.1-.3.3-.4s.2-.1.4-.1a.76.76,0,0,1,.4.2,1.56,1.56,0,0,0,.8.6,1.82,1.82,0,0,0,1.1.2.9.9,0,0,0,.5-.1c.2,0,.3-.1.5-.3a.72.72,0,0,0,0-1,2.19,2.19,0,0,0-.5-.3,1.85,1.85,0,0,0-.7-.2c-.3-.1-.5-.2-.8-.3a1.61,1.61,0,0,1-.7-.4,1,1,0,0,1-.5-.6,2,2,0,0,1-.2-.9,1.69,1.69,0,0,1,.3-1,2.18,2.18,0,0,1,.9-.7,2.54,2.54,0,0,1,1.2-.2,2.2,2.2,0,0,1,.8.1c.3.1.5.2.8.3a1.79,1.79,0,0,1,.7.5c.1.1.1.2.1.4a.52.52,0,0,1-.2.4c-.1.1-.2.1-.4.1s-.3-.1-.4-.1a2.65,2.65,0,0,0-.6-.5,2.39,2.39,0,0,0-.9-.2.9.9,0,0,0-.5.1.52.52,0,0,0-.4.2.73.73,0,0,0,0,1,1.63,1.63,0,0,0,.6.3,1.85,1.85,0,0,0,.7.2c.3.1.5.1.8.2a1.61,1.61,0,0,1,.7.4,1,1,0,0,1,.5.6,2.39,2.39,0,0,1,.2.9,1.5,1.5,0,0,1-.4,1.1,3.11,3.11,0,0,1-.9.7,2.54,2.54,0,0,1-1.2.2,3.19,3.19,0,0,1-1.4-.3A1.68,1.68,0,0,1,169.2,247.28Z"/><path class="cls-4" d="M176.5,241.68h3a.52.52,0,0,1,.4.2.6.6,0,0,1-.4,1h-3a.52.52,0,0,1-.4-.2.6.6,0,0,1,.4-1Zm1.4-1.6c.2,0,.3.1.5.2a.76.76,0,0,1,.2.5v5.9c0,.2,0,.3.1.4s.1.2.2.2.2.1.3.1.2,0,.2-.1.2-.1.3-.1a.37.37,0,0,1,.3.1c.1.1.1.2.1.4a.55.55,0,0,1-.3.5,1.85,1.85,0,0,1-.7.2h-.5a1.42,1.42,0,0,1-.6-.2c-.2-.1-.3-.3-.5-.5a2,2,0,0,1-.2-.9v-5.9c0-.2.1-.3.2-.5S177.7,240.08,177.9,240.08Z"/><path class="cls-4" d="M187.5,241.58c.2,0,.3.1.5.2a.76.76,0,0,1,.2.5v3.3a2.81,2.81,0,1,1-5.6,0v-3.3c0-.2.1-.3.2-.5a.76.76,0,0,1,.5-.2c.2,0,.3.1.5.2a.76.76,0,0,1,.2.5v3.3a1.46,1.46,0,0,0,.4,1.2,1.82,1.82,0,0,0,1.1.4,1.25,1.25,0,0,0,1.1-.4,1.59,1.59,0,0,0,.4-1.2v-3.3c0-.2.1-.3.2-.5C187.1,241.68,187.3,241.58,187.5,241.58Z"/><path class="cls-4" d="M196.3,238.88c.2,0,.3.1.5.2a.76.76,0,0,1,.2.5v8.1c0,.2-.1.3-.2.5a.76.76,0,0,1-.5.2c-.2,0-.3-.1-.5-.2a.76.76,0,0,1-.2-.5v-.9h.3c0,.2-.1.3-.2.5a1.21,1.21,0,0,1-.5.5,2.51,2.51,0,0,1-.7.4,2.92,2.92,0,0,1-.9.2,3,3,0,0,1-1.6-.5,3.18,3.18,0,0,1-1.1-1.2,4.25,4.25,0,0,1,0-3.6,3.18,3.18,0,0,1,1.1-1.2,2.54,2.54,0,0,1,2.5-.3,2.18,2.18,0,0,1,.8.5,2.65,2.65,0,0,1,.5.6,1.42,1.42,0,0,1,.2.6h-.4v-3.8c0-.2.1-.3.2-.5C196,239,196.1,238.88,196.3,238.88Zm-2.6,8.4a2,2,0,0,0,1.1-.3,2.7,2.7,0,0,0,.7-.8,2.13,2.13,0,0,0,.3-1.2,2.38,2.38,0,0,0-.3-1.2,2.7,2.7,0,0,0-.7-.8,2,2,0,0,0-1.1-.3,1.69,1.69,0,0,0-1,.3,2.7,2.7,0,0,0-.7.8,2.13,2.13,0,0,0-.3,1.2,2.38,2.38,0,0,0,.3,1.2,2.7,2.7,0,0,0,.7.8A1.93,1.93,0,0,0,193.7,247.28Z"/><path class="cls-4" d="M200.3,240.68a.75.75,0,0,1-.5-.1.59.59,0,0,1-.2-.5V240c0-.2.1-.4.2-.4a.75.75,0,0,1,.5-.1c.3,0,.4,0,.5.1a.52.52,0,0,1,.2.4v.2a.76.76,0,0,1-.2.5Zm.6,7c0,.2-.1.3-.2.5a.76.76,0,0,1-.5.2c-.2,0-.3-.1-.5-.2a.76.76,0,0,1-.2-.5v-5.4c0-.2.1-.3.2-.5a.76.76,0,0,1,.5-.2c.2,0,.3.1.5.2a.76.76,0,0,1,.2.5Z"/><path class="cls-4" d="M210,245a3.17,3.17,0,0,1-1.6,3,3.81,3.81,0,0,1-3.4,0,3.5,3.5,0,0,1-1.7-3,2.73,2.73,0,0,1,.5-1.8A3.45,3.45,0,0,1,205,242a3.37,3.37,0,0,1,1.7-.5,2.62,2.62,0,0,1,1.7.5,3.17,3.17,0,0,1,1.6,3Zm-1.3,0a2.13,2.13,0,0,0-.3-1.2,2,2,0,0,0-.8-.8,2,2,0,0,0-1.1-.3,2.28,2.28,0,0,0-1.1.3,3,3,0,0,0-.8.8,2.13,2.13,0,0,0-.3,1.2,2.66,2.66,0,0,0,.3,1.2,2,2,0,0,0,.8.8,2,2,0,0,0,1.1.3,2.28,2.28,0,0,0,1.1-.3,3,3,0,0,0,.8-.8A1.8,1.8,0,0,0,208.7,245Z"/><path class="cls-4" d="M212,247.28a.6.6,0,0,1-.1-.4c0-.2.1-.3.3-.4s.2-.1.4-.1a.76.76,0,0,1,.4.2,1.56,1.56,0,0,0,.8.6,1.82,1.82,0,0,0,1.1.2.9.9,0,0,0,.5-.1c.2,0,.3-.1.5-.3a.73.73,0,0,0,0-1,2.19,2.19,0,0,0-.5-.3,1.85,1.85,0,0,0-.7-.2c-.3-.1-.5-.2-.8-.3a1.61,1.61,0,0,1-.7-.4,1,1,0,0,1-.5-.6,2,2,0,0,1-.2-.9,1.69,1.69,0,0,1,.3-1,2.18,2.18,0,0,1,.9-.7,2.54,2.54,0,0,1,1.2-.2,2.2,2.2,0,0,1,.8.1c.3.1.5.2.8.3a1.79,1.79,0,0,1,.7.5c.1.1.1.2.1.4a.52.52,0,0,1-.2.4c-.1.1-.2.1-.4.1s-.3-.1-.4-.1a2.65,2.65,0,0,0-.6-.5,2.39,2.39,0,0,0-.9-.2.9.9,0,0,0-.5.1.52.52,0,0,0-.4.2.72.72,0,0,0,0,1,1.63,1.63,0,0,0,.6.3,1.85,1.85,0,0,0,.7.2c.3.1.5.1.8.2a1.61,1.61,0,0,1,.7.4,1,1,0,0,1,.5.6,2.39,2.39,0,0,1,.2.9,1.5,1.5,0,0,1-.4,1.1,3.11,3.11,0,0,1-.9.7,2.54,2.54,0,0,1-1.2.2,3.19,3.19,0,0,1-1.4-.3A2,2,0,0,1,212,247.28Z"/></g><g class="cls-3"><path class="cls-4" d="M121.8,263.58a3.17,3.17,0,0,1-3.4-3.4,3,3,0,0,1,.5-1.9,3.45,3.45,0,0,1,1.2-1.2,2.82,2.82,0,0,1,1.5-.4,5,5,0,0,1,1.2.2,2.29,2.29,0,0,1,1,.7,3.59,3.59,0,0,1,.7,1,2.77,2.77,0,0,1,.3,1.3.52.52,0,0,1-.2.4.76.76,0,0,1-.4.2h-4.9l-.3-1.1h4.8l-.2.2v-.3a1.14,1.14,0,0,0-.3-.8,1.79,1.79,0,0,0-.7-.5,2.35,2.35,0,0,0-.8-.2,1.48,1.48,0,0,0-.7.1,2.09,2.09,0,0,0-.6.4,1.61,1.61,0,0,0-.4.7,3.59,3.59,0,0,0-.2,1.1,2.13,2.13,0,0,0,.3,1.2,3,3,0,0,0,.8.8,2,2,0,0,0,1.1.3,2,2,0,0,0,.8-.1c.2-.1.4-.1.5-.2s.3-.2.4-.3.2-.1.4-.1a.71.71,0,0,1,.6.6.55.55,0,0,1-.3.5,3.49,3.49,0,0,1-.9.6A7.29,7.29,0,0,1,121.8,263.58Z"/><path class="cls-4" d="M130.5,256.68a2,2,0,0,1,1.4.4,1.83,1.83,0,0,1,.7,1,5.9,5.9,0,0,1,.2,1.4v3.4c0,.2-.1.3-.2.5a.76.76,0,0,1-.5.2c-.2,0-.3-.1-.5-.2a.76.76,0,0,1-.2-.5v-3.4a2,2,0,0,0-.1-.8,2.09,2.09,0,0,0-.4-.6,2,2,0,0,0-.9-.2,2.39,2.39,0,0,0-.9.2.9.9,0,0,0-.6.6,1.88,1.88,0,0,0-.2.8v3.4c0,.2-.1.3-.2.5a.76.76,0,0,1-.5.2c-.2,0-.3-.1-.5-.2a.76.76,0,0,1-.2-.5v-5.4c0-.2.1-.3.2-.5a.76.76,0,0,1,.5-.2c.2,0,.3.1.5.2a.76.76,0,0,1,.2.5v.7l-.2.1.3-.6a1.21,1.21,0,0,1,.5-.5,1.61,1.61,0,0,1,.7-.4A2.77,2.77,0,0,1,130.5,256.68Z"/><path class="cls-4" d="M141.5,262.88c0,.2-.1.3-.2.5a.7.7,0,0,1-1.2-.5v-7.6c0-.2.1-.3.2-.5a.76.76,0,0,1,.5-.2c.2,0,.3.1.5.2a.76.76,0,0,1,.2.5Z"/><path class="cls-4" d="M144.6,255.78c-.2,0-.3-.1-.5-.2a.4.4,0,0,1-.2-.4.52.52,0,0,1,.2-.4.76.76,0,0,1,.5-.2h5.8c.2,0,.3.1.5.2a.4.4,0,0,1,.2.4.52.52,0,0,1-.2.4.76.76,0,0,1-.5.2Zm2.9,7.7a.68.68,0,0,1-.7-.7v-7.6h1.4v7.6c0,.2-.1.3-.2.5S147.7,263.48,147.5,263.48Z"/><path class="cls-4" d="M153.7,263.48a.68.68,0,0,1-.7-.7v-.2a.68.68,0,0,1,.7-.7h.1a.68.68,0,0,1,.7.7v.2a.68.68,0,0,1-.7.7Z"/></g><path class="cls-2" d="M235,207.25H34.1V174.74c0-14,11-25.39,24.6-25.39H210.4c13.6,0,24.6,11.35,24.6,25.39v32.51Z"/><g class="cls-3"><path d="M63.2,195.65c-.2,0-.3,0-.4-.1s-.2-.2-.2-.3v-10.6a.37.37,0,0,1,.1-.3c.1-.1.2-.1.4-.1h4.5a3.29,3.29,0,0,1,1.7.4,3.18,3.18,0,0,1,1.2,1.1,2.93,2.93,0,0,1,.4,1.6,2.77,2.77,0,0,1-.3,1.3,3.59,3.59,0,0,1-.7,1,2.38,2.38,0,0,1-1.1.6l-.6-.2a2.1,2.1,0,0,1,1.1.4,2.58,2.58,0,0,1,.9.9,3.19,3.19,0,0,1,.3,1.4,3.42,3.42,0,0,0,.1,1.1.85.85,0,0,0,.2.6l.3.3c.1.1.2.2.2.3v.3a.22.22,0,0,1-.2.2c-.1,0-.2.1-.3.1s-.2,0-.2-.1a1.76,1.76,0,0,1-.5-.4,2,2,0,0,1-.4-.8,6.05,6.05,0,0,1-.2-1.5,2.51,2.51,0,0,0-.2-1,1,1,0,0,0-.5-.6,2.12,2.12,0,0,0-.7-.3c-.2,0-.5-.1-.7-.1H63.6l.2-.2v4.7a.37.37,0,0,1-.1.3Zm.3-5.8h4.1a1.78,1.78,0,0,0,1-.4,2.36,2.36,0,0,0,.8-.9,2.77,2.77,0,0,0,.3-1.3,2.45,2.45,0,0,0-.6-1.6,2,2,0,0,0-1.7-.6H63.5l.1-.2v5.2Z"/><path d="M74.2,184.05h6a.6.6,0,0,1,.4.1c.1.1.1.2.1.4s0,.3-.1.3-.2.1-.4.1H74.5l.2-.3v4.6l-.2-.2h4.9a.6.6,0,0,1,.4.1.37.37,0,0,1,.1.3c0,.1,0,.3-.1.3s-.2.1-.4.1H74.5l.1-.2v4.8l-.1-.1h5.6a.6.6,0,0,1,.4.1.37.37,0,0,1,.1.3c0,.1,0,.3-.1.3s-.2.1-.4.1h-6a.6.6,0,0,1-.4-.1.37.37,0,0,1-.1-.3v-10.6a.37.37,0,0,1,.1-.3C73.9,184.15,74,184.05,74.2,184.05Z"/><path d="M86.9,185.35l-4,10a.22.22,0,0,1-.2.2.37.37,0,0,1-.3.1c-.2,0-.3,0-.4-.1a.37.37,0,0,1-.1-.3v-.2l4.4-10.7c0-.1.1-.2.2-.3s.2-.1.3-.1a.37.37,0,0,1,.3.1l.2.2,4.3,10.6v.2c0,.2,0,.3-.1.4a.5.5,0,0,1-.6,0l-.2-.2-4.1-10Zm-3,7,.4-1h5.1l.2,1Z"/><path d="M102.2,185c.1.1.2.2.2.3a.6.6,0,0,1-.1.4c-.1.1-.2.2-.3.2a.76.76,0,0,1-.4-.1,3.79,3.79,0,0,0-1.3-.6,6.8,6.8,0,0,0-1.5-.2,4.06,4.06,0,0,0-1.9.4,5.6,5.6,0,0,0-1.5,1,4.35,4.35,0,0,0-1,1.6,6.47,6.47,0,0,0-.4,2,4.21,4.21,0,0,0,.4,2,8.64,8.64,0,0,0,1,1.6,4,4,0,0,0,1.5,1,5.82,5.82,0,0,0,1.9.3,7.72,7.72,0,0,0,1.5-.2c.5-.2.9-.4,1.3-.6a.37.37,0,0,1,.3-.1c.1,0,.2.1.3.2a.6.6,0,0,1,.1.4c0,.1-.1.2-.2.3a9.29,9.29,0,0,1-1,.5,5.64,5.64,0,0,1-1.2.4,5.28,5.28,0,0,1-1.3.1,5.38,5.38,0,0,1-2.2-.4,7.61,7.61,0,0,1-1.9-1.2,4.31,4.31,0,0,1-1.3-1.9,6,6,0,0,1-.5-2.4,6.44,6.44,0,0,1,.5-2.4,7.61,7.61,0,0,1,1.2-1.9,4.14,4.14,0,0,1,1.9-1.2,5.87,5.87,0,0,1,2.3-.4,5.66,5.66,0,0,1,1.8.3A3.22,3.22,0,0,1,102.2,185Z"/><path d="M104,185.05a.35.35,0,0,1-.4-.4c0-.1,0-.3.1-.3a.37.37,0,0,1,.3-.1h7.8a.6.6,0,0,1,.4.1.37.37,0,0,1,.1.3c0,.1,0,.3-.1.3s-.2.1-.4.1Zm4,10.6c-.2,0-.3,0-.4-.1a.37.37,0,0,1-.1-.3v-10.5h1v10.5a.37.37,0,0,1-.1.3A.76.76,0,0,1,108,195.65Z"/><path d="M123.7,184.05a4.65,4.65,0,0,1,2.1.5,3.74,3.74,0,0,1,1.5,1.3,5.57,5.57,0,0,1,.9,1.9,7.8,7.8,0,0,1,.3,2.2,8.81,8.81,0,0,1-.5,2.9,4.25,4.25,0,0,1-1.6,2.1,4.55,4.55,0,0,1-2.7.8h-4.2a.6.6,0,0,1-.4-.1.37.37,0,0,1-.1-.3v-10.6a.37.37,0,0,1,.1-.3c.1-.1.2-.1.4-.1h4.2Zm-.1,10.6a4.14,4.14,0,0,0,2.3-.6,3.71,3.71,0,0,0,1.3-1.7,6.05,6.05,0,0,0,.4-2.4,11,11,0,0,0-.2-1.8,3.48,3.48,0,0,0-.7-1.5,4.26,4.26,0,0,0-1.2-1.1,3.42,3.42,0,0,0-1.8-.4h-3.6l.1-.1V195l-.1-.2h3.5Z"/><path d="M131.4,184.05h6a.6.6,0,0,1,.4.1c.1.1.1.2.1.4s0,.3-.1.3-.2.1-.4.1h-5.7l.2-.3v4.6l-.2-.2h4.9a.6.6,0,0,1,.4.1.37.37,0,0,1,.1.3c0,.1,0,.3-.1.3s-.2.1-.4.1h-4.9l.1-.2v4.8l-.1-.1h5.6a.6.6,0,0,1,.4.1.37.37,0,0,1,.1.3c0,.1,0,.3-.1.3s-.2.1-.4.1h-6a.6.6,0,0,1-.4-.1.37.37,0,0,1-.1-.3v-10.6a.37.37,0,0,1,.1-.3A.42.42,0,0,0,131.4,184.05Z"/><path d="M148.7,184.05c.2,0,.3,0,.4.1a.37.37,0,0,1,.1.3v.2l-4.4,10.5c-.1.1-.1.2-.2.2a.5.5,0,0,1-.6,0l-.2-.2-4.4-10.5v-.2a.52.52,0,0,1,.2-.4.37.37,0,0,1,.3-.1.51.51,0,0,1,.5.4l4.1,9.9h-.3l4.1-9.9C148.3,184.15,148.5,184.05,148.7,184.05Z"/><path d="M151.8,184.05h6a.6.6,0,0,1,.4.1c.1.1.1.2.1.4s0,.3-.1.3-.2.1-.4.1h-5.6l.2-.3v4.6l-.2-.2h4.9a.6.6,0,0,1,.4.1.37.37,0,0,1,.1.3c0,.1,0,.3-.1.3s-.2.1-.4.1h-4.9l.1-.2v4.8l-.1-.1h5.6a.6.6,0,0,1,.4.1.37.37,0,0,1,.1.3c0,.1,0,.3-.1.3s-.2.1-.4.1h-6a.6.6,0,0,1-.4-.1.37.37,0,0,1-.1-.3v-10.6a.37.37,0,0,1,.1-.3C151.5,184.15,151.6,184.05,151.8,184.05Z"/><path d="M167,194.65a.6.6,0,0,1,.4.1.37.37,0,0,1,.1.3.6.6,0,0,1-.1.4c-.1.1-.2.1-.4.1h-5.8a.6.6,0,0,1-.4-.1.37.37,0,0,1-.1-.3v-10.6a.37.37,0,0,1,.1-.3c.1-.1.2-.1.4-.1a.6.6,0,0,1,.4.1c.1.1.2.2.2.3V195l-.3-.3Z"/><path d="M179.8,189.85a6.05,6.05,0,0,1-.4,2.4,11.78,11.78,0,0,1-1.1,1.9,5.67,5.67,0,0,1-1.8,1.2,5.38,5.38,0,0,1-2.2.4,5.09,5.09,0,0,1-2.2-.4,7.07,7.07,0,0,1-1.8-1.2,6.15,6.15,0,0,1-1.2-1.9,7.4,7.4,0,0,1,0-4.8,7.61,7.61,0,0,1,1.2-1.9,5.67,5.67,0,0,1,1.8-1.2,6.25,6.25,0,0,1,4.4,0,5.67,5.67,0,0,1,1.8,1.2,4.53,4.53,0,0,1,1.1,1.9A9.27,9.27,0,0,1,179.8,189.85Zm-1.1,0a5.54,5.54,0,0,0-.6-2.6,4.41,4.41,0,0,0-7.8,0,5.26,5.26,0,0,0-.6,2.6,5.54,5.54,0,0,0,.6,2.6,4.36,4.36,0,0,0,1.6,1.7,4.65,4.65,0,0,0,2.3.6,4.14,4.14,0,0,0,2.3-.6,4.36,4.36,0,0,0,1.6-1.7A5.26,5.26,0,0,0,178.7,189.85Z"/><path d="M186.5,184.05a2.73,2.73,0,0,1,1.6.4,3.18,3.18,0,0,1,1.1,1.2,3.81,3.81,0,0,1,0,3.4,4.26,4.26,0,0,1-1.1,1.2,2.93,2.93,0,0,1-1.6.4H183l.1-.1v4.5a.35.35,0,0,1-.4.4c-.2,0-.3,0-.4-.1a.37.37,0,0,1-.1-.3v-10.6a.37.37,0,0,1,.1-.3c.1-.1.2-.1.4-.1Zm0,5.8a2,2,0,0,0,1.1-.3,2.36,2.36,0,0,0,.8-.9,2.66,2.66,0,0,0,.3-1.2,2.13,2.13,0,0,0-.3-1.2,2,2,0,0,0-.8-.8,2.28,2.28,0,0,0-1.1-.3H183l.1-.1v5l-.1-.1h3.5Z"/><path d="M192.5,184.05h6a.6.6,0,0,1,.4.1c.1.1.1.2.1.4s0,.3-.1.3-.2.1-.4.1h-5.7l.2-.3v4.6l-.2-.2h4.9a.6.6,0,0,1,.4.1.37.37,0,0,1,.1.3c0,.1,0,.3-.1.3s-.2.1-.4.1h-4.9l.1-.2v4.8l-.1-.1h5.6a.6.6,0,0,1,.4.1.37.37,0,0,1,.1.3c0,.1,0,.3-.1.3s-.2.1-.4.1h-6a.6.6,0,0,1-.4-.1.37.37,0,0,1-.1-.3v-10.6a.37.37,0,0,1,.1-.3C192.2,184.15,192.3,184.05,192.5,184.05Z"/><path d="M201.9,195.65c-.2,0-.3,0-.4-.1s-.2-.2-.2-.3v-10.6a.37.37,0,0,1,.1-.3c.1-.1.2-.1.4-.1h4.5a3.29,3.29,0,0,1,1.7.4,3.18,3.18,0,0,1,1.2,1.1,2.93,2.93,0,0,1,.4,1.6,2.77,2.77,0,0,1-.3,1.3,3.59,3.59,0,0,1-.7,1,2.38,2.38,0,0,1-1.1.6l-.6-.2a2.1,2.1,0,0,1,1.1.4,2.58,2.58,0,0,1,.9.9,3.19,3.19,0,0,1,.3,1.4,3.42,3.42,0,0,0,.1,1.1.85.85,0,0,0,.2.6l.3.3c.1.1.2.2.2.3v.3a.22.22,0,0,1-.2.2c-.1,0-.2.1-.3.1s-.2,0-.2-.1a1.76,1.76,0,0,1-.5-.4,2,2,0,0,1-.4-.8,6.05,6.05,0,0,1-.2-1.5,2.51,2.51,0,0,0-.2-1,1,1,0,0,0-.5-.6,2.12,2.12,0,0,0-.7-.3c-.2,0-.5-.1-.7-.1h-3.8l.2-.2v4.7a.37.37,0,0,1-.1.3Zm.3-5.8h4.1a1.78,1.78,0,0,0,1-.4,2.36,2.36,0,0,0,.8-.9,2.77,2.77,0,0,0,.3-1.3,2.45,2.45,0,0,0-.6-1.6,2.35,2.35,0,0,0-1.7-.6h-3.9l.1-.2v5.2Z"/></g><path class="cls-5" d="M181.12,48.32a219.93,219.93,0,0,1,26.68-.27,157.05,157.05,0,0,0-8.11,34.71,45.61,45.61,0,0,0-5-.09c-5.32.18-10.64.27-15.78,0-1.17-6.58.64-13.25,1.54-19.92A70.77,70.77,0,0,0,181.12,48.32Z"/><path d="M185.63,83.12c-2.26,0-4.51,0-6.68-.18a.19.19,0,0,1-.18-.18c-.9-5.14,0-10.37.82-15.41.27-1.54.54-3.07.72-4.6a65,65,0,0,0,.54-14.43c0-.09.09-.27.18-.27a219.93,219.93,0,0,1,26.68-.27c.09,0,.18,0,.18.09s.09.18,0,.18a155.4,155.4,0,0,0-8.11,34.62c0,.09-.09.18-.27.18a45.61,45.61,0,0,0-5-.09C191.76,83,188.69,83.12,185.63,83.12Zm-6.5-.63c5.14.27,10.46.09,15.6,0,1.53,0,3.16-.09,4.78,0a161.68,161.68,0,0,1,7.93-34.17,211.13,211.13,0,0,0-26.14.27,77.06,77.06,0,0,1-.54,14.34c-.18,1.53-.45,3.06-.72,4.6C179.22,72.39,178.32,77.53,179.13,82.49Z"/><path class="cls-6" d="M170.48,31.19a6.57,6.57,0,0,0,4.15,6.31c1.35.46,2.88.46,4.32.82s2.89,1.44,2.89,2.88c0,1-.54,3.16,2.34,4.51,2.44,1.08,1.81,6.85-5.59,9.28-2.25.73-.81-1.17-3.15-1.53A11,11,0,0,1,169.31,50a20,20,0,0,1-3.7-6c-1-2.53-1.71-5.32-1.08-8S167.5,30.92,170.48,31.19Z"/><path d="M177.78,55.45c-.54,0-.72-.28-1-.73a1.7,1.7,0,0,0-1.44-1,11.19,11.19,0,0,1-6.22-3.51,21,21,0,0,1-3.7-6.13c-1.35-3.25-1.71-5.86-1.08-8.12.63-2.61,3-5.23,6.22-5,.09,0,.27.09.18.27a6.34,6.34,0,0,0,4,6.13,9.81,9.81,0,0,0,2.34.46,15.26,15.26,0,0,1,2,.36c1.45.36,3.07,1.53,3.07,3.15v.45a3.38,3.38,0,0,0,2.25,3.88,2.91,2.91,0,0,1,1.45,2.79c-.09,2.17-2.08,5.32-7,7C178.32,55.36,178,55.45,177.78,55.45Zm-7.66-24c-2.71,0-4.78,2.35-5.32,4.69-.54,2.17-.18,4.69,1.08,7.85a18.65,18.65,0,0,0,3.61,6,10.21,10.21,0,0,0,5.95,3.33,2.1,2.1,0,0,1,1.8,1.26c.18.45.27.63,1.26.27,4.78-1.53,6.58-4.5,6.77-6.58a2.11,2.11,0,0,0-1.09-2.25,3.85,3.85,0,0,1-2.52-4.33v-.36c0-1.35-1.44-2.34-2.71-2.7a6.85,6.85,0,0,0-1.89-.27,11.53,11.53,0,0,1-2.43-.45,6.93,6.93,0,0,1-4.33-6.32C170.21,31.46,170.12,31.46,170.12,31.46Z"/><path class="cls-6" d="M155.88,25.06c.81,3.88,1.53,7.94,0,11.54-.55,1.18-1.27,2.26-1.72,3.43a9.54,9.54,0,0,0-.36,4.51c.27,2.88,1.08,5.77,3.16,7.84a6.82,6.82,0,0,0,7.84,1.53c2.16-1.26,3.16-4,3.07-6.49a18.48,18.48,0,0,0-2.35-7.12A87.52,87.52,0,0,0,155.88,25.06Z"/><path d="M162,54.72a7.46,7.46,0,0,1-5.23-2.25c-1.81-1.8-2.89-4.51-3.16-7.93a10.5,10.5,0,0,1,.36-4.6,21.63,21.63,0,0,1,1-2.07,7.54,7.54,0,0,0,.72-1.45c1.45-3.33.91-7.12,0-11.36a.31.31,0,0,1,.1-.27c.09-.09.18,0,.27.09a86.35,86.35,0,0,1,9.55,15.24c1.08,2.25,2.26,4.6,2.35,7.21A7.06,7.06,0,0,1,164.8,54,4.62,4.62,0,0,1,162,54.72ZM156.33,26c.81,3.87,1.17,7.48-.27,10.72a7.29,7.29,0,0,1-.73,1.45,7.88,7.88,0,0,0-.9,2,9.68,9.68,0,0,0-.36,4.42,11.93,11.93,0,0,0,3.07,7.66c2.07,2.07,5.32,2.7,7.48,1.44a6.64,6.64,0,0,0,2.88-6.22,17.57,17.57,0,0,0-2.34-7A82.76,82.76,0,0,0,156.33,26Z"/><path class="cls-5" d="M161.37,44.27a26,26,0,0,0-.18-5.23,6.89,6.89,0,0,1,2.62-.81,1.28,1.28,0,0,1,1.17.18,1.45,1.45,0,0,1,.36.63c.63,1.53,1.62,3.42,2.26,5,.09.09-.19,0-.19.09a21.8,21.8,0,0,1,.73,2.25C166.78,47.69,162.55,56.26,161.37,44.27Z"/><path d="M163.9,50.76h-.36c-1.26-.36-2-2.44-2.44-6.49h0a26,26,0,0,0-.18-5.23.33.33,0,0,1,.09-.27,8.83,8.83,0,0,1,2.71-.9,1.75,1.75,0,0,1,1.35.18,1.24,1.24,0,0,1,.45.72c.36.81.72,1.62,1.17,2.43s.81,1.71,1.18,2.53c.09.18,0,.27,0,.27l-.09.09c.09.18.09.36.18.54.45,1.26.54,1.53.36,1.62a7.18,7.18,0,0,0-.82,1.08C166.51,48.86,165.16,50.76,163.9,50.76Zm-2.26-6.49c.46,4.68,1.36,5.86,2.08,6,1.08.27,2.52-1.72,3.42-3.07.36-.45.64-.81.82-1.08A3.66,3.66,0,0,0,167.5,45a2.23,2.23,0,0,1-.27-.9c0-.09,0-.18.09-.18-.27-.73-.72-1.54-1-2.26s-.81-1.71-1.17-2.52a1.88,1.88,0,0,0-.36-.54,1.24,1.24,0,0,0-1-.09,8.47,8.47,0,0,0-2.44.72A32.17,32.17,0,0,1,161.64,44.27Z"/><path class="cls-5" d="M155.06,26a15.56,15.56,0,0,1,.18,5.77c-.27,1-.27,6.22,4,7.75a8.17,8.17,0,0,0,7-.72A7.62,7.62,0,0,0,169.31,32a1.94,1.94,0,0,0,2.52-1.63,1.56,1.56,0,0,0-1.53-1.44,1.16,1.16,0,0,0-1.08.36,16.37,16.37,0,0,1-.45-4.33,11.81,11.81,0,0,0-8.48-2.88C158,22.45,154.79,24.07,155.06,26Z"/><path d="M161.83,40.21a10,10,0,0,1-2.8-.45c-4.24-1.53-4.42-6.76-4.15-8a11.53,11.53,0,0,0-.09-5c0-.27-.09-.45-.09-.72h0a2.18,2.18,0,0,1,.54-1.72,7.71,7.71,0,0,1,4.87-2.43,10.66,10.66,0,0,1,2.44.09c1.89.27,4.59,1,6.22,2.79,0,.09.09.09.09.18a19.4,19.4,0,0,0,.36,3.88c.27-.18.45-.18,1-.18a1.9,1.9,0,0,1,1.17.45,1.74,1.74,0,0,1,.54,1.17,1.91,1.91,0,0,1-.81,1.54,2.26,2.26,0,0,1-1.71.45A8.17,8.17,0,0,1,166.24,39,8.62,8.62,0,0,1,161.83,40.21Zm-.91-17.85h-.72a7.5,7.5,0,0,0-4.51,2.25,2,2,0,0,0-.45,1.36h0c0,.27.09.45.09.72a12.2,12.2,0,0,1,0,5.14c-.18.72-.45,6,3.79,7.48a7.8,7.8,0,0,0,6.76-.72,7.36,7.36,0,0,0,2.89-6.49c0-.09,0-.18.09-.18a.28.28,0,0,1,.18-.09,1.72,1.72,0,0,0,1.62-.28,1.54,1.54,0,0,0,.63-1.17,1.07,1.07,0,0,0-.45-.81,1.1,1.1,0,0,0-.81-.36c-.54,0-.63,0-1,.36a.17.17,0,0,1-.27,0,.19.19,0,0,1-.18-.18,17.86,17.86,0,0,1-.45-4.24,10.48,10.48,0,0,0-5.86-2.61C162.1,22.36,161.55,22.36,160.92,22.36Z"/><path d="M164.26,33.27a3.08,3.08,0,0,1-2.89-2.71,2.94,2.94,0,0,1,2.35-3.42,2.5,2.5,0,0,1,2.07.63,3.12,3.12,0,0,1,1.08,2.07,3,3,0,0,1-2.34,3.43Zm-.18-5.68h-.27a2.49,2.49,0,0,0-2,2.88,2.41,2.41,0,0,0,2.61,2.26,2.51,2.51,0,0,0,2-2.89,2.64,2.64,0,0,0-.9-1.71A2,2,0,0,0,164.08,27.59Z"/><path d="M156.69,33.63a3.38,3.38,0,0,1-1.81-.63,3.12,3.12,0,0,1-1.08-2.08,2.94,2.94,0,0,1,2.35-3.42,2.5,2.5,0,0,1,2.07.63,3.12,3.12,0,0,1,1.08,2.07h0A2.94,2.94,0,0,1,157,33.63ZM156.51,28h-.27a2.49,2.49,0,0,0-2,2.88,2.67,2.67,0,0,0,.9,1.72,2.1,2.1,0,0,0,1.72.54,2.51,2.51,0,0,0,2-2.89h0a2.64,2.64,0,0,0-.9-1.71A2,2,0,0,0,156.51,28Z"/><path class="cls-6" d="M170.84,14.43a4.85,4.85,0,0,0-9.29,2.79,4.85,4.85,0,1,0,9.29-2.79Z"/><path d="M166.24,20.92a4.36,4.36,0,0,1-2.34-.63,5.06,5.06,0,0,1,.9-9.29,5.28,5.28,0,0,1,3.88.36,5,5,0,0,1,2.43,3,5.18,5.18,0,0,1-4.87,6.58Zm0-9.65a7,7,0,0,0-1.35.18,4.57,4.57,0,0,0-3.06,5.68,4.48,4.48,0,0,0,2.25,2.7,4.73,4.73,0,0,0,3.52.37,4.59,4.59,0,0,0,3.06-5.68h0a4.48,4.48,0,0,0-2.25-2.71A4.83,4.83,0,0,0,166.24,11.27Z"/><path class="cls-6" d="M169,29.48a12.35,12.35,0,0,1-2.35-5.59c-4.5,2.71-8.83,2.26-13.16,2.08a4.41,4.41,0,0,1,.36-2.17,7.5,7.5,0,0,1,4.33-4.33,12.68,12.68,0,0,1,6.31-1.08A9.38,9.38,0,0,1,169.49,21a8.79,8.79,0,0,1,2.34,4.32,6,6,0,0,1-.72,3.88,1.62,1.62,0,0,0-1.08-.27A1.41,1.41,0,0,0,169,29.48Z"/><path d="M169,29.75h0a.31.31,0,0,1-.18-.09,14.26,14.26,0,0,1-2.35-5.32c-4,2.35-8,2.17-11.9,2a4.38,4.38,0,0,1-1.08-.09c-.09,0-.18-.09-.27-.18a4.43,4.43,0,0,1,.36-2.35A8,8,0,0,1,158,19.2a12.36,12.36,0,0,1,6.4-1.08,9.52,9.52,0,0,1,5.14,2.71,8.8,8.8,0,0,1,2.43,4.5,6.34,6.34,0,0,1-.72,4.06c0,.09-.09.09-.18.09h-.18a1.18,1.18,0,0,0-.9-.27,1.61,1.61,0,0,0-.9.54C169,29.66,169,29.75,169,29.75Zm-2.44-6.13h0c.18,0,.18.09.27.18A13,13,0,0,0,169,29a2.82,2.82,0,0,1,.9-.45,1.78,1.78,0,0,1,1,.18,5,5,0,0,0,.54-3.52A8.08,8.08,0,0,0,169.13,21a8.72,8.72,0,0,0-5-2.53A12.26,12.26,0,0,0,158,19.56a7,7,0,0,0-4.15,4.24,4.7,4.7,0,0,0-.36,1.89h.9c4.06.19,7.85.37,11.9-2.07Z"/><path d="M162.37,36.78a1.19,1.19,0,0,1-.91-.36.27.27,0,0,1,0-.36.29.29,0,0,1,.37,0,1.12,1.12,0,0,0,1.17.09A2.13,2.13,0,0,0,164.17,35c.09-.09.18-.18.36-.09s.18.18.09.36a2.65,2.65,0,0,1-1.44,1.35A1.34,1.34,0,0,1,162.37,36.78Z"/><path d="M163.9,29.57c0-.27-.27-.36-.54-.36s-.45.27-.36.45a.61.61,0,0,0,.54.36C163.81,30,164,29.84,163.9,29.57Z"/><path d="M157.23,30c0-.27-.27-.36-.54-.36s-.45.27-.36.45.27.36.54.36S157.32,30.2,157.23,30Z"/><path d="M159.75,34h0l-.72-.27a.48.48,0,0,1-.36-.27c-.09-.18.09-.36.09-.45a2.18,2.18,0,0,0,.36-2.08c0-.09,0-.27.18-.27s.27,0,.27.18a2.86,2.86,0,0,1-.45,2.53h0l.63.27c.09.09.18.18.18.27A.31.31,0,0,1,159.75,34Z"/><path d="M159.12,29.93a.29.29,0,0,1-.27-.27,1,1,0,0,1,.9-.9,2.25,2.25,0,0,1,2,.45.27.27,0,0,1,0,.36.29.29,0,0,1-.37,0,1.61,1.61,0,0,0-1.53-.36c-.27.09-.54.27-.54.45s-.09.27-.18.27Z"/><path d="M168.77,29.57h0l-2.08-.09a.27.27,0,0,1,0-.54l2.08.09a.29.29,0,0,1,.27.27Q168.9,29.57,168.77,29.57Z"/><path d="M168.59,19.29c-.09,0-.18,0-.18-.09a4,4,0,0,0-1.54-1.08,7.22,7.22,0,0,0-1.89-.45c-.09,0-.18-.18-.18-.27s.18-.18.27-.18a8.12,8.12,0,0,1,2,.54,4.76,4.76,0,0,1,1.72,1.17.27.27,0,0,1,0,.36Z"/><path d="M169.13,31.1h0a.24.24,0,0,1-.27-.27,4.2,4.2,0,0,0-.27-1.53c-.09-.09,0-.27.09-.36s.27,0,.36.09a4,4,0,0,1,.36,1.8A.24.24,0,0,1,169.13,31.1Z"/><g class="cls-7"><path d="M162.37,17a.67.67,0,0,1,.45-.09h.72a8.3,8.3,0,0,1,4.06,1.26,7.78,7.78,0,0,1,.9.63c.18.18.36.27.54.45.27.54-.45,1-.9.63a7,7,0,0,0-2.89-1.53,4.6,4.6,0,0,0-1.8-.27h-.63a1.14,1.14,0,0,1-.54-.09C162,17.58,162.1,17.22,162.37,17Z"/></g><g class="cls-7"><path d="M155.42,26.24a.37.37,0,0,1,.37-.18h.36c.45,0,.9.09,1.35.09a23.58,23.58,0,0,0,2.52-.09,14.4,14.4,0,0,0,3.07-.64,9.93,9.93,0,0,0,2.79-1.35c.18-.09.36-.27.54-.27s.36.45.09.54A13.28,13.28,0,0,1,163,26.15l-2.26.54c-.63.09-1.26.09-1.8.18-.9,0-1.89.09-2.79,0h-.46a.33.33,0,0,1-.27-.09A.57.57,0,0,1,155.42,26.24Z"/></g><g class="cls-7"><path d="M161.37,42.55V40.12c0-.09,0-.09-.09-.09.18-.18.46-.09.73-.09a1.87,1.87,0,0,0,.72,0,7.17,7.17,0,0,0,1.35-.27c.09,0,.18,0,.18.09.09-.09.27-.18.36-.27s.18-.18.27-.18.45-.18.63-.27v.27c.09.09.09.18.18.27l-.09.09a21.52,21.52,0,0,0-2.07,2,10.27,10.27,0,0,1-1,1c-.18.09-.27.27-.45.36h-.18a.51.51,0,0,1-.37-.18l-.09-.09C161.37,42.73,161.37,42.64,161.37,42.55Z"/></g><path class="cls-8" d="M158.4,97.91c-3.16-.09-4-1.54-5.41-2a19.87,19.87,0,0,1-5.5-2.34,42.52,42.52,0,0,1-4.6-3.34,8.27,8.27,0,0,1-2-2,2.94,2.94,0,0,1-.36-2.7c.54-1.18,2.07-1.63,3.33-1.72a20.69,20.69,0,0,1,3.34,0c3.79.27,7.75,1.27,10.46,4a10.18,10.18,0,0,1,3,6.85c0,.72-1.17-.27-1.53.36C158.76,95.47,159.3,96.1,158.4,97.91Z"/><path d="M158.4,98.18h0a7.47,7.47,0,0,1-4.24-1.35c-.45-.27-.81-.46-1.17-.64s-.81-.27-1.26-.45a21.86,21.86,0,0,1-4.33-1.89,42.52,42.52,0,0,1-4.6-3.34,9,9,0,0,1-2.07-2.07,3.24,3.24,0,0,1-.36-3c.63-1.36,2.25-1.81,3.6-1.9a21.69,21.69,0,0,1,3.43,0c4.78.36,8.29,1.72,10.64,4a10.68,10.68,0,0,1,3.06,6.94.69.69,0,0,1-.18.45c-.18.18-.45.09-.81,0s-.54-.09-.63,0a1.33,1.33,0,0,0-.09.63,4.27,4.27,0,0,1-.63,2.35C158.58,98.09,158.49,98.18,158.4,98.18ZM145.33,83.93A7,7,0,0,0,144,84c-1.17.09-2.61.45-3.15,1.63a2.8,2.8,0,0,0,.36,2.52,8.27,8.27,0,0,0,2,2,42.52,42.52,0,0,0,4.6,3.34A21.27,21.27,0,0,0,152,95.38a10.92,10.92,0,0,1,1.26.45,5.39,5.39,0,0,1,1.26.73,7.24,7.24,0,0,0,3.88,1.26,5,5,0,0,0,.54-2,1.48,1.48,0,0,1,.18-.9c.27-.45.81-.36,1.17-.27.09,0,.27.09.36.09h0a10.45,10.45,0,0,0-2.88-6.67c-2.26-2.25-5.59-3.52-10.28-3.88A11.62,11.62,0,0,0,145.33,83.93Z"/><path class="cls-5" d="M154.61,130.27c-4.59-12.17-9.1-24.25-13.7-36.42a10.65,10.65,0,0,1-1-5c.18-1.62,2.34-4.24,3.6-4.33,2.71-1.62,9.74-2.07,9.83,1.81,0,1.26-1.53,4.33-1.17,5.5,3.06,9.37,3.06,31.82,6,37.23,2.16,4,.18,4.78-1.44,6.31a.75.75,0,0,1-.72.27c-.27-.09-.37-.36-.46-.63C155.06,133.34,155.15,131.62,154.61,130.27Z"/><path d="M156.15,135.86h-.27c-.37-.09-.46-.45-.64-.81a11.35,11.35,0,0,1-.45-2.52,9.06,9.06,0,0,0-.45-2.26h0l-13.7-36.42c-.54-1.53-1.26-3.34-1-5s2.34-4.33,3.78-4.51c2.08-1.26,6.31-1.71,8.57-.54a2.8,2.8,0,0,1,1.53,2.53,8.74,8.74,0,0,1-.63,2.43c-.36,1.17-.81,2.44-.63,3,1.53,4.59,2.25,12.17,3,19.56.82,7.66,1.54,14.88,3,17.67,2,3.61.63,4.69-.81,6-.27.18-.45.45-.72.63A.56.56,0,0,1,156.15,135.86Zm-1.27-5.68a9.79,9.79,0,0,1,.45,2.35,9.34,9.34,0,0,0,.46,2.34c.09.18.18.45.27.45s.36-.09.45-.18a4.51,4.51,0,0,1,.72-.63c1.35-1.17,2.43-2.07.63-5.32-1.53-2.79-2.26-10.1-3.07-17.85-.72-7.3-1.53-14.88-3-19.47-.27-.72.18-2.08.63-3.34a8.88,8.88,0,0,0,.54-2.25,2.24,2.24,0,0,0-1.35-2.08c-2.08-1.17-6.13-.63-8.12.54h-.09c-1.17.1-3.15,2.53-3.33,4.06a11.51,11.51,0,0,0,1,4.87Z"/><path class="cls-5" d="M135.41,129.19c3.61-12.44,7.21-24.88,10.73-37.41a10.79,10.79,0,0,1,2.16-4.6c1.17-1.17,3.16-1.71,4.24-1,3.15.27,5.68,3.78,5.14,7.12a23.76,23.76,0,0,1-1.26,3.52c-3.16,9.37-16.5,27.4-17.4,33.44-.63,4.51-2.71,3.88-4.87,4.15a1,1,0,0,1-.72-.18c-.18-.18-.09-.54,0-.72C133.88,132,135,130.63,135.41,129.19Z"/><path d="M133.88,134.78a.7.7,0,0,1-.72-.36,1.26,1.26,0,0,1,0-1,17.45,17.45,0,0,1,1.08-2.26,10.83,10.83,0,0,0,1-2.07L146,91.78a11.14,11.14,0,0,1,2.16-4.69c1.17-1.26,3.34-1.8,4.51-1.08a5.79,5.79,0,0,1,3.88,2.34,6.6,6.6,0,0,1,1.35,5.05,6.75,6.75,0,0,1-.81,2.25c-.18.45-.36.91-.54,1.27-1.54,4.59-5.5,11.17-9.29,17.49-4,6.58-7.66,12.89-8.11,16-.54,4.06-2.35,4.15-4.15,4.33a3.06,3.06,0,0,0-.9.09Zm17.4-48.59a3.86,3.86,0,0,0-2.8,1.26c-1.17,1.17-1.62,3-2.07,4.51l-10.73,37.41h0a11.53,11.53,0,0,1-1,2.16c-.36.73-.81,1.45-1.08,2.17a.57.57,0,0,0,0,.54c.09.09.36.09.54.09.36,0,.63-.09,1-.09,1.8-.09,3.16-.27,3.7-3.88.45-3.15,4.23-9.46,8.2-16.14,3.79-6.31,7.66-12.89,9.2-17.39l.54-1.36a6.12,6.12,0,0,0,.72-2.16,6,6,0,0,0-1.26-4.69,5.53,5.53,0,0,0-3.61-2.16h-.09A3.18,3.18,0,0,0,151.28,86.19Zm-15.87,43Z"/><path class="cls-5" d="M158.4,45.44a6.52,6.52,0,0,0-5,3.69c-1,1.9-3,11.45-6.94,16.05-.9,1.08-1.8-6.13-3.16-5.68s-2.88,1.26-3,2.71a2.8,2.8,0,0,0,1.8,2.52c2.17.9,3,5.41,5.32,5.77,3.34.45,9.2-11.27,10-10.82S159,46.61,158.4,45.44Z"/><path d="M147.76,70.77h-.27c-1.35-.18-2.25-1.62-3.06-3.06-.73-1.18-1.36-2.35-2.35-2.71a2.89,2.89,0,0,1-2-2.7c.09-1.27,1.08-2.17,3.15-2.89a.57.57,0,0,1,.54,0c.64.27,1,1.53,1.63,3.34a11.51,11.51,0,0,0,.9,2.34h0c2.79-3.24,4.6-8.92,5.77-12.62a25.94,25.94,0,0,1,1.17-3.34c1.89-3.6,4.87-3.87,5.14-3.87.09,0,.18.09.27.09.45.9.09,6.67.09,7.39-.09,1.53-.45,6.58-1,7.12a.33.33,0,0,1-.27.09,19.63,19.63,0,0,0-2.17,2.89C153.08,66.17,150,70.77,147.76,70.77Zm-4.24-11h0c-1.89.63-2.79,1.45-2.88,2.44a2.49,2.49,0,0,0,1.71,2.25c1.08.45,1.81,1.71,2.53,3s1.53,2.61,2.7,2.79c2,.27,5.23-4.51,7.3-7.66,1.54-2.26,2.08-3.16,2.53-3.16h0c.27-.45.54-2.88.81-6.76a41.34,41.34,0,0,0,0-6.94,6.35,6.35,0,0,0-4.6,3.6c-.27.55-.63,1.72-1.17,3.25-1.17,3.79-3,9.56-5.86,12.8a.58.58,0,0,1-.45.18c-.45-.09-.81-1-1.35-2.7-.27-1.17-.72-2.8-1.27-3.07Z"/><path class="cls-5" d="M169.4,81.05a19.11,19.11,0,0,0,12.26-.81,1.45,1.45,0,0,0,.63-.36c.45-.54.27-1.27.09-2-1.53-5.14-1-10.54-1.44-16A46.74,46.74,0,0,0,176.25,45a34.89,34.89,0,0,0-8.93-2c-.18,3-1.35,5.14-3.15,5.32-1,.09-2.8-.18-2.8-4.59-1.53.63-4.41,2.16-5.49,2.61.27,7.75.45,11.09-.09,15a32,32,0,0,1,4.41,4.14,10.21,10.21,0,0,1,2.17,5.23,33.08,33.08,0,0,1-.18,6.67,4.71,4.71,0,0,0,.27,3.34A3.52,3.52,0,0,0,164,82C166.24,83.12,169,83,169.4,81.05Z"/><path d="M166.78,82.94a6.43,6.43,0,0,1-3-.81,4.08,4.08,0,0,1-1.62-1.35c-.64-1-.45-2.26-.36-3.43v-.09a32.19,32.19,0,0,0,.18-6.58,8.62,8.62,0,0,0-2.08-5.14,26.93,26.93,0,0,0-4-3.87l-.37-.27c-.09-.09-.09-.09-.09-.18.46-3.79.37-7.13.09-14.88,0-.09.09-.18.19-.27.27-.09.63-.36,1.08-.54,1.35-.72,3.24-1.62,4.41-2.08h.27c.09,0,.09.1.09.19,0,2,.37,3.33,1.09,4a1.62,1.62,0,0,0,1.44.36c1.71-.18,2.79-2.07,3-5.05,0-.09,0-.09.09-.18s.09-.09.18-.09a34,34,0,0,1,9,2,.09.09,0,0,1,.09.09,47.19,47.19,0,0,1,4.69,17c.09,1.62.18,3.33.18,4.95a44.49,44.49,0,0,0,1.17,10.91c.27.72.45,1.63-.09,2.17a2,2,0,0,1-.72.45,19.44,19.44,0,0,1-12.17.81,2.19,2.19,0,0,1-1.17,1.35A2.12,2.12,0,0,1,166.78,82.94ZM156.06,61.22l.27.18a23.64,23.64,0,0,1,4,3.87,9.4,9.4,0,0,1,2.17,5.41,32.9,32.9,0,0,1-.18,6.67v.09a4.45,4.45,0,0,0,.27,3.07,3.27,3.27,0,0,0,1.44,1.17,5.39,5.39,0,0,0,4.15.45,1.59,1.59,0,0,0,1-1.26c0-.09.09-.09.09-.18h.18A19.15,19.15,0,0,0,181.57,80c.18-.09.45-.18.54-.36.36-.36.18-1.09,0-1.72a41.68,41.68,0,0,1-1.26-11c0-1.62-.09-3.33-.18-5a45.7,45.7,0,0,0-4.6-16.77,33.63,33.63,0,0,0-8.48-1.9c-.27,3.07-1.53,5-3.42,5.32a2.37,2.37,0,0,1-1.89-.54c-.82-.72-1.18-2.07-1.27-4-1.08.45-2.79,1.35-4,2a8.77,8.77,0,0,1-1,.45C156.42,54.18,156.51,57.43,156.06,61.22Z"/><path class="cls-5" d="M156.51,66.26a8.18,8.18,0,0,0-3.43,4.33,1,1,0,0,0-.09.72,1.38,1.38,0,0,1,1,1,.51.51,0,0,0,.63-.36c.09.18.27.18.45.18a.77.77,0,0,0,.45-.27L156.6,71a8.16,8.16,0,0,1,1.44-1c.27-.18.63-.27.9-.45a1.72,1.72,0,0,0,.63-1.8,3.17,3.17,0,0,0-1.08-1.36,1.62,1.62,0,0,0-.81-.36C157.23,66,156.78,66.26,156.51,66.26Z"/><path class="cls-6" d="M181.3,71.94a37.25,37.25,0,0,0,2.25,6.13c1.44,2.8,4.24,7.13,4.42,10.19.27,7.3-6.22,9.11-10.37,9-6.67-.09-12.62,1.62-19.29.63,1.89-5.68-8.38-16.14-17.94-12.53,3.42-5.5,12.26-3.43,21.27-5a22.48,22.48,0,0,0,.64-7.58C165.25,74.38,178.23,72.21,181.3,71.94Z"/><path d="M162.82,98.45a26,26,0,0,1-4.51-.36c-.09,0-.09-.09-.18-.09s-.09-.09,0-.18c.81-2.35-.72-5.86-3.61-8.66-3.24-3.06-8.56-5.59-14-3.51a.33.33,0,0,1-.27-.09.17.17,0,0,1,0-.27c2.43-4,7.39-4.15,13.25-4.42a61.24,61.24,0,0,0,8-.63,24,24,0,0,0,.64-6.94v-.37c0-.09,0-.18.09-.18s.18-.09.27,0c2.16,1.09,10.54,0,15.59-.63,1.45-.18,2.53-.36,3.25-.36.09,0,.09,0,.18.09s.09.18.27.81a26.94,26.94,0,0,0,2.07,5.41c.27.54.63,1.09.9,1.72,1.54,2.7,3.34,6,3.43,8.56a8.32,8.32,0,0,1-2.16,6.31c-2.8,2.89-7.13,3-8.39,3a73.48,73.48,0,0,0-7.84.45C167.5,98.27,165.25,98.45,162.82,98.45Zm-4.15-.72a45.74,45.74,0,0,0,11.09-.18,55.65,55.65,0,0,1,7.84-.45c1.26,0,5.41-.09,8.12-2.8a7.4,7.4,0,0,0,2-6c-.09-2.34-1.89-5.68-3.43-8.29-.36-.63-.63-1.17-.9-1.72a34.31,34.31,0,0,1-2.07-5.5c-.09-.18-.09-.36-.18-.54-.63.09-1.71.18-3,.36-4.87.64-12.8,1.63-15.5.73A26.3,26.3,0,0,1,162,80.6a.19.19,0,0,1-.18.18c-2.8.45-5.59.54-8.3.72-5.32.18-10,.45-12.44,3.52,5.32-1.72,10.55.9,13.79,3.87C157.86,91.69,159.39,95.11,158.67,97.73Zm22.45-25.61Z"/><path d="M156.6,73.21h0c-.18,0-.27-.09-.27-.28V71a.29.29,0,0,1,.27-.27h0a.29.29,0,0,1,.27.27v1.89C156.78,73,156.69,73.21,156.6,73.21Z"/><rect class="cls-5" x="180.76" y="109.45" width="2.79" height="26.05"/><path d="M183.64,135.86h-2.79a.29.29,0,0,1-.27-.27v-26a.29.29,0,0,1,.27-.27h2.79a.29.29,0,0,1,.27.27v26.05C183.82,135.68,183.73,135.86,183.64,135.86Zm-2.61-.54h2.34v-25.6H181Z"/><path class="cls-5" d="M154.79,131a10.78,10.78,0,0,1-2.7,6.58c-.18.28-.36.64-.18.91a.33.33,0,0,0,.27.09,6.05,6.05,0,0,0,3.33.18c3.16-1.36,5.14-6.22,4.87-8.12a5.33,5.33,0,0,0-2.61-2.61,6.42,6.42,0,0,1-.18,2.61c-.18.63-.45,1.26-1,1.45S155.33,132.08,154.79,131Z"/><path d="M154.34,139.2a7.85,7.85,0,0,1-2.25-.36.68.68,0,0,1-.36-.18c-.27-.27-.18-.72.18-1.18a10.15,10.15,0,0,0,2.7-6.49c0-.09.09-.18.18-.27a.33.33,0,0,1,.27.09,1.93,1.93,0,0,0,.91,1,.52.52,0,0,0,.54,0,1.85,1.85,0,0,0,.81-1.35,4.82,4.82,0,0,0,.18-2.43.33.33,0,0,1,.09-.27.17.17,0,0,1,.27,0,5.45,5.45,0,0,1,2.7,2.79c.27,2.08-1.71,6.94-5.05,8.39A2.25,2.25,0,0,1,154.34,139.2Zm.63-7.4a10.57,10.57,0,0,1-2.79,5.95c-.18.19-.27.46-.18.55a.31.31,0,0,0,.18.09,6.36,6.36,0,0,0,3.15.18c3.07-1.27,5-6,4.78-7.85a5.26,5.26,0,0,0-2.07-2.16,11.62,11.62,0,0,1-.27,2.16,2.3,2.3,0,0,1-1.08,1.63,1,1,0,0,1-.9.09A2.33,2.33,0,0,1,155,131.8Z"/><rect class="cls-5" x="179.41" y="97.91" width="5.68" height="15.87"/><path d="M185,114h-5.68a.29.29,0,0,1-.27-.27V97.91a.29.29,0,0,1,.27-.27H185a.3.3,0,0,1,.28.27v15.86A.3.3,0,0,1,185,114Zm-5.4-.54h5.13V98.09h-5.13Z"/><path class="cls-5" d="M158.4,68.52A5.84,5.84,0,0,0,155,70.77a1.6,1.6,0,0,0-.36.9.33.33,0,0,0,.09.27.67.67,0,0,0,.45.09c.18,0,.27-.09.36-.27A26.45,26.45,0,0,1,158,69.87a1.41,1.41,0,0,1,1.44-.18,8,8,0,0,0-2,1.44,1.88,1.88,0,0,0-.36.54c-.09.18-.18.45,0,.63a.43.43,0,0,0,.63-.09A13.59,13.59,0,0,1,160,70.59a.92.92,0,0,1,.81-.18,6.41,6.41,0,0,0,3.43.45c.72,0,1.44.09,2.34.18,4.78,1.08,9.92,2.08,13.71,2.62a5.2,5.2,0,0,0,5.77-3c1.26-2.88,0-11.72-2.8-18.75-2.34-5.77-7.21-8.2-8.2-7.66-.54.36-1,4,.54,7.3,2.43,5.14,4.15,9.55,4.15,14.6-4.51.27-9.11.45-13.62.72-.36,0-2.43-.09-2.88-.09a3.18,3.18,0,0,1-1.26-.27c-1.36-.45-4.33-1.35-5-.9a8.08,8.08,0,0,0-3.52,3.25c-.45.81-.81,2.07-.54,2.25s.36.18.54,0a7.08,7.08,0,0,1,3-3.69,7.36,7.36,0,0,0-1.72,1.62,3.43,3.43,0,0,0-1,2.16v.18c.09.09.27,0,.36-.09.54-.54.9-1.17,1.53-1.71A27.13,27.13,0,0,0,158.4,68.52Z"/><path d="M181.3,74.29a3.69,3.69,0,0,1-1-.09c-2.17-.36-7.85-1.27-13.71-2.62a9.88,9.88,0,0,0-2.25-.18,7.11,7.11,0,0,1-3.52-.54c-.18-.09-.36,0-.63.09A12.41,12.41,0,0,0,158,72.48h0a.67.67,0,0,1-.9.09.76.76,0,0,1-.09-.9,1.61,1.61,0,0,1,.45-.63,8.4,8.4,0,0,1,1.35-1.17l-.54.27a18.25,18.25,0,0,0-1.62,1.17c-.27.18-.54.45-.81.63s-.28.18-.46.27a.52.52,0,0,1-.63-.18.47.47,0,0,1-.18-.36.69.69,0,0,1-.45.18c-.09,0-.18-.09-.27-.18v-.09a.7.7,0,0,1-.72-.09c-.45-.36.09-1.89.45-2.61a7.93,7.93,0,0,1,3.61-3.34c.72-.45,3.51.36,5.14.9.36.09.72.18,1.17.27h.63c.81,0,1.89.09,2.25.09,4.42-.18,8.93-.45,13.35-.63-.09-4.68-1.63-8.92-4.06-14.24-1.53-3.25-1.26-7.12-.45-7.66a2,2,0,0,1,1.26,0c1.89.54,5.32,3.06,7.21,7.75,2.8,6.85,4.15,15.87,2.8,18.93A5.47,5.47,0,0,1,181.3,74.29Zm-16.68-3.43a19.35,19.35,0,0,1,2.07.18h0c5.86,1.35,11.54,2.26,13.71,2.62a5,5,0,0,0,5.5-2.8c1.26-2.88-.09-11.9-2.8-18.57-1.8-4.51-5.14-6.94-6.94-7.48a1.75,1.75,0,0,0-.9-.09c-.45.27-.9,3.78.63,7,2.52,5.5,4.15,9.83,4.15,14.69a.29.29,0,0,1-.27.27c-4.51.27-9.2.46-13.62.73h0c-.27,0-1.44-.09-2.25-.09h-.63a4.06,4.06,0,0,1-1.26-.28c-2.44-.81-4.42-1.17-4.69-.9h-.09a7.44,7.44,0,0,0-3.34,3.16,3.93,3.93,0,0,0-.63,2c.09,0,.09.09.18,0a7,7,0,0,1,3.07-3.78c.09-.09.27,0,.36.09a.22.22,0,0,1-.09.36,13.93,13.93,0,0,0-1.72,1.53,3.84,3.84,0,0,0-1,1.89h0a4.51,4.51,0,0,0,.63-.72,4.27,4.27,0,0,1,.9-.9,1.31,1.31,0,0,1,.37-.27,4.7,4.7,0,0,1,2.43-1.17c.09,0,.27.09.27.18s0,.27-.18.27a13.07,13.07,0,0,0-2.25,1.08,3.86,3.86,0,0,0-1,1.08c-.27.27-.36.54-.27.72s0,.09.09.18h.18c.09,0,.18-.09.27-.18.28-.18.55-.45.82-.63A19.77,19.77,0,0,1,158,69.78a1.72,1.72,0,0,1,1.71-.18c.09,0,.09.09.09.18a.31.31,0,0,1-.09.18,7.51,7.51,0,0,0-1.89,1.44c-.09.18-.27.27-.36.45a1.42,1.42,0,0,0-.09.36c.09.09.09.09.27-.09h0a13.59,13.59,0,0,1,2.34-1.62,1.15,1.15,0,0,1,1.08-.18,7,7,0,0,0,3.25.45A.68.68,0,0,0,164.62,70.86Z"/><path class="cls-5" d="M174.72,79.25c10,.09,20-.27,29.75-1a49.5,49.5,0,0,1-1.81,15.87,8.79,8.79,0,0,1-2.43,4.15c-1.62,1.44-4,1.53-6.13,1.62-7.12.18-14.33.27-21.46.45a12.92,12.92,0,0,1-4.95-.54,4,4,0,0,1-2.8-4.06,260.65,260.65,0,0,0,31.37-.54c2.62-2.25,3.16-8.56,3.61-12.35-7.93.72-19.11,1.26-21.46.63C177.33,83.21,174.36,81.77,174.72,79.25Z"/><path d="M171.47,100.61a10,10,0,0,1-4-.63,4.33,4.33,0,0,1-3-4.24c0-.09.09-.27.27-.18A254.42,254.42,0,0,0,196,95c2.35-2.16,3-7.84,3.43-11.72v-.18c-7,.63-18.75,1.26-21.28.63-.81-.18-4.14-1.71-3.78-4.41,0-.09.09-.18.27-.18,9,.09,18.75-.18,29.66-1,.09,0,.09,0,.18.09s.09.09.09.18a49,49,0,0,1-1.81,16,10.37,10.37,0,0,1-2.43,4.33c-1.8,1.53-4.42,1.62-6.22,1.62l-21.46.45A2.66,2.66,0,0,0,171.47,100.61ZM165,96a3.69,3.69,0,0,0,2.71,3.52,12.65,12.65,0,0,0,4.86.54L194,99.62c2.25-.09,4.42-.18,6-1.53A9.64,9.64,0,0,0,202.3,94a48.46,48.46,0,0,0,1.81-15.51c-10.73.82-20.38,1.09-29.3,1-.18,2.25,2.7,3.51,3.42,3.69,2.08.54,12.53.09,21.37-.63.09,0,.18,0,.18.09s.09.09.09.18l-.09.45c-.45,3.88-1.08,9.83-3.61,12.08a.31.31,0,0,1-.18.09A250.81,250.81,0,0,1,165,96Z"/><polygon class="cls-5" points="180.94 134.24 169.67 139.56 194.73 139.56 183.28 134.24 180.94 134.24"/><path d="M194.73,139.83h-25c-.09,0-.18-.09-.27-.18a.33.33,0,0,1,.09-.27l11.18-5.32h2.61l11.36,5.32c.09.09.18.18.09.27C194.91,139.74,194.82,139.83,194.73,139.83Zm-24-.45h22.81l-10.37-4.87h-2.25Z"/><path d="M161,80.87c-.09,0-.18-.09-.27-.18s.09-.27.18-.27a38.4,38.4,0,0,1,9.65-.36c.09,0,.27.09.18.27s-.09.27-.27.18a37.29,37.29,0,0,0-9.47.36Z"/><path class="cls-5" d="M134,131.89c-1.9,2.08-3.79,4.15-5.77,6.23-.09.09-.27.27-.18.45s.36.36.63.36c2.07.27,2.88.54,4.69-.36a62.08,62.08,0,0,0,6.31-4.24,1.44,1.44,0,0,0,.63-.81,1.53,1.53,0,0,0-.18-1.26,17.22,17.22,0,0,0-.9-1.9,6.62,6.62,0,0,1-2.35,2.62C135.77,133.43,134.15,133.07,134,131.89Z"/><path d="M130.9,139.38a10,10,0,0,1-1.53-.18c-.27,0-.54-.09-.81-.09-.45-.09-.81-.27-.81-.63a1,1,0,0,1,.27-.63l5.77-6.23a.33.33,0,0,1,.27-.09.19.19,0,0,1,.18.18,1.48,1.48,0,0,0,.72.91,2.3,2.3,0,0,0,1.89,0,5.69,5.69,0,0,0,2.26-2.53c.09-.09.09-.09.18-.09a.19.19,0,0,1,.18.18l.9,1.9a2.74,2.74,0,0,1,.27,1.44,2.61,2.61,0,0,1-.72.9,50.27,50.27,0,0,1-6.4,4.33A7.18,7.18,0,0,1,130.9,139.38Zm2.89-7-5.5,5.86c-.09.09-.18.18-.18.27s.18.18.36.18.54.09.81.09a5.41,5.41,0,0,0,3.7-.45,73.12,73.12,0,0,0,6.31-4.24,1.42,1.42,0,0,0,.63-.63,1.55,1.55,0,0,0-.18-1.08l-.72-1.54a6.31,6.31,0,0,1-2.26,2.35,2.48,2.48,0,0,1-2.25,0A2.12,2.12,0,0,1,133.79,132.35Z"/><g class="cls-7"><path d="M185.08,100.52a.66.66,0,0,0-.54-.18h-1c-1.17,0-2.25.09-3.42.09-.27,0-.72-.09-.91.18a.58.58,0,0,0,.46,1,24,24,0,0,0,3.6,0h1.35a.69.69,0,0,0,.45-.18A.59.59,0,0,0,185.08,100.52Z"/></g><g class="cls-7"><path d="M183.19,113.77h-1.62c-.18,0-.45-.09-.63,0a.58.58,0,0,0,.18,1.09,7.68,7.68,0,0,0,1.44,0,2,2,0,0,0,1-.09C184.18,114.59,183.82,113.68,183.19,113.77Z"/></g><g class="cls-7"><path d="M155.6,99.08a1.53,1.53,0,0,0-.09-.63c-.18-1-.36-2.08-.63-3.07a46.15,46.15,0,0,0-2-7.12.54.54,0,0,0,.09-.72h0c0-.09-.09-.18-.18-.27a5.41,5.41,0,0,0-1.17-.81c-1.26-.54-1.71-.81-2.89-1.26a10.42,10.42,0,0,0-2.88-.73,11.7,11.7,0,0,0-3.07-.09,6.7,6.7,0,0,0-2.07.55c-.27.18-.63.54-.54.9a.53.53,0,0,0,1,.09c.36-.45,3-.54,4.42-.27a7.07,7.07,0,0,1,2.52.54c1,.36,2.08.9,2.8,1.17a2,2,0,0,1,.45.27.33.33,0,0,0,.09.27,33.65,33.65,0,0,1,2,6.4c.18.81.45,1.71.63,2.53a12.74,12.74,0,0,1,.36,1.8.58.58,0,0,0,.45.63.4.4,0,0,0,.54-.36C155.6,99.26,155.6,99.17,155.6,99.08Z"/></g><g class="cls-7"><path d="M154.61,104.31c0-.18-.18-.27-.36-.36a.09.09,0,0,1,.09-.09c.09-.18.09-.45.18-.72a.57.57,0,0,0,0-.54.51.51,0,0,0-.9.09,4.75,4.75,0,0,1-.27,1.08,1.32,1.32,0,0,1-.18.36c-.18.36-.45.72-.63,1.08-1.08,1.89-2.25,3.79-3.34,5.68-.27.54-.63,1.08-.9,1.62a.09.09,0,0,1-.09.09c0,.09-.09.09-.09.18a.4.4,0,0,0,.09.45.7.7,0,0,0,.72.18c.18-.09.18-.18.27-.36l.27-.54c.27-.54.55-1,.82-1.53s.81-1.17,1.17-1.71c.45-.72.9-1.36,1.35-2a13.73,13.73,0,0,0,1-1.44c.18-.36.45-.72.63-1.17A.27.27,0,0,0,154.61,104.31Z"/></g><g class="cls-7"><path d="M148,113l.09-.09A.09.09,0,0,0,148,113Z"/></g><g class="cls-7"><path d="M186.53,69.24c-.27.18-.18.36-.45.81a3.52,3.52,0,0,1-1,1.08,10,10,0,0,1-1.44,1.08,1.7,1.7,0,0,1-.72.18,13.73,13.73,0,0,1-3.88.09c-2.07-.18-3.78-.45-5.86-.72a18,18,0,0,1-2.43-.45c-.72-.18-1.44-.45-2.25-.63a11.15,11.15,0,0,0-1.72-.18,9.4,9.4,0,0,0-2.25,0,5.13,5.13,0,0,0-1.17.09c-.27.09-.27.36-.27.54-.09,0-.18-.09-.27,0a.56.56,0,0,0-.09,1.08,7.67,7.67,0,0,0,2.07.27,24.84,24.84,0,0,1,3,.36c2.43.46,4.77,1.36,7.3,1.72.9.18,1.8.45,2.7.54a15.59,15.59,0,0,0,2.89.18,4.34,4.34,0,0,0,1.08,0,.77.77,0,0,0,.45-.27v-.18h0v-.18c0-.09.09-.09.09-.18h0c-.09-.09-.18-.27-.36-.27a8.07,8.07,0,0,0,2.16-.63c.09,0,.09-.09.18-.09s.09-.09.18-.09a7.9,7.9,0,0,0,1.18-1.27.09.09,0,0,1,.09-.09c0-.09.09-.09.09-.18.18-.54.36-1,.54-1.53.09-.27.18-.63.27-.9S186.53,69.15,186.53,69.24Zm-7.76,4.69a15.82,15.82,0,0,1-2.43-.45,10.46,10.46,0,0,1-1.62-.36c1.08.18,2.07.27,2.88.45a26.08,26.08,0,0,0,2.62.45c.18,0,.36.09.54.09A11.59,11.59,0,0,1,178.77,73.93Z"/></g><g class="cls-7"><path d="M180,65.63a11.33,11.33,0,0,0-.36-2.43c-.28-1.26-.55-2.44-.82-3.7,0-.09-.09-.27-.09-.36a.54.54,0,0,0-.09-.36c-.09-.18-.27-.18-.45-.18a15.68,15.68,0,0,1-.45-2c-.18-.63-.36-1.17-.54-1.72a.27.27,0,0,0,0-.36c-.18-.45-.45-.81-.63-1.26-.09-.18-.09-.36-.27-.45a.43.43,0,0,0-.63.36c.09.54.36,1,.45,1.53a14.42,14.42,0,0,1,.63,2.08c.27,1.53.72,3.06.9,4.69a4.38,4.38,0,0,1,.09,1.08,19,19,0,0,1,.27,1.89c.09.54.09,1.17.18,1.71V66a.67.67,0,0,0,.09.45.51.51,0,0,0,.63.36,1.27,1.27,0,0,0,.55-.45c.18.09.45.09.54-.09Z"/></g><path d="M196.35,67.62h0a.29.29,0,0,1-.27-.27,105.38,105.38,0,0,1,3.79-16.59c0-.09.18-.18.27-.18s.18.18.18.27a116.39,116.39,0,0,0-3.7,16.5A.29.29,0,0,1,196.35,67.62Z"/><path d="M195.45,75.91h0a.24.24,0,0,1-.27-.27l.45-4.87c0-.09.09-.27.27-.18s.27.09.18.27l-.45,4.87C195.72,75.82,195.54,75.91,195.45,75.91Z"/><path d="M193.47,56.35h0a.29.29,0,0,1-.27-.27,22.15,22.15,0,0,1,1.71-5.41c.09-.09.18-.18.36-.09s.18.18.09.36a21.31,21.31,0,0,0-1.62,5.32C193.65,56.26,193.56,56.35,193.47,56.35Z"/><g class="cls-7"><path d="M153.35,65.45c.18-.27.45-.72.27-.54.27-.45.54-.9.81-1.26a14.07,14.07,0,0,0,1.08-1.53,5.77,5.77,0,0,0,.55-1.81v-.09c0-.27.09-.45.09-.72v-.45a10.89,10.89,0,0,0-.09-1.71,22.2,22.2,0,0,1,.09-2.44.49.49,0,0,0-.64.46,14.77,14.77,0,0,1-.45,3.33c-.18.63-.27,1.26-.45,1.89-.63,1.36-1,2.17-1.71,3.7a8,8,0,0,0-.45.9,1.48,1.48,0,0,0-.18.9.43.43,0,0,0,.54.18A6.32,6.32,0,0,1,153.35,65.45Z"/></g><g class="cls-7"><path d="M137.93,131.35a.68.68,0,0,0-.36.18l-.54.27a2,2,0,0,1-1.62.09c-.36-.09-.36-.09-.45-.18h-.09a.53.53,0,0,0-1,.37c.36,1.08,1.71,1.08,2.61.81a3.16,3.16,0,0,0,1.26-.54c.18-.09.46-.18.55-.46A.43.43,0,0,0,137.93,131.35Z"/></g><g class="cls-7"><path d="M157.68,130.63a.57.57,0,0,0-.81-.18c-.18.18,0,0-.27.18a1.11,1.11,0,0,1-.45.18h-.27a.2.2,0,0,1-.19-.18h0a.69.69,0,0,0-.45-.18.65.65,0,0,0-.45,1.08,1.68,1.68,0,0,0,2.35.09C157.32,131.35,157.86,131.08,157.68,130.63Z"/></g><g class="cls-7"><path d="M200.32,82.31c-.09-.36-.36-.36-.72-.36a13.29,13.29,0,0,0-1.89-.09c-2.44-.09-4.78.09-7.22.18-1.62.09-3.24.27-4.86.27-1.18-.09-2.44.09-3.61.09s-2.43-.09-3.61-.18a3.38,3.38,0,0,1-.9-.09c-.18,0-.36-.09-.45,0a.52.52,0,0,0,.18,1,47.62,47.62,0,0,0,5,.36c.72,0,1.44-.09,2.16-.09a22.07,22.07,0,0,0,2.44,0c1.53-.09,3.06-.27,4.6-.36,2.34-.09,4.68-.27,7-.18.45,0,.81.09,1.26.09A.51.51,0,0,0,200.32,82.31Z"/></g><g class="cls-7"><path d="M200.14,97.73a.6.6,0,0,0-.54.09.68.68,0,0,1-.36.18c-.09,0-.09,0-.18.09h0a8.31,8.31,0,0,1-3.25.63,22.87,22.87,0,0,1-3.51.09c-1.36,0-2.71-.09-4-.18a62.91,62.91,0,0,0-7.12.09c-1.08.09-2.26,0-3.34.09-2.61.18-5.23.63-7.84.18a13.56,13.56,0,0,1-2-.36,4.46,4.46,0,0,1-1-.36.6.6,0,0,0-.54-.09c-.63.09-.72,1-.09,1.08a16.43,16.43,0,0,0,6.22,1c2.08,0,4.06-.36,6-.45,2.62,0,5.14-.18,7.76-.18,1.08,0,2.16.09,3.24.09,1.44,0,2.89.09,4.33.09,1.08,0,2.07-.18,3.07-.27a6.45,6.45,0,0,0,2.25-.63.09.09,0,0,0-.09.09,3.49,3.49,0,0,0,1-.54C200.59,98.36,200.5,97.82,200.14,97.73Z"/></g><g class="cls-7"><path d="M165.07,97.1a1.8,1.8,0,0,0-1.17-.18c-1.62-.09-3.25-.09-4.87-.09a.54.54,0,0,0,0,1.08c1.8.09,3.52.09,5.32.18h.45c.09,0,.18,0,.18-.09A.51.51,0,0,0,165.07,97.1Z"/></g><g class="cls-7"><path d="M187.52,91.6a4.62,4.62,0,0,0,.18-1,3.9,3.9,0,0,1,.09-.45c-.27-.09-.54.18-.72.45l.09-.09c-.09.19-.18.28-.27.46-.18.36-.45.72-.63,1.08l-.09.09-.36.36c-.18.18-1.27,1-1.36,1.17a12.33,12.33,0,0,1-1.26.72,10.56,10.56,0,0,1-4.15,1.8H179c-.18.09-.36.09-.54.18h.72c.91,0,1.45-.09,2-.09h.36a12.75,12.75,0,0,1,2.07-.09,2,2,0,0,0,.9-.18,6,6,0,0,0,1.72-2h0a5.82,5.82,0,0,0,.72-.81l-.09.09c.09-.18.27-.36.36-.54l.09-.18c.09-.18.18-.27.18-.45A1.58,1.58,0,0,0,187.52,91.6Z"/></g><path class="cls-5" d="M151.91,75.64c3.15,0,6.22.09,9.37.09l.09-2.7H151.28Z"/><path d="M161.28,76h0l-9.37-.09c-.09,0-.18-.09-.27-.18L151,73.12v-.19c.09-.09.09-.09.18-.09h10.09c.09,0,.09,0,.18.09s.09.1.09.19l-.09,2.7C161.55,75.91,161.46,76,161.28,76Zm-9.19-.54,8.92.09V73.3h-9.55Z"/><polygon class="cls-5" points="121.35 57.97 145.33 58.15 153.62 75.1 129.37 75.28 121.35 57.97"/><path d="M129.37,75.46a.19.19,0,0,1-.18-.18l-8-17.22v-.27c0-.09.09-.09.18-.09h0l24,.09a.19.19,0,0,1,.18.18l8.29,17v.27c0,.09-.09.09-.18.09l-24.25.18Zm-7.66-17.22L129.55,75l23.62-.18-8-16.5Z"/><path class="cls-5" d="M136.49,64.91a1.52,1.52,0,0,0-1.71.72,1.69,1.69,0,0,0,.45,1.9,2.1,2.1,0,0,0,1.89.45,1.53,1.53,0,0,0,.9-.54,1,1,0,0,0,.19-.73C138.3,65.81,137.93,65.09,136.49,64.91Z"/><path d="M136.67,68.25a2.12,2.12,0,0,1-1.53-.54,2,2,0,0,1-.54-2.17,1.81,1.81,0,0,1,2-.9h0c1.72.18,2,1.17,2,2a1.55,1.55,0,0,1-.27.91,1.3,1.3,0,0,1-1.09.63A1.14,1.14,0,0,1,136.67,68.25Zm-.45-3.07a1.35,1.35,0,0,0-1.26.63,1.42,1.42,0,0,0,.36,1.63,1.9,1.9,0,0,0,1.71.36,1.74,1.74,0,0,0,.81-.45,1.72,1.72,0,0,0,.18-.64,1.46,1.46,0,0,0-1.53-1.53h-.27Z"/><path d="M122.88,59.59h0a.09.09,0,0,1-.09-.09,4.51,4.51,0,0,1,.63-.72h.09v.09c-.18.18-.36.45-.63.72Z"/><path d="M123.42,60.49h0l-.09-.09c.54-.63,1.17-1.26,1.71-1.8h.09v.09a15.75,15.75,0,0,1-1.71,1.8Z"/><path d="M124,61.58h0c-.09-.09-.09-.09-.09-.18.81-.91,1.71-1.81,2.62-2.71h.09v.09c-.82,1-1.72,1.89-2.62,2.8Z"/><path d="M124.5,62.84h0A35.23,35.23,0,0,1,127.93,59H128v.09c-1.17,1.17-2.35,2.44-3.52,3.79Z"/><path d="M125,63.83h0L129.19,59h.09v.09L125,63.83Z"/><path d="M125.67,65h0a71,71,0,0,1,5.41-6.13h.09V59c-1.89,2-3.69,4-5.5,6Z"/><path d="M126.21,66.26h0l6.5-7.39h.09V59l-6.59,7.3Z"/><path d="M126.67,67.53h0L134.24,59h.09v.09l-7.66,8.48Z"/><path d="M127.3,68.7h0a37.44,37.44,0,0,1,4-4.6c.54-.63,1.27-1.44,2.08-2.34s1.53-1.9,2.34-2.8h.09v.09c-.81.9-1.62,1.89-2.34,2.8a18.92,18.92,0,0,1-2.08,2.34c-1.35,1.35-2.7,3-4,4.51Z"/><path d="M127.84,70h0l9.55-11h.09v.09L127.84,70C127.93,69.87,127.93,70,127.84,70Z"/><path d="M128.47,71h0l11-12.17h.09V59L128.47,71Z"/><path d="M129.1,72.48h0a70.25,70.25,0,0,1,4.78-5.41H134v.1a69.58,69.58,0,0,0-4.87,5.31Z"/><path d="M136.49,64.19h0a31.77,31.77,0,0,1,2.35-2.7,35.38,35.38,0,0,0,2.43-2.62h.09V59c-.81.9-1.62,1.71-2.43,2.62a32.36,32.36,0,0,1-2.44,2.61Z"/><path d="M129.64,73.66h0l4.87-5.59h.09v.09l-5,5.5Z"/><path d="M138,64.64h0a55.9,55.9,0,0,1,5.32-5.86h.09v.09c-1.89,1.8-3.69,3.79-5.41,5.77Z"/><path d="M130.45,74.56h0c-.09-.09-.09-.09-.09-.18,1.8-1.81,3.61-3.7,5.41-5.59h.09v.09q-2.56,3-5.41,5.68Z"/><path d="M138.93,65.63h0c-.09-.09-.09-.09-.09-.18,2-2.16,4-4.23,6.13-6.31h.09v.09c-2.08,2.17-4.15,4.24-6.13,6.4Z"/><path d="M132.16,74.56h0c-.09-.09-.09-.09-.09-.18,1.09-1.08,2.08-2.17,3.16-3.34,3.34-3.51,6.85-7.21,10.37-10.64h.09v.09c-3.52,3.43-6.94,7.13-10.37,10.64-1,1.17-2.07,2.26-3.16,3.43Z"/><path d="M134.15,74.56h0a156.54,156.54,0,0,1,12.08-12.62h.09V62c-4.06,4-8.3,8.11-12.17,12.53Z"/><path d="M136.13,74.47h0c3.34-3.88,7-7.67,10.64-11.36h.09v.09c-3.61,3.6-7.21,7.39-10.73,11.27Z"/><path d="M138.21,74.38h0c-.09-.09-.09-.09-.09-.18l9.19-9.65h.09v.09l-9.19,9.74Z"/><path d="M140.46,74.29h0A109,109,0,0,1,148,66.08h.09v.09c-2.61,2.53-5.14,5.32-7.66,8.12Z"/><path d="M142.26,74.29h0a59.85,59.85,0,0,1,4-4.51c.72-.81,1.44-1.53,2.16-2.34h.09v.09c-.72.81-1.44,1.62-2.16,2.34-1.26,1.44-2.71,2.88-4.06,4.42Z"/><path d="M144.07,74.29h0c-.1-.09-.1-.09-.1-.18,1.45-1.45,3.7-3.88,5.05-5.32h.09v.09c-1.26,1.53-3.6,4-5,5.41Z"/><path d="M146,74.2h0c-.09-.09-.09-.09-.09-.18,1.26-1.36,2.52-2.71,3.69-4.06h.09v.09A40.36,40.36,0,0,1,146,74.2Z"/><path d="M147.67,74.29h0c-.09-.09-.09-.09-.09-.18l2.71-2.89h.09v.09l-2.71,3Z"/><path d="M149.47,74.29h0c-.09-.09-.09-.09-.09-.18a16.43,16.43,0,0,1,1.72-1.72h.09v.09c-.54.55-1.08,1.18-1.72,1.81Z"/><path d="M151.19,74.38h0c-.09-.09-.09-.09-.09-.18l.63-.63h.09v.09l-.63.72Z"/><polygon class="cls-5" points="166.06 139.56 150.2 77.35 153.08 76.54 168.95 139.56 166.06 139.56"/><path d="M169,139.83h-3c-.09,0-.18-.09-.27-.18l-15.77-62.3v-.18c0-.09.09-.09.18-.09l3-.72h.18c.09,0,.09.09.09.18l15.87,63v.18A.33.33,0,0,1,169,139.83Zm-2.71-.45h2.44L153,76.9l-2.43.63Z"/><polygon class="cls-5" points="62.48 139.56 78.34 77.35 75.37 76.54 59.59 139.56 62.48 139.56"/><path d="M62.48,139.83h-3c-.09,0-.18,0-.18-.09s-.09-.18,0-.18l15.87-63c0-.09.09-.09.09-.18h.18l3,.72c.09,0,.09.09.18.09v.18l-15.86,62.3C62.66,139.74,62.57,139.83,62.48,139.83Zm-2.62-.45H62.3L78.07,77.53l-2.43-.63Z"/><rect class="cls-5" x="58.87" y="75.1" width="112.15" height="3.07"/><path d="M171,78.34H58.87a.29.29,0,0,1-.27-.27V75a.29.29,0,0,1,.27-.27H171a.29.29,0,0,1,.27.27v3.06A.24.24,0,0,1,171,78.34ZM59.14,77.89h111.7V75.37H59.14Z"/><g class="cls-7"><path d="M77.89,78.16a3.9,3.9,0,0,0-1.44-.09c-.45.09-1,0-1.44.09a.61.61,0,0,0,.27,1.18h2c.27,0,.63,0,.81-.27S78.25,78.34,77.89,78.16Z"/></g><g class="cls-7"><path d="M153.53,78.25a12.21,12.21,0,0,1-1.62-.09h-1.08c-.54.09-.63.91-.09,1a14.54,14.54,0,0,0,2,0h.63c.18,0,.36,0,.45-.18C154.07,78.89,153.89,78.34,153.53,78.25Z"/></g><path class="cls-5" d="M90.51,67.17a4.55,4.55,0,0,1,2-1.45,2.91,2.91,0,0,1,2.43.36,2,2,0,0,1,.63,2.26,2.81,2.81,0,0,1-.81,1,3.25,3.25,0,0,1-1.35.72,10.53,10.53,0,0,1-1.8.45c-.64.09-1.36.27-2,.36-.18,0-.45.09-.63,0a.6.6,0,0,1-.36-.45c0-.18.09-.27.27-.36A3,3,0,0,1,90,69.51a17.91,17.91,0,0,0,3.79-1,1.19,1.19,0,0,0,.72-1,.88.88,0,0,0-.63-.82,1.49,1.49,0,0,0-1.08,0,4.9,4.9,0,0,0-1,.55c-.36.18-.63.45-1,.63-.18.09-.27.18-.45.18a.49.49,0,0,1-.45-.27.69.69,0,0,1,.18-.45C90.33,67.26,90.51,67.07,90.51,67.17Z"/><path d="M89.25,71.13H89a.72.72,0,0,1-.27-1.26,3.41,3.41,0,0,1,1.17-.54l1.36-.27a7.08,7.08,0,0,0,2.34-.72.87.87,0,0,0,.63-.72.69.69,0,0,0-.45-.64,1.53,1.53,0,0,0-.9,0,1.89,1.89,0,0,0-.9.55l-1,.63c-.19.09-.37.27-.55.27a.63.63,0,0,1-.54-1.08,1,1,0,0,1,.45-.46,4.1,4.1,0,0,1,2.08-1.44A3,3,0,0,1,95,65.9a2.32,2.32,0,0,1,.72,2.53,3.19,3.19,0,0,1-.9,1.08,4.56,4.56,0,0,1-1.44.81,13.16,13.16,0,0,1-1.8.45l-2,.36Zm4.15-4.69a1.14,1.14,0,0,1,.54.09,1.18,1.18,0,0,1,.72,1.09,1.44,1.44,0,0,1-.9,1.17,6.24,6.24,0,0,1-2.52.72l-1.36.27a2.43,2.43,0,0,0-1,.45l-.18.18a.19.19,0,0,0,.18.18h.54l2-.36a6,6,0,0,0,1.71-.45,5.74,5.74,0,0,0,1.26-.72,1.7,1.7,0,0,0,.72-.9,1.76,1.76,0,0,0-.63-2,2.58,2.58,0,0,0-2.16-.36,3.93,3.93,0,0,0-1.9,1.36l-.09.09c-.09.09-.09.18-.27.27s-.09.18-.09.27a.31.31,0,0,0,.18.09.68.68,0,0,0,.36-.18l1-.64a3.49,3.49,0,0,1,1-.54A4.13,4.13,0,0,1,93.4,66.44Z"/><path class="cls-5" d="M91.06,63.74H75a24.92,24.92,0,0,0,.18,4.51,7.23,7.23,0,0,0,2,4A8,8,0,0,0,81.68,74a9.8,9.8,0,0,0,4-.09,7.12,7.12,0,0,0,4.41-4A12,12,0,0,0,91.06,63.74Z"/><path d="M83.75,74.47a12.41,12.41,0,0,1-2-.18,8.31,8.31,0,0,1-4.6-1.9,6.77,6.77,0,0,1-2.07-4,19.73,19.73,0,0,1-.18-4.6.29.29,0,0,1,.27-.27h16c.09,0,.27.09.27.18a12,12,0,0,1-.91,6.4,7.6,7.6,0,0,1-6.85,4.42ZM75.28,64a22.34,22.34,0,0,0,.18,4.24,6.23,6.23,0,0,0,2,3.78,8.41,8.41,0,0,0,4.42,1.81,9.11,9.11,0,0,0,3.88-.09A7,7,0,0,0,90,70a12.29,12.29,0,0,0,.9-5.95H83.93C80.78,63.92,77.53,64,75.28,64Z"/><path class="cls-5" d="M73.2,73.21c6.68.36,13.35.36,19.75.09a3.44,3.44,0,0,1-2,1.35,24.62,24.62,0,0,1-3.7.45A59.76,59.76,0,0,1,77.44,75a8.88,8.88,0,0,1-2.16-.27A4,4,0,0,1,73.2,73.21Z"/><path d="M83,75.46c-1.8,0-3.51-.09-5.68-.18A8.88,8.88,0,0,1,75.19,75a4.1,4.1,0,0,1-2.26-1.62v-.27C73,73,73,73,73.11,73c6.23.36,12.9.36,19.75.09.09,0,.18,0,.18.09s0,.18,0,.27A4,4,0,0,1,91,74.92a17.76,17.76,0,0,1-3.34.45h-.36C85.74,75.46,84.38,75.46,83,75.46Zm-9.37-2a3.91,3.91,0,0,0,1.71,1,7.67,7.67,0,0,0,2.07.27,89.75,89.75,0,0,0,9.83.09h.36a29.62,29.62,0,0,0,3.24-.36,3.28,3.28,0,0,0,1.54-.9C85.92,73.75,79.61,73.75,73.66,73.48Z"/><path d="M83.12,62.39c-.09,0-.09,0-.18-.09a.27.27,0,0,1,0-.36,4.18,4.18,0,0,0,.81-1,1.14,1.14,0,0,0,0-1.08.9.9,0,0,0-.45-.36c-.18-.18-.45-.27-.63-.54a1.72,1.72,0,0,1,0-1.62,3.84,3.84,0,0,1,1-1.08.25.25,0,1,1,.36.36,3.11,3.11,0,0,0-.9,1,1,1,0,0,0,0,1.08.9.9,0,0,0,.45.36c.18.18.45.27.63.54a1.55,1.55,0,0,1,.09,1.53,3.53,3.53,0,0,1-.9,1.09C83.21,62.3,83.21,62.39,83.12,62.39Z"/><path d="M86,62.12c-.09,0-.09,0-.18-.09a.27.27,0,0,1,0-.36,1.66,1.66,0,0,0,.54-1.36c-.09-.18-.27-.45-.36-.63h0a1.71,1.71,0,0,1-.45-.9.9.9,0,0,1,.45-1c.09-.09.27,0,.36.09s0,.27-.09.36-.18.27-.18.54a1.45,1.45,0,0,0,.36.63h0a2.36,2.36,0,0,1,.45.81,1.88,1.88,0,0,1-.63,1.9Z"/><path d="M80.78,62.3c-.09,0-.09,0-.18-.09a.27.27,0,0,1,0-.36,2.41,2.41,0,0,0,.63-.82.85.85,0,0,0-.09-.81c-.09,0-.09-.09-.18-.09a.19.19,0,0,1-.18-.18,1.37,1.37,0,0,1-.09-1.8c.09-.09.18-.18.36-.09s.18.18.09.36a.94.94,0,0,0,0,1.17.31.31,0,0,0,.18.09c.09,0,.18.09.27.18a1.15,1.15,0,0,1,.27,1.36,2.2,2.2,0,0,1-.81,1A.39.39,0,0,0,80.78,62.3Z"/><path d="M80,72.93h0a7.51,7.51,0,0,1-3-3.51v-.09h.09A7.11,7.11,0,0,0,80,72.75c.09,0,.09.09,0,.18C80.06,72.84,80.06,72.93,80,72.93Z"/><path d="M81.5,72.84h0a6.86,6.86,0,0,1-2.35-2.16v-.09h.1a5.53,5.53,0,0,0,2.25,2.07c0,.09.09.09,0,.18Z"/><path d="M82.94,72.75h0a4.32,4.32,0,0,1-1.8-1.53v-.09h.09a5.9,5.9,0,0,0,1.71,1.62Z"/><path d="M83.93,72.66h0a2.17,2.17,0,0,1-.72-.54V72h.09a4.16,4.16,0,0,0,.63.63c.09-.18.09-.09,0,0Z"/><g class="cls-7"><path d="M91.06,69.51c-.09-.27-.37-.27-.55-.09a5.34,5.34,0,0,1-.36.72.68.68,0,0,0-.18.36c-.09.18.18.45.36.27a1.53,1.53,0,0,0,.54-.9C91,69.78,91.15,69.69,91.06,69.51Z"/></g><g class="cls-7"><path d="M91.69,66.26c-.09-.27-.63-.18-.54.09v0a.67.67,0,0,0-.09-.45.28.28,0,0,0-.46.18,3.81,3.81,0,0,1-.18,1.45c-.18.54-.45,1.08-.63,1.62-.09.09-.09.18-.18.36a3.16,3.16,0,0,1-.45.72,13.73,13.73,0,0,1-1.62,1.71c-.09.09-.54.36-.81.54h0c-.18.09-.45.09-.63.18a6.88,6.88,0,0,1-1.45.09H83.3a10.89,10.89,0,0,1-1.71-.09H81.5a3.69,3.69,0,0,0-1-.09A7.32,7.32,0,0,1,79,72.39h0c-.18-.09-.27-.27-.45-.18a.36.36,0,0,0-.18.54,3.3,3.3,0,0,0,2.08.64,12.41,12.41,0,0,0,2,.18h2.89c.27,0,.63-.09.9-.09a3.69,3.69,0,0,0,1.71-.82,5.43,5.43,0,0,0,.72-.72A8.06,8.06,0,0,0,90,70.23a6.25,6.25,0,0,0,.45-1.17c0-.09.09-.18.09-.27a5.07,5.07,0,0,0,.36-1.08v-.09a.29.29,0,0,0,.55-.09,1.16,1.16,0,0,0,.09-.55A1.36,1.36,0,0,0,91.69,66.26Z"/></g><g class="cls-7"><path d="M91.87,73.84a.33.33,0,0,0-.27.09l-.54.18a16.69,16.69,0,0,1-2.08.27,33.31,33.31,0,0,1-4.24.09h-4.5a25.25,25.25,0,0,1-4.6-.27c-.18,0-.27-.18-.45-.09l-.9-.27c-.27,0-.27.45,0,.54l1,.27c.09,0,.27.09.36.09h0a12.29,12.29,0,0,0,3.7.36c.54,0,1.17.09,1.71.09h1.71c2.07-.09,4.15,0,6.31-.18a9.2,9.2,0,0,0,2.17-.36c.18-.09.18,0,.27-.09a.91.91,0,0,1,.27-.09c-.09.09.09-.09.18-.09h.09l.09-.09C92.05,74,92.05,73.84,91.87,73.84Z"/></g><path class="cls-5" d="M141.54,52.83a6.61,6.61,0,0,1-.18-5.95c.54-1,1.26-1.89,1.8-2.88,1.54-3.25-.36-7.31-3.15-9.2s-6.31-2.25-9.65-2.52a32.08,32.08,0,0,0-9.28.18,9.25,9.25,0,0,0-4.87,2.43c-2.8,2.89-2.35,8.56.9,10.82,2.07,1.44,4.69,1.53,7.21,1.62,2.17,0,4.42.09,6.58.09a13,13,0,0,1,5.59.9C138.48,49.13,140,51.21,141.54,52.83Z"/><path d="M141.54,53.1c-.09,0-.09,0-.18-.09-.36-.36-.72-.81-1.08-1.17a13,13,0,0,0-4-3.43,12.85,12.85,0,0,0-5.5-.9l-6.58-.09c-2.25,0-5.14-.09-7.3-1.62a7.4,7.4,0,0,1-2.8-5.32,7.61,7.61,0,0,1,1.9-5.86,9.51,9.51,0,0,1,5-2.43,35.94,35.94,0,0,1,9.37-.18c3,.27,6.76.54,9.74,2.52,2.79,1.89,4.87,6.13,3.24,9.56-.27.54-.63,1.08-.9,1.53a10.71,10.71,0,0,0-.81,1.35,6.23,6.23,0,0,0,.18,5.77.17.17,0,0,1-.09.27C141.63,53.1,141.63,53.1,141.54,53.1Zm-16-20.91a18.36,18.36,0,0,0-4.41.45A8.55,8.55,0,0,0,116.39,35a7.1,7.1,0,0,0-1.71,5.5,6.48,6.48,0,0,0,2.61,5c2.07,1.53,4.87,1.53,7,1.53l6.58.09a12.54,12.54,0,0,1,5.68.9,15.28,15.28,0,0,1,4.15,3.52l.18.18a7,7,0,0,1,.36-4.87,7.77,7.77,0,0,1,.9-1.44,12.6,12.6,0,0,0,.9-1.44c1.45-3.16-.45-7.13-3.06-8.93-2.8-2-6.4-2.25-9.47-2.43C128.74,32.37,127.12,32.19,125.49,32.19Z"/><g class="cls-7"><path d="M114.49,40.84h0c.1,0,.1.18.19.27a4.85,4.85,0,0,0,.63,1.17c.27.27.45.63.72.9h0a5.18,5.18,0,0,0,1.26,1.18,7,7,0,0,0,3.79,1.44c.45,0,.81.09,1.26.09.09,0,1.08.09,1.62.18.9.09,1.8.18,2.62.18,1.26.09,2.43.18,3.69.18.81,0,1.62-.09,2.44-.09a8.52,8.52,0,0,1,2.52.36,11.2,11.2,0,0,1,2.52,1,7.88,7.88,0,0,1,1.45,1c.27.27.63.45.81.82,0,0,0-.1.09.09.18.36.18.27.27.45V50a7.51,7.51,0,0,0,.72,1.08c0,.18.09.27.09.45a.33.33,0,0,0,.09.27c-.09.18-.36.36-.54.27a9.53,9.53,0,0,0-.9-1.08l-1.44-1.44a7.22,7.22,0,0,0-1.72-1.18,12.85,12.85,0,0,0-2-.72c-.36-.09-.72-.09-1-.18a4.38,4.38,0,0,1-1.08-.09.33.33,0,0,0-.27.09,11.08,11.08,0,0,0-1.72-.09h-.81c-1.35-.09-2.7-.09-4.15-.09h-4a10.61,10.61,0,0,1-3.43-.81A6.06,6.06,0,0,1,115,43c-.18-.45-.27-1-.45-1.53,0-.18-.1-.27-.1-.45C114.4,41.29,114.4,40.93,114.49,40.84Z"/></g><path d="M138.3,41.47h-9.11a.27.27,0,1,1,0-.54h9.11a.29.29,0,0,1,.27.27Q138.44,41.47,138.3,41.47Z"/><path d="M134.33,37.59H120a.27.27,0,0,1,0-.54h14.34a.29.29,0,0,1,.27.27Q134.46,37.59,134.33,37.59Z"/><path d="M125,41.47H119.9a.27.27,0,1,1,0-.54H125a.29.29,0,0,1,.27.27A.24.24,0,0,1,125,41.47Z"/><path class="cls-5" d="M88.31,268.42c5.85,8.42,7.48,20.11,3.86,29.46-2.22,5.14-5.38,10.05-7.48,15.2-6,16.95,5.38,36.12,20.22,44.19s32.5,8.07,49.22,7.72c15.43-.24,31.1-.82,46.06-5.5,8.77-2.69,17-7.13,23-14.5,12.5-15.78,7.36-43.72-9.83-53.31-11-6.19-24.08-5.26-36.7-4.44-10.76,1.05-22,1.75-32.74,2.81-9.47.93-19.29,1.52-28.29-1.76C105.38,285.25,96.73,275.78,88.31,268.42Z"/><path d="M88.19,267.13c.47,0,.47,0,.94.35,2,1.64,4,3.63,6,5.26,6.55,6.2,13.45,12.28,21.4,15.08,8.88,3.16,18.82,2.69,27.82,1.76l32.74-2.81c11.22-1.17,25.6-2.1,37.06,4.45a36.66,36.66,0,0,1,16.48,25c2,11.11-.47,22.68-6.55,30-5.26,6.43-12.86,11.22-23.5,14.61-15.43,4.68-31.21,4.91-46.53,5.5-15,.11-33.9.7-49.68-7.72-14.85-8.06-27.24-28.06-20.93-45.94a86,86,0,0,1,3.74-8.07c1.17-2.34,2.69-4.79,3.39-7.13a31.16,31.16,0,0,0-3.74-28.64c-.47-.36-.11-1.41.35-1.41C87.73,267.13,87.73,267.13,88.19,267.13Zm90.14,96c7.13-.7,14.73-1.87,21.75-4.44,10-3.27,17.3-7.6,22.09-14,5.61-7.36,7.72-17.53,5.73-28.17-1.87-10.17-7.36-19.18-15.43-23.38-11.11-6.55-25-5.27-35.77-4.1L144,291.8c-9,.94-19.29,1.87-28.64-1.64-8.42-3.27-15.43-9.35-22.33-15.43a5.74,5.74,0,0,1-.94-.82c3,7.84,3.51,16.84.59,24.44A41.93,41.93,0,0,1,88.9,306a64.77,64.77,0,0,0-3.74,7.59c-5.62,16.37,5.72,35.19,19.64,42.91,14.84,8.42,33,8.07,48.28,7.37C162.08,363.82,170.27,363.93,178.33,363.11Z"/><g class="cls-7"><path d="M228.72,314.6h0c-.47,0-.58-.82-1.05-1.29a26.65,26.65,0,0,0-3.74-5.49c-1.52-1.17-2.58-2.93-4.1-4.1h0a24,24,0,0,0-6.89-5.14c-.94-.82-8.65-5.49-19.53-5.26-2.22.23-4.09,0-6.31.23-.47,0-5.38.12-8.18-.11-4.56,0-9,0-13.1.35-6.31.23-12.16.35-18.47.93-4.09.35-8.07,1.29-12,1.64a43.15,43.15,0,0,1-12.74-.59,65.4,65.4,0,0,1-13.1-3.62,44.44,44.44,0,0,1-7.71-4.21c-1.52-1.17-3.39-1.87-4.45-3.62,0,0,0,.47-.46-.35-1.06-1.76-1.06-1.29-1.52-2.11v.47a33,33,0,0,0-4.1-5c-.11-.93-.58-1.28-.7-2.22A1.47,1.47,0,0,0,90,273.8c.35-.94,1.64-2,2.57-1.64a50.16,50.16,0,0,0,5,4.91c2.45,2,5.38,4.44,7.83,6.43a37,37,0,0,0,9.12,5,56.71,56.71,0,0,0,10.17,2.57c1.87.23,3.62.12,5,.35a21.07,21.07,0,0,1,5.38-.12,1.48,1.48,0,0,0,1.28-.58,53.07,53.07,0,0,0,8.54-.35c1.4-.12,2.68-.24,4.09-.35,6.78-.24,13.44-.94,20.69-1.64,4.09-.35,8.07-.82,11.69-1.17a8.52,8.52,0,0,0,1.76-.23c.46,0,.93-.12,1.4-.12a8.33,8.33,0,0,0,1.75-.23c.47,0,.94-.12,1.4-.12a7.79,7.79,0,0,0,1.76-.24,52.46,52.46,0,0,1,17.42,2.34,30.36,30.36,0,0,1,17.88,15.44c1.17,2.1,1.88,4.79,3,7.36.12.94.59,1.29.71,2.22C229,312.38,229.19,314.13,228.72,314.6Z"/></g><path d="M105.26,310.27c.12.12.24.12.24.24a.43.43,0,0,1-.12.35c-.12.11-.12.11-.23.11a.44.44,0,0,1-.35-.11,3.68,3.68,0,0,0-1.17-.59,4.87,4.87,0,0,0-1.29-.23,4.07,4.07,0,0,0-1.64.35,3.45,3.45,0,0,0-1.28.82,3.09,3.09,0,0,0-.82,1.28,4,4,0,0,0-.35,1.76,4.52,4.52,0,0,0,1.17,3,3,3,0,0,0,1.28.81,7.12,7.12,0,0,0,1.52.36,4.12,4.12,0,0,0,1.29-.24,5.78,5.78,0,0,0,1.17-.58c.12,0,.23-.12.35-.12a.38.38,0,0,1,.23.12.41.41,0,0,1,.12.35.26.26,0,0,1-.23.23,5.42,5.42,0,0,1-.82.47l-1,.35a3.2,3.2,0,0,1-1.06.12,4.94,4.94,0,0,1-1.87-.35,3.63,3.63,0,0,1-1.52-1.06,4,4,0,0,1-1-1.63,5.79,5.79,0,0,1-.35-2.11,5.49,5.49,0,0,1,.35-2,5.1,5.1,0,0,1,1-1.64,4.42,4.42,0,0,1,1.52-1.05,5.2,5.2,0,0,1,1.87-.35,5.71,5.71,0,0,1,1.52.23A7.62,7.62,0,0,0,105.26,310.27Z"/><path d="M110.29,312.14a2.5,2.5,0,0,1,1.4.35,2.61,2.61,0,0,1,.82,1.05,5.79,5.79,0,0,1,.24,1.41v4a.41.41,0,0,1-.12.35.42.42,0,0,1-.35.12.42.42,0,0,1-.47-.47v-4a3.6,3.6,0,0,0-.23-1.05,1.19,1.19,0,0,0-.59-.71c-.23-.23-.58-.23-1-.23a4.41,4.41,0,0,0-1.17.23,5.44,5.44,0,0,0-.82.71,1.91,1.91,0,0,0-.35,1.05v4a.44.44,0,0,1-.11.35.44.44,0,0,1-.36.12.41.41,0,0,1-.46-.47v-9.58a.41.41,0,0,1,.46-.47.44.44,0,0,1,.36.12.44.44,0,0,1,.11.35v4.56l-.35.46a2.18,2.18,0,0,1,.24-.82,3.2,3.2,0,0,1,.58-.7,2.71,2.71,0,0,1,.82-.46A11,11,0,0,1,110.29,312.14Z"/><path d="M120.93,312.26a.42.42,0,0,1,.35.12.41.41,0,0,1,.12.35V319a.47.47,0,1,1-.94,0V317.4l.24-.11a2.9,2.9,0,0,1-.24.81,1.69,1.69,0,0,1-.58.71,2.71,2.71,0,0,1-.94.58,3.09,3.09,0,0,1-2.8-.23,2.68,2.68,0,0,1-1.17-1.41,4.78,4.78,0,0,1-.47-1.87,3.82,3.82,0,0,1,.47-2,3,3,0,0,1,1.17-1.29,2.66,2.66,0,0,1,1.63-.47,4.07,4.07,0,0,1,1.17.24,2.57,2.57,0,0,1,.94.58,2,2,0,0,1,.58.82,2.67,2.67,0,0,1,.24.93l-.35-.23v-1.75a.44.44,0,0,1,.11-.35A.71.71,0,0,1,120.93,312.26ZM118,318.69a2.39,2.39,0,0,0,1.28-.35,2.93,2.93,0,0,0,.94-1,3.3,3.3,0,0,0,.35-1.52,3.24,3.24,0,0,0-.35-1.52,2.12,2.12,0,0,0-.94-1.06,2.53,2.53,0,0,0-2.57,0,2.78,2.78,0,0,0-.93,1.06,3.13,3.13,0,0,0-.36,1.52,3.19,3.19,0,0,0,.36,1.52,2.08,2.08,0,0,0,.93,1A2.4,2.4,0,0,0,118,318.69Z"/><path d="M126.89,312a2.85,2.85,0,0,1,1.52.35,2.48,2.48,0,0,1,.82,1.05,3,3,0,0,1,.23,1.4v4.09a.41.41,0,0,1-.46.47.42.42,0,0,1-.47-.47v-4.09a3.33,3.33,0,0,0-.24-1.05,1.16,1.16,0,0,0-.58-.7c-.23-.24-.58-.24-1-.24a4.07,4.07,0,0,0-1.17.24,6.21,6.21,0,0,0-.94.7,1.91,1.91,0,0,0-.35,1.05v4.09a.41.41,0,0,1-.46.47.44.44,0,0,1-.36-.12.44.44,0,0,1-.11-.35v-6.31a.45.45,0,0,1,.11-.35.44.44,0,0,1,.36-.12.43.43,0,0,1,.35.12.45.45,0,0,1,.11.35v1.17l-.35.47a1.65,1.65,0,0,1,.24-.82,1.85,1.85,0,0,1,.7-.7,3.39,3.39,0,0,1,.93-.47A5,5,0,0,1,126.89,312Z"/><path d="M134.61,312a3.38,3.38,0,0,1,1.17.23,2.58,2.58,0,0,1,.93.58,3.27,3.27,0,0,1,.59.7,1.79,1.79,0,0,1,.23.71l-.23-.35v-1.29a.45.45,0,0,1,.11-.35.43.43,0,0,1,.35-.12.44.44,0,0,1,.36.12.45.45,0,0,1,.11.35v6.08a3.18,3.18,0,0,1-1.75,3,4.8,4.8,0,0,1-1.76.35,3.14,3.14,0,0,1-1.05-.12,6.34,6.34,0,0,1-.93-.35,1.59,1.59,0,0,1-.47-.35c-.12-.12-.12-.12-.12-.23s0-.12.12-.24.23-.11.23,0,.24.12.47.24.23.11.35.11a5,5,0,0,0,.59.12c.23,0,.46.12.7.12a2.79,2.79,0,0,0,2-.7,2.69,2.69,0,0,0,.7-1.87V317.4h.11a1.83,1.83,0,0,1-.46.82,3.08,3.08,0,0,1-.71.59,2.59,2.59,0,0,1-.81.35,2.75,2.75,0,0,1-.94.11,3,3,0,0,1-1.75-.46,4,4,0,0,1-1.17-1.29,3.43,3.43,0,0,1-.47-1.87,3.2,3.2,0,0,1,.47-1.87,3.16,3.16,0,0,1,1.17-1.29A3.42,3.42,0,0,1,134.61,312Zm.11.81a3.18,3.18,0,0,0-1.4.35,2.78,2.78,0,0,0-.93,1.06,3.13,3.13,0,0,0-.35,1.52,3.18,3.18,0,0,0,.35,1.52,2.82,2.82,0,0,0,.93,1,2.52,2.52,0,0,0,1.4.35,3.19,3.19,0,0,0,1.41-.35,2.08,2.08,0,0,0,.93-1,3.18,3.18,0,0,0,.35-1.52,3.13,3.13,0,0,0-.35-1.52,2.78,2.78,0,0,0-.93-1.06A3.19,3.19,0,0,0,134.72,312.84Z"/><path d="M143.61,319.51a3.2,3.2,0,0,1-1.87-.47,3.33,3.33,0,0,1-1.29-1.29,3.57,3.57,0,0,1-.46-2,3.36,3.36,0,0,1,.46-2,4.08,4.08,0,0,1,1.17-1.29,2.69,2.69,0,0,1,1.64-.46,3.38,3.38,0,0,1,1.17.23,2.79,2.79,0,0,1,1,.7,1.66,1.66,0,0,1,.7,1.05,5.6,5.6,0,0,1,.35,1.41c0,.11,0,.23-.11.23s-.24.12-.35.12h-5.62l-.11-.71h5.49l-.23.12V315a2.1,2.1,0,0,0-.47-1.17,1.74,1.74,0,0,0-.94-.7,3.33,3.33,0,0,0-1.05-.24,2,2,0,0,0-.82.12,1.81,1.81,0,0,0-.81.47,2.47,2.47,0,0,0-.59.93,4.13,4.13,0,0,0-.23,1.29,3.18,3.18,0,0,0,.35,1.52,2.67,2.67,0,0,0,.93,1.05,3.18,3.18,0,0,0,1.52.35,2.75,2.75,0,0,0,.94-.11,3.73,3.73,0,0,0,.7-.36c.23-.11.35-.35.47-.46a.41.41,0,0,1,.35-.12c.12,0,.23,0,.23.12s.12.11.12.23a.42.42,0,0,1-.12.35,8.27,8.27,0,0,1-1.05.94A3.66,3.66,0,0,1,143.61,319.51Z"/><path d="M158.81,315.77a3.2,3.2,0,0,1-.47,1.87,2.71,2.71,0,0,1-1.29,1.28,3.41,3.41,0,0,1-1.87.47,2.82,2.82,0,0,1-1.75-.47,7.11,7.11,0,0,1-1.29-1.28,3.44,3.44,0,0,1-.46-1.87,3.16,3.16,0,0,1,.46-1.87,2.78,2.78,0,0,1,1.29-1.29,3.3,3.3,0,0,1,1.75-.47,3.41,3.41,0,0,1,1.87.47,4.4,4.4,0,0,1,1.29,1.29A3.16,3.16,0,0,1,158.81,315.77Zm-.82,0a3.24,3.24,0,0,0-.35-1.52,2.8,2.8,0,0,0-.94-1.06,2.5,2.5,0,0,0-1.4-.35,3.15,3.15,0,0,0-1.4.35,2.12,2.12,0,0,0-.94,1.06,3.24,3.24,0,0,0-.35,1.52,3.3,3.3,0,0,0,.35,1.52,2.93,2.93,0,0,0,.94,1,2.82,2.82,0,0,0,1.4.35,3.12,3.12,0,0,0,1.4-.35,2.84,2.84,0,0,0,.94-1A3.3,3.3,0,0,0,158,315.77Z"/><path d="M163.72,312.38c.12,0,.23,0,.23.11s.12.12.12.24,0,.23-.12.23-.11.12-.23.12h-3.39c-.12,0-.24,0-.24-.12s-.11-.12-.11-.23,0-.24.11-.24.12-.11.24-.11Zm-.59-3.28h.47c.12,0,.35.12.47.12s.23.23.23.35,0,.23-.11.23-.12.12-.24.12a.43.43,0,0,1-.35-.12c-.12,0-.23-.11-.47-.11s-.35,0-.46.11l-.35.35a.88.88,0,0,0-.12.59v8.07a.43.43,0,0,1-.12.35.61.61,0,0,1-.7,0,.43.43,0,0,1-.12-.35v-8.07a1.93,1.93,0,0,1,.59-1.4A4.11,4.11,0,0,1,163.13,309.1Z"/><path d="M172.6,312a5.12,5.12,0,0,1,1.29.11,4.26,4.26,0,0,1,.93.35.65.65,0,0,1,.36.59c0,.11,0,.23-.12.23s-.12.12-.24.12-.23,0-.23-.12-.12-.12-.23-.23a1,1,0,0,0-.35-.24.93.93,0,0,0-.59-.11c-.23,0-.47-.12-.82-.12a2.82,2.82,0,0,0-1.4.35,2.93,2.93,0,0,0-1,1.05,3.48,3.48,0,0,0,0,3,2.67,2.67,0,0,0,.93,1.05,3.08,3.08,0,0,0,1.41.36c.35,0,.7,0,.81-.12s.36-.12.59-.24.35-.23.35-.35.23-.11.35-.11.23,0,.23.11.12.12.12.24a.65.65,0,0,1-.35.47,3.46,3.46,0,0,1-.93.46,4.17,4.17,0,0,1-1.29.24,3.43,3.43,0,0,1-1.87-.47,4.4,4.4,0,0,1-1.29-1.29,4,4,0,0,1,0-3.74,3.7,3.7,0,0,1,1.29-1.4A4.19,4.19,0,0,1,172.6,312Z"/><path d="M182.66,312.26a.43.43,0,0,1,.35.12.41.41,0,0,1,.12.35V319a.42.42,0,0,1-.12.35.43.43,0,0,1-.35.12.41.41,0,0,1-.35-.12.42.42,0,0,1-.12-.35V317.4l.23-.11a2.83,2.83,0,0,1-.23.81,1.77,1.77,0,0,1-.58.71,8.23,8.23,0,0,1-.94.58,3.1,3.1,0,0,1-2.81-.23,2.71,2.71,0,0,1-1.16-1.41,4.78,4.78,0,0,1-.47-1.87,3.72,3.72,0,0,1,.47-2,3.09,3.09,0,0,1,1.16-1.29,2.71,2.71,0,0,1,1.64-.47,4.07,4.07,0,0,1,1.17.24,2.57,2.57,0,0,1,.94.58,2.14,2.14,0,0,1,.58.82,2.65,2.65,0,0,1,.23.93l-.35-.23v-1.75a.41.41,0,0,1,.12-.35A.68.68,0,0,1,182.66,312.26Zm-2.93,6.43a2.4,2.4,0,0,0,1.29-.35,2.93,2.93,0,0,0,.94-1,3.3,3.3,0,0,0,.35-1.52,3.24,3.24,0,0,0-.35-1.52,2.12,2.12,0,0,0-.94-1.06,2.53,2.53,0,0,0-2.57,0,2.88,2.88,0,0,0-.94,1.06,3.24,3.24,0,0,0-.35,1.52,3.3,3.3,0,0,0,.35,1.52,2.14,2.14,0,0,0,.94,1A2.39,2.39,0,0,0,179.73,318.69Z"/><path d="M185.7,319.39a.42.42,0,0,1-.47-.47v-6.31a.42.42,0,0,1,.12-.35.41.41,0,0,1,.35-.12.43.43,0,0,1,.35.12.45.45,0,0,1,.11.35v2.1h-.23a2.27,2.27,0,0,1,.23-.93,4.42,4.42,0,0,1,.59-.94,5.5,5.5,0,0,1,.82-.7,3.6,3.6,0,0,1,1.05-.23.7.7,0,0,1,.47.12c.11.11.23.23.23.35a.43.43,0,0,1-.12.35c-.11.11-.11.11-.23.11s-.23,0-.23-.11-.24-.12-.35-.12a3.14,3.14,0,0,0-.82.23,2.85,2.85,0,0,0-.7.59,2.27,2.27,0,0,0-.47.93,3.43,3.43,0,0,0-.23.94v3.51a.43.43,0,0,1-.12.35C185.81,319.27,185.81,319.39,185.7,319.39Z"/><path d="M193.88,319.51A3.2,3.2,0,0,1,192,319a3.47,3.47,0,0,1-1.29-1.29,3.57,3.57,0,0,1-.46-2,3.36,3.36,0,0,1,.46-2,4.33,4.33,0,0,1,1.17-1.29,2.71,2.71,0,0,1,1.64-.46,3.38,3.38,0,0,1,1.17.23,2.79,2.79,0,0,1,1.05.7,2,2,0,0,1,.7,1.05,5.6,5.6,0,0,1,.35,1.41c0,.11,0,.23-.11.23a.43.43,0,0,1-.35.12h-5.62l-.11-.71h5.49l-.23.12V315a2.1,2.1,0,0,0-.47-1.17,1.76,1.76,0,0,0-.93-.7,3.45,3.45,0,0,0-1.06-.24,1.9,1.9,0,0,0-.81.12,1.79,1.79,0,0,0-.82.47,2.47,2.47,0,0,0-.59.93,4.43,4.43,0,0,0-.23,1.29,3.3,3.3,0,0,0,.35,1.52,2.67,2.67,0,0,0,.93,1.05,3.18,3.18,0,0,0,1.52.35,2.75,2.75,0,0,0,.94-.11l.7-.36c.23-.11.35-.35.47-.46a.42.42,0,0,1,.35-.12c.12,0,.23,0,.23.12s.12.11.12.23a.42.42,0,0,1-.12.35,8.27,8.27,0,0,1-1,.94A3.27,3.27,0,0,1,193.88,319.51Z"/><path d="M201.83,319.51A3.2,3.2,0,0,1,200,319a3.47,3.47,0,0,1-1.29-1.29,3.57,3.57,0,0,1-.46-2,3.36,3.36,0,0,1,.46-2,4.33,4.33,0,0,1,1.17-1.29,2.71,2.71,0,0,1,1.64-.46,3.38,3.38,0,0,1,1.17.23,2.79,2.79,0,0,1,1,.7,1.66,1.66,0,0,1,.7,1.05,5.6,5.6,0,0,1,.35,1.41c0,.11,0,.23-.11.23a.43.43,0,0,1-.35.12h-5.62l-.11-.71h5.49l-.23.12V315a2.1,2.1,0,0,0-.47-1.17,1.76,1.76,0,0,0-.93-.7,3.45,3.45,0,0,0-1.06-.24,2,2,0,0,0-.82.12,1.81,1.81,0,0,0-.81.47,2.47,2.47,0,0,0-.59.93,4.43,4.43,0,0,0-.23,1.29,3.3,3.3,0,0,0,.35,1.52,2.67,2.67,0,0,0,.93,1.05,3.18,3.18,0,0,0,1.52.35,2.75,2.75,0,0,0,.94-.11l.7-.36c.23-.11.35-.35.47-.46a.42.42,0,0,1,.35-.12c.12,0,.23,0,.23.12s.12.11.12.23a.42.42,0,0,1-.12.35,8.27,8.27,0,0,1-1.05.94A2.27,2.27,0,0,1,201.83,319.51Z"/><path d="M206.86,319.39a.42.42,0,0,1-.47-.47v-6.31a.42.42,0,0,1,.12-.35.41.41,0,0,1,.35-.12.43.43,0,0,1,.35.12.42.42,0,0,1,.12.35v2.1h-.24a2.12,2.12,0,0,1,.24-.93,4,4,0,0,1,.58-.94,5.5,5.5,0,0,1,.82-.7,3.6,3.6,0,0,1,1.05-.23.7.7,0,0,1,.47.12c.12.11.23.23.23.35a.46.46,0,0,1-.11.35c-.12.11-.12.11-.24.11s-.23,0-.23-.11-.24-.12-.35-.12a3.14,3.14,0,0,0-.82.23,2.85,2.85,0,0,0-.7.59,2.27,2.27,0,0,0-.47.93,3.43,3.43,0,0,0-.23.94v3.51a.43.43,0,0,1-.12.35C207.09,319.27,207,319.39,206.86,319.39Z"/><path d="M212,319.39a.43.43,0,0,1-.35-.12.41.41,0,0,1-.12-.35v-.35c0-.11,0-.35.12-.35a.43.43,0,0,1,.35-.12h.12c.12,0,.35,0,.35.12s.12.24.12.35v.35a.41.41,0,0,1-.12.35c-.12.12-.12.12-.47.12Zm.12-2.81c-.23,0-.23-.11-.35-.35l-.12-6.19c0-.24,0-.35.12-.47a.57.57,0,0,1,.7,0c.12.12.12.23.12.47l-.12,6.19C212.35,316.47,212.24,316.58,212.12,316.58Z"/><path d="M110.29,327.22a.45.45,0,0,1-.35-.11c-.12-.12-.12-.12-.12-.24a.43.43,0,0,1,.12-.35.42.42,0,0,1,.35-.12H117a.44.44,0,0,1,.36.12c.11.12.11.12.11.35s0,.24-.11.24a.47.47,0,0,1-.36.11Zm3.39,9a.42.42,0,0,1-.35-.12.43.43,0,0,1-.12-.35v-8.89h.94v8.89a.43.43,0,0,1-.12.35C113.8,336.11,113.8,336.23,113.68,336.23Z"/><path d="M122.22,329a2.44,2.44,0,0,1,1.4.35,2.56,2.56,0,0,1,.82,1.05,6.29,6.29,0,0,1,.23,1.4v4a.43.43,0,0,1-.12.35.41.41,0,0,1-.35.12.43.43,0,0,1-.35-.12.46.46,0,0,1-.11-.35v-4a3.14,3.14,0,0,0-.12-1,1.2,1.2,0,0,0-.59-.7c-.23-.23-.58-.23-1-.23a4,4,0,0,0-1.17.23c-.35.12-.58.47-.82.7a1.91,1.91,0,0,0-.35,1v4a.46.46,0,0,1-.11.35.43.43,0,0,1-.35.12.41.41,0,0,1-.35-.12.43.43,0,0,1-.12-.35v-9.47a.42.42,0,0,1,.47-.47.41.41,0,0,1,.46.47v4.56l-.35.47a2.08,2.08,0,0,1,.24-.82,2.6,2.6,0,0,1,1.4-1.17A4,4,0,0,1,122.22,329Z"/><path d="M127.36,327.92c-.23,0-.35,0-.47-.11a.43.43,0,0,1-.12-.35v-.12c0-.12,0-.35.12-.35s.24-.12.47-.12.35,0,.47.12a.45.45,0,0,1,.11.35v.12c0,.11,0,.35-.11.35S127.48,327.92,127.36,327.92Zm.35,7.84a.43.43,0,0,1-.12.35.41.41,0,0,1-.35.12.43.43,0,0,1-.35-.12.46.46,0,0,1-.11-.35v-6.43a.41.41,0,0,1,.46-.47.42.42,0,0,1,.47.47Z"/><path d="M129.58,335.06a.43.43,0,0,1-.12-.35.26.26,0,0,1,.24-.24c.11-.12.11-.12.23-.12s.24,0,.24.12a3.06,3.06,0,0,0,.93.82,2.4,2.4,0,0,0,1.29.35,2.27,2.27,0,0,0,.82-.12,2.33,2.33,0,0,0,.58-.35,1.19,1.19,0,0,0,.23-.7,1.61,1.61,0,0,0-.23-.7,1.82,1.82,0,0,0-.7-.47,2.36,2.36,0,0,0-.82-.23,2.66,2.66,0,0,0-.94-.24,4.54,4.54,0,0,1-.81-.35,1.38,1.38,0,0,1-.59-.58,1.65,1.65,0,0,1-.23-.82,1.83,1.83,0,0,1,.35-1.05,1.43,1.43,0,0,1,.93-.7,4.12,4.12,0,0,1,1.29-.24,2.24,2.24,0,0,1,.82.12c.23.12.58.12.82.35a3.27,3.27,0,0,1,.7.59.35.35,0,0,1,.11.23.61.61,0,0,1-.11.35c-.12,0-.12.12-.24.12s-.23,0-.23-.12a2,2,0,0,0-.82-.58,2.71,2.71,0,0,0-1-.24,2.24,2.24,0,0,0-.82.12,2.45,2.45,0,0,0-.58.35,1.63,1.63,0,0,0-.24.7,1.58,1.58,0,0,0,.24.7,1.74,1.74,0,0,0,.7.47c.35.12.58.23.93.35s.59.12.82.23l.7.36a1.13,1.13,0,0,1,.47.58,2.13,2.13,0,0,1,.23.94,1.42,1.42,0,0,1-.35,1.05,1.81,1.81,0,0,1-.93.7,4.13,4.13,0,0,1-1.29.23,4,4,0,0,1-1.52-.35C130.05,336.11,129.93,335.52,129.58,335.06Z"/><path d="M137.53,327.34a1.75,1.75,0,0,1-.23.7,1.4,1.4,0,0,1-.59.59,2.17,2.17,0,0,1-.58.23c-.12,0-.12,0-.24-.12s-.11-.11-.11-.23,0-.23.11-.23.24-.12.35-.12l.36-.35a.46.46,0,0,0,.11-.35.44.44,0,0,0-.11-.35c-.12-.12-.12-.12-.24-.12h-.23c-.12,0-.12,0-.12.12l-.12-.12v-.23c0-.12.12-.24.24-.36a.91.91,0,0,1,.58-.23.65.65,0,0,1,.59.35A1.8,1.8,0,0,1,137.53,327.34Z"/><path d="M138.82,335.06a.43.43,0,0,1-.12-.35.26.26,0,0,1,.23-.24c.12-.12.12-.12.24-.12s.23,0,.23.12a3.22,3.22,0,0,0,.94.82,2.36,2.36,0,0,0,1.28.35,2.22,2.22,0,0,0,.82-.12,2.41,2.41,0,0,0,.59-.35,1.7,1.7,0,0,0,.23-.7,1.75,1.75,0,0,0-.23-.7,1.87,1.87,0,0,0-.71-.47,3.2,3.2,0,0,0-.81-.23,2.78,2.78,0,0,0-.94-.24,5,5,0,0,1-.82-.35,1.35,1.35,0,0,1-.58-.58,1.65,1.65,0,0,1-.24-.82,1.91,1.91,0,0,1,.35-1.05,1.45,1.45,0,0,1,.94-.7,4.12,4.12,0,0,1,1.29-.24,2.2,2.2,0,0,1,.81.12c.24.12.59.12.82.35a2.85,2.85,0,0,1,.7.59.34.34,0,0,1,.12.23.57.57,0,0,1-.12.35c-.11,0-.11.12-.23.12s-.23,0-.23-.12a2.11,2.11,0,0,0-.82-.58,2.75,2.75,0,0,0-1.05-.24,1.93,1.93,0,0,0-.82.12,2.54,2.54,0,0,0-.59.35,1.75,1.75,0,0,0-.23.7,1.7,1.7,0,0,0,.23.7,1.82,1.82,0,0,0,.7.47c.35.12.59.23.94.35s.58.12.82.23l.7.36a1.18,1.18,0,0,1,.47.58,2.28,2.28,0,0,1,.23.94,1.46,1.46,0,0,1-.35,1.05,1.8,1.8,0,0,1-.94.7,4.06,4.06,0,0,1-1.28.23,3.51,3.51,0,0,1-1.52-.35A9.23,9.23,0,0,0,138.82,335.06Z"/><path d="M152.85,336.34a3.09,3.09,0,0,1-1.87-.47,3.37,3.37,0,0,1-1.29-1.28,3.61,3.61,0,0,1-.47-2,3.36,3.36,0,0,1,.47-2,4.15,4.15,0,0,1,1.17-1.28,2.69,2.69,0,0,1,1.64-.47,3.62,3.62,0,0,1,1.16.23,2.74,2.74,0,0,1,1.06.71,1.69,1.69,0,0,1,.7,1.05,6.52,6.52,0,0,1,.35,1.4c0,.12,0,.23-.12.23s-.23.12-.35.12h-5.61l-.12-.7h5.5l-.24.12v-.24a2.12,2.12,0,0,0-.46-1.17,1.88,1.88,0,0,0-.94-.7,3.6,3.6,0,0,0-1.05-.23,1.93,1.93,0,0,0-.82.12,1.89,1.89,0,0,0-.82.46,2.57,2.57,0,0,0-.58.94,4.11,4.11,0,0,0-.24,1.28,3.24,3.24,0,0,0,.35,1.52,2.88,2.88,0,0,0,.94,1.06,3.27,3.27,0,0,0,1.52.35,2.48,2.48,0,0,0,.93-.12,4.27,4.27,0,0,0,.71-.35,1.68,1.68,0,0,0,.46-.47.43.43,0,0,1,.35-.12c.12,0,.24,0,.24.12s.11.12.11.24a.46.46,0,0,1-.11.35,9,9,0,0,1-1,.93A3.18,3.18,0,0,1,152.85,336.34Z"/><path d="M157.41,329c.11,0,.23.11.35.23l4.91,6.43c.11.12.11.12.11.23a.47.47,0,0,1-.11.36.46.46,0,0,1-.35.11c-.12,0-.24-.11-.36-.23l-5-6.43c0-.12-.12-.12-.12-.24a.43.43,0,0,1,.12-.35A.73.73,0,0,1,157.41,329Zm0,7.25c-.12,0-.24,0-.24-.12s-.12-.12-.12-.24,0-.23.12-.23l2.34-3,.47.7-2.22,2.81A.43.43,0,0,1,157.41,336.23Zm4.91-7.25c.11,0,.23,0,.23.11s.12.12.12.24v.11a.12.12,0,0,1-.12.12l-2.34,3.16-.47-.7,2.22-2.93A.47.47,0,0,1,162.32,329Z"/><path d="M167.58,328.86a4.67,4.67,0,0,1,1.28.12,7,7,0,0,1,.94.35.64.64,0,0,1,.35.58c0,.12,0,.24-.12.24s-.12.11-.23.11-.24,0-.24-.11-.11-.12-.23-.24a1.1,1.1,0,0,0-.35-.23.87.87,0,0,0-.59-.12c-.23,0-.46-.12-.81-.12a2.74,2.74,0,0,0-1.41.36,3,3,0,0,0-1,1.05,3.48,3.48,0,0,0,0,3,2.85,2.85,0,0,0,.94,1.05,3.12,3.12,0,0,0,1.4.35c.35,0,.7,0,.82-.12s.35-.11.47-.23.35-.23.35-.35a.41.41,0,0,1,.35-.12c.11,0,.23,0,.23.12s.12.12.12.23a.64.64,0,0,1-.35.47,3.52,3.52,0,0,1-.94.47,4.43,4.43,0,0,1-1.28.23,3.41,3.41,0,0,1-1.87-.47,4.37,4.37,0,0,1-1.29-1.28,4,4,0,0,1,0-3.74,3.65,3.65,0,0,1,1.29-1.41A4.5,4.5,0,0,1,167.58,328.86Z"/><path d="M172,327.92c-.23,0-.35,0-.47-.11a.43.43,0,0,1-.12-.35v-.12c0-.12,0-.35.12-.35s.24-.12.47-.12.35,0,.47.12a.45.45,0,0,1,.11.35v.12c0,.11,0,.35-.11.35S172.25,327.92,172,327.92Zm.47,7.84a.43.43,0,0,1-.12.35.57.57,0,0,1-.7,0,.43.43,0,0,1-.12-.35v-6.43a.41.41,0,0,1,.12-.35.57.57,0,0,1,.7,0,.41.41,0,0,1,.12.35Z"/><path d="M174.12,329.09h3.28c.11,0,.23,0,.23.12s.12.12.12.23,0,.24-.12.24-.12.12-.23.12h-3.28c-.11,0-.23,0-.23-.12s-.12-.12-.12-.24,0-.23.12-.23S174,329.09,174.12,329.09Zm1.52-2a.41.41,0,0,1,.47.46v7c0,.23,0,.47.12.58s.11.24.23.24.24.11.35.11h.47c.12,0,.12,0,.23.12s.12.12.12.23-.12.24-.23.36a.93.93,0,0,1-.59.11h-.35c-.12,0-.35-.11-.47-.11a.92.92,0,0,1-.46-.47,2.21,2.21,0,0,1-.24-.94v-7.36a.41.41,0,0,1,.12-.35Z"/><path d="M179.73,327.92c-.23,0-.35,0-.46-.11a.43.43,0,0,1-.12-.35v-.12c0-.12,0-.35.12-.35s.23-.12.46-.12.36,0,.47.12a.42.42,0,0,1,.12.35v.12c0,.11,0,.35-.12.35S180,327.92,179.73,327.92Zm.47,7.84a.46.46,0,0,1-.11.35.44.44,0,0,1-.36.12.43.43,0,0,1-.35-.12.46.46,0,0,1-.11-.35v-6.43a.41.41,0,0,1,.46-.47.44.44,0,0,1,.36.12.44.44,0,0,1,.11.35Z"/><path d="M185.81,328.86a3.24,3.24,0,0,1,1.52.35c.47.23.59.59.82,1.05a5.79,5.79,0,0,1,.24,1.41v4.09a.43.43,0,0,1-.12.35.42.42,0,0,1-.35.12.41.41,0,0,1-.35-.12.43.43,0,0,1-.12-.35v-4.09a3.67,3.67,0,0,0-.23-1.06,1.2,1.2,0,0,0-.59-.7c-.23-.23-.58-.23-1-.23a4.41,4.41,0,0,0-1.17.23,7,7,0,0,0-.93.7,1.86,1.86,0,0,0-.35,1.06v4.09a.42.42,0,0,1-.47.47.41.41,0,0,1-.35-.12.43.43,0,0,1-.12-.35v-6.32a.41.41,0,0,1,.47-.46.46.46,0,0,1,.35.11.43.43,0,0,1,.12.35v1.17l-.36.47a1.69,1.69,0,0,1,.24-.82,2.1,2.1,0,0,1,.7-.7,2.38,2.38,0,0,1,.94-.47A5.37,5.37,0,0,1,185.81,328.86Z"/><path d="M193.53,328.86a3.63,3.63,0,0,1,1.17.23,2.47,2.47,0,0,1,.93.59,3,3,0,0,1,.59.7,1.61,1.61,0,0,1,.23.7l-.23-.35v-1.29a.41.41,0,0,1,.47-.46.4.4,0,0,1,.46.46v6.08a3.16,3.16,0,0,1-.46,1.87,3,3,0,0,1-1.29,1.17,4.55,4.55,0,0,1-1.75.35,3.51,3.51,0,0,1-1.06-.11,9.93,9.93,0,0,1-.93-.35,2,2,0,0,1-.47-.35c-.11-.12-.11-.12-.11-.24s0-.11.11-.23.24-.12.24,0,.23.12.46.23.24.12.35.12a5,5,0,0,0,.59.12c.23,0,.47.11.7.11a2.75,2.75,0,0,0,2-.7,2.65,2.65,0,0,0,.7-1.87v-1.4h.12a2,2,0,0,1-.47.82,3.52,3.52,0,0,1-.7.58,2.5,2.5,0,0,1-.82.35,2.54,2.54,0,0,1-.94.12,3,3,0,0,1-1.75-.47,4,4,0,0,1-1.17-1.29,3.41,3.41,0,0,1-.47-1.87,3.2,3.2,0,0,1,.47-1.87,3.13,3.13,0,0,1,1.17-1.28A3.43,3.43,0,0,1,193.53,328.86Zm.12.82a3.19,3.19,0,0,0-1.41.35,2.67,2.67,0,0,0-.93,1.05,3.48,3.48,0,0,0,0,3,2.67,2.67,0,0,0,.93,1.05,2.46,2.46,0,0,0,1.41.35,3.05,3.05,0,0,0,1.4-.35,2.06,2.06,0,0,0,.94-1.05,3.48,3.48,0,0,0,0-3,2.77,2.77,0,0,0-.94-1.05A3.18,3.18,0,0,0,193.65,329.68Z"/><path d="M199.38,336.23a.41.41,0,0,1-.35-.12.43.43,0,0,1-.12-.35v-.35c0-.12,0-.35.12-.35s.23-.12.35-.12h.11c.12,0,.35,0,.35.12a.41.41,0,0,1,.12.35v.35a.43.43,0,0,1-.12.35,1.15,1.15,0,0,1-.46.12Zm.11-2.81c-.23,0-.23-.12-.35-.35l-.11-6.2c0-.23,0-.35.11-.46a.43.43,0,0,1,.35-.12.41.41,0,0,1,.35.12c.12.11.12.23.12.46l-.12,6.2C199.73,333.3,199.61,333.42,199.49,333.42Z"/></svg>