<svg id="Capa_1" data-name="Capa 1" xmlns="http://www.w3.org/2000/svg" viewBox="0 0 269.1 392"><defs><style>.cls-1,.cls-2{fill:none;}.cls-2{stroke:#f0be15;stroke-miterlimit:10;stroke-width:3px;}.cls-3{isolation:isolate;}.cls-4{fill:#7d7d7d;}.cls-5{fill:#fff;}.cls-6{fill:#f8afa0;}.cls-7{opacity:0.13;}</style></defs><title>timeline</title><rect class="cls-1" x="197.7" y="78.25" width="178.9" height="68"/><line class="cls-2" x1="-856.68" y1="206.85" x2="836.22" y2="206.85"/><g class="cls-3"><path d="M122.8,196.65a.35.35,0,0,1,.4.4c0,.1,0,.3-.1.3s-.2.1-.3.1h-6.2a.6.6,0,0,1-.4-.1.52.52,0,0,1-.2-.4c0-.1.1-.2.1-.3l3.8-4.2a15,15,0,0,0,1.4-1.8,3.74,3.74,0,0,0,.5-1.5,2.06,2.06,0,0,0-.7-1.7,2.48,2.48,0,0,0-1.8-.7,3.55,3.55,0,0,0-1,.2,2.36,2.36,0,0,0-.9.6,1.56,1.56,0,0,0-.6.8c-.1.1-.1.2-.2.2a.35.35,0,0,0-.2.1.35.35,0,0,1-.4-.4c0-.1,0-.2.1-.2s.1-.2.2-.3a3.45,3.45,0,0,1,.8-.9,4.73,4.73,0,0,1,1.2-.7,3.08,3.08,0,0,1,1.3-.3,3.42,3.42,0,0,1,1.8.4,4.26,4.26,0,0,1,1.2,1.1,3.29,3.29,0,0,1,.4,1.7,4.89,4.89,0,0,1-.5,1.9,13.39,13.39,0,0,1-1.6,2.2l-3.2,3.6-.2-.2h5.3Z"/><path d="M129,197.75a3.29,3.29,0,0,1-2.2-.8,4.44,4.44,0,0,1-1.3-2.1,11.45,11.45,0,0,1,0-6,4.44,4.44,0,0,1,1.3-2.1,3.42,3.42,0,0,1,4.4,0,4.44,4.44,0,0,1,1.3,2.1,11.45,11.45,0,0,1,0,6,4.44,4.44,0,0,1-1.3,2.1A3.11,3.11,0,0,1,129,197.75Zm0-1a2.27,2.27,0,0,0,1.6-.6,4,4,0,0,0,1-1.7,11.42,11.42,0,0,0,0-5.2,3.23,3.23,0,0,0-1-1.7,2.45,2.45,0,0,0-1.6-.6,2.27,2.27,0,0,0-1.6.6,4,4,0,0,0-1,1.7,9.78,9.78,0,0,0-.3,2.6,10.32,10.32,0,0,0,.3,2.6,4,4,0,0,0,1,1.7A2.45,2.45,0,0,0,129,196.75Z"/><path d="M137.7,197.55c-.2,0-.3,0-.4-.1a.37.37,0,0,1-.1-.3v-9.9l.2.2-2.2,1.5a.37.37,0,0,1-.3.1.76.76,0,0,1-.4-.2c-.1-.1-.2-.2-.2-.3s.1-.3.3-.4l2.8-1.8c.1,0,.1-.1.2-.1h.2c.1,0,.3.1.3.2a.37.37,0,0,1,.1.3v10.6a.37.37,0,0,1-.1.3C138,197.55,137.9,197.55,137.7,197.55Z"/><path d="M144.7,185.85a4.67,4.67,0,0,1,1.7.3,2.73,2.73,0,0,1,1.2.9,5.39,5.39,0,0,1,.7,1.3,3.89,3.89,0,0,1,.2,1.5,11.14,11.14,0,0,1-.2,1.7,6.36,6.36,0,0,1-.6,1.8,9.5,9.5,0,0,1-1,1.7,19.2,19.2,0,0,1-1.4,1.5,5.24,5.24,0,0,1-1.8,1h-.2a.6.6,0,0,1-.4-.1.52.52,0,0,1-.2-.4.37.37,0,0,1,.1-.3c.1-.1.2-.1.3-.2a9.39,9.39,0,0,0,1.8-1.2,6.55,6.55,0,0,0,1.5-1.8,6,6,0,0,0,.8-2.1l.4-.2a2.54,2.54,0,0,1-.8,1,4.13,4.13,0,0,1-1.1.7,2.74,2.74,0,0,1-1.3.2,3.45,3.45,0,0,1-1.8-.5,3.33,3.33,0,0,1-1.2-1.4,3.92,3.92,0,0,1-.4-1.8,4,4,0,0,1,1.8-3.2A5.33,5.33,0,0,1,144.7,185.85Zm0,1a3.19,3.19,0,0,0-1.4.3,2.19,2.19,0,0,0-.9,1,3.19,3.19,0,0,0-.3,1.4,3.53,3.53,0,0,0,.3,1.4,2.19,2.19,0,0,0,.9,1,2.3,2.3,0,0,0,1.4.4,2.41,2.41,0,0,0,1.5-.4,4.74,4.74,0,0,0,1-1,2.23,2.23,0,0,0,.3-1.4,2.77,2.77,0,0,0-.3-1.3,2.84,2.84,0,0,0-.9-1A2.93,2.93,0,0,0,144.7,186.85Z"/></g><g class="cls-3"><path class="cls-4" d="M65.9,216.35a.52.52,0,0,1,.4.2.76.76,0,0,1,.2.4v7.6c0,.2-.1.3-.2.5a.76.76,0,0,1-.5.2.37.37,0,0,1-.3-.1.35.35,0,0,1-.2-.1l-5.2-6.7.3-.2v6.5a.57.57,0,0,1-1,.4.76.76,0,0,1-.2-.4v-7.6c0-.2.1-.3.2-.5a.76.76,0,0,1,.5-.2.37.37,0,0,1,.3.1c.1.1.2.1.2.2l5.1,6.6-.2.2v-6.4a.52.52,0,0,1,.2-.4C65.6,216.55,65.7,216.35,65.9,216.35Z"/><path class="cls-4" d="M74.8,218.45c.2,0,.3.1.5.2a.76.76,0,0,1,.2.5v5.5c0,.2-.1.3-.2.5a.76.76,0,0,1-.5.2c-.2,0-.3-.1-.5-.2a.76.76,0,0,1-.2-.5v-.9l.3.1a1.69,1.69,0,0,1-.2.5,1.21,1.21,0,0,1-.5.5,2.51,2.51,0,0,1-.7.4,2.92,2.92,0,0,1-.9.2,3,3,0,0,1-1.6-.5,3.18,3.18,0,0,1-1.1-1.2,4.25,4.25,0,0,1,0-3.6,3.18,3.18,0,0,1,1.1-1.2,2.82,2.82,0,0,1,1.5-.4,3,3,0,0,1,1,.2,2.18,2.18,0,0,1,.8.5,2.65,2.65,0,0,1,.5.6,1.42,1.42,0,0,1,.2.6h-.4v-1.2c0-.2.1-.3.2-.5S74.6,218.45,74.8,218.45Zm-2.6,5.7a2.28,2.28,0,0,0,1.1-.3,2.7,2.7,0,0,0,.7-.8,2.38,2.38,0,0,0,.3-1.2,2.66,2.66,0,0,0-.3-1.2,1.85,1.85,0,0,0-.7-.8,2,2,0,0,0-1.1-.3,1.69,1.69,0,0,0-1,.3,2.7,2.7,0,0,0-.7.8,2.13,2.13,0,0,0-.3,1.2,2.66,2.66,0,0,0,.3,1.2,1.85,1.85,0,0,0,.7.8A1.93,1.93,0,0,0,72.2,224.15Z"/><path class="cls-4" d="M81.2,218.35a4.12,4.12,0,0,1,1.2.1,1.51,1.51,0,0,1,.8.4.86.86,0,0,1,.3.6.6.6,0,0,1-.1.4.52.52,0,0,1-.4.2.37.37,0,0,1-.3-.1c-.1-.1-.2-.1-.2-.2l-.2-.2c-.1-.1-.2-.1-.4-.1h-.5a2.66,2.66,0,0,0-1.2.3,3,3,0,0,0-.8.8,2.13,2.13,0,0,0-.3,1.2,2.38,2.38,0,0,0,.3,1.2,2.7,2.7,0,0,0,.7.8,2,2,0,0,0,1.1.3c.2,0,.5,0,.6-.1s.3-.1.4-.1.2-.2.3-.2.2-.1.4-.1a.52.52,0,0,1,.4.2.6.6,0,0,1,.1.4.55.55,0,0,1-.3.5,1.88,1.88,0,0,1-.9.4,5,5,0,0,1-1.2.2,3.1,3.1,0,0,1-1.7-.5,2.54,2.54,0,0,1-1.1-1.2,3.5,3.5,0,0,1,1.2-4.8A5.26,5.26,0,0,1,81.2,218.35Z"/><path class="cls-4" d="M88.9,225.35a3.17,3.17,0,0,1-3.4-3.4,3,3,0,0,1,.5-1.9,4.56,4.56,0,0,1,1.2-1.2,2.82,2.82,0,0,1,1.5-.4,5,5,0,0,1,1.2.2,3.51,3.51,0,0,1,1.7,1.7,2.77,2.77,0,0,1,.3,1.3.52.52,0,0,1-.2.4.76.76,0,0,1-.4.2H86.4l-.3-1.1h4.8l-.2.2v-.3a1.14,1.14,0,0,0-.3-.8,1.79,1.79,0,0,0-.7-.5,2.35,2.35,0,0,0-.8-.2,1.48,1.48,0,0,0-.7.1,2.09,2.09,0,0,0-.6.4,1.61,1.61,0,0,0-.4.7,3.59,3.59,0,0,0-.2,1.1,2.13,2.13,0,0,0,.3,1.2,3,3,0,0,0,.8.8,2,2,0,0,0,1.1.3,2,2,0,0,0,.8-.1c.2-.1.4-.1.5-.2s.3-.2.4-.3a.6.6,0,0,1,.4-.1.71.71,0,0,1,.6.6.55.55,0,0,1-.3.5,3.49,3.49,0,0,1-.9.6C89.8,225.25,89.3,225.35,88.9,225.35Z"/><path class="cls-4" d="M102,218.45a2,2,0,0,1,1.4.5,2.4,2.4,0,0,1,.7,1.2l-.2-.1.1-.2c.1-.2.3-.4.5-.7a5.55,5.55,0,0,1,.8-.6,3,3,0,0,1,1-.2,2.12,2.12,0,0,1,1.4.4,2.55,2.55,0,0,1,.7,1,3.18,3.18,0,0,1,.2,1.4v3.4c0,.2-.1.3-.2.5a.76.76,0,0,1-.5.2c-.2,0-.3-.1-.5-.2a.76.76,0,0,1-.2-.5v-3.3a2,2,0,0,0-.1-.8,2.09,2.09,0,0,0-.4-.6,1.88,1.88,0,0,0-.8-.2,2.92,2.92,0,0,0-.9.2.9.9,0,0,0-.6.6,1.88,1.88,0,0,0-.2.8v3.3c0,.2-.1.3-.2.5a.76.76,0,0,1-.5.2c-.2,0-.3-.1-.5-.2a.76.76,0,0,1-.2-.5v-3.4a2,2,0,0,0-.1-.8,2.09,2.09,0,0,0-.4-.6,1.88,1.88,0,0,0-.8-.2,2.92,2.92,0,0,0-.9.2.9.9,0,0,0-.6.6,1.88,1.88,0,0,0-.2.8v3.4c0,.2-.1.3-.2.5a.76.76,0,0,1-.5.2c-.2,0-.3-.1-.5-.2a.76.76,0,0,1-.2-.5v-5.4c0-.2.1-.3.2-.5a.76.76,0,0,1,.5-.2c.2,0,.3.1.5.2a.76.76,0,0,1,.2.5v.7l-.2.1.3-.6a1.21,1.21,0,0,1,.5-.5,1.61,1.61,0,0,1,.7-.4Z"/><path class="cls-4" d="M111.9,217.65a.75.75,0,0,1-.5-.1.59.59,0,0,1-.2-.5v-.2c0-.2.1-.4.2-.4a.75.75,0,0,1,.5-.1c.3,0,.4,0,.5.1a.52.52,0,0,1,.2.4v.2a.76.76,0,0,1-.2.5A.75.75,0,0,1,111.9,217.65Zm.6,6.9c0,.2-.1.3-.2.5a.76.76,0,0,1-.5.2c-.2,0-.3-.1-.5-.2a.76.76,0,0,1-.2-.5v-5.4c0-.2.1-.3.2-.5a.76.76,0,0,1,.5-.2c.2,0,.3.1.5.2a.76.76,0,0,1,.2.5Z"/><path class="cls-4" d="M123.1,218.45a2.93,2.93,0,0,1,1.6.4,3.18,3.18,0,0,1,1.1,1.2,4.25,4.25,0,0,1,0,3.6,3.18,3.18,0,0,1-1.1,1.2,2.82,2.82,0,0,1-1.5.4,2.92,2.92,0,0,1-.9-.2,3,3,0,0,1-.8-.4,1.18,1.18,0,0,1-.5-.5,2.19,2.19,0,0,0-.3-.5l.3-.2V227c0,.2-.1.3-.2.5a.76.76,0,0,1-.5.2c-.2,0-.3-.1-.5-.2a.76.76,0,0,1-.2-.5v-7.9c0-.2.1-.3.2-.5a.76.76,0,0,1,.5-.2c.2,0,.3.1.5.2a.76.76,0,0,1,.2.5v.9l-.2-.1c0-.2.1-.3.2-.5s.3-.3.5-.5a1.61,1.61,0,0,1,.7-.4Zm-.1,1.1a2,2,0,0,0-1.1.3,2.7,2.7,0,0,0-.7.8,2.13,2.13,0,0,0-.3,1.2,2.66,2.66,0,0,0,.3,1.2,1.85,1.85,0,0,0,.7.8,2,2,0,0,0,1.1.3,1.69,1.69,0,0,0,1-.3,2.7,2.7,0,0,0,.7-.8,2.38,2.38,0,0,0,.3-1.2,2.66,2.66,0,0,0-.3-1.2,2.7,2.7,0,0,0-.7-.8A1.69,1.69,0,0,0,123,219.55Z"/><path class="cls-4" d="M129.2,225.25c-.2,0-.3-.1-.5-.2a.76.76,0,0,1-.2-.5v-5.4c0-.2.1-.3.2-.5a.76.76,0,0,1,.5-.2c.2,0,.3.1.5.2a.76.76,0,0,1,.2.5v1.4l-.1-.5c.1-.2.2-.5.3-.7a1.21,1.21,0,0,1,.5-.5,1.61,1.61,0,0,1,.7-.4,2,2,0,0,1,.8-.1,1.42,1.42,0,0,1,.6.2.4.4,0,0,1,.2.4.69.69,0,0,1-.6.7.76.76,0,0,1-.4-.1.6.6,0,0,0-.4-.1.75.75,0,0,0-.5.1,1,1,0,0,0-.5.4c-.1.2-.3.4-.4.6a2,2,0,0,0-.1.8v3c0,.2-.1.3-.2.5A.72.72,0,0,1,129.2,225.25Z"/><path class="cls-4" d="M141.3,221.85a3.17,3.17,0,0,1-1.6,3,3.81,3.81,0,0,1-3.4,0,3.5,3.5,0,0,1-1.7-3,2.73,2.73,0,0,1,.5-1.8,3.45,3.45,0,0,1,1.2-1.2,3.37,3.37,0,0,1,1.7-.5,2.62,2.62,0,0,1,1.7.5,3.45,3.45,0,0,1,1.2,1.2A4.78,4.78,0,0,1,141.3,221.85Zm-1.3,0a2.13,2.13,0,0,0-.3-1.2,2,2,0,0,0-.8-.8,2,2,0,0,0-1.1-.3,2.28,2.28,0,0,0-1.1.3,3,3,0,0,0-.8.8,2.13,2.13,0,0,0-.3,1.2,2.66,2.66,0,0,0,.3,1.2,2,2,0,0,0,.8.8,2,2,0,0,0,1.1.3,2.28,2.28,0,0,0,1.1-.3,3,3,0,0,0,.8-.8A2.13,2.13,0,0,0,140,221.85Z"/><path class="cls-4" d="M147.1,218.45a2.93,2.93,0,0,1,1.6.4,3.18,3.18,0,0,1,1.1,1.2,4.25,4.25,0,0,1,0,3.6,3.18,3.18,0,0,1-1.1,1.2,2.82,2.82,0,0,1-1.5.4,2.92,2.92,0,0,1-.9-.2,3,3,0,0,1-.8-.4,1.18,1.18,0,0,1-.5-.5,2.19,2.19,0,0,0-.3-.5l.3-.2V227c0,.2-.1.3-.2.5a.76.76,0,0,1-.5.2c-.2,0-.3-.1-.5-.2a.76.76,0,0,1-.2-.5v-7.9c0-.2.1-.3.2-.5a.76.76,0,0,1,.5-.2c.2,0,.3.1.5.2a.76.76,0,0,1,.2.5v.9l-.2-.1c0-.2.1-.3.2-.5s.3-.3.5-.5a1.61,1.61,0,0,1,.7-.4Zm-.2,1.1a2,2,0,0,0-1.1.3,2.7,2.7,0,0,0-.7.8,2.13,2.13,0,0,0-.3,1.2,2.66,2.66,0,0,0,.3,1.2,1.85,1.85,0,0,0,.7.8,2,2,0,0,0,1.1.3,1.69,1.69,0,0,0,1-.3,2.7,2.7,0,0,0,.7-.8,2.38,2.38,0,0,0,.3-1.2,2.66,2.66,0,0,0-.3-1.2,2.7,2.7,0,0,0-.7-.8A1.69,1.69,0,0,0,146.9,219.55Z"/><path class="cls-4" d="M153.1,217.65a.75.75,0,0,1-.5-.1.59.59,0,0,1-.2-.5v-.2c0-.2.1-.4.2-.4a.75.75,0,0,1,.5-.1c.3,0,.4,0,.5.1a.52.52,0,0,1,.2.4v.2a.76.76,0,0,1-.2.5C153.6,217.65,153.4,217.65,153.1,217.65Zm.7,6.9c0,.2-.1.3-.2.5a.76.76,0,0,1-.5.2c-.2,0-.3-.1-.5-.2a.76.76,0,0,1-.2-.5v-5.4c0-.2.1-.3.2-.5a.76.76,0,0,1,.5-.2c.2,0,.3.1.5.2a.76.76,0,0,1,.2.5Z"/><path class="cls-4" d="M161.9,218.45c.2,0,.3.1.5.2a.76.76,0,0,1,.2.5v5.5c0,.2-.1.3-.2.5a.76.76,0,0,1-.5.2c-.2,0-.3-.1-.5-.2a.76.76,0,0,1-.2-.5v-.9l.3.1a1.69,1.69,0,0,1-.2.5,1.21,1.21,0,0,1-.5.5,2.51,2.51,0,0,1-.7.4,2.92,2.92,0,0,1-.9.2,3,3,0,0,1-1.6-.5,3.18,3.18,0,0,1-1.1-1.2,4.25,4.25,0,0,1,0-3.6,3.18,3.18,0,0,1,1.1-1.2,2.82,2.82,0,0,1,1.5-.4,3,3,0,0,1,1,.2,2.18,2.18,0,0,1,.8.5,2.65,2.65,0,0,1,.5.6,1.42,1.42,0,0,1,.2.6h-.4v-1.2c0-.2.1-.3.2-.5A.54.54,0,0,1,161.9,218.45Zm-2.5,5.7a2.28,2.28,0,0,0,1.1-.3c.4-.2.5-.5.7-.8a2.38,2.38,0,0,0,.3-1.2,2.66,2.66,0,0,0-.3-1.2,1.85,1.85,0,0,0-.7-.8,2,2,0,0,0-1.1-.3,1.69,1.69,0,0,0-1,.3,2.7,2.7,0,0,0-.7.8,2.13,2.13,0,0,0-.3,1.2,2.66,2.66,0,0,0,.3,1.2,1.85,1.85,0,0,0,.7.8A1.49,1.49,0,0,0,159.4,224.15Z"/><path class="cls-4" d="M173.2,218.45a2,2,0,0,1,1.4.5,2.4,2.4,0,0,1,.7,1.2l-.2-.1.1-.2c.1-.2.3-.4.5-.7a5.55,5.55,0,0,1,.8-.6,3,3,0,0,1,1-.2,2.12,2.12,0,0,1,1.4.4,2.55,2.55,0,0,1,.7,1,3.18,3.18,0,0,1,.2,1.4v3.4c0,.2-.1.3-.2.5a.76.76,0,0,1-.5.2c-.2,0-.3-.1-.5-.2a.76.76,0,0,1-.2-.5v-3.3a2,2,0,0,0-.1-.8,2.09,2.09,0,0,0-.4-.6,1.88,1.88,0,0,0-.8-.2,2.92,2.92,0,0,0-.9.2.9.9,0,0,0-.6.6,1.88,1.88,0,0,0-.2.8v3.3c0,.2-.1.3-.2.5a.76.76,0,0,1-.5.2c-.2,0-.3-.1-.5-.2a.76.76,0,0,1-.2-.5v-3.4a2,2,0,0,0-.1-.8,2.09,2.09,0,0,0-.4-.6,1.88,1.88,0,0,0-.8-.2,2.92,2.92,0,0,0-.9.2.9.9,0,0,0-.6.6,1.88,1.88,0,0,0-.2.8v3.4c0,.2-.1.3-.2.5a.76.76,0,0,1-.5.2c-.2,0-.3-.1-.5-.2a.76.76,0,0,1-.2-.5v-5.4c0-.2.1-.3.2-.5a.76.76,0,0,1,.5-.2c.2,0,.3.1.5.2a.76.76,0,0,1,.2.5v.7l-.2.1.3-.6a1.21,1.21,0,0,1,.5-.5,1.61,1.61,0,0,1,.7-.4Z"/><path class="cls-4" d="M188,218.45c.2,0,.3.1.5.2a.76.76,0,0,1,.2.5v5.5c0,.2-.1.3-.2.5a.76.76,0,0,1-.5.2c-.2,0-.3-.1-.5-.2a.76.76,0,0,1-.2-.5v-.9l.3.1a1.69,1.69,0,0,1-.2.5,1.21,1.21,0,0,1-.5.5,2.51,2.51,0,0,1-.7.4,2.92,2.92,0,0,1-.9.2,3,3,0,0,1-1.6-.5,3.18,3.18,0,0,1-1.1-1.2,4.25,4.25,0,0,1,0-3.6,3.18,3.18,0,0,1,1.1-1.2,2.82,2.82,0,0,1,1.5-.4,3,3,0,0,1,1,.2,2.18,2.18,0,0,1,.8.5,2.65,2.65,0,0,1,.5.6,1.42,1.42,0,0,1,.2.6h-.4v-1.2c0-.2.1-.3.2-.5S187.8,218.45,188,218.45Zm-2.6,5.7a2.28,2.28,0,0,0,1.1-.3c.4-.2.5-.5.7-.8a2.38,2.38,0,0,0,.3-1.2,2.66,2.66,0,0,0-.3-1.2,1.85,1.85,0,0,0-.7-.8,2,2,0,0,0-1.1-.3,1.69,1.69,0,0,0-1,.3,2.7,2.7,0,0,0-.7.8,2.13,2.13,0,0,0-.3,1.2,2.66,2.66,0,0,0,.3,1.2,1.85,1.85,0,0,0,.7.8A1.69,1.69,0,0,0,185.4,224.15Z"/><path class="cls-4" d="M192,225.25c-.2,0-.3-.1-.5-.2a.76.76,0,0,1-.2-.5v-5.4c0-.2.1-.3.2-.5a.76.76,0,0,1,.5-.2c.2,0,.3.1.5.2a.76.76,0,0,1,.2.5v1.4l-.1-.5c.1-.2.2-.5.3-.7a1.21,1.21,0,0,1,.5-.5,1.61,1.61,0,0,1,.7-.4,2,2,0,0,1,.8-.1,1.42,1.42,0,0,1,.6.2.4.4,0,0,1,.2.4.69.69,0,0,1-.6.7.76.76,0,0,1-.4-.1.6.6,0,0,0-.4-.1.75.75,0,0,0-.5.1,1,1,0,0,0-.5.4c-.1.2-.3.4-.4.6a2,2,0,0,0-.1.8v3c0,.2-.1.3-.2.5C192.3,225.15,192.2,225.25,192,225.25Z"/><path class="cls-4" d="M200.6,218.35a4.12,4.12,0,0,1,1.2.1,1.51,1.51,0,0,1,.8.4.86.86,0,0,1,.3.6.6.6,0,0,1-.1.4.52.52,0,0,1-.4.2.37.37,0,0,1-.3-.1c-.1-.1-.2-.1-.2-.2s-.1-.1-.2-.2-.2-.1-.4-.1h-.5a2.66,2.66,0,0,0-1.2.3,3,3,0,0,0-.8.8,2.13,2.13,0,0,0-.3,1.2,2.38,2.38,0,0,0,.3,1.2,2.7,2.7,0,0,0,.7.8,2,2,0,0,0,1.1.3c.2,0,.5,0,.6-.1a.6.6,0,0,1,.4-.1c.1-.1.2-.2.3-.2s.2-.1.4-.1a.52.52,0,0,1,.4.2.6.6,0,0,1,.1.4.55.55,0,0,1-.3.5,1.88,1.88,0,0,1-.9.4,5,5,0,0,1-1.2.2,3.1,3.1,0,0,1-1.7-.5,2.54,2.54,0,0,1-1.1-1.2,4.78,4.78,0,0,1-.4-1.8,3.17,3.17,0,0,1,1.6-3A5.84,5.84,0,0,1,200.6,218.35Z"/><path class="cls-4" d="M210.7,218.45c.2,0,.3.1.5.2a.76.76,0,0,1,.2.5v5.5c0,.2-.1.3-.2.5a.76.76,0,0,1-.5.2c-.2,0-.3-.1-.5-.2a.76.76,0,0,1-.2-.5v-.9l.3.1a1.69,1.69,0,0,1-.2.5,1.21,1.21,0,0,1-.5.5,2.51,2.51,0,0,1-.7.4,2.92,2.92,0,0,1-.9.2,3,3,0,0,1-1.6-.5,3.18,3.18,0,0,1-1.1-1.2,4.25,4.25,0,0,1,0-3.6,3.18,3.18,0,0,1,1.1-1.2,2.82,2.82,0,0,1,1.5-.4,3,3,0,0,1,1,.2,2.18,2.18,0,0,1,.8.5,2.65,2.65,0,0,1,.5.6,1.42,1.42,0,0,1,.2.6H210v-1.2c0-.2.1-.3.2-.5S210.5,218.45,210.7,218.45Zm-2.6,5.7a2.28,2.28,0,0,0,1.1-.3c.4-.2.5-.5.7-.8a2.38,2.38,0,0,0,.3-1.2,2.66,2.66,0,0,0-.3-1.2,1.85,1.85,0,0,0-.7-.8,2,2,0,0,0-1.1-.3,1.69,1.69,0,0,0-1,.3,2.7,2.7,0,0,0-.7.8,2.13,2.13,0,0,0-.3,1.2,2.66,2.66,0,0,0,.3,1.2,1.85,1.85,0,0,0,.7.8A1.69,1.69,0,0,0,208.1,224.15Z"/><path class="cls-4" d="M224.1,215.85c.2,0,.3.1.5.2a.76.76,0,0,1,.2.5v8.1c0,.2-.1.3-.2.5a.76.76,0,0,1-.5.2c-.2,0-.3-.1-.5-.2a.76.76,0,0,1-.2-.5v-.9h.3c0,.2-.1.3-.2.5a1.21,1.21,0,0,1-.5.5,2.51,2.51,0,0,1-.7.4,2.92,2.92,0,0,1-.9.2,3,3,0,0,1-1.6-.5,3.18,3.18,0,0,1-1.1-1.2,4.25,4.25,0,0,1,0-3.6,3.18,3.18,0,0,1,1.1-1.2,2.54,2.54,0,0,1,2.5-.3,2.18,2.18,0,0,1,.8.5,2.65,2.65,0,0,1,.5.6,1.42,1.42,0,0,1,.2.6h-.4v-3.8c0-.2.1-.3.2-.5A.9.9,0,0,1,224.1,215.85Zm-2.6,8.3a2,2,0,0,0,1.1-.3,2.7,2.7,0,0,0,.7-.8,2.13,2.13,0,0,0,.3-1.2,2.38,2.38,0,0,0-.3-1.2,2.7,2.7,0,0,0-.7-.8,2,2,0,0,0-1.1-.3,1.69,1.69,0,0,0-1,.3,2.7,2.7,0,0,0-.7.8,2.13,2.13,0,0,0-.3,1.2,2.38,2.38,0,0,0,.3,1.2,2.7,2.7,0,0,0,.7.8A1.69,1.69,0,0,0,221.5,224.15Z"/><path class="cls-4" d="M230.6,225.35a3.17,3.17,0,0,1-3.4-3.4,3,3,0,0,1,.5-1.9,3.45,3.45,0,0,1,1.2-1.2,2.82,2.82,0,0,1,1.5-.4,5,5,0,0,1,1.2.2,2.29,2.29,0,0,1,1,.7,3.59,3.59,0,0,1,.7,1,2.77,2.77,0,0,1,.3,1.3.52.52,0,0,1-.2.4.76.76,0,0,1-.4.2h-4.9l-.3-1.1h4.8l-.2.2v-.3a1.14,1.14,0,0,0-.3-.8,1.79,1.79,0,0,0-.7-.5,2.35,2.35,0,0,0-.8-.2,1.48,1.48,0,0,0-.7.1,2.09,2.09,0,0,0-.6.4,1.61,1.61,0,0,0-.4.7,3.59,3.59,0,0,0-.2,1.1,2.13,2.13,0,0,0,.3,1.2,3,3,0,0,0,.8.8,2,2,0,0,0,1.1.3,2,2,0,0,0,.8-.1c.2-.1.4-.1.5-.2s.3-.2.4-.3a.6.6,0,0,1,.4-.1.71.71,0,0,1,.6.6.55.55,0,0,1-.3.5,3.49,3.49,0,0,1-.9.6A5.54,5.54,0,0,1,230.6,225.35Z"/></g><g class="cls-3"><path class="cls-4" d="M70.9,237.05a3.17,3.17,0,0,1-1.6,3,3.81,3.81,0,0,1-3.4,0,3.5,3.5,0,0,1,0-6,3.37,3.37,0,0,1,1.7-.5,2.62,2.62,0,0,1,1.7.5,3.45,3.45,0,0,1,1.2,1.2A4.78,4.78,0,0,1,70.9,237.05Zm-1.3,0a2.13,2.13,0,0,0-.3-1.2,2,2,0,0,0-.8-.8,2,2,0,0,0-1.1-.3,2.28,2.28,0,0,0-1.1.3,3,3,0,0,0-.8.8,2.13,2.13,0,0,0-.3,1.2,2.66,2.66,0,0,0,.3,1.2,2,2,0,0,0,.8.8,2.17,2.17,0,0,0,2.2,0,2,2,0,0,0,.8-.8A2.13,2.13,0,0,0,69.6,237.05Z"/><path class="cls-4" d="M76.7,233.55a2.93,2.93,0,0,1,1.6.4,3.18,3.18,0,0,1,1.1,1.2,4.25,4.25,0,0,1,0,3.6,3.18,3.18,0,0,1-1.1,1.2,3,3,0,0,1-1.5.5,2.92,2.92,0,0,1-.9-.2,3,3,0,0,1-.8-.4,1.18,1.18,0,0,1-.5-.5,2.19,2.19,0,0,0-.3-.5l.3-.2v1.1c0,.2-.1.3-.2.5s-.3.2-.5.2-.3-.1-.5-.2a.76.76,0,0,1-.2-.5v-8.2c0-.2.1-.3.2-.5a.76.76,0,0,1,.5-.2c.2,0,.3.1.5.2a.76.76,0,0,1,.2.5v3.6l-.2-.1c0-.2.1-.3.2-.5s.3-.3.5-.5a1.61,1.61,0,0,1,.7-.4C76.1,233.65,76.4,233.55,76.7,233.55Zm-.2,1.2a2,2,0,0,0-1.1.3,2.7,2.7,0,0,0-.7.8,2.13,2.13,0,0,0-.3,1.2,2.38,2.38,0,0,0,.3,1.2,1.85,1.85,0,0,0,.7.8,2,2,0,0,0,1.1.3,1.69,1.69,0,0,0,1-.3,2.7,2.7,0,0,0,.7-.8,2.38,2.38,0,0,0,.3-1.2,2.66,2.66,0,0,0-.3-1.2,2.7,2.7,0,0,0-.7-.8A1.69,1.69,0,0,0,76.5,234.75Z"/><path class="cls-4" d="M83.6,240.65a2.38,2.38,0,0,1-.3,1.2,2.7,2.7,0,0,1-.7.8,1.69,1.69,0,0,1-1,.3.52.52,0,0,1-.4-.2.76.76,0,0,1-.2-.4v-.1a.71.71,0,0,1,.6-.6,1.33,1.33,0,0,0,.5-.3c.2-.2.2-.3.2-.4s.1-.4.1-.6v-6c0-.2.1-.3.2-.5a.76.76,0,0,1,.5-.2c.2,0,.3.1.5.2a.76.76,0,0,1,.2.5v6.3Zm-.7-7.8a.75.75,0,0,1-.5-.1.59.59,0,0,1-.2-.5v-.2c0-.2.1-.4.2-.4a.75.75,0,0,1,.5-.1c.3,0,.4,0,.5.1a.52.52,0,0,1,.2.4v.2a.76.76,0,0,1-.2.5C83.4,232.85,83.2,232.85,82.9,232.85Z"/><path class="cls-4" d="M89.7,240.55a3.17,3.17,0,0,1-3.4-3.4,3,3,0,0,1,.5-1.9,3.45,3.45,0,0,1,1.2-1.2,2.82,2.82,0,0,1,1.5-.4,5,5,0,0,1,1.2.2,2.29,2.29,0,0,1,1,.7,3.59,3.59,0,0,1,.7,1,2.77,2.77,0,0,1,.3,1.3.52.52,0,0,1-.2.4.76.76,0,0,1-.4.2H87.2l-.3-1.1h4.8l-.2.2v-.3a1.14,1.14,0,0,0-.3-.8,1.79,1.79,0,0,0-.7-.5,2.35,2.35,0,0,0-.8-.2,1.48,1.48,0,0,0-.7.1,2.09,2.09,0,0,0-.6.4,1.61,1.61,0,0,0-.4.7,3.59,3.59,0,0,0-.2,1.1,2.13,2.13,0,0,0,.3,1.2,3,3,0,0,0,.8.8,2,2,0,0,0,1.1.3,2,2,0,0,0,.8-.1c.2-.1.4-.1.5-.2s.3-.2.4-.3.2-.1.4-.1a.71.71,0,0,1,.6.6.55.55,0,0,1-.3.5,3.49,3.49,0,0,1-.9.6C90.6,240.45,90.2,240.55,89.7,240.55Z"/><path class="cls-4" d="M94.9,233.85h3a.52.52,0,0,1,.4.2.6.6,0,0,1-.4,1h-3a.52.52,0,0,1-.4-.2.5.5,0,0,1,0-.8C94.6,233.85,94.7,233.85,94.9,233.85Zm1.3-1.7c.2,0,.3.1.5.2a.76.76,0,0,1,.2.5v5.9c0,.2,0,.3.1.4s.1.2.2.2.2.1.3.1.2,0,.2-.1.2-.1.3-.1a.37.37,0,0,1,.3.1c.1.1.1.2.1.4a.55.55,0,0,1-.3.5,1.85,1.85,0,0,1-.7.2h-.5a1.42,1.42,0,0,1-.6-.2c-.2-.1-.3-.3-.5-.5a2,2,0,0,1-.2-.9V233c0-.2.1-.3.2-.5S96,232.15,96.2,232.15Z"/><path class="cls-4" d="M107.3,237.05a3.17,3.17,0,0,1-1.6,3,3.81,3.81,0,0,1-3.4,0,3.5,3.5,0,0,1-1.7-3,2.73,2.73,0,0,1,.5-1.8,3.45,3.45,0,0,1,1.2-1.2,3.37,3.37,0,0,1,1.7-.5,2.62,2.62,0,0,1,1.7.5,3.45,3.45,0,0,1,1.2,1.2A4.78,4.78,0,0,1,107.3,237.05Zm-1.3,0a2.13,2.13,0,0,0-.3-1.2,2,2,0,0,0-.8-.8,2,2,0,0,0-1.1-.3,2.28,2.28,0,0,0-1.1.3,3,3,0,0,0-.8.8,2.13,2.13,0,0,0-.3,1.2,2.66,2.66,0,0,0,.3,1.2,2,2,0,0,0,.8.8,2,2,0,0,0,1.1.3,2.28,2.28,0,0,0,1.1-.3,3,3,0,0,0,.8-.8A2.13,2.13,0,0,0,106,237.05Z"/><path class="cls-4" d="M109.3,239.35a.6.6,0,0,1-.1-.4c0-.2.1-.3.3-.4s.2-.1.4-.1a.76.76,0,0,1,.4.2,1.56,1.56,0,0,0,.8.6,1.82,1.82,0,0,0,1.1.2.9.9,0,0,0,.5-.1c.2,0,.3-.1.5-.3a.72.72,0,0,0,0-1,2.19,2.19,0,0,0-.5-.3,1.85,1.85,0,0,0-.7-.2c-.3-.1-.5-.2-.8-.3a1.61,1.61,0,0,1-.7-.4,1,1,0,0,1-.5-.6,2,2,0,0,1-.2-.9,1.69,1.69,0,0,1,.3-1,2.18,2.18,0,0,1,.9-.7,2.54,2.54,0,0,1,1.2-.2,2.2,2.2,0,0,1,.8.1c.3.1.5.2.8.3a1.79,1.79,0,0,1,.7.5c.1.1.1.2.1.4a.52.52,0,0,1-.2.4c-.1.1-.2.1-.4.1s-.3-.1-.4-.1a2.65,2.65,0,0,0-.6-.5,2.39,2.39,0,0,0-.9-.2.9.9,0,0,0-.5.1.52.52,0,0,0-.4.2.73.73,0,0,0,0,1,1.63,1.63,0,0,0,.6.3,1.85,1.85,0,0,0,.7.2c.3.1.5.1.8.2a1.61,1.61,0,0,1,.7.4,1,1,0,0,1,.5.6,2.39,2.39,0,0,1,.2.9,1.5,1.5,0,0,1-.4,1.1,3.11,3.11,0,0,1-.9.7,2.54,2.54,0,0,1-1.2.2,3.19,3.19,0,0,1-1.4-.3A1.68,1.68,0,0,1,109.3,239.35Z"/><path class="cls-4" d="M126.7,231.05c.2,0,.3.1.5.2a.76.76,0,0,1,.2.5v8.1c0,.2-.1.3-.2.5a.76.76,0,0,1-.5.2c-.2,0-.3-.1-.5-.2a.76.76,0,0,1-.2-.5V239h.3c0,.2-.1.3-.2.5a1.21,1.21,0,0,1-.5.5,2.51,2.51,0,0,1-.7.4,2.92,2.92,0,0,1-.9.2,3,3,0,0,1-1.6-.5,3.18,3.18,0,0,1-1.1-1.2,4.25,4.25,0,0,1,0-3.6,3.18,3.18,0,0,1,1.1-1.2,2.54,2.54,0,0,1,2.5-.3,2.18,2.18,0,0,1,.8.5,2.65,2.65,0,0,1,.5.6,1.42,1.42,0,0,1,.2.6H126v-3.8c0-.2.1-.3.2-.5A.9.9,0,0,1,126.7,231.05Zm-2.6,8.3a2,2,0,0,0,1.1-.3,2.7,2.7,0,0,0,.7-.8,2.13,2.13,0,0,0,.3-1.2,2.38,2.38,0,0,0-.3-1.2,2.7,2.7,0,0,0-.7-.8,2,2,0,0,0-1.1-.3,1.69,1.69,0,0,0-1,.3,2.7,2.7,0,0,0-.7.8,2.13,2.13,0,0,0-.3,1.2,2.38,2.38,0,0,0,.3,1.2,2.7,2.7,0,0,0,.7.8A1.69,1.69,0,0,0,124.1,239.35Z"/><path class="cls-4" d="M133.2,240.55a3.17,3.17,0,0,1-3.4-3.4,3,3,0,0,1,.5-1.9,3.45,3.45,0,0,1,1.2-1.2,2.82,2.82,0,0,1,1.5-.4,5,5,0,0,1,1.2.2,2.29,2.29,0,0,1,1,.7,3.59,3.59,0,0,1,.7,1,2.77,2.77,0,0,1,.3,1.3.52.52,0,0,1-.2.4.76.76,0,0,1-.4.2h-4.9l-.3-1.1h4.8l-.2.2v-.3a1.14,1.14,0,0,0-.3-.8,1.79,1.79,0,0,0-.7-.5,2.35,2.35,0,0,0-.8-.2,1.48,1.48,0,0,0-.7.1,2.09,2.09,0,0,0-.6.4,1.61,1.61,0,0,0-.4.7,3.59,3.59,0,0,0-.2,1.1,2.13,2.13,0,0,0,.3,1.2,3,3,0,0,0,.8.8,2,2,0,0,0,1.1.3,2,2,0,0,0,.8-.1c.2-.1.4-.1.5-.2s.3-.2.4-.3a.6.6,0,0,1,.4-.1.71.71,0,0,1,.6.6.55.55,0,0,1-.3.5,3.49,3.49,0,0,1-.9.6A5.24,5.24,0,0,1,133.2,240.55Z"/><path class="cls-4" d="M148.5,231.05c.2,0,.3.1.5.2a.76.76,0,0,1,.2.5v8.1c0,.2-.1.3-.2.5a.76.76,0,0,1-.5.2c-.2,0-.3-.1-.5-.2a.76.76,0,0,1-.2-.5V239h.3c0,.2-.1.3-.2.5a1.21,1.21,0,0,1-.5.5,2.51,2.51,0,0,1-.7.4,2.92,2.92,0,0,1-.9.2,3,3,0,0,1-1.6-.5,3.18,3.18,0,0,1-1.1-1.2,4.25,4.25,0,0,1,0-3.6,3.18,3.18,0,0,1,1.1-1.2,2.54,2.54,0,0,1,2.5-.3,2.18,2.18,0,0,1,.8.5,2.65,2.65,0,0,1,.5.6,1.42,1.42,0,0,1,.2.6h-.4v-3.8c0-.2.1-.3.2-.5A.75.75,0,0,1,148.5,231.05Zm-2.6,8.3a2,2,0,0,0,1.1-.3,2.7,2.7,0,0,0,.7-.8,2.13,2.13,0,0,0,.3-1.2,2.38,2.38,0,0,0-.3-1.2,2.7,2.7,0,0,0-.7-.8,2,2,0,0,0-1.1-.3,1.69,1.69,0,0,0-1,.3,2.7,2.7,0,0,0-.7.8,2.13,2.13,0,0,0-.3,1.2,2.38,2.38,0,0,0,.3,1.2,2.7,2.7,0,0,0,.7.8A1.69,1.69,0,0,0,145.9,239.35Z"/><path class="cls-4" d="M152.4,232.85a.75.75,0,0,1-.5-.1.59.59,0,0,1-.2-.5v-.2c0-.2.1-.4.2-.4a.75.75,0,0,1,.5-.1c.3,0,.4,0,.5.1a.52.52,0,0,1,.2.4v.2a.76.76,0,0,1-.2.5C152.9,232.85,152.7,232.85,152.4,232.85Zm.7,6.9c0,.2-.1.3-.2.5a.76.76,0,0,1-.5.2c-.2,0-.3-.1-.5-.2a.76.76,0,0,1-.2-.5v-5.4c0-.2.1-.3.2-.5a.76.76,0,0,1,.5-.2c.2,0,.3.1.5.2a.76.76,0,0,1,.2.5Z"/><path class="cls-4" d="M155.4,239.35a.6.6,0,0,1-.1-.4c0-.2.1-.3.3-.4s.2-.1.4-.1a.76.76,0,0,1,.4.2,1.56,1.56,0,0,0,.8.6,1.82,1.82,0,0,0,1.1.2.9.9,0,0,0,.5-.1c.2,0,.3-.1.5-.3a.72.72,0,0,0,0-1,2.19,2.19,0,0,0-.5-.3,1.85,1.85,0,0,0-.7-.2c-.3-.1-.5-.2-.8-.3a1.61,1.61,0,0,1-.7-.4,1,1,0,0,1-.5-.6,2,2,0,0,1-.2-.9,1.69,1.69,0,0,1,.3-1,2.18,2.18,0,0,1,.9-.7,2.54,2.54,0,0,1,1.2-.2,2.2,2.2,0,0,1,.8.1c.3.1.5.2.8.3a1.79,1.79,0,0,1,.7.5c.1.1.1.2.1.4a.52.52,0,0,1-.2.4c-.1.1-.2.1-.4.1s-.3-.1-.4-.1a2.65,2.65,0,0,0-.6-.5,2.39,2.39,0,0,0-.9-.2.9.9,0,0,0-.5.1.52.52,0,0,0-.4.2.72.72,0,0,0,0,1,1.63,1.63,0,0,0,.6.3,1.85,1.85,0,0,0,.7.2c.3.1.5.1.8.2a1.61,1.61,0,0,1,.7.4,1,1,0,0,1,.5.6,2.39,2.39,0,0,1,.2.9,1.5,1.5,0,0,1-.4,1.1,3.11,3.11,0,0,1-.9.7,2.54,2.54,0,0,1-1.2.2,3.19,3.19,0,0,1-1.4-.3A1.68,1.68,0,0,1,155.4,239.35Z"/><path class="cls-4" d="M165.9,240.55a3.17,3.17,0,0,1-3.4-3.4,3,3,0,0,1,.5-1.9,3.45,3.45,0,0,1,1.2-1.2,2.82,2.82,0,0,1,1.5-.4,5,5,0,0,1,1.2.2,2.29,2.29,0,0,1,1,.7,3.59,3.59,0,0,1,.7,1,2.77,2.77,0,0,1,.3,1.3.52.52,0,0,1-.2.4.76.76,0,0,1-.4.2h-4.9l-.3-1.1h4.8l-.2.2v-.3a1.14,1.14,0,0,0-.3-.8,1.79,1.79,0,0,0-.7-.5,2.35,2.35,0,0,0-.8-.2,1.48,1.48,0,0,0-.7.1,2.09,2.09,0,0,0-.6.4,1.61,1.61,0,0,0-.4.7,3.59,3.59,0,0,0-.2,1.1,2.13,2.13,0,0,0,.3,1.2,3,3,0,0,0,.8.8,2,2,0,0,0,1.1.3,2,2,0,0,0,.8-.1c.2-.1.4-.1.5-.2s.3-.2.4-.3a.6.6,0,0,1,.4-.1.71.71,0,0,1,.6.6.55.55,0,0,1-.3.5,3.49,3.49,0,0,1-.9.6A5.24,5.24,0,0,1,165.9,240.55Z"/><path class="cls-4" d="M174.6,233.55a2,2,0,0,1,1.4.4,1.83,1.83,0,0,1,.7,1,5.9,5.9,0,0,1,.2,1.4v3.4c0,.2-.1.3-.2.5a.76.76,0,0,1-.5.2c-.2,0-.3-.1-.5-.2a.76.76,0,0,1-.2-.5v-3.4a2,2,0,0,0-.1-.8,2.09,2.09,0,0,0-.4-.6,2,2,0,0,0-.9-.2,2.39,2.39,0,0,0-.9.2.9.9,0,0,0-.6.6,1.88,1.88,0,0,0-.2.8v3.4c0,.2-.1.3-.2.5a.76.76,0,0,1-.5.2c-.2,0-.3-.1-.5-.2a.76.76,0,0,1-.2-.5v-5.4c0-.2.1-.3.2-.5a.76.76,0,0,1,.5-.2c.2,0,.3.1.5.2a.76.76,0,0,1,.2.5v.7l-.2.1.3-.6a1.21,1.21,0,0,1,.5-.5,1.61,1.61,0,0,1,.7-.4C174.1,233.65,174.3,233.55,174.6,233.55Zm-2-.6a.52.52,0,0,1-.4-.2.85.85,0,0,1-.2-.6,1,1,0,0,1,.4-.7,1.49,1.49,0,0,1,1-.3.75.75,0,0,1,.5.1c.2.1.3.2.5.3a1.38,1.38,0,0,1,.4.3.6.6,0,0,0,.4.1c.1,0,.2,0,.2-.1s.1-.1.1-.3,0-.3.1-.4a.37.37,0,0,1,.3-.1.52.52,0,0,1,.4.2.76.76,0,0,1,.2.5c0,.2-.1.3-.2.5a.78.78,0,0,1-.4.4,1.45,1.45,0,0,1-.7.2.9.9,0,0,1-.5-.1c-.2-.1-.3-.2-.5-.3s-.3-.2-.5-.3a.6.6,0,0,0-.4-.1c-.1,0-.2,0-.2.1s-.1.1-.1.2,0,.3-.1.4S172.7,233,172.6,233Z"/><path class="cls-4" d="M186.1,237.05a3.17,3.17,0,0,1-1.6,3,3.81,3.81,0,0,1-3.4,0,3.5,3.5,0,0,1-1.7-3,2.73,2.73,0,0,1,.5-1.8,3.45,3.45,0,0,1,1.2-1.2,3.37,3.37,0,0,1,1.7-.5,2.62,2.62,0,0,1,1.7.5,3.45,3.45,0,0,1,1.2,1.2A4.78,4.78,0,0,1,186.1,237.05Zm-1.3,0a2.13,2.13,0,0,0-.3-1.2,2,2,0,0,0-.8-.8,2,2,0,0,0-1.1-.3,2.28,2.28,0,0,0-1.1.3,3,3,0,0,0-.8.8,2.13,2.13,0,0,0-.3,1.2,2.66,2.66,0,0,0,.3,1.2,2,2,0,0,0,.8.8,2,2,0,0,0,1.1.3,2.28,2.28,0,0,0,1.1-.3,3,3,0,0,0,.8-.8A2.13,2.13,0,0,0,184.8,237.05Z"/><path class="cls-4" d="M192.9,233.85h3a.52.52,0,0,1,.4.2.6.6,0,0,1-.4,1h-3a.52.52,0,0,1-.4-.2.5.5,0,0,1,0-.8C192.6,233.85,192.7,233.85,192.9,233.85Zm1.3-1.7c.2,0,.3.1.5.2a.76.76,0,0,1,.2.5v5.9c0,.2,0,.3.1.4s.1.2.2.2.2.1.3.1.2,0,.2-.1.2-.1.3-.1a.37.37,0,0,1,.3.1c.1.1.1.2.1.4a.55.55,0,0,1-.3.5,1.85,1.85,0,0,1-.7.2h-.5a1.42,1.42,0,0,1-.6-.2c-.2-.1-.3-.3-.5-.5a2,2,0,0,1-.2-.9V233c0-.2.1-.3.2-.5A.54.54,0,0,1,194.2,232.15Z"/><path class="cls-4" d="M202,240.55a3.17,3.17,0,0,1-3.4-3.4,3,3,0,0,1,.5-1.9,3.45,3.45,0,0,1,1.2-1.2,2.82,2.82,0,0,1,1.5-.4,5,5,0,0,1,1.2.2,2.29,2.29,0,0,1,1,.7,3.59,3.59,0,0,1,.7,1,2.77,2.77,0,0,1,.3,1.3.52.52,0,0,1-.2.4.76.76,0,0,1-.4.2h-4.9l-.3-1.1H204l-.2.2v-.3a1.14,1.14,0,0,0-.3-.8,1.79,1.79,0,0,0-.7-.5,2.35,2.35,0,0,0-.8-.2,1.48,1.48,0,0,0-.7.1,2.09,2.09,0,0,0-.6.4,1.61,1.61,0,0,0-.4.7,3.59,3.59,0,0,0-.2,1.1,2.13,2.13,0,0,0,.3,1.2,3,3,0,0,0,.8.8,2,2,0,0,0,1.1.3,2,2,0,0,0,.8-.1c.2-.1.4-.1.5-.2s.3-.2.4-.3a.6.6,0,0,1,.4-.1.71.71,0,0,1,.6.6.55.55,0,0,1-.3.5,3.49,3.49,0,0,1-.9.6A5.54,5.54,0,0,1,202,240.55Z"/><path class="cls-4" d="M207.3,233.65a.55.55,0,0,1,.5.3l4.3,5.5c.1.1.1.2.1.4a.52.52,0,0,1-.2.4.76.76,0,0,1-.4.2.55.55,0,0,1-.5-.3l-4.3-5.4c-.1-.1-.1-.2-.1-.4s.1-.3.2-.5S207.1,233.65,207.3,233.65Zm0,6.8a.76.76,0,0,1-.4-.2.52.52,0,0,1-.2-.4.76.76,0,0,1,.2-.4l2-2.5.6,1.1-1.7,2.1A.55.55,0,0,1,207.3,240.45Zm4.3-6.8a.71.71,0,0,1,.6.6v.2c0,.1-.1.1-.1.2l-2,2.5-.7-.9,1.7-2.2A.51.51,0,0,1,211.6,233.65Z"/><path class="cls-4" d="M214.3,233.85h3a.52.52,0,0,1,.4.2.6.6,0,0,1-.4,1h-3a.52.52,0,0,1-.4-.2.5.5,0,0,1,0-.8A.4.4,0,0,1,214.3,233.85Zm1.4-1.7c.2,0,.3.1.5.2a.76.76,0,0,1,.2.5v5.9c0,.2,0,.3.1.4s.1.2.2.2h.1s.2,0,.2-.1.2-.1.3-.1a.37.37,0,0,1,.3.1c.1.1.1.2.1.4a.55.55,0,0,1-.3.5,1.85,1.85,0,0,1-.7.2h-.5a1.42,1.42,0,0,1-.6-.2c-.2-.1-.3-.3-.5-.5a2,2,0,0,1-.2-.9v-5.9c0-.2.1-.3.2-.5A1.42,1.42,0,0,1,215.7,232.15Z"/><path class="cls-4" d="M220.8,232.85a.75.75,0,0,1-.5-.1.59.59,0,0,1-.2-.5v-.2c0-.2.1-.4.2-.4a.75.75,0,0,1,.5-.1c.3,0,.4,0,.5.1a.52.52,0,0,1,.2.4v.2a.76.76,0,0,1-.2.5C221.3,232.85,221.1,232.85,220.8,232.85Zm.7,6.9c0,.2-.1.3-.2.5a.76.76,0,0,1-.5.2c-.2,0-.3-.1-.5-.2a.76.76,0,0,1-.2-.5v-5.4c0-.2.1-.3.2-.5a.76.76,0,0,1,.5-.2c.2,0,.3.1.5.2a.76.76,0,0,1,.2.5Z"/><path class="cls-4" d="M225.6,239.75c0,.2-.1.3-.2.5a.76.76,0,0,1-.5.2c-.2,0-.3-.1-.5-.2a.76.76,0,0,1-.2-.5v-8.1c0-.2.1-.3.2-.5a.76.76,0,0,1,.5-.2c.2,0,.3.1.5.2a.76.76,0,0,1,.2.5Z"/></g><g class="cls-3"><path class="cls-4" d="M98,248.85a2.93,2.93,0,0,1,1.6.4,3.18,3.18,0,0,1,1.1,1.2,4.25,4.25,0,0,1,0,3.6,3.18,3.18,0,0,1-1.1,1.2,2.82,2.82,0,0,1-1.5.4,2.92,2.92,0,0,1-.9-.2,3,3,0,0,1-.8-.4,1.18,1.18,0,0,1-.5-.5,2.19,2.19,0,0,0-.3-.5l.3-.2v3.5c0,.2-.1.3-.2.5a.76.76,0,0,1-.5.2c-.2,0-.3-.1-.5-.2a.76.76,0,0,1-.2-.5v-7.9c0-.2.1-.3.2-.5a.76.76,0,0,1,.5-.2c.2,0,.3.1.5.2s.2.3.2.5v.9l-.2-.1c0-.2.1-.3.2-.5s.3-.3.5-.5a1.61,1.61,0,0,1,.7-.4Zm-.1,1.1a2,2,0,0,0-1.1.3,2.7,2.7,0,0,0-.7.8,2.13,2.13,0,0,0-.3,1.2,2.66,2.66,0,0,0,.3,1.2,1.85,1.85,0,0,0,.7.8,2,2,0,0,0,1.1.3,1.69,1.69,0,0,0,1-.3,2.7,2.7,0,0,0,.7-.8,2.38,2.38,0,0,0,.3-1.2,2.66,2.66,0,0,0-.3-1.2,2.7,2.7,0,0,0-.7-.8A1.69,1.69,0,0,0,97.9,250Z"/><path class="cls-4" d="M109,248.85c.2,0,.3.1.5.2a.76.76,0,0,1,.2.5v5.5c0,.2-.1.3-.2.5a.76.76,0,0,1-.5.2c-.2,0-.3-.1-.5-.2a.76.76,0,0,1-.2-.5v-.9l.3.1a1.69,1.69,0,0,1-.2.5,1.21,1.21,0,0,1-.5.5,2.51,2.51,0,0,1-.7.4,2.92,2.92,0,0,1-.9.2,3,3,0,0,1-1.6-.5,3.18,3.18,0,0,1-1.1-1.2,4.25,4.25,0,0,1,0-3.6,3.18,3.18,0,0,1,1.1-1.2,2.82,2.82,0,0,1,1.5-.4,3,3,0,0,1,1,.2,2.18,2.18,0,0,1,.8.5,2.65,2.65,0,0,1,.5.6,1.42,1.42,0,0,1,.2.6h-.4v-1.2c0-.2.1-.3.2-.5S108.8,248.85,109,248.85Zm-2.6,5.7a2.28,2.28,0,0,0,1.1-.3c.4-.2.5-.5.7-.8a2.38,2.38,0,0,0,.3-1.2,2.66,2.66,0,0,0-.3-1.2,1.85,1.85,0,0,0-.7-.8,2,2,0,0,0-1.1-.3,1.69,1.69,0,0,0-1,.3,2.7,2.7,0,0,0-.7.8,2.13,2.13,0,0,0-.3,1.2,2.66,2.66,0,0,0,.3,1.2,1.85,1.85,0,0,0,.7.8A1.69,1.69,0,0,0,106.4,254.55Z"/><path class="cls-4" d="M113,255.65c-.2,0-.3-.1-.5-.2a.76.76,0,0,1-.2-.5v-5.4c0-.2.1-.3.2-.5a.76.76,0,0,1,.5-.2c.2,0,.3.1.5.2a.76.76,0,0,1,.2.5V251l-.1-.5c.1-.2.2-.5.3-.7a1.21,1.21,0,0,1,.5-.5,4.35,4.35,0,0,1,.7-.4,2,2,0,0,1,.8-.1,1.42,1.42,0,0,1,.6.2.4.4,0,0,1,.2.4.76.76,0,0,1-.2.5.52.52,0,0,1-.4.2.6.6,0,0,1-.4-.1.6.6,0,0,0-.4-.1.75.75,0,0,0-.5.1,1,1,0,0,0-.5.4c-.1.2-.3.4-.4.6a2,2,0,0,0-.1.8v3c0,.2-.1.3-.2.5A.72.72,0,0,1,113,255.65Z"/><path class="cls-4" d="M124.2,248.85c.2,0,.3.1.5.2a.76.76,0,0,1,.2.5v5.5c0,.2-.1.3-.2.5a.76.76,0,0,1-.5.2c-.2,0-.3-.1-.5-.2a.76.76,0,0,1-.2-.5v-.9l.3.1a1.69,1.69,0,0,1-.2.5,1.21,1.21,0,0,1-.5.5,2.51,2.51,0,0,1-.7.4,2.92,2.92,0,0,1-.9.2,3,3,0,0,1-1.6-.5,3.18,3.18,0,0,1-1.1-1.2,4.25,4.25,0,0,1,0-3.6,3.18,3.18,0,0,1,1.1-1.2,2.82,2.82,0,0,1,1.5-.4,3,3,0,0,1,1,.2,2.18,2.18,0,0,1,.8.5,2.65,2.65,0,0,1,.5.6,1.42,1.42,0,0,1,.2.6h-.4v-1.2c0-.2.1-.3.2-.5S124,248.85,124.2,248.85Zm-2.6,5.7a2.28,2.28,0,0,0,1.1-.3,2.7,2.7,0,0,0,.7-.8,2.38,2.38,0,0,0,.3-1.2,2.66,2.66,0,0,0-.3-1.2,1.85,1.85,0,0,0-.7-.8,2,2,0,0,0-1.1-.3,1.69,1.69,0,0,0-1,.3,2.7,2.7,0,0,0-.7.8,2.13,2.13,0,0,0-.3,1.2,2.66,2.66,0,0,0,.3,1.2,1.85,1.85,0,0,0,.7.8A1.49,1.49,0,0,0,121.6,254.55Z"/><path class="cls-4" d="M135.2,255.75a3.17,3.17,0,0,1-3.4-3.4,3,3,0,0,1,.5-1.9,3.45,3.45,0,0,1,1.2-1.2,2.82,2.82,0,0,1,1.5-.4,5,5,0,0,1,1.2.2,2.29,2.29,0,0,1,1,.7,3.59,3.59,0,0,1,.7,1,2.77,2.77,0,0,1,.3,1.3.52.52,0,0,1-.2.4.76.76,0,0,1-.4.2h-4.9l-.3-1.1h4.8l-.2.2v-.3a1.14,1.14,0,0,0-.3-.8,1.79,1.79,0,0,0-.7-.5,2.35,2.35,0,0,0-.8-.2,1.48,1.48,0,0,0-.7.1,2.09,2.09,0,0,0-.6.4,1.61,1.61,0,0,0-.4.7,3.59,3.59,0,0,0-.2,1.1,2.13,2.13,0,0,0,.3,1.2,3,3,0,0,0,.8.8,2,2,0,0,0,1.1.3,2,2,0,0,0,.8-.1c.2-.1.4-.1.5-.2s.3-.2.4-.3a.6.6,0,0,1,.4-.1.71.71,0,0,1,.6.6.55.55,0,0,1-.3.5,3.49,3.49,0,0,1-.9.6A5.54,5.54,0,0,1,135.2,255.75Z"/><path class="cls-4" d="M141.8,255c0,.2-.1.3-.2.5a.76.76,0,0,1-.5.2c-.2,0-.3-.1-.5-.2a.76.76,0,0,1-.2-.5v-8.1c0-.2.1-.3.2-.5a.76.76,0,0,1,.5-.2c.2,0,.3.1.5.2a.76.76,0,0,1,.2.5Z"/><path class="cls-4" d="M152.6,248.85a2.12,2.12,0,0,1,1.4.4,2.55,2.55,0,0,1,.7,1,5.9,5.9,0,0,1,.2,1.4v3.4c0,.2-.1.3-.2.5a.76.76,0,0,1-.5.2c-.2,0-.3-.1-.5-.2a.76.76,0,0,1-.2-.5v-3.4a2,2,0,0,0-.1-.8,2.09,2.09,0,0,0-.4-.6,1.88,1.88,0,0,0-.8-.2,2.92,2.92,0,0,0-.9.2.9.9,0,0,0-.6.6,1.88,1.88,0,0,0-.2.8v3.4c0,.2-.1.3-.2.5a.76.76,0,0,1-.5.2c-.2,0-.3-.1-.5-.2a.76.76,0,0,1-.2-.5V247c0-.2.1-.3.2-.5a.76.76,0,0,1,.5-.2c.2,0,.3.1.5.2a.76.76,0,0,1,.2.5v3.5l-.2.1.3-.6a1.21,1.21,0,0,1,.5-.5,1.61,1.61,0,0,1,.7-.4A1.08,1.08,0,0,1,152.6,248.85Z"/><path class="cls-4" d="M164,252.25a3.17,3.17,0,0,1-1.6,3,3.81,3.81,0,0,1-3.4,0,3.5,3.5,0,0,1-1.7-3,2.73,2.73,0,0,1,.5-1.8,3.45,3.45,0,0,1,1.2-1.2,3.37,3.37,0,0,1,1.7-.5,2.62,2.62,0,0,1,1.7.5,3.45,3.45,0,0,1,1.2,1.2A4.78,4.78,0,0,1,164,252.25Zm-1.3,0a2.13,2.13,0,0,0-.3-1.2,2,2,0,0,0-.8-.8,2,2,0,0,0-1.1-.3,2.28,2.28,0,0,0-1.1.3,3,3,0,0,0-.8.8,2.13,2.13,0,0,0-.3,1.2,2.66,2.66,0,0,0,.3,1.2,2,2,0,0,0,.8.8,2,2,0,0,0,1.1.3,2.28,2.28,0,0,0,1.1-.3,3,3,0,0,0,.8-.8A2.13,2.13,0,0,0,162.7,252.25Z"/><path class="cls-4" d="M169.2,248.75a3,3,0,0,1,1,.2,2.18,2.18,0,0,1,.8.5,2.65,2.65,0,0,1,.5.6,1.69,1.69,0,0,1,.2.5h-.3v-1c0-.2.1-.3.2-.5a.76.76,0,0,1,.5-.2c.2,0,.3.1.5.2a.76.76,0,0,1,.2.5v5.6a2.86,2.86,0,0,1-.5,1.7,2.34,2.34,0,0,1-1.2,1,4.67,4.67,0,0,1-1.7.3,1.7,1.7,0,0,1-.7-.1c-.3-.1-.6-.1-.8-.2a1.69,1.69,0,0,0-.5-.2.78.78,0,0,1-.4-.4.3.3,0,0,1,0-.4q.15-.3.3-.3h.5c.1,0,.2.1.4.1a1.42,1.42,0,0,1,.6.2,1.27,1.27,0,0,0,.6.1,2.07,2.07,0,0,0,1.5-.5,1.73,1.73,0,0,0,.5-1.3v-1.1l.1.1c0,.2-.1.3-.2.5s-.3.3-.5.5a1.61,1.61,0,0,1-.7.4,2.49,2.49,0,0,1-.8.1,3,3,0,0,1-1.6-.5,2.54,2.54,0,0,1-1.1-1.2,4.25,4.25,0,0,1,0-3.6,3.18,3.18,0,0,1,1.1-1.2A3,3,0,0,1,169.2,248.75Zm.2,1.2a2,2,0,0,0-1.1.3,1.78,1.78,0,0,0-.7.8,3.5,3.5,0,0,0-.3,1.2,2.38,2.38,0,0,0,.3,1.2,1.85,1.85,0,0,0,.7.8,2.17,2.17,0,0,0,2.2,0,1.78,1.78,0,0,0,.7-.8,2.55,2.55,0,0,0,0-2.4,1.85,1.85,0,0,0-.7-.8A2.28,2.28,0,0,0,169.4,250Z"/><path class="cls-4" d="M180.9,248.85c.2,0,.3.1.5.2a.76.76,0,0,1,.2.5v5.5c0,.2-.1.3-.2.5a.76.76,0,0,1-.5.2c-.2,0-.3-.1-.5-.2a.76.76,0,0,1-.2-.5v-.9l.3.1a1.69,1.69,0,0,1-.2.5,1.21,1.21,0,0,1-.5.5,2.51,2.51,0,0,1-.7.4,2.92,2.92,0,0,1-.9.2,3,3,0,0,1-1.6-.5,3.18,3.18,0,0,1-1.1-1.2,4.25,4.25,0,0,1,0-3.6,3.18,3.18,0,0,1,1.1-1.2,2.82,2.82,0,0,1,1.5-.4,3,3,0,0,1,1,.2,2.18,2.18,0,0,1,.8.5,2.65,2.65,0,0,1,.5.6,1.42,1.42,0,0,1,.2.6h-.4v-1.2c0-.2.1-.3.2-.5S180.7,248.85,180.9,248.85Zm-2.6,5.7a2.28,2.28,0,0,0,1.1-.3c.4-.2.5-.5.7-.8a2.38,2.38,0,0,0,.3-1.2,2.66,2.66,0,0,0-.3-1.2,1.85,1.85,0,0,0-.7-.8,2,2,0,0,0-1.1-.3,1.69,1.69,0,0,0-1,.3,2.7,2.7,0,0,0-.7.8,2.13,2.13,0,0,0-.3,1.2,2.66,2.66,0,0,0,.3,1.2,1.85,1.85,0,0,0,.7.8A1.49,1.49,0,0,0,178.3,254.55Z"/><path class="cls-4" d="M184.9,255.65c-.2,0-.3-.1-.5-.2a.76.76,0,0,1-.2-.5v-5.4c0-.2.1-.3.2-.5a.76.76,0,0,1,.5-.2c.2,0,.3.1.5.2a.76.76,0,0,1,.2.5V251l-.1-.5c.1-.2.2-.5.3-.7a1.21,1.21,0,0,1,.5-.5,1.61,1.61,0,0,1,.7-.4,2,2,0,0,1,.8-.1,1.42,1.42,0,0,1,.6.2.4.4,0,0,1,.2.4.69.69,0,0,1-.6.7.76.76,0,0,1-.4-.1.6.6,0,0,0-.4-.1.75.75,0,0,0-.5.1,1,1,0,0,0-.5.4c-.1.2-.3.4-.4.6a2,2,0,0,0-.1.8v3c0,.2-.1.3-.2.5C185.2,255.55,185.1,255.65,184.9,255.65Z"/><path class="cls-4" d="M191,255.55a.68.68,0,0,1-.7-.7v-.2a.68.68,0,0,1,.7-.7h.1a.68.68,0,0,1,.7.7v.2a.68.68,0,0,1-.7.7Z"/></g><path class="cls-2" d="M213.4,151.05H64.3a24.37,24.37,0,0,0-24.2,24.6v31.5H237.8v-31.4C237.7,162.15,226.8,151.05,213.4,151.05Z"/><g class="cls-3"><path d="M81.8,164.75c.1.1.2.2.2.3a.6.6,0,0,1-.1.4c-.1.1-.2.2-.3.2a.76.76,0,0,1-.4-.1,3.79,3.79,0,0,0-1.3-.6,6.8,6.8,0,0,0-1.5-.2,4.06,4.06,0,0,0-1.9.4,5.6,5.6,0,0,0-1.5,1,4.35,4.35,0,0,0-1,1.6,6.47,6.47,0,0,0-.4,2,4.21,4.21,0,0,0,.4,2,8.64,8.64,0,0,0,1,1.6,4,4,0,0,0,1.5,1,5.66,5.66,0,0,0,1.8.3,7.72,7.72,0,0,0,1.5-.2c.5-.2.9-.4,1.3-.6a.37.37,0,0,1,.3-.1c.1,0,.2.1.3.2a.6.6,0,0,1,.1.4c0,.1-.1.2-.2.3a9.29,9.29,0,0,1-1,.5,5.64,5.64,0,0,1-1.2.4,5.28,5.28,0,0,1-1.3.1,5.38,5.38,0,0,1-2.2-.4,7.61,7.61,0,0,1-1.9-1.2,4.31,4.31,0,0,1-1.3-1.9,6,6,0,0,1-.5-2.4,6.44,6.44,0,0,1,.5-2.4,6.15,6.15,0,0,1,1.2-1.9,4.39,4.39,0,0,1,1.8-1.2,5.87,5.87,0,0,1,2.3-.4,5.66,5.66,0,0,1,1.8.3A4.3,4.3,0,0,1,81.8,164.75Z"/><path d="M84.7,175.55c-.2,0-.3,0-.4-.1s-.2-.2-.2-.3v-10.6a.37.37,0,0,1,.1-.3c.1-.1.2-.1.4-.1h4.5a3.29,3.29,0,0,1,1.7.4,3.18,3.18,0,0,1,1.2,1.1,2.93,2.93,0,0,1,.4,1.6,2.77,2.77,0,0,1-.3,1.3,3.59,3.59,0,0,1-.7,1,2.38,2.38,0,0,1-1.1.6l-.6-.2a2.1,2.1,0,0,1,1.1.4,1.76,1.76,0,0,1,.8.9,3.19,3.19,0,0,1,.3,1.4,3.42,3.42,0,0,0,.1,1.1.85.85,0,0,0,.2.6l.3.3c.1.1.2.2.2.3v.3a.22.22,0,0,1-.2.2c-.1,0-.2.1-.3.1s-.2,0-.2-.1a1.76,1.76,0,0,1-.5-.4,2,2,0,0,1-.4-.8,6.05,6.05,0,0,1-.2-1.5,2.51,2.51,0,0,0-.2-1,1,1,0,0,0-.5-.6,2.12,2.12,0,0,0-.7-.3c-.2,0-.5-.1-.7-.1H85l.2-.2v4.7a.37.37,0,0,1-.1.3C84.9,175.45,84.8,175.55,84.7,175.55Zm.3-5.9h4.1a1.78,1.78,0,0,0,1-.4,2.36,2.36,0,0,0,.8-.9,2.77,2.77,0,0,0,.3-1.3,2.45,2.45,0,0,0-.6-1.6,2,2,0,0,0-1.7-.6H85l.1-.2v5.2Z"/><path d="M95.7,164h6a.6.6,0,0,1,.4.1c.1.1.1.2.1.4s0,.3-.1.3-.2.1-.4.1H96l.2-.3v4.6L96,169h4.9a.6.6,0,0,1,.4.1.37.37,0,0,1,.1.3c0,.1,0,.3-.1.3s-.2.1-.4.1H96l.1-.2v4.8l-.1-.1h5.6a.6.6,0,0,1,.4.1.37.37,0,0,1,.1.3c0,.1,0,.3-.1.3s-.2.1-.4.1h-6a.6.6,0,0,1-.4-.1.37.37,0,0,1-.1-.3v-10.6a.37.37,0,0,1,.1-.3A.65.65,0,0,0,95.7,164Z"/><path d="M114.9,169.75a6.05,6.05,0,0,1-.4,2.4,11.78,11.78,0,0,1-1.1,1.9,5.67,5.67,0,0,1-1.8,1.2,5.38,5.38,0,0,1-2.2.4,5.09,5.09,0,0,1-2.2-.4,7.07,7.07,0,0,1-1.8-1.2,6.15,6.15,0,0,1-1.2-1.9,7.4,7.4,0,0,1,0-4.8,7.61,7.61,0,0,1,1.2-1.9,5.67,5.67,0,0,1,1.8-1.2,6.25,6.25,0,0,1,4.4,0,5.67,5.67,0,0,1,1.8,1.2,4.53,4.53,0,0,1,1.1,1.9A8.6,8.6,0,0,1,114.9,169.75Zm-1.1,0a5.54,5.54,0,0,0-.6-2.6,4.41,4.41,0,0,0-7.8,0,5.26,5.26,0,0,0-.6,2.6,5.54,5.54,0,0,0,.6,2.6,4.36,4.36,0,0,0,1.6,1.7,4.65,4.65,0,0,0,2.3.6,4.14,4.14,0,0,0,2.3-.6,4.36,4.36,0,0,0,1.6-1.7A5.54,5.54,0,0,0,113.8,169.75Z"/><path d="M126.9,175.65a6.37,6.37,0,0,1-2.4-.4,6.15,6.15,0,0,1-1.9-1.2,6.41,6.41,0,0,1-1.3-1.9,6.05,6.05,0,0,1-.4-2.4,6.72,6.72,0,0,1,.4-2.4,4.31,4.31,0,0,1,1.3-1.9,4.74,4.74,0,0,1,1.9-1.2,6.05,6.05,0,0,1,2.4-.4,9.85,9.85,0,0,1,1.7.2,4.71,4.71,0,0,1,1.5.6l.2.2a.35.35,0,0,0,.1.2.76.76,0,0,1-.2.4.37.37,0,0,1-.3.1h-.1a.1.1,0,0,1-.1-.1,6.12,6.12,0,0,0-1.2-.5,5.9,5.9,0,0,0-1.4-.2,4.3,4.3,0,0,0-2.5.7,4.24,4.24,0,0,0-1.7,1.8,5.51,5.51,0,0,0,0,5,5.81,5.81,0,0,0,1.7,1.8,4.23,4.23,0,0,0,2.5.6,7.72,7.72,0,0,0,1.5-.2,3.1,3.1,0,0,0,1.3-.6l-.1.3v-3.8l.2.2h-2.9a.6.6,0,0,1-.4-.1.37.37,0,0,1-.1-.3c0-.2,0-.3.1-.4s.2-.1.4-.1h3.1c.2,0,.3,0,.4.1s.1.2.1.4v4c0,.1,0,.2-.1.2s-.1.1-.2.2a8,8,0,0,1-1.6.8A5.82,5.82,0,0,1,126.9,175.65Z"/><path d="M137.1,165.25l-4,10a.22.22,0,0,1-.2.2.37.37,0,0,1-.3.1c-.2,0-.3,0-.4-.1a.37.37,0,0,1-.1-.3V175l4.4-10.7c0-.1.1-.2.2-.3s.2-.1.3-.1a.37.37,0,0,1,.3.1l.2.2,4.3,10.6v.2c0,.2,0,.3-.1.4a.5.5,0,0,1-.6,0l-.2-.2-4.1-10Zm-3.1,6.9.4-1h5.1l.2,1Z"/><path d="M145,175a.76.76,0,0,1-.2.4c-.1.1-.2.1-.4.1s-.3,0-.4-.1-.1-.2-.1-.4v-10.5a.6.6,0,0,1,.1-.4c.1-.1.2-.1.4-.1a.6.6,0,0,1,.4.1.52.52,0,0,1,.2.4Z"/><path d="M151.9,165.25l-4,10a.22.22,0,0,1-.2.2.37.37,0,0,1-.3.1c-.2,0-.3,0-.4-.1a.37.37,0,0,1-.1-.3V175l4.4-10.7c0-.1.1-.2.2-.3s.2-.1.3-.1a.37.37,0,0,1,.3.1l.2.2,4.3,10.6v.2c0,.2,0,.3-.1.4a.5.5,0,0,1-.6,0l-.2-.2-4.1-10Zm-3,6.9.4-1h5.1l.2,1Z"/><path d="M171.7,164.75c.1.1.2.2.2.3a.6.6,0,0,1-.1.4c-.1.1-.2.2-.3.2a.76.76,0,0,1-.4-.1,3.79,3.79,0,0,0-1.3-.6,6.8,6.8,0,0,0-1.5-.2,4.06,4.06,0,0,0-1.9.4,5.6,5.6,0,0,0-1.5,1,4.35,4.35,0,0,0-1,1.6,6.47,6.47,0,0,0-.4,2,4.21,4.21,0,0,0,.4,2,8.64,8.64,0,0,0,1,1.6,4,4,0,0,0,1.5,1,5.82,5.82,0,0,0,1.9.3,7.72,7.72,0,0,0,1.5-.2c.5-.2.9-.4,1.3-.6a.37.37,0,0,1,.3-.1c.1,0,.2.1.3.2a.6.6,0,0,1,.1.4c0,.1-.1.2-.2.3a9.29,9.29,0,0,1-1,.5,5.64,5.64,0,0,1-1.2.4,5.28,5.28,0,0,1-1.3.1,5.38,5.38,0,0,1-2.2-.4,7.61,7.61,0,0,1-1.9-1.2,4.31,4.31,0,0,1-1.3-1.9,6,6,0,0,1-.5-2.4,6.44,6.44,0,0,1,.5-2.4,7.61,7.61,0,0,1,1.2-1.9,4.14,4.14,0,0,1,1.9-1.2,5.87,5.87,0,0,1,2.3-.4,5.66,5.66,0,0,1,1.8.3A4.24,4.24,0,0,1,171.7,164.75Z"/><path d="M175.1,175a.76.76,0,0,1-.2.4c-.1.1-.2.1-.4.1s-.3,0-.4-.1-.1-.2-.1-.4v-10.5a.6.6,0,0,1,.1-.4c.1-.1.2-.1.4-.1a.6.6,0,0,1,.4.1.52.52,0,0,1,.2.4Z"/><path d="M178.7,175.55c-.2,0-.3,0-.4-.1s-.2-.2-.2-.3v-10.6a.37.37,0,0,1,.1-.3c.1-.1.2-.1.4-.1h4.5a3.29,3.29,0,0,1,1.7.4,3.18,3.18,0,0,1,1.2,1.1,2.93,2.93,0,0,1,.4,1.6,2.77,2.77,0,0,1-.3,1.3,3.59,3.59,0,0,1-.7,1,2.38,2.38,0,0,1-1.1.6l-.6-.2a2.1,2.1,0,0,1,1.1.4,2.58,2.58,0,0,1,.9.9,3.19,3.19,0,0,1,.3,1.4,3.42,3.42,0,0,0,.1,1.1.85.85,0,0,0,.2.6l.3.3c.1.1.2.2.2.3v.3a.22.22,0,0,1-.2.2c-.1,0-.2.1-.3.1s-.2,0-.2-.1a1.76,1.76,0,0,1-.5-.4,2,2,0,0,1-.4-.8,6.05,6.05,0,0,1-.2-1.5,2.51,2.51,0,0,0-.2-1,1,1,0,0,0-.5-.6,2.12,2.12,0,0,0-.7-.3c-.2,0-.5-.1-.7-.1h-3.8l.2-.2v4.7a.37.37,0,0,1-.1.3C179,175.45,178.9,175.55,178.7,175.55Zm.3-5.9h4.1a1.78,1.78,0,0,0,1-.4,2.36,2.36,0,0,0,.8-.9,2.77,2.77,0,0,0,.3-1.3,2.45,2.45,0,0,0-.6-1.6,2.35,2.35,0,0,0-1.7-.6H179l.1-.2v5.2Z"/><path d="M190.3,175a.76.76,0,0,1-.2.4c-.1.1-.2.1-.4.1s-.3,0-.4-.1-.1-.2-.1-.4v-10.5a.6.6,0,0,1,.1-.4c.1-.1.2-.1.4-.1a.6.6,0,0,1,.4.1.52.52,0,0,1,.2.4Z"/><path d="M199.7,174.55a.6.6,0,0,1,.4.1.37.37,0,0,1,.1.3.6.6,0,0,1-.1.4c-.1.1-.2.1-.4.1h-5.9a.6.6,0,0,1-.4-.1.37.37,0,0,1-.1-.3v-10.6a.37.37,0,0,1,.1-.3c.1-.1.2-.1.4-.1a.6.6,0,0,1,.4.1c.1.1.2.2.2.3v10.4l-.3-.3Z"/><path d="M206,165.25l-4,10a.22.22,0,0,1-.2.2.37.37,0,0,1-.3.1c-.2,0-.3,0-.4-.1a.37.37,0,0,1-.1-.3V175l4.4-10.7c0-.1.1-.2.2-.3s.2-.1.3-.1a.37.37,0,0,1,.3.1l.2.2,4.3,10.6v.2c0,.2,0,.3-.1.4a.5.5,0,0,1-.6,0l-.2-.2-4.1-10Zm-3,6.9.4-1h5.1l.2,1Z"/></g><path class="cls-5" d="M55.73,135.05s1.69-80,0-118.34h165.1s-1.3,80,0,118.34C191.86,136.87,55.73,135.05,55.73,135.05Z"/><path d="M165.23,136.35c-48.58,0-108.59-.78-109.5-.78-.13,0-.26,0-.26-.13a.4.4,0,0,1-.13-.26c0-.78,1.69-80.41,0-118.34a.46.46,0,0,1,.13-.38.48.48,0,0,1,.39-.13H221c.13,0,.26,0,.26.13a.39.39,0,0,1,.13.25c0,.78-1.3,80.54,0,118.34,0,.26-.13.39-.39.52C211.22,136.09,189.65,136.35,165.23,136.35Zm-109-1.69c8.7.13,135.48,1.69,164.19,0-1.17-36.63-.13-110.93,0-117.56H56.25C57.81,53.74,56.38,128,56.25,134.66Z"/><rect class="cls-6" x="55.73" y="10.74" width="165.1" height="10.26"/><path class="cls-6" d="M220.83,21.39H55.73a.42.42,0,0,1-.39-.39V10.74a.42.42,0,0,1,.39-.39h165.1a.42.42,0,0,1,.39.39V21A.34.34,0,0,1,220.83,21.39ZM56.25,20.48H220.44V11.13H56.25Z"/><path class="cls-5" d="M184.72,15.81a2.21,2.21,0,1,1,2.21,2.2A2.11,2.11,0,0,1,184.72,15.81Z"/><path d="M186.93,18.53a2.6,2.6,0,1,1,2.59-2.59A2.61,2.61,0,0,1,186.93,18.53Zm0-4.41a1.69,1.69,0,1,0,1.69,1.69A1.72,1.72,0,0,0,186.93,14.12Z"/><circle class="cls-5" cx="199.79" cy="15.81" r="2.21"/><path d="M199.79,18.53a2.6,2.6,0,1,1,2.59-2.59A2.44,2.44,0,0,1,199.79,18.53Zm0-4.41a1.69,1.69,0,1,0,1.69,1.69A1.57,1.57,0,0,0,199.79,14.12Z"/><circle class="cls-5" cx="212.52" cy="15.81" r="2.21"/><path d="M212.52,18.53a2.6,2.6,0,1,1,2.59-2.59A2.61,2.61,0,0,1,212.52,18.53Zm0-4.41a1.69,1.69,0,1,0,1.69,1.69A1.72,1.72,0,0,0,212.52,14.12Z"/><g class="cls-7"><path d="M220.18,21.39c-.26-.13-.91-.26-.65-.13h-1.3c-1.69-.13-3.38-.13-5.06-.13-5.07-.13-10.14.39-15.2.26-2.6,0-5.2.13-7.8,0-1.94,0-4-.26-6-.26-5.85,0-11.56-.39-17.28-.26-5.06.13-10,0-15.07-.13H139.77c-3.37-.13-6.62.26-10,.26-7.27.13-14.68.13-22-.13-2.73,0-5.33-.13-8,0-2.21.13-4.42,0-6.76.13h-7.4c-2.86-.13-5.85-.13-8.71-.13-2.33,0-4.8.13-7.14.26H63.14C61.45,21,59.89,21,58.2,21c-.91.13-1.82-.26-2.47.39a1.45,1.45,0,0,0,1,2.47c1.95,0,3.9,0,5.72.13,2.85.13,5.58.13,8.44,0,3.51-.26,6.88-.39,10.39-.39,2.73,0,5.33.13,8.05.13h8.84c2,0,3.76-.13,5.71-.13,5.33.13,10.65.26,16,.26S130.68,24,136,23.6h14.42c7.14.13,14.28,0,21.3,0,4.29.13,8.7.26,13,.26,3.25.13,6.49.39,9.74.26,2.6-.13,5.2,0,7.79-.13,1.56,0,3.12-.26,4.68-.26,4-.13,8,0,12.08,0a1.71,1.71,0,0,0,1.3-.39A1.11,1.11,0,0,0,220.18,21.39Z"/></g><path class="cls-6" d="M120.16,106.21a5.41,5.41,0,0,0-5.46,1.69,5.54,5.54,0,0,0-1.29,5.59,4.26,4.26,0,0,0,.9,1.69,4.59,4.59,0,0,0,1.69,1,7,7,0,0,0,5.59-.26,4.85,4.85,0,0,0,2.6-4.68A5.64,5.64,0,0,0,120.16,106.21Z"/><path class="cls-6" d="M118.47,117a6.79,6.79,0,0,1-2.73-.52,4.79,4.79,0,0,1-1.94-1.17,6.08,6.08,0,0,1-1-1.82,6.1,6.1,0,0,1,7.4-7.67h0a5.75,5.75,0,0,1,1.43,10.53A7.85,7.85,0,0,1,118.47,117Zm.39-10.53a5.64,5.64,0,0,0-3.9,1.69,5.44,5.44,0,0,0-1.29,5.2,2.18,2.18,0,0,0,.77,1.43,4.5,4.5,0,0,0,1.56.91,6.54,6.54,0,0,0,5.2-.26,4.75,4.75,0,0,0,2.47-4.29A4.89,4.89,0,0,0,120,106.6h0C119.64,106.6,119.25,106.47,118.86,106.47Z"/><path class="cls-6" d="M158,106.6a5.41,5.41,0,0,0-5.46,1.69,5.54,5.54,0,0,0-1.29,5.59,4.39,4.39,0,0,0,.9,1.69,4.59,4.59,0,0,0,1.69,1,7,7,0,0,0,5.59-.26,4.85,4.85,0,0,0,2.6-4.68C161.73,109.46,160.69,107.25,158,106.6Z"/><path class="cls-6" d="M156.4,117a6.79,6.79,0,0,1-2.73-.52,4.79,4.79,0,0,1-1.94-1.17,6.08,6.08,0,0,1-1-1.82,6.1,6.1,0,0,1,7.4-7.67h0a5.75,5.75,0,0,1,1.43,10.53A7.39,7.39,0,0,1,156.4,117Zm.39-10.53a5.64,5.64,0,0,0-3.9,1.69,5.44,5.44,0,0,0-1.29,5.2,2.14,2.14,0,0,0,.77,1.43,4.5,4.5,0,0,0,1.56.91,6.54,6.54,0,0,0,5.2-.26,4.75,4.75,0,0,0,2.47-4.29A4.89,4.89,0,0,0,158,106.6h0C157.57,106.6,157.18,106.47,156.79,106.47Z"/><path class="cls-5" d="M173.55,60.23c-2.08,12.47-6.5,35.2-17.67,36-9.87.78-18.7.52-30.91.52-4.68,0-9.88-1-13-4.93-1.69-2.08-2.6-4.81-3.51-7.54-2.47-7.66-4.94-15.33-6.37-23.12C126.91,61.14,151.21,60.23,173.55,60.23Z"/><path d="M136,97.25H125.1c-6.11,0-10.66-1.69-13.38-5.06-1.82-2.21-2.73-5.07-3.64-7.67a175.34,175.34,0,0,1-6.37-23.25.46.46,0,0,1,.52-.52c12.6,0,25.2-.26,37.41-.52,11.83-.26,23-.39,34-.39a.46.46,0,0,1,.52.52c-2.86,16.5-7.41,35.59-18.06,36.37C149.26,97.12,143.15,97.25,136,97.25ZM102.75,61.66c1.43,7.53,3.9,15.2,6.24,22.6.78,2.47,1.69,5.33,3.38,7.41,2.59,3.11,6.88,4.67,12.73,4.67h5.84c9.35,0,16.89,0,25.07-.52,11.17-.78,15.46-25.2,17.15-35.07-10.78,0-21.82.26-33.39.39C127.56,61.4,115.22,61.66,102.75,61.66Z"/><path d="M173.55,61.14h0c-.26,0-.52-.26-.39-.52A87.61,87.61,0,0,1,175,50.75a1.77,1.77,0,0,1,1.82-1.56l19.74-2.08c.26,0,.52.13.52.39s-.13.52-.39.52L176.93,50.1a1,1,0,0,0-.65.13,2.12,2.12,0,0,0-.39.78,85.44,85.44,0,0,0-1.82,9.74C173.94,61,173.81,61.14,173.55,61.14Z"/><path class="cls-6" d="M183.55,52.18a1.92,1.92,0,0,1-.39-3.38,6.94,6.94,0,0,1,2.34-.65c2.34-.39,4.67-.65,7-1a9.56,9.56,0,0,1,4.29,0c1.3.39,2.47,1.56,1.95,2.73s-1.95,1.43-3.25,1.56C191.6,52.18,187.06,53.61,183.55,52.18Z"/><path class="cls-6" d="M187.06,53.22a8.62,8.62,0,0,1-3.64-.65,2.58,2.58,0,0,1-1.56-2.08,1.92,1.92,0,0,1,1-2.08,6.08,6.08,0,0,1,2.47-.78l7-1a12.61,12.61,0,0,1,4.42,0A3.34,3.34,0,0,1,199,48.28a1.66,1.66,0,0,1,0,1.56c-.52,1.17-2.21,1.69-3.64,1.82a16.72,16.72,0,0,0-2.47.52A17.82,17.82,0,0,1,187.06,53.22Zm-3.25-1.43c2.73,1,6,.39,9.22-.26.78-.13,1.69-.39,2.6-.52.65-.13,2.47-.39,2.86-1.3a.83.83,0,0,0,0-.78,3,3,0,0,0-1.69-1.3,10.51,10.51,0,0,0-4,0l-7,1a6.23,6.23,0,0,0-2.21.65,1.6,1.6,0,0,0-.65,1.3C182.77,51,183.16,51.53,183.81,51.79Z"/><path d="M116.78,95.43c-.65-7.66-.78-15.59-.91-23.12-.13-3.64-.13-7.27-.26-11h.26c.13,3.64.26,7.4.26,11,.13,7.53.26,15.33.91,23.12Z"/><path d="M128,96.73c-.26-5.84-.26-12-.26-17.79s0-11.83-.26-17.8h.26c.26,5.85.26,12,.26,17.8s0,11.82.26,17.79Z"/><path d="M139.64,96.73h-.26c0-6.62-.13-13.38-.38-19.87-.13-5.07-.26-10.39-.39-15.59h.26c0,5.2.25,10.52.38,15.59C139.38,83.35,139.64,90.11,139.64,96.73Z"/><path d="M151,96.08c-.52-11.69-.91-23.51-1-35.2h.26c.13,11.69.52,23.51,1,35.2Z"/><path d="M162.38,93h-.26c0-5.32-.13-10.65-.26-15.71-.13-5.33-.26-10.78-.26-16.24h.26c0,5.46.13,10.91.26,16.24C162.25,82.31,162.38,87.64,162.38,93Z"/><path d="M105.48,73.22V73c20,0,43.26-.13,66.12-1.3v.26C148.74,73.22,125.49,73.22,105.48,73.22Z"/><path d="M108.73,85v-.26c19,0,39.23-.13,59.36-1.17v.26C148,84.91,127.69,85,108.73,85Z"/><g class="cls-7"><path d="M198.36,48.15c-.26-.13-.52,0-.78,0a.13.13,0,0,0-.13.13,21.52,21.52,0,0,1-2.73.78c-1.82.26-3.64.65-5.45,1-1,.13-2,0-3,.13a11.89,11.89,0,0,1-2.21-.13h0c-.39,0-.91-.26-1.3-.13a1.14,1.14,0,0,0-.13,2.21,25.07,25.07,0,0,0,6.24.13c1.29-.13,2.59-.52,4-.78a30.23,30.23,0,0,0,4.68-1,1,1,0,0,0,.52-.26c.26-.13.65-.26.78-.52A1,1,0,0,0,198.36,48.15Z"/></g><g class="cls-7"><path d="M123.15,112.84a1.39,1.39,0,0,0-.65.39c-.13.13-.39.26-.52.39a.13.13,0,0,0,.13-.13l-.13.13c-1.43.91-1.43.78-2,.91a11.8,11.8,0,0,1-3.25-.13h-.13a1,1,0,0,0-.52-.26L116,114c-.26-.26-.65-.78-.78-.91s-.39-.65-.78-.65a1,1,0,0,0-1.16,1.56,6.35,6.35,0,0,0,5.71,3.12,5.34,5.34,0,0,0,4.68-2.08c.13-.13.39-.52.13-.13.13-.13.26-.26.26-.39a.68.68,0,0,0,.26-.52A1,1,0,0,0,123.15,112.84Z"/></g><g class="cls-7"><path d="M162.38,113.75a.9.9,0,0,0-1.43-.52c-.39.39-.13.26-.52.52a4.67,4.67,0,0,1-2.34.91h-1.82a9,9,0,0,1-2.34-.65c-.65-.26-1.3-.78-2-.65a1,1,0,0,0-.26,1.82,29.74,29.74,0,0,0,3,1.3,8,8,0,0,0,4.94-.26C160.82,115.7,162.64,114.92,162.38,113.75Z"/></g><g class="cls-7"><path d="M152.63,96.47h0c2.86.13,5.85,0,8.06-1.82.52-.39,1.17-.91,1.69-1.3a18.94,18.94,0,0,0,1.56-1.55c0-.13.13-.13.13-.26a1.07,1.07,0,0,0-.78-.52c-.52,0-.78.39-1.17.65a7.78,7.78,0,0,1-1.56.77A27.42,27.42,0,0,1,155,94c-1,.13-5.19.26-7.4.26-4.29,0-8.45.13-12.73-.13-2.47-.13-4.81,0-7.28-.26-1.55-.13-4.41-.26-4.8-.39-1.56-.26-3.12-.52-4.68-.91a20.56,20.56,0,0,1-2.6-.9h-.13c-.65-.26-1.17-.78-1.94-.65a1.14,1.14,0,0,0-.26,2.07A11.8,11.8,0,0,0,115,94a.66.66,0,0,0,.52.65c3,1.82,6.5,2.08,9.75,2.34a34.65,34.65,0,0,0,6.36.13,34.06,34.06,0,0,0,3.64-.13,1,1,0,0,0,.52-.52c1,0,2.08.13,3.25.13,2.2,0,4.54-.13,6.75-.26h6a1.91,1.91,0,0,1,.9.13Z"/></g><path d="M144.71,106.47c-5.59,0-11.3-.13-16.76-.26s-11-.26-16.49-.26a.42.42,0,0,1-.39-.39.59.59,0,0,1,.39-.39c5.45,0,11,.13,16.49.26,10.14.13,20.79.39,31.05-.13,2.08-.13,4.55-.26,6.36-1.55a4.54,4.54,0,0,0,1.82-3,2.35,2.35,0,0,0-.65-2.08c-.65-.78-6.62-2.47-9-2.34-.26,0-.52-.13-.52-.39s.13-.52.39-.52c2.47-.13,8.83,1.56,9.74,2.6a3.43,3.43,0,0,1,.78,2.73,5.17,5.17,0,0,1-2.21,3.51,12.38,12.38,0,0,1-6.88,1.68A126.55,126.55,0,0,1,144.71,106.47Z"/><polygon class="cls-6" points="206.41 98.81 188.62 91.02 194.2 109.59 197.58 106.6 204.72 115.05 210.05 110.37 202.9 101.8 206.41 98.81"/><path d="M204.72,115.44h0c-.13,0-.26-.13-.39-.13l-6.75-8.19-3.12,2.73a.48.48,0,0,1-.39.13.28.28,0,0,1-.26-.26l-5.58-18.57a.78.78,0,0,1,.13-.52c.13-.13.26-.13.52-.13l17.66,7.79c.13,0,.26.13.26.39a.48.48,0,0,1-.13.39l-3.12,2.73,6.89,8.18a.59.59,0,0,1,0,.65l-5.33,4.68A.48.48,0,0,1,204.72,115.44Zm-7.14-9.36h0c.13,0,.26.13.39.13l6.75,8.19,4.68-4.16-6.89-8.18a.59.59,0,0,1,0-.65l2.86-2.6-16.23-7.14,5.06,16.88,2.86-2.6C197.45,106.08,197.45,106.08,197.58,106.08Z"/><path d="M69.37,38a.34.34,0,0,1-.39-.39c0-.26.13-.52.39-.52,10.26-.26,20.65-.39,30.92-.39a.39.39,0,0,1,0,.78h0c-10.27.13-20.66.26-30.92.52Z"/><path d="M69.11,47.5a.42.42,0,0,1-.39-.39.59.59,0,0,1,.39-.39h19.1a.42.42,0,0,1,.39.39.59.59,0,0,1-.39.39H69.11Z"/><path d="M77.55,57h-8a.42.42,0,0,1-.39-.39.59.59,0,0,1,.39-.39H83.4a.42.42,0,0,1,.39.39.58.58,0,0,1-.39.52C81.71,57,79.63,57,77.55,57Z"/><path class="cls-5" d="M200.22,278c-10.64,4.25-22.69,4.11-34.12,3.49-13.07-.73-26.77-1.08-39.85-1.81-15.34-.35-31.13-.77-44.25,7.26C61.53,299.4,56.82,333.65,72.66,352c7.72,8.66,17.81,13.64,28.62,16.49,18.3,5,37.45,4.93,56.13,4.39,20.32-.44,41.7-1.39,59.25-11.81s30.54-34.31,22.45-54.54c-3-6.14-7-11.88-9.92-18.13-4.84-11.26-3.42-25.37,3.18-35.9C222.62,261.85,212.63,273.82,200.22,278Z"/><path d="M233.61,251.56a1.06,1.06,0,0,1,.45,1.72,37.49,37.49,0,0,0-3.14,34.8c1,2.78,2.92,5.71,4.42,8.45s3.5,6.21,4.94,9.61c8.61,21.28-5.51,46.24-23.06,56.66-18.72,10.94-41.79,11.25-59.81,11.74-18.6,0-37.83.46-56.67-4.46-12.94-3.47-22.52-9-29.18-16.56-7.72-8.65-11.21-22.52-9.31-36.12s9.11-24.6,18.82-31.19c13.64-8.51,31.18-8,44.81-7.19l39.85,1.81c10.88.66,22.93.8,33.58-3.45,9.58-3.84,17.69-11.53,25.24-19.28,2.27-2,4.71-4.7,7-6.72.62-.49.62-.49,1.17-.52S233.13,250.93,233.61,251.56Zm-75,119.83c18.61,0,40.58-.32,58.2-11.29,16.48-10,29.4-33.36,21.79-53a101.5,101.5,0,0,0-4.9-9.07,43.44,43.44,0,0,1-4.91-9.06c-3.8-9-3.69-20-.43-29.63a5.43,5.43,0,0,0-1.13,1.06c-8.11,7.68-16.21,15.47-26.41,19.8-11.26,4.84-23.79,4.07-34.67,3.41l-39.86-1.8c-13.07-.73-30-1.73-43.08,6.74-9.58,5.48-15.81,16.53-17.56,29-1.82,13,1.23,25.31,8.39,33.89,6.11,7.45,15.1,12.4,27.49,15.91,8.62,2.68,17.89,3.78,26.57,4.27C137.77,372.31,147.59,371.84,158.61,371.39Z"/><g class="cls-7"><path d="M64.54,314.29c0-1.1.66-1.58.69-2.68,1.31-3.26,2.07-6.49,3.31-9.09A36.61,36.61,0,0,1,89.39,283a63.48,63.48,0,0,1,21-3.66c.55.07,1.65.11,2.2.18s1.1,0,1.65.1,1.65.1,2.2.17,1.1,0,1.65.11,1.65.1,2.2.17c4.4.24,9.23.56,14.18.87,8.68.49,16.92,1,25.13,1l5,.31a65.67,65.67,0,0,0,10.4,0,1.87,1.87,0,0,0,1.57.66,25.81,25.81,0,0,1,6.56-.13c1.72-.45,3.81-.27,6.08-.76a71.08,71.08,0,0,0,12.21-3.7,47.05,47.05,0,0,0,10.82-6.45c2.89-2.61,6.39-5.7,9.28-8.2a52.64,52.64,0,0,0,5.8-6.2c1.17-.52,2.68.68,3.2,1.85a1.89,1.89,0,0,0-.66,1.58c0,1.1-.65,1.58-.69,2.67a50,50,0,0,0-4.7,6.24l.07-.55a19.1,19.1,0,0,0-1.79,2.64c-.58,1-.62.49-.62.49-1.27,2.16-3.5,3.09-5.15,4.62a45.41,45.41,0,0,1-9.14,5.46c-6.14,2.95-10.13,3.77-15.62,5.14a52.89,52.89,0,0,1-15.44,1.3c-4.95-.31-9.83-1.17-14.66-1.38-7.69-.44-14.79-.28-22.45-.29-5-.31-10.4,0-15.86.13-3.26.34-9.38.55-9.93.48-2.74-.14-4.91.23-7.65.09-13.12.27-22.32,6.38-23.46,7.34A30.12,30.12,0,0,0,74.63,302h0c-1.76,1.55-2.92,3.71-4.68,5.14A29.45,29.45,0,0,0,65.73,314c-.63.48-.66,1.57-1.2,1.61h0C63.93,314.88,64.1,312.68,64.54,314.29Z"/></g><path d="M109.17,303.81h.21c.11,0,.11.11.22.11l3.61,5.45h-.33l3.6-5.45c.11-.11.22-.22.33-.22s.22,0,.22.11a.38.38,0,0,1,.11.32v8.41a.44.44,0,1,1-.88,0V305h.22l-3.27,5-.11.11h-.44a.11.11,0,0,1-.11-.11l-3.27-5,.21-.22v7.75a.4.4,0,0,1-.11.33.37.37,0,0,1-.32.11.39.39,0,0,1-.44-.44v-8.41c0-.11,0-.21.11-.21C109.06,303.92,109.06,303.81,109.17,303.81Z"/><path d="M124.45,306.21a.4.4,0,0,1,.33.11.39.39,0,0,1,.11.32v5.79a3,3,0,0,1-.44,1.75,3.54,3.54,0,0,1-1.09,1.09,3.63,3.63,0,0,1-1.64.33,3.68,3.68,0,0,1-1.09-.11,5.36,5.36,0,0,1-.77-.33c-.1-.11-.21-.11-.21-.22s-.11-.22,0-.33a.23.23,0,0,1,.21-.21h.33a1.81,1.81,0,0,0,.66.32,2.53,2.53,0,0,0,1,.22,2.18,2.18,0,0,0,1.2-.33,3,3,0,0,0,.87-.87,2.58,2.58,0,0,0,.33-1.31v-1l.11.33a1.72,1.72,0,0,1-.54.65,6.14,6.14,0,0,1-.88.55,3.15,3.15,0,0,1-1,.22,2.31,2.31,0,0,1-1.31-.33,2,2,0,0,1-.77-.88,2.42,2.42,0,0,1-.21-1.31v-4a.39.39,0,0,1,.11-.32.37.37,0,0,1,.32-.11.4.4,0,0,1,.33.11.39.39,0,0,1,.11.32v3.93A1.83,1.83,0,0,0,121,312a1.47,1.47,0,0,0,1.31.55,2.62,2.62,0,0,0,1-.22,5.21,5.21,0,0,0,.76-.65,1.77,1.77,0,0,0,.33-1v-4a.39.39,0,0,1,.11-.32C124.56,306.21,124.34,306.21,124.45,306.21Z"/><path d="M131.11,303.81h4.8a.4.4,0,0,1,.33.11.37.37,0,0,1,.11.32.39.39,0,0,1-.44.44h-4.47l.11-.22v3.71l-.11-.22h3.93a.4.4,0,0,1,.33.11.59.59,0,0,1,0,.66.4.4,0,0,1-.33.11h-3.93l.11-.11v3.82l-.11-.11h4.47a.47.47,0,0,1,.33.77.43.43,0,0,1-.33.1h-4.8a.43.43,0,0,1-.33-.1.4.4,0,0,1-.11-.33v-8.41a.4.4,0,0,1,.11-.33C130.89,303.92,131,303.81,131.11,303.81Z"/><path d="M138,309.26a.43.43,0,0,1-.33-.1.4.4,0,0,1-.11-.33c0-.11,0-.22.11-.22a.4.4,0,0,1,.33-.11h2.84a.38.38,0,0,1,.32.11.4.4,0,0,1,.11.33.37.37,0,0,1-.11.32.38.38,0,0,1-.32.11H138Z"/><path d="M149.89,304.57c.11.11.22.11.22.22a.4.4,0,0,1-.11.33c-.11.11-.11.11-.22.11a.4.4,0,0,1-.33-.11,3.39,3.39,0,0,0-1.09-.55,4.68,4.68,0,0,0-1.2-.22,3.84,3.84,0,0,0-1.53.33,3.35,3.35,0,0,0-1.2.76,2.88,2.88,0,0,0-.77,1.2,3.8,3.8,0,0,0-.32,1.64,4.55,4.55,0,0,0,.32,1.64,4.49,4.49,0,0,0,.77,1.2,2.7,2.7,0,0,0,1.2.76,6.63,6.63,0,0,0,1.42.33,3.89,3.89,0,0,0,1.2-.22,5,5,0,0,0,1.09-.54c.11,0,.22-.11.33-.11a.38.38,0,0,1,.22.11.4.4,0,0,1,.11.33.24.24,0,0,1-.22.21,4.78,4.78,0,0,1-.77.44l-1,.33a3,3,0,0,1-1,.11,4.51,4.51,0,0,1-1.75-.33,3.45,3.45,0,0,1-1.42-1,3.85,3.85,0,0,1-1-1.53,5.27,5.27,0,0,1-.33-2,5,5,0,0,1,.33-1.85,4.7,4.7,0,0,1,1-1.53,4.21,4.21,0,0,1,1.42-1,4.93,4.93,0,0,1,1.75-.33,5.56,5.56,0,0,1,1.42.22A9.8,9.8,0,0,1,149.89,304.57Z"/><path d="M157.86,309.7a3,3,0,0,1-.44,1.75,2.58,2.58,0,0,1-1.2,1.2,3.19,3.19,0,0,1-1.75.44,2.59,2.59,0,0,1-1.63-.44,6.55,6.55,0,0,1-1.21-1.2,3.27,3.27,0,0,1-.43-1.75,3.06,3.06,0,0,1,.43-1.75,2.6,2.6,0,0,1,1.21-1.2,3.12,3.12,0,0,1,1.63-.43,3.27,3.27,0,0,1,1.75.43,4.28,4.28,0,0,1,1.2,1.2A3.74,3.74,0,0,1,157.86,309.7Zm-.88,0a3.15,3.15,0,0,0-.32-1.42,2.64,2.64,0,0,0-.88-1,2.29,2.29,0,0,0-1.31-.33,2.92,2.92,0,0,0-1.31.33,2,2,0,0,0-.87,1,3.22,3.22,0,0,0,0,2.84,2.26,2.26,0,0,0,2.18,1.31,2.86,2.86,0,0,0,1.31-.33,1.92,1.92,0,0,0,.88-1A3.48,3.48,0,0,0,157,309.7Z"/><path d="M162.55,306.32a2.23,2.23,0,0,1,1.42.43,1.76,1.76,0,0,1,.76,1.31h-.21l.11-.21a3,3,0,0,1,.54-.77,2.29,2.29,0,0,1,.87-.54,3.21,3.21,0,0,1,1-.22,2.42,2.42,0,0,1,1.31.32,2.38,2.38,0,0,1,.76,1,5.36,5.36,0,0,1,.22,1.31v3.71a.39.39,0,0,1-.44.44.38.38,0,0,1-.32-.11.4.4,0,0,1-.11-.33v-3.71a3.21,3.21,0,0,0-.22-1,1.14,1.14,0,0,0-.55-.65c-.22-.22-.54-.22-1-.22a2.57,2.57,0,0,0-1,.22,4.43,4.43,0,0,0-.77.65,1.76,1.76,0,0,0-.32,1v3.71a.44.44,0,1,1-.88,0v-3.71a3,3,0,0,0-.11-1,1.12,1.12,0,0,0-.54-.65,2.2,2.2,0,0,0-1-.22,3.22,3.22,0,0,0-1,.22,5.21,5.21,0,0,0-.76.65,1.77,1.77,0,0,0-.33,1v3.71a.39.39,0,0,1-.44.44.38.38,0,0,1-.32-.11.4.4,0,0,1-.11-.33v-5.9a.39.39,0,0,1,.43-.43.4.4,0,0,1,.33.11.38.38,0,0,1,.11.32V308l-.33.44a2,2,0,0,1,.22-.76,1.62,1.62,0,0,1,.55-.66c.22-.22.54-.33.76-.54S162.22,306.32,162.55,306.32Z"/><path d="M174.45,306.32a2.23,2.23,0,0,1,1.42.43,1.76,1.76,0,0,1,.76,1.31h-.21l.11-.21a3,3,0,0,1,.54-.77,2.29,2.29,0,0,1,.87-.54,3.21,3.21,0,0,1,1-.22,2.42,2.42,0,0,1,1.31.32,2.46,2.46,0,0,1,.76,1,5.36,5.36,0,0,1,.22,1.31v3.71a.39.39,0,0,1-.44.44.37.37,0,0,1-.32-.11.4.4,0,0,1-.11-.33v-3.71a3.21,3.21,0,0,0-.22-1,1.14,1.14,0,0,0-.55-.65c-.22-.22-.54-.22-1-.22a2.57,2.57,0,0,0-1,.22,5.33,5.33,0,0,0-.77.65,1.76,1.76,0,0,0-.32,1v3.71a.44.44,0,1,1-.88,0v-3.71a3,3,0,0,0-.11-1,1.12,1.12,0,0,0-.54-.65c-.22-.22-.55-.22-1-.22a3.22,3.22,0,0,0-1,.22c-.33.11-.54.44-.76.65a1.54,1.54,0,0,0-.33,1v3.71a.39.39,0,0,1-.44.44.38.38,0,0,1-.32-.11.4.4,0,0,1-.11-.33v-5.9a.39.39,0,0,1,.43-.43.4.4,0,0,1,.33.11.38.38,0,0,1,.11.32V308l-.33.44a2,2,0,0,1,.22-.76,1.62,1.62,0,0,1,.55-.66,3.56,3.56,0,0,0,.76-.54A6.78,6.78,0,0,1,174.45,306.32Z"/><path d="M186.46,313.2a3,3,0,0,1-1.75-.44,3.29,3.29,0,0,1-1.2-1.2,3.42,3.42,0,0,1-.43-1.86,3.16,3.16,0,0,1,.43-1.85,4,4,0,0,1,1.09-1.21,2.58,2.58,0,0,1,1.53-.43,3.14,3.14,0,0,1,1.09.22,2.56,2.56,0,0,1,1,.65,2,2,0,0,1,.65,1,5.85,5.85,0,0,1,.33,1.31c0,.11,0,.22-.11.22a.4.4,0,0,1-.33.11h-5.24l-.11-.65h5.13l-.21.11v-.33a1.9,1.9,0,0,0-.44-1.09,1.73,1.73,0,0,0-.87-.66,3.21,3.21,0,0,0-1-.22,1.85,1.85,0,0,0-.76.11,1.68,1.68,0,0,0-.76.44,2.35,2.35,0,0,0-.55.87,4,4,0,0,0-.22,1.2,3,3,0,0,0,.33,1.42,2.47,2.47,0,0,0,.87,1,3,3,0,0,0,1.42.33,2.34,2.34,0,0,0,.87-.11l.66-.32c.22-.11.33-.33.44-.44a.38.38,0,0,1,.32-.11c.11,0,.22,0,.22.11s.11.11.11.22a.37.37,0,0,1-.11.32,7.86,7.86,0,0,1-1,.88A4.15,4.15,0,0,1,186.46,313.2Z"/><path d="M191.15,313a.39.39,0,0,1-.32-.11.4.4,0,0,1-.11-.33v-5.9a.39.39,0,0,1,.43-.43.4.4,0,0,1,.33.11.39.39,0,0,1,.11.32v2h-.22a2,2,0,0,1,.22-.87,3.86,3.86,0,0,1,.55-.88,4.66,4.66,0,0,1,.76-.65,3.22,3.22,0,0,1,1-.22.66.66,0,0,1,.44.11c.11.11.22.22.22.33a.38.38,0,0,1-.11.32c-.11.11-.11.11-.22.11s-.22,0-.22-.11-.22-.11-.32-.11a2.8,2.8,0,0,0-.77.22,2.68,2.68,0,0,0-.65.55,2.17,2.17,0,0,0-.44.87,3.4,3.4,0,0,0-.22.88v3.27a.4.4,0,0,1-.11.33C191.37,313,191.26,313,191.15,313Z"/><path d="M198.8,306.21a4.48,4.48,0,0,1,1.2.11c.33.11.65.22.87.32a.6.6,0,0,1,.33.55c0,.11,0,.22-.11.22s-.11.11-.22.11-.22,0-.22-.11-.11-.11-.22-.22a.73.73,0,0,0-.32-.22.82.82,0,0,0-.55-.11c-.22,0-.44-.11-.76-.11a2.55,2.55,0,0,0-1.31.33,2.89,2.89,0,0,0-1,1,3.15,3.15,0,0,0-.32,1.42,3.09,3.09,0,0,0,.32,1.42,2.49,2.49,0,0,0,.88,1,2.86,2.86,0,0,0,1.31.33c.32,0,.65,0,.76-.11s.33-.11.44-.22.33-.21.33-.32a.37.37,0,0,1,.32-.11c.11,0,.22,0,.22.11s.11.11.11.22a.59.59,0,0,1-.33.43,3.14,3.14,0,0,1-.87.44,3.89,3.89,0,0,1-1.2.22,3.19,3.19,0,0,1-1.75-.44,4.28,4.28,0,0,1-1.2-1.2,3.19,3.19,0,0,1-.44-1.75,3.16,3.16,0,0,1,.44-1.74,3.45,3.45,0,0,1,1.2-1.31A4.35,4.35,0,0,1,198.8,306.21Z"/><path d="M205.67,313.2a2.93,2.93,0,0,1-1.74-.44,3.14,3.14,0,0,1-1.2-1.2,3.34,3.34,0,0,1-.44-1.86,3.08,3.08,0,0,1,.44-1.85,3.78,3.78,0,0,1,1.09-1.21,2.56,2.56,0,0,1,1.53-.43,3.25,3.25,0,0,1,1.09.22,2.53,2.53,0,0,1,1,.65,1.61,1.61,0,0,1,.66,1,6.41,6.41,0,0,1,.32,1.31c0,.11,0,.22-.11.22a.37.37,0,0,1-.32.11h-5.24l-.11-.65h5.13l-.22.11v-.33a1.9,1.9,0,0,0-.44-1.09,1.65,1.65,0,0,0-.87-.66,3.15,3.15,0,0,0-1-.22,1.87,1.87,0,0,0-.77.11,1.8,1.8,0,0,0-.76.44,2.35,2.35,0,0,0-.55.87,4,4,0,0,0-.21,1.2,3,3,0,0,0,.32,1.42,2.49,2.49,0,0,0,.88,1,3,3,0,0,0,1.42.33,2.4,2.4,0,0,0,.87-.11l.65-.32c.22-.11.33-.33.44-.44a.4.4,0,0,1,.33-.11c.11,0,.22,0,.22.11s.11.11.11.22a.37.37,0,0,1-.11.32,8,8,0,0,1-1,.88A2.17,2.17,0,0,1,205.67,313.2Z"/><path d="M87.44,322a.4.4,0,0,1,.33.11.39.39,0,0,1,.11.32v5.9a.44.44,0,1,1-.88,0v-1.53l.22-.11a2.8,2.8,0,0,1-.22.77,1.63,1.63,0,0,1-.54.65,6.14,6.14,0,0,1-.88.55,2.83,2.83,0,0,1-2.62-.22,2.62,2.62,0,0,1-1.09-1.31,4.56,4.56,0,0,1-.43-1.75,3.63,3.63,0,0,1,.43-1.85,2.88,2.88,0,0,1,1.09-1.2,2.51,2.51,0,0,1,1.53-.44,3.77,3.77,0,0,1,1.09.22,2.38,2.38,0,0,1,.88.54,2,2,0,0,1,.54.77,2.48,2.48,0,0,1,.22.87l-.33-.22v-1.64a.39.39,0,0,1,.11-.32A.83.83,0,0,1,87.44,322Zm-2.73,6.11a2.18,2.18,0,0,0,1.2-.33,2.49,2.49,0,0,0,.88-1,3.31,3.31,0,0,0,0-2.84,2,2,0,0,0-.88-1,2.35,2.35,0,0,0-2.4,0,2.62,2.62,0,0,0-.87,1,3.22,3.22,0,0,0,0,2.84,1.86,1.86,0,0,0,.87,1A2.47,2.47,0,0,0,84.71,328.15Z"/><path d="M93.12,321.93a2.51,2.51,0,0,1,1.53.44,2.88,2.88,0,0,1,1.09,1.2,4.58,4.58,0,0,1,.43,1.85,3,3,0,0,1-.43,1.75,3.33,3.33,0,0,1-1.09,1.31,2.51,2.51,0,0,1-1.53.44,2.42,2.42,0,0,1-.88-.11,1.8,1.8,0,0,1-.76-.44,2.68,2.68,0,0,1-.65-.55,2.14,2.14,0,0,1-.44-.65l.22-.22v1.53a.44.44,0,1,1-.88,0v-9a.44.44,0,1,1,.88,0v4.36l-.22-.11a2.86,2.86,0,0,1,.44-.76c.21-.22.32-.44.54-.55a5.74,5.74,0,0,1,.77-.43A3,3,0,0,1,93.12,321.93Zm-.11.65a2.18,2.18,0,0,0-1.2.33,2.64,2.64,0,0,0-.88,1,3.15,3.15,0,0,0-.32,1.42,3.09,3.09,0,0,0,.32,1.42,1.88,1.88,0,0,0,.88,1A2.44,2.44,0,0,0,93,328a2.18,2.18,0,0,0,1.2-.33,2.47,2.47,0,0,0,.87-1,3,3,0,0,0,.33-1.42,3,3,0,0,0-.33-1.42,1.94,1.94,0,0,0-.87-1A2.18,2.18,0,0,0,93,322.58Z"/><path d="M104,325.42a3,3,0,0,1-.43,1.75,2.63,2.63,0,0,1-1.2,1.2,3.19,3.19,0,0,1-1.75.44,2.64,2.64,0,0,1-1.64-.44,6.49,6.49,0,0,1-1.2-1.2,3.19,3.19,0,0,1-.43-1.75,2.93,2.93,0,0,1,.43-1.74,2.61,2.61,0,0,1,1.2-1.21,3.15,3.15,0,0,1,1.64-.43,3.27,3.27,0,0,1,1.75.43,4.31,4.31,0,0,1,1.2,1.21A2.73,2.73,0,0,1,104,325.42Zm-.76,0a3,3,0,0,0-.33-1.42,2.62,2.62,0,0,0-.87-1,2.31,2.31,0,0,0-1.31-.33,2.89,2.89,0,0,0-1.31.33,1.9,1.9,0,0,0-.87,1,3.22,3.22,0,0,0,0,2.84,2.4,2.4,0,0,0,.87,1,2.58,2.58,0,0,0,1.31.33,2.89,2.89,0,0,0,1.31-.33,2.47,2.47,0,0,0,.87-1A3.34,3.34,0,0,0,103.27,325.42Z"/><path d="M110.69,322a.4.4,0,0,1,.33.11.39.39,0,0,1,.11.32v3.72a2.35,2.35,0,0,1-.76,2,3.26,3.26,0,0,1-3.93,0,2.7,2.7,0,0,1-.77-2v-3.72a.39.39,0,0,1,.11-.32.55.55,0,0,1,.66,0,.39.39,0,0,1,.11.32v3.72a1.89,1.89,0,0,0,.54,1.42,2.14,2.14,0,0,0,2.84,0,1.89,1.89,0,0,0,.55-1.42v-3.72a.39.39,0,0,1,.11-.32C110.48,322.15,110.59,322,110.69,322Z"/><path d="M112.77,322h3.06c.1,0,.21,0,.21.11s.11.11.11.22,0,.21-.11.21-.11.11-.21.11h-3.06c-.11,0-.22,0-.22-.11s-.11-.11-.11-.21,0-.22.11-.22A.38.38,0,0,1,112.77,322Zm1.31-1.86a.39.39,0,0,1,.44.44v6.55c0,.22,0,.44.1.54s.11.22.22.22.22.11.33.11h.44c.11,0,.11,0,.22.11s.1.11.1.22-.1.22-.21.33a.82.82,0,0,1-.55.11h-.33c-.11,0-.32-.11-.43-.11a.86.86,0,0,1-.44-.44,2.06,2.06,0,0,1-.22-.87v-6.66a.4.4,0,0,1,.11-.33A.24.24,0,0,1,114.08,320.18Z"/><path d="M126.74,319.09a.39.39,0,0,1,.44.44v9a.39.39,0,0,1-.44.44.37.37,0,0,1-.32-.11.4.4,0,0,1-.11-.33V327l.21-.22a2,2,0,0,1-.21.77,3.53,3.53,0,0,1-.55.76,2.44,2.44,0,0,1-.87.55,3.21,3.21,0,0,1-1,.22,2.47,2.47,0,0,1-1.52-.44,3.88,3.88,0,0,1-1.1-1.2,4.74,4.74,0,0,1-.43-1.75,3.06,3.06,0,0,1,.43-1.75,2.4,2.4,0,0,1,1.1-1.2,2.53,2.53,0,0,1,1.52-.43,2.84,2.84,0,0,1,1,.21,3.81,3.81,0,0,1,.87.55,2,2,0,0,1,.55.76,2.57,2.57,0,0,1,.21.88l-.32-.22v-4.69a.4.4,0,0,1,.11-.33C126.52,319.09,126.52,319.09,126.74,319.09ZM124,328.15a2.16,2.16,0,0,0,1.2-.33,2.49,2.49,0,0,0,.88-1,3.22,3.22,0,0,0,0-2.84,2,2,0,0,0-.88-1,2.16,2.16,0,0,0-1.2-.33,2.21,2.21,0,0,0-1.2.33,2.71,2.71,0,0,0-.87,1,3.22,3.22,0,0,0,0,2.84,1.91,1.91,0,0,0,.87,1A2.21,2.21,0,0,0,124,328.15Z"/><path d="M132.2,328.92a3,3,0,0,1-1.75-.44,3.29,3.29,0,0,1-1.2-1.2,3.42,3.42,0,0,1-.43-1.86,3.16,3.16,0,0,1,.43-1.85,3.77,3.77,0,0,1,1.1-1.2,2.47,2.47,0,0,1,1.52-.44,3.25,3.25,0,0,1,1.1.22,2.61,2.61,0,0,1,1,.65,2,2,0,0,1,.65,1,5.85,5.85,0,0,1,.33,1.31c0,.11,0,.22-.11.22s-.22.11-.33.11h-5.24l-.11-.65h5.14l-.22.11v-.22a1.9,1.9,0,0,0-.44-1.09,1.73,1.73,0,0,0-.87-.66,3.21,3.21,0,0,0-1-.22,1.85,1.85,0,0,0-.76.11,1.68,1.68,0,0,0-.76.44,2.35,2.35,0,0,0-.55.87,4,4,0,0,0-.22,1.2,3,3,0,0,0,.33,1.42,2.55,2.55,0,0,0,.87,1,3,3,0,0,0,1.42.33,2.42,2.42,0,0,0,.88-.11l.65-.32c.22-.11.33-.33.44-.44a.39.39,0,0,1,.32-.11c.11,0,.22,0,.22.11s.11.11.11.22a.37.37,0,0,1-.11.32,7.86,7.86,0,0,1-1,.88A2.11,2.11,0,0,1,132.2,328.92Z"/><path d="M139.52,321.93a4.48,4.48,0,0,1,1.2.11,3.79,3.79,0,0,1,.87.33.58.58,0,0,1,.33.54c0,.11,0,.22-.11.22s-.11.11-.22.11-.22,0-.22-.11-.11-.11-.22-.22a.88.88,0,0,0-.32-.22.82.82,0,0,0-.55-.11c-.22,0-.44-.11-.76-.11a2.55,2.55,0,0,0-1.31.33,2.89,2.89,0,0,0-1,1,3,3,0,0,0-.32,1.42,3,3,0,0,0,.32,1.42,2.6,2.6,0,0,0,.88,1,3,3,0,0,0,1.31.32c.32,0,.65,0,.76-.11s.33-.11.55-.21.32-.22.32-.33.22-.11.33-.11.22,0,.22.11.11.11.11.22a.58.58,0,0,1-.33.43,3.14,3.14,0,0,1-.87.44,4,4,0,0,1-1.2.22,3.19,3.19,0,0,1-1.75-.44,4.28,4.28,0,0,1-1.2-1.2,3.19,3.19,0,0,1-.44-1.75,3.16,3.16,0,0,1,.44-1.74,3.45,3.45,0,0,1,1.2-1.31A3.91,3.91,0,0,1,139.52,321.93Z"/><path d="M149.56,325.42a3,3,0,0,1-.44,1.75,2.54,2.54,0,0,1-1.2,1.2,4.51,4.51,0,0,1-1.74.44,2.6,2.6,0,0,1-1.64-.44,4,4,0,0,1-1.2-1.2,3.19,3.19,0,0,1-.44-1.75,2.93,2.93,0,0,1,.44-1.74,2.52,2.52,0,0,1,1.2-1.21,3.13,3.13,0,0,1,1.64-.43,3.24,3.24,0,0,1,1.74.43,4.06,4.06,0,0,1,1.2,1.21A2.73,2.73,0,0,1,149.56,325.42Zm-.76,0a3,3,0,0,0-.33-1.42,2.64,2.64,0,0,0-.88-1,2.29,2.29,0,0,0-1.31-.33A2.92,2.92,0,0,0,145,323a2,2,0,0,0-.87,1,3.22,3.22,0,0,0,0,2.84,2.55,2.55,0,0,0,.87,1,2.6,2.6,0,0,0,1.31.33,2.86,2.86,0,0,0,1.31-.33,1.88,1.88,0,0,0,.88-1A3.34,3.34,0,0,0,148.8,325.42Z"/><path d="M157.86,322a2.33,2.33,0,0,1,1.31.33,2.36,2.36,0,0,1,.76,1,5.36,5.36,0,0,1,.22,1.31v3.71a.39.39,0,0,1-.44.44.37.37,0,0,1-.32-.11.4.4,0,0,1-.11-.33v-3.71a1.59,1.59,0,0,0-.22-1,1.13,1.13,0,0,0-.55-.66,2.15,2.15,0,0,0-1-.22,3.84,3.84,0,0,0-1.09.22,4.78,4.78,0,0,0-.77.66,1.54,1.54,0,0,0-.32,1v3.71a.44.44,0,1,1-.88,0v-8.95a.44.44,0,1,1,.88,0v4.26l-.33.43a2,2,0,0,1,.22-.76,2.85,2.85,0,0,1,.54-.66,2.71,2.71,0,0,1,.77-.43A3.79,3.79,0,0,1,157.86,322Z"/><path d="M168.45,325.42a3,3,0,0,1-.44,1.75,2.58,2.58,0,0,1-1.2,1.2,3.19,3.19,0,0,1-1.75.44,2.64,2.64,0,0,1-1.64-.44,6.49,6.49,0,0,1-1.2-1.2,3.27,3.27,0,0,1-.43-1.75,3,3,0,0,1,.43-1.74,2.61,2.61,0,0,1,1.2-1.21,3.17,3.17,0,0,1,1.64-.43,3.27,3.27,0,0,1,1.75.43,4.18,4.18,0,0,1,1.2,1.21A2.73,2.73,0,0,1,168.45,325.42Zm-.77,0a3.15,3.15,0,0,0-.32-1.42,2.64,2.64,0,0,0-.88-1,2.31,2.31,0,0,0-1.31-.33,2.89,2.89,0,0,0-1.31.33,1.94,1.94,0,0,0-.87,1,3.22,3.22,0,0,0,0,2.84,2.47,2.47,0,0,0,.87,1,2.6,2.6,0,0,0,1.31.33,2.89,2.89,0,0,0,1.31-.33,1.88,1.88,0,0,0,.88-1A3.48,3.48,0,0,0,167.68,325.42Z"/><path d="M173.14,322a2.23,2.23,0,0,1,1.42.43,1.76,1.76,0,0,1,.76,1.31h-.21l.11-.21a3,3,0,0,1,.54-.77,2.42,2.42,0,0,1,.87-.54,3.21,3.21,0,0,1,1-.22,2.33,2.33,0,0,1,1.31.33,2.36,2.36,0,0,1,.76,1,5.36,5.36,0,0,1,.22,1.31v3.71a.39.39,0,0,1-.44.44.37.37,0,0,1-.32-.11.4.4,0,0,1-.11-.33v-3.71a3.09,3.09,0,0,0-.22-1,1.13,1.13,0,0,0-.55-.66c-.22-.22-.54-.22-1-.22a2.57,2.57,0,0,0-1,.22,4.11,4.11,0,0,0-.77.66,1.71,1.71,0,0,0-.32,1v3.71a.44.44,0,1,1-.88,0v-3.71a3,3,0,0,0-.11-1,1.11,1.11,0,0,0-.54-.66,2.2,2.2,0,0,0-1-.22,3.22,3.22,0,0,0-1,.22,4.68,4.68,0,0,0-.76.66,1.72,1.72,0,0,0-.33,1v3.71a.39.39,0,0,1-.44.44.38.38,0,0,1-.32-.11.4.4,0,0,1-.11-.33v-5.9a.39.39,0,0,1,.11-.32.38.38,0,0,1,.32-.11.4.4,0,0,1,.33.11.39.39,0,0,1,.11.32v1.21l-.33.43a2,2,0,0,1,.22-.76,1.62,1.62,0,0,1,.55-.66c.22-.22.54-.32.76-.54S172.81,322,173.14,322Z"/><path d="M185.15,328.92a3,3,0,0,1-1.75-.44,3.29,3.29,0,0,1-1.2-1.2,3.42,3.42,0,0,1-.43-1.86,3.08,3.08,0,0,1,.43-1.85,3.87,3.87,0,0,1,1.09-1.2,2.51,2.51,0,0,1,1.53-.44,3.14,3.14,0,0,1,1.09.22,2.56,2.56,0,0,1,1,.65,2,2,0,0,1,.65,1,5.85,5.85,0,0,1,.33,1.31c0,.11,0,.22-.11.22s-.22.11-.33.11H182.2l-.11-.65h5.13l-.21.11v-.22a1.9,1.9,0,0,0-.44-1.09,1.73,1.73,0,0,0-.87-.66,3.21,3.21,0,0,0-1-.22,1.85,1.85,0,0,0-.76.11,1.68,1.68,0,0,0-.76.44,2.35,2.35,0,0,0-.55.87,4,4,0,0,0-.22,1.2,3,3,0,0,0,.33,1.42,2.47,2.47,0,0,0,.87,1A3,3,0,0,0,185,328a2.34,2.34,0,0,0,.87-.11l.66-.32c.22-.11.33-.33.44-.44a.38.38,0,0,1,.32-.11c.11,0,.22,0,.22.11s.11.11.11.22a.37.37,0,0,1-.11.32,7.86,7.86,0,0,1-1,.88A2,2,0,0,1,185.15,328.92Z"/><path d="M198.58,319.09a.39.39,0,0,1,.44.44v9a.44.44,0,1,1-.88,0V327l.22-.22a2,2,0,0,1-.22.77,3.83,3.83,0,0,1-.54.76,2.4,2.4,0,0,1-.88.55,3.15,3.15,0,0,1-1,.22,2.5,2.5,0,0,1-1.53-.44,3.85,3.85,0,0,1-1.09-1.2,4.56,4.56,0,0,1-.44-1.75,3,3,0,0,1,.44-1.75,2.38,2.38,0,0,1,1.09-1.2,2.56,2.56,0,0,1,1.53-.43,2.78,2.78,0,0,1,1,.21,2.4,2.4,0,0,1,.88.55,2.1,2.1,0,0,1,.54.76,2.59,2.59,0,0,1,.22.88l-.33-.22v-4.69a.4.4,0,0,1,.11-.33C198.36,319.09,198.47,319.09,198.58,319.09Zm-2.73,9.06a2.18,2.18,0,0,0,1.2-.33,2.47,2.47,0,0,0,.87-1,3.22,3.22,0,0,0,0-2.84,1.94,1.94,0,0,0-.87-1,2.35,2.35,0,0,0-2.4,0,2.64,2.64,0,0,0-.88,1,3.31,3.31,0,0,0,0,2.84,1.88,1.88,0,0,0,.88,1A2.44,2.44,0,0,0,195.85,328.15Z"/><path d="M204,328.92a3,3,0,0,1-1.75-.44,3.21,3.21,0,0,1-1.2-1.2,3.34,3.34,0,0,1-.44-1.86,3.08,3.08,0,0,1,.44-1.85,3.75,3.75,0,0,1,1.09-1.2,2.5,2.5,0,0,1,1.53-.44,3.19,3.19,0,0,1,1.09.22,2.46,2.46,0,0,1,1,.65,1.61,1.61,0,0,1,.66,1,5.85,5.85,0,0,1,.33,1.31c0,.11,0,.22-.11.22s-.22.11-.33.11h-5.24l-.11-.65h5.13l-.22.11v-.22a2,2,0,0,0-.43-1.09,1.71,1.71,0,0,0-.88-.66,3.09,3.09,0,0,0-1-.22,1.8,1.8,0,0,0-.76.11,1.77,1.77,0,0,0-.77.44,2.33,2.33,0,0,0-.54.87,4,4,0,0,0-.22,1.2,3,3,0,0,0,.33,1.42,2.4,2.4,0,0,0,.87,1,3,3,0,0,0,1.42.33,2.37,2.37,0,0,0,.87-.11,4.56,4.56,0,0,0,.66-.32c.21-.11.32-.33.43-.44a.4.4,0,0,1,.33-.11c.11,0,.22,0,.22.11s.11.11.11.22a.37.37,0,0,1-.11.32c-.22.33-.66.55-1,.88A5.48,5.48,0,0,1,204,328.92Z"/><path d="M208.08,327.71a.37.37,0,0,1-.11-.32.24.24,0,0,1,.22-.22c.1-.11.1-.11.21-.11s.22,0,.22.11a2.93,2.93,0,0,0,.88.76,2.16,2.16,0,0,0,1.2.33,2.12,2.12,0,0,0,.76-.11,2.4,2.4,0,0,0,.55-.33,1.46,1.46,0,0,0,.21-.65,1.54,1.54,0,0,0-.21-.66,1.69,1.69,0,0,0-.66-.43,2.75,2.75,0,0,0-.76-.22,2.59,2.59,0,0,0-.88-.22,5.71,5.71,0,0,1-.76-.33,1.3,1.3,0,0,1-.55-.54,1.59,1.59,0,0,1-.21-.77,1.75,1.75,0,0,1,.32-1,1.32,1.32,0,0,1,.88-.65,3.83,3.83,0,0,1,1.2-.22,2.1,2.1,0,0,1,.76.11c.22.11.55.11.77.32a3.12,3.12,0,0,1,.65.55.34.34,0,0,1,.11.22.54.54,0,0,1-.11.33c-.11,0-.11.1-.22.1s-.22,0-.22-.1a1.87,1.87,0,0,0-.76-.55,2.62,2.62,0,0,0-1-.22,1.87,1.87,0,0,0-.77.11,2.31,2.31,0,0,0-.54.33,1.52,1.52,0,0,0-.22.65,1.56,1.56,0,0,0,.22.66,1.54,1.54,0,0,0,.65.43c.33.11.55.22.88.33a7.45,7.45,0,0,1,.76.22l.65.33a1.12,1.12,0,0,1,.44.54,2.07,2.07,0,0,1,.22.88,1.33,1.33,0,0,1-.33,1,1.69,1.69,0,0,1-.87.66,4.29,4.29,0,0,1-1.2.21,3.48,3.48,0,0,1-1.42-.32C208.84,328.37,208.4,328.15,208.08,327.71Z"/><path d="M215,321.06c-.21,0-.32,0-.43-.11a.4.4,0,0,1-.11-.33v-.11c0-.11,0-.33.11-.33s.22-.11.43-.11.33,0,.44.11a.4.4,0,0,1,.11.33v.11c0,.11,0,.33-.11.33S215.17,321.06,215,321.06Zm.44,7.31a.39.39,0,0,1-.44.44.39.39,0,0,1-.32-.11.4.4,0,0,1-.11-.33v-6a.4.4,0,0,1,.11-.33.39.39,0,0,1,.32-.11.39.39,0,0,1,.44.44Z"/><path d="M220.19,321.93a3.25,3.25,0,0,1,1.1.22,2.42,2.42,0,0,1,.87.54,2.92,2.92,0,0,1,.55.66,1.65,1.65,0,0,1,.21.65l-.21-.32v-1.21a.42.42,0,0,1,.1-.32.55.55,0,0,1,.66,0,.39.39,0,0,1,.11.32v5.68a3,3,0,0,1-.44,1.75,2.88,2.88,0,0,1-1.2,1.09,4.33,4.33,0,0,1-1.64.33,3,3,0,0,1-1-.11,7.35,7.35,0,0,1-.87-.33,1.52,1.52,0,0,1-.44-.33c-.11-.11-.11-.11-.11-.21s0-.11.11-.22.22-.11.22,0,.22.11.44.22.21.1.32.1a4.76,4.76,0,0,0,.55.11c.22,0,.44.11.65.11a2.6,2.6,0,0,0,1.86-.65,2.47,2.47,0,0,0,.66-1.75V327h.1a1.58,1.58,0,0,1-.43.76,2.92,2.92,0,0,1-.66.55,2.28,2.28,0,0,1-.76.33c-.22,0-.55.11-.87.11a2.6,2.6,0,0,1-1.64-.44,5.93,5.93,0,0,1-1.2-1.2,3.19,3.19,0,0,1-.44-1.75,2.93,2.93,0,0,1,.44-1.74,2.8,2.8,0,0,1,1.09-1.2A3.81,3.81,0,0,1,220.19,321.93Zm.11.65a2.92,2.92,0,0,0-1.31.33,2.71,2.71,0,0,0-.87,1,3,3,0,0,0-.33,1.42,3,3,0,0,0,.33,1.42,2.55,2.55,0,0,0,.87,1,2.33,2.33,0,0,0,1.31.33,2.86,2.86,0,0,0,1.31-.33,2.49,2.49,0,0,0,.88-1,3,3,0,0,0,.32-1.42,3,3,0,0,0-.32-1.42,2.64,2.64,0,0,0-.88-1A2.86,2.86,0,0,0,220.3,322.58Z"/><path d="M228.71,321.93a2.71,2.71,0,0,1,1.42.33,2.21,2.21,0,0,1,.76,1,5.44,5.44,0,0,1,.22,1.31v3.82a.4.4,0,0,1-.11.33.39.39,0,0,1-.32.11.39.39,0,0,1-.44-.44v-3.82a3.09,3.09,0,0,0-.22-1,1.13,1.13,0,0,0-.55-.66c-.21-.22-.54-.22-1-.22a3.84,3.84,0,0,0-1.09.22,5.47,5.47,0,0,0-.87.66,1.72,1.72,0,0,0-.33,1v3.82a.47.47,0,0,1-.77.33.43.43,0,0,1-.1-.33v-5.9a.42.42,0,0,1,.1-.32.55.55,0,0,1,.66,0,.39.39,0,0,1,.11.32v1.1l-.33.43a1.58,1.58,0,0,1,.22-.76,1.91,1.91,0,0,1,.65-.66,2.34,2.34,0,0,1,.88-.43A2.12,2.12,0,0,1,228.71,321.93Z"/><path d="M134.49,337.76a2.48,2.48,0,0,1,1.53.44,2.76,2.76,0,0,1,1.09,1.2,4.51,4.51,0,0,1,.44,1.74,3.19,3.19,0,0,1-.44,1.75,2.81,2.81,0,0,1-1.09,1.2,2.48,2.48,0,0,1-1.53.44,2.4,2.4,0,0,1-.87-.11,4.75,4.75,0,0,1-.76-.33,2.92,2.92,0,0,1-.66-.55,2.14,2.14,0,0,1-.44-.65l.22-.22v4a.4.4,0,0,1-.11.33.38.38,0,0,1-.32.11.39.39,0,0,1-.44-.44V338.2a.39.39,0,0,1,.44-.44.38.38,0,0,1,.32.11.4.4,0,0,1,.11.33v1.41l-.22-.1a2.76,2.76,0,0,1,.44-.77c.22-.22.33-.44.55-.54a5.19,5.19,0,0,1,.76-.33A3.36,3.36,0,0,1,134.49,337.76Zm-.11.65a2.21,2.21,0,0,0-1.2.33,2.71,2.71,0,0,0-.87,1,3,3,0,0,0-.33,1.42,3,3,0,0,0,.33,1.42,1.91,1.91,0,0,0,.87,1,2.5,2.5,0,0,0,1.2.33,2.22,2.22,0,0,0,1.21-.33,2.55,2.55,0,0,0,.87-1,3,3,0,0,0,.33-1.42,3,3,0,0,0-.33-1.42,2.25,2.25,0,0,0-2.08-1.31Z"/><path d="M139.63,344.42a.39.39,0,0,1-.44-.44v-5.89a.39.39,0,0,1,.44-.44.39.39,0,0,1,.32.11.4.4,0,0,1,.11.33v2h-.22a2,2,0,0,1,.22-.87,3.86,3.86,0,0,1,.55-.88,5.21,5.21,0,0,1,.76-.65,3.22,3.22,0,0,1,1-.22.66.66,0,0,1,.44.11c.11.11.22.22.22.33a.4.4,0,0,1-.11.33c-.11.1-.11.1-.22.1s-.22,0-.22-.1-.21-.11-.32-.11a3.11,3.11,0,0,0-.77.21,2.88,2.88,0,0,0-.65.55,2.24,2.24,0,0,0-.44.87,3.4,3.4,0,0,0-.22.88v3.27a.4.4,0,0,1-.11.33C139.84,344.42,139.73,344.42,139.63,344.42Z"/><path d="M150.54,341.14a3,3,0,0,1-.43,1.75,2.56,2.56,0,0,1-1.21,1.2,4.51,4.51,0,0,1-1.74.44,2.62,2.62,0,0,1-1.64-.44,4.15,4.15,0,0,1-1.2-1.2,3.19,3.19,0,0,1-.44-1.75,2.93,2.93,0,0,1,.44-1.74,2.5,2.5,0,0,1,1.2-1.2,3.07,3.07,0,0,1,1.64-.44,3.16,3.16,0,0,1,1.74.44,4.07,4.07,0,0,1,1.21,1.2A2.79,2.79,0,0,1,150.54,341.14Zm-.76,0a3,3,0,0,0-.33-1.42,2.71,2.71,0,0,0-.87-1,2.33,2.33,0,0,0-1.31-.33,2.86,2.86,0,0,0-1.31.33,2,2,0,0,0-.88,1,3.15,3.15,0,0,0-.32,1.42,3.09,3.09,0,0,0,.32,1.42,2.49,2.49,0,0,0,.88,1,2.29,2.29,0,0,0,1.31.33,2.92,2.92,0,0,0,1.31-.33,2.55,2.55,0,0,0,.87-1A3.31,3.31,0,0,0,149.78,341.14Z"/><path d="M157.75,334.81a.4.4,0,0,1,.33.11.43.43,0,0,1,.1.33v8.95a.43.43,0,0,1-.1.33.44.44,0,0,1-.77-.33v-1.53l.22-.22a2,2,0,0,1-.22.77,3.56,3.56,0,0,1-.54.76,2.4,2.4,0,0,1-.88.55,3.15,3.15,0,0,1-1,.22,2.5,2.5,0,0,1-1.53-.44,3.85,3.85,0,0,1-1.09-1.2,4.56,4.56,0,0,1-.44-1.75,3,3,0,0,1,.44-1.75,2.38,2.38,0,0,1,1.09-1.2,2.65,2.65,0,0,1,2.51-.21,2.25,2.25,0,0,1,.88.54,2.06,2.06,0,0,1,.54.77,2.48,2.48,0,0,1,.22.87l-.33-.22v-4.69a.4.4,0,0,1,.11-.33C157.53,334.81,157.53,334.81,157.75,334.81ZM155,343.87a2.18,2.18,0,0,0,1.2-.33,2.47,2.47,0,0,0,.87-1,3,3,0,0,0,.33-1.42,3,3,0,0,0-.33-1.42,1.94,1.94,0,0,0-.87-1,2.35,2.35,0,0,0-2.4,0,2.64,2.64,0,0,0-.88,1,3.15,3.15,0,0,0-.32,1.42,3.09,3.09,0,0,0,.32,1.42,1.88,1.88,0,0,0,.88,1A2.16,2.16,0,0,0,155,343.87Z"/><path d="M165.17,337.76a.39.39,0,0,1,.44.44v3.71a2.31,2.31,0,0,1-.77,2,3.26,3.26,0,0,1-3.93,0,2.72,2.72,0,0,1-.76-2V338.2a.39.39,0,0,1,.44-.44.38.38,0,0,1,.32.11.4.4,0,0,1,.11.33v3.71a1.87,1.87,0,0,0,2,2,1.85,1.85,0,0,0,2-2V338.2a.4.4,0,0,1,.11-.33C165,337.87,165.06,337.76,165.17,337.76Z"/><path d="M170.52,337.65a4.4,4.4,0,0,1,1.2.11,3.72,3.72,0,0,1,.88.33.6.6,0,0,1,.32.54c0,.11,0,.22-.11.22s-.11.11-.21.11-.22,0-.22-.11-.11-.11-.22-.22a.85.85,0,0,0-.33-.22.66.66,0,0,0-.44-.11c-.21,0-.43-.1-.76-.1a2.57,2.57,0,0,0-1.31.32,4.18,4.18,0,0,0-1,1,3.2,3.2,0,0,0,0,2.83,2.22,2.22,0,0,0,2.18,1.31,1.54,1.54,0,0,0,.77-.1c.21-.11.32-.11.43-.22s.33-.22.33-.33.22-.11.33-.11.22,0,.22.11.1.11.1.22a.55.55,0,0,1-.32.43,1.66,1.66,0,0,1-.88.44,3.83,3.83,0,0,1-1.2.22,3.16,3.16,0,0,1-1.74-.44,3.92,3.92,0,0,1-1.2-1.2,3.68,3.68,0,0,1,0-3.49,3.37,3.37,0,0,1,1.2-1.31A13.35,13.35,0,0,1,170.52,337.65Z"/><path d="M173.91,337.76H177c.11,0,.22,0,.22.11s.11.11.11.22,0,.21-.11.21-.11.11-.22.11h-3.05c-.11,0-.22,0-.22-.11s-.11-.1-.11-.21,0-.22.11-.22A.38.38,0,0,0,173.91,337.76Zm1.41-1.86a.39.39,0,0,1,.44.44v6.55a.82.82,0,0,0,.11.55c.11.1.11.21.22.21s.22.11.33.11h.43c.11,0,.11,0,.22.11s.11.11.11.22-.11.22-.22.33a.81.81,0,0,1-.54.11h-.33c-.11,0-.33-.11-.44-.11a.81.81,0,0,1-.43-.44,2,2,0,0,1-.22-.87v-6.66a.4.4,0,0,1,.11-.33A.24.24,0,0,1,175.32,335.9Z"/><path d="M178.49,343.44a.4.4,0,0,1-.11-.33.24.24,0,0,1,.22-.22c.11-.11.11-.11.22-.11s.22,0,.22.11a2.66,2.66,0,0,0,.87.76,2.18,2.18,0,0,0,1.2.33,2.15,2.15,0,0,0,.77-.11,2.54,2.54,0,0,0,.54-.33,1.12,1.12,0,0,0,.22-.65,1.56,1.56,0,0,0-.22-.66,1.85,1.85,0,0,0-.65-.43,2,2,0,0,0-.77-.22,2.54,2.54,0,0,0-.87-.22,5.36,5.36,0,0,1-.77-.33,1.34,1.34,0,0,1-.54-.54,1.59,1.59,0,0,1-.22-.77,1.77,1.77,0,0,1,.33-1,1.33,1.33,0,0,1,.87-.65,3.89,3.89,0,0,1,1.2-.22,2.15,2.15,0,0,1,.77.11c.21.11.54.11.76.32a2.92,2.92,0,0,1,.66.55.36.36,0,0,1,.1.22.58.58,0,0,1-.1.33c-.11,0-.11.11-.22.11s-.22,0-.22-.11a2,2,0,0,0-.77-.55,2.53,2.53,0,0,0-1-.22,2.07,2.07,0,0,0-.76.11,2.4,2.4,0,0,0-.55.33,1.09,1.09,0,0,0,0,1.31,1.69,1.69,0,0,0,.66.44c.32.1.54.21.87.32a6.19,6.19,0,0,1,.76.22l.66.33a1.12,1.12,0,0,1,.44.54,2.23,2.23,0,0,1,.21.88,1.36,1.36,0,0,1-.32,1,1.71,1.71,0,0,1-.88.66,3.84,3.84,0,0,1-1.2.21,3.76,3.76,0,0,1-1.42-.32C178.93,344.42,178.82,343.87,178.49,343.44Z"/><path d="M185,344.42a.39.39,0,0,1-.44-.44v-.33c0-.11,0-.32.11-.32a.4.4,0,0,1,.33-.11h.11a.4.4,0,0,1,.33.11.38.38,0,0,1,.11.32V344a.4.4,0,0,1-.11.33c-.11.11-.11.11-.44.11Z"/></svg>