<svg id="Capa_1" data-name="Capa 1" xmlns="http://www.w3.org/2000/svg" viewBox="0 0 269.1 392"><defs><style>.cls-1{fill:#f0be15;}.cls-2{isolation:isolate;}.cls-3,.cls-5{fill:none;}.cls-4{fill:#7d7d7d;}.cls-5{stroke:#f0be15;stroke-miterlimit:10;stroke-width:3px;}.cls-6{fill:#fff;}.cls-7{opacity:0.13;}.cls-8{fill:#f8afa0;}</style></defs><title>timeline</title><circle id="_Trazado_" data-name="&lt;Trazado&gt;" class="cls-1" cx="9.1" cy="206.66" r="6.3"/><g class="cls-2"><path d="M129.2,169.53a.35.35,0,0,1,.4.4c0,.1,0,.3-.1.3a.37.37,0,0,1-.3.1H123a.6.6,0,0,1-.4-.1.52.52,0,0,1-.2-.4.37.37,0,0,1,.1-.3l3.8-4.2a15,15,0,0,0,1.4-1.8,3.74,3.74,0,0,0,.5-1.5,2.06,2.06,0,0,0-.7-1.7,2.48,2.48,0,0,0-1.8-.7,3.55,3.55,0,0,0-1,.2,2.36,2.36,0,0,0-.9.6,1.56,1.56,0,0,0-.6.8c-.1.1-.1.2-.2.2a.35.35,0,0,0-.2.1.35.35,0,0,1-.4-.4c0-.1,0-.2.1-.2s.1-.2.2-.3a3.45,3.45,0,0,1,.8-.9,4.73,4.73,0,0,1,1.2-.7,3.6,3.6,0,0,1,3.1.1,4.26,4.26,0,0,1,1.2,1.1,3.06,3.06,0,0,1,.4,1.7,4.89,4.89,0,0,1-.5,1.9,13.39,13.39,0,0,1-1.6,2.2l-3.2,3.6-.2-.2h5.3Z"/><path d="M135.5,170.63a3.29,3.29,0,0,1-2.2-.8,4.44,4.44,0,0,1-1.3-2.1,11.45,11.45,0,0,1,0-6,4.44,4.44,0,0,1,1.3-2.1,3.43,3.43,0,0,1,4.4,0,4.44,4.44,0,0,1,1.3,2.1,11.45,11.45,0,0,1,0,6,4.44,4.44,0,0,1-1.3,2.1A3.29,3.29,0,0,1,135.5,170.63Zm0-1a2.27,2.27,0,0,0,1.6-.6,4,4,0,0,0,1-1.7,11.42,11.42,0,0,0,0-5.2,3.23,3.23,0,0,0-1-1.7,2.43,2.43,0,0,0-3.2,0,4,4,0,0,0-1,1.7,9.78,9.78,0,0,0-.3,2.6,10.32,10.32,0,0,0,.3,2.6,4,4,0,0,0,1,1.7A2.11,2.11,0,0,0,135.5,169.63Z"/><path d="M145.3,170.63a3.29,3.29,0,0,1-2.2-.8,4.44,4.44,0,0,1-1.3-2.1,11.45,11.45,0,0,1,0-6,4.44,4.44,0,0,1,1.3-2.1,3.43,3.43,0,0,1,4.4,0,4.44,4.44,0,0,1,1.3,2.1,11.45,11.45,0,0,1,0,6,4.44,4.44,0,0,1-1.3,2.1A3.11,3.11,0,0,1,145.3,170.63Zm0-1a2.27,2.27,0,0,0,1.6-.6,4,4,0,0,0,1-1.7,11.42,11.42,0,0,0,0-5.2,3.23,3.23,0,0,0-1-1.7,2.43,2.43,0,0,0-3.2,0,4,4,0,0,0-1,1.7,9.78,9.78,0,0,0-.3,2.6,10.32,10.32,0,0,0,.3,2.6,4,4,0,0,0,1,1.7A2.27,2.27,0,0,0,145.3,169.63Z"/><path d="M154.8,158.73a4.31,4.31,0,0,1,1.7.3,2.73,2.73,0,0,1,1.2.9,5.39,5.39,0,0,1,.7,1.3,3.89,3.89,0,0,1,.2,1.5,11.14,11.14,0,0,1-.2,1.7,6.36,6.36,0,0,1-.6,1.8,9.5,9.5,0,0,1-1,1.7,19.2,19.2,0,0,1-1.4,1.5,5.24,5.24,0,0,1-1.8,1h-.2a.6.6,0,0,1-.4-.1.52.52,0,0,1-.2-.4.37.37,0,0,1,.1-.3c.1-.1.2-.1.3-.2a9.39,9.39,0,0,0,1.8-1.2,6.55,6.55,0,0,0,1.5-1.8,6,6,0,0,0,.8-2.1l.4-.2a2.54,2.54,0,0,1-.8,1,6.73,6.73,0,0,1-1.1.7,2.74,2.74,0,0,1-1.3.2,3.45,3.45,0,0,1-1.8-.5,4.07,4.07,0,0,1-1.2-1.4,3.92,3.92,0,0,1-.4-1.8,4,4,0,0,1,1.8-3.2A5.85,5.85,0,0,1,154.8,158.73Zm0,1a3.19,3.19,0,0,0-1.4.3,2.19,2.19,0,0,0-.9,1,3.19,3.19,0,0,0-.3,1.4,3.53,3.53,0,0,0,.3,1.4,2.19,2.19,0,0,0,.9,1,2.3,2.3,0,0,0,1.4.4,2.41,2.41,0,0,0,1.5-.4,4.74,4.74,0,0,0,1-1,3.19,3.19,0,0,0,.3-1.4,2.77,2.77,0,0,0-.3-1.3,2.84,2.84,0,0,0-.9-1A2.93,2.93,0,0,0,154.8,159.73Z"/></g><rect class="cls-3" x="13.15" y="278.38" width="212.95" height="96.89"/><g class="cls-2"><path class="cls-4" d="M57.1,222.25c.2.1.3.2.3.4s0,.4-.2.5a.52.52,0,0,1-.4.2.6.6,0,0,1-.4-.1,6.89,6.89,0,0,0-.8-.3,2.77,2.77,0,0,0-.9-.1,5.07,5.07,0,0,0-1.3.2,3.59,3.59,0,0,0-1,.7,2.07,2.07,0,0,0-.6,1,5.07,5.07,0,0,0-.2,1.3,5.9,5.9,0,0,0,.2,1.4,1.83,1.83,0,0,0,.7,1,3.33,3.33,0,0,0,1,.6,5,5,0,0,0,1.2.2,2,2,0,0,0,.8-.1,6.89,6.89,0,0,1,.8-.3.62.62,0,0,1,.8.1,1.69,1.69,0,0,1,.2.5c0,.2-.1.3-.3.4a4.88,4.88,0,0,1-.7.3,2.35,2.35,0,0,1-.8.2c-.3,0-.5.1-.8.1a4.67,4.67,0,0,1-1.7-.3,4.19,4.19,0,0,1-1.4-.9,4.51,4.51,0,0,1-1-1.4,5.85,5.85,0,0,1-.4-1.9,4.84,4.84,0,0,1,.3-1.8,3.32,3.32,0,0,1,1-1.4,4.19,4.19,0,0,1,1.4-.9,4.84,4.84,0,0,1,1.8-.3,5,5,0,0,1,1.2.2C56.4,222,56.8,222.15,57.1,222.25Z"/><path class="cls-4" d="M66.1,227.35a3.17,3.17,0,0,1-1.6,3,3.81,3.81,0,0,1-3.4,0,3.5,3.5,0,0,1-1.7-3,2.73,2.73,0,0,1,.5-1.8,3.45,3.45,0,0,1,1.2-1.2,3.37,3.37,0,0,1,1.7-.5,2.62,2.62,0,0,1,1.7.5,3.17,3.17,0,0,1,1.6,3Zm-1.3,0a2.13,2.13,0,0,0-.3-1.2,2,2,0,0,0-.8-.8,2,2,0,0,0-1.1-.3,2.28,2.28,0,0,0-1.1.3,3,3,0,0,0-.8.8,2.13,2.13,0,0,0-.3,1.2,2.66,2.66,0,0,0,.3,1.2,2,2,0,0,0,.8.8,2.17,2.17,0,0,0,2.2,0,3,3,0,0,0,.8-.8A1.8,1.8,0,0,0,64.8,227.35Z"/><path class="cls-4" d="M71.9,223.85a2,2,0,0,1,1.4.5,2.4,2.4,0,0,1,.7,1.2l-.2-.1.1-.2c.1-.2.3-.4.5-.7a5.55,5.55,0,0,1,.8-.6,3,3,0,0,1,1-.2,2.12,2.12,0,0,1,1.4.4,2.55,2.55,0,0,1,.7,1,5.9,5.9,0,0,1,.2,1.4V230c0,.2-.1.3-.2.5a.76.76,0,0,1-.5.2c-.2,0-.3-.1-.5-.2a.76.76,0,0,1-.2-.5v-3.3a2,2,0,0,0-.1-.8,2.09,2.09,0,0,0-.4-.6,1.88,1.88,0,0,0-.8-.2,2.92,2.92,0,0,0-.9.2.9.9,0,0,0-.6.6,1.88,1.88,0,0,0-.2.8V230c0,.2-.1.3-.2.5a.76.76,0,0,1-.5.2c-.2,0-.3-.1-.5-.2a.76.76,0,0,1-.2-.5v-3.4a2,2,0,0,0-.1-.8,2.09,2.09,0,0,0-.4-.6,1.88,1.88,0,0,0-.8-.2,2.92,2.92,0,0,0-.9.2.9.9,0,0,0-.6.6,1.88,1.88,0,0,0-.2.8V230c0,.2-.1.3-.2.5a.76.76,0,0,1-.5.2c-.2,0-.3-.1-.5-.2a.76.76,0,0,1-.2-.5v-5.4c0-.2.1-.3.2-.5a.76.76,0,0,1,.5-.2c.2,0,.3.1.5.2a.76.76,0,0,1,.2.5v.7l-.2.1.3-.6a1.21,1.21,0,0,1,.5-.5,1.61,1.61,0,0,1,.7-.4A2.72,2.72,0,0,0,71.9,223.85Z"/><path class="cls-4" d="M81.7,223.05a.75.75,0,0,1-.5-.1.59.59,0,0,1-.2-.5v-.2c0-.2.1-.4.2-.4a.75.75,0,0,1,.5-.1c.3,0,.4,0,.5.1a.52.52,0,0,1,.2.4v.2a.76.76,0,0,1-.2.5C82.2,223.05,82,223.05,81.7,223.05Zm.7,7c0,.2-.1.3-.2.5a.76.76,0,0,1-.5.2c-.2,0-.3-.1-.5-.2a.76.76,0,0,1-.2-.5v-5.5c0-.2.1-.3.2-.5a.76.76,0,0,1,.5-.2c.2,0,.3.1.5.2a.76.76,0,0,1,.2.5Z"/><path class="cls-4" d="M88.2,230.75a3.17,3.17,0,0,1-3.4-3.4,3,3,0,0,1,.5-1.9,3.45,3.45,0,0,1,1.2-1.2,2.82,2.82,0,0,1,1.5-.4,5,5,0,0,1,1.2.2,2.29,2.29,0,0,1,1,.7,3.59,3.59,0,0,1,.7,1,2.77,2.77,0,0,1,.3,1.3.52.52,0,0,1-.2.4.76.76,0,0,1-.4.2H85.7l-.3-1.1h4.8l-.2.2v-.3a1.14,1.14,0,0,0-.3-.8,1.79,1.79,0,0,0-.7-.5,2.35,2.35,0,0,0-.8-.2,1.48,1.48,0,0,0-.7.1,2.09,2.09,0,0,0-.6.4,1.61,1.61,0,0,0-.4.7,3.59,3.59,0,0,0-.2,1.1,2.13,2.13,0,0,0,.3,1.2,3,3,0,0,0,.8.8,2,2,0,0,0,1.1.3,2,2,0,0,0,.8-.1c.2-.1.4-.1.5-.2s.3-.2.4-.3a.6.6,0,0,1,.4-.1.71.71,0,0,1,.6.6.55.55,0,0,1-.3.5,3.49,3.49,0,0,1-.9.6A5.54,5.54,0,0,1,88.2,230.75Z"/><path class="cls-4" d="M96.9,223.85a2,2,0,0,1,1.4.4,1.83,1.83,0,0,1,.7,1,5.9,5.9,0,0,1,.2,1.4v3.4c0,.2-.1.3-.2.5a.76.76,0,0,1-.5.2c-.2,0-.3-.1-.5-.2a.76.76,0,0,1-.2-.5v-3.4a2,2,0,0,0-.1-.8,2.09,2.09,0,0,0-.4-.6,2,2,0,0,0-.9-.2,2.39,2.39,0,0,0-.9.2.9.9,0,0,0-.6.6,1.88,1.88,0,0,0-.2.8v3.4c0,.2-.1.3-.2.5a.76.76,0,0,1-.5.2c-.2,0-.3-.1-.5-.2a.76.76,0,0,1-.2-.5v-5.4c0-.2.1-.3.2-.5a.76.76,0,0,1,.5-.2c.2,0,.3.1.5.2a.76.76,0,0,1,.2.5v.7l-.2.1.3-.6a1.21,1.21,0,0,1,.5-.5,1.61,1.61,0,0,1,.7-.4A2.77,2.77,0,0,1,96.9,223.85Z"/><path class="cls-4" d="M106.2,229.45a.57.57,0,0,1,.4,1,.76.76,0,0,1-.4.2h-4.1a.52.52,0,0,1-.4-.2c-.1-.1-.2-.3-.1-.4v-.3c0-.1.1-.2.1-.3l3.4-4.5v.2h-2.8a.52.52,0,0,1-.4-.2.76.76,0,0,1-.2-.4.52.52,0,0,1,.2-.4.76.76,0,0,1,.4-.2h3.9a.52.52,0,0,1,.4.2.44.44,0,0,1,.1.5v.2a.35.35,0,0,1-.1.2l-3.3,4.4-.1-.1h3Z"/><path class="cls-4" d="M115.4,227.35a3.17,3.17,0,0,1-1.6,3,3.81,3.81,0,0,1-3.4,0,3.5,3.5,0,0,1-1.7-3,2.73,2.73,0,0,1,.5-1.8,3.45,3.45,0,0,1,1.2-1.2,3.37,3.37,0,0,1,1.7-.5,2.62,2.62,0,0,1,1.7.5,3.17,3.17,0,0,1,1.6,3Zm-1.2,0a2.13,2.13,0,0,0-.3-1.2,2,2,0,0,0-.8-.8,2,2,0,0,0-1.1-.3,2.28,2.28,0,0,0-1.1.3,3,3,0,0,0-.8.8,2.13,2.13,0,0,0-.3,1.2,2.66,2.66,0,0,0,.3,1.2,2,2,0,0,0,.8.8,2,2,0,0,0,1.1.3,2.28,2.28,0,0,0,1.1-.3,3,3,0,0,0,.8-.8A2.66,2.66,0,0,0,114.2,227.35Z"/><path class="cls-4" d="M125.3,223.85a4.12,4.12,0,0,1,1.2.1,1.51,1.51,0,0,1,.8.4.86.86,0,0,1,.3.6.6.6,0,0,1-.1.4.52.52,0,0,1-.4.2.37.37,0,0,1-.3-.1c-.1-.1-.2-.1-.2-.2s-.1-.1-.2-.2-.2-.1-.4-.1h-.5a2.66,2.66,0,0,0-1.2.3,3,3,0,0,0-.8.8,2.13,2.13,0,0,0-.3,1.2,2.38,2.38,0,0,0,.3,1.2,2.7,2.7,0,0,0,.7.8,2,2,0,0,0,1.1.3c.2,0,.5,0,.6-.1a.6.6,0,0,1,.4-.1c.1-.1.2-.2.3-.2s.2-.1.4-.1a.52.52,0,0,1,.4.2.6.6,0,0,1,.1.4.55.55,0,0,1-.3.5,1.88,1.88,0,0,1-.9.4,5,5,0,0,1-1.2.2,3.1,3.1,0,0,1-1.7-.5,2.54,2.54,0,0,1-1.1-1.2,4.78,4.78,0,0,1-.4-1.8,3.17,3.17,0,0,1,1.6-3A3.92,3.92,0,0,1,125.3,223.85Z"/><path class="cls-4" d="M135.4,223.85c.2,0,.3.1.5.2a.76.76,0,0,1,.2.5v5.5c0,.2-.1.3-.2.5a.76.76,0,0,1-.5.2c-.2,0-.3-.1-.5-.2a.76.76,0,0,1-.2-.5v-.9l.3.1a1.69,1.69,0,0,1-.2.5,1.21,1.21,0,0,1-.5.5,2.51,2.51,0,0,1-.7.4,2.92,2.92,0,0,1-.9.2,3,3,0,0,1-1.6-.5,3.18,3.18,0,0,1-1.1-1.2,4.25,4.25,0,0,1,0-3.6,3.18,3.18,0,0,1,1.1-1.2,2.82,2.82,0,0,1,1.5-.4,3,3,0,0,1,1,.2,2.18,2.18,0,0,1,.8.5,2.65,2.65,0,0,1,.5.6,1.42,1.42,0,0,1,.2.6h-.4v-1.3c0-.2.1-.3.2-.5S135.2,223.85,135.4,223.85Zm-2.6,5.8a2.28,2.28,0,0,0,1.1-.3c.4-.2.5-.5.7-.8a2.38,2.38,0,0,0,.3-1.2,2.66,2.66,0,0,0-.3-1.2,1.85,1.85,0,0,0-.7-.8,2,2,0,0,0-1.1-.3,1.69,1.69,0,0,0-1,.3,2.7,2.7,0,0,0-.7.8,2.13,2.13,0,0,0-.3,1.2,2.66,2.66,0,0,0,.3,1.2,1.85,1.85,0,0,0,.7.8A1.69,1.69,0,0,0,132.8,229.65Z"/><path class="cls-4" d="M139.4,230.65c-.2,0-.3-.1-.5-.2a.76.76,0,0,1-.2-.5v-5.4c0-.2.1-.3.2-.5a.76.76,0,0,1,.5-.2c.2,0,.3.1.5.2a.76.76,0,0,1,.2.5V226l-.1-.5c.1-.2.2-.5.3-.7a1.21,1.21,0,0,1,.5-.5,1.61,1.61,0,0,1,.7-.4,2,2,0,0,1,.8-.1,1.42,1.42,0,0,1,.6.2.4.4,0,0,1,.2.4.69.69,0,0,1-.6.7.76.76,0,0,1-.4-.1.6.6,0,0,0-.4-.1.75.75,0,0,0-.5.1,1,1,0,0,0-.5.4c-.1.2-.3.4-.4.6a2,2,0,0,0-.1.8v3c0,.2-.1.3-.2.5A.72.72,0,0,1,139.4,230.65Z"/><path class="cls-4" d="M145.7,230.65c-.2,0-.3-.1-.5-.2a.76.76,0,0,1-.2-.5v-5.4c0-.2.1-.3.2-.5a.76.76,0,0,1,.5-.2c.2,0,.3.1.5.2a.76.76,0,0,1,.2.5V226l-.1-.5c.1-.2.2-.5.3-.7a1.21,1.21,0,0,1,.5-.5,1.61,1.61,0,0,1,.7-.4,2,2,0,0,1,.8-.1,1.42,1.42,0,0,1,.6.2.4.4,0,0,1,.2.4.69.69,0,0,1-.6.7.76.76,0,0,1-.4-.1.6.6,0,0,0-.4-.1.75.75,0,0,0-.5.1,1,1,0,0,0-.5.4c-.1.2-.3.4-.4.6a2,2,0,0,0-.1.8v3c0,.2-.1.3-.2.5A.72.72,0,0,1,145.7,230.65Z"/><path class="cls-4" d="M154.5,230.75a3.17,3.17,0,0,1-3.4-3.4,3,3,0,0,1,.5-1.9,3.45,3.45,0,0,1,1.2-1.2,2.82,2.82,0,0,1,1.5-.4,5,5,0,0,1,1.2.2,2.29,2.29,0,0,1,1,.7,3.59,3.59,0,0,1,.7,1,2.77,2.77,0,0,1,.3,1.3.52.52,0,0,1-.2.4.76.76,0,0,1-.4.2H152l-.3-1.1h4.8l-.2.2v-.3a1.14,1.14,0,0,0-.3-.8,1.79,1.79,0,0,0-.7-.5,2.35,2.35,0,0,0-.8-.2,1.48,1.48,0,0,0-.7.1,2.09,2.09,0,0,0-.6.4,1.61,1.61,0,0,0-.4.7,3.59,3.59,0,0,0-.2,1.1,2.13,2.13,0,0,0,.3,1.2,3,3,0,0,0,.8.8,2,2,0,0,0,1.1.3,2,2,0,0,0,.8-.1c.2-.1.4-.1.5-.2s.3-.2.4-.3a.6.6,0,0,1,.4-.1.71.71,0,0,1,.6.6.55.55,0,0,1-.3.5,3.49,3.49,0,0,1-.9.6A5.54,5.54,0,0,1,154.5,230.75Z"/><path class="cls-4" d="M160.4,230.65c-.2,0-.3-.1-.5-.2a.76.76,0,0,1-.2-.5v-5.4c0-.2.1-.3.2-.5a.76.76,0,0,1,.5-.2c.2,0,.3.1.5.2a.76.76,0,0,1,.2.5V226l-.1-.5c.1-.2.2-.5.3-.7a1.21,1.21,0,0,1,.5-.5,1.61,1.61,0,0,1,.7-.4,2,2,0,0,1,.8-.1,1.42,1.42,0,0,1,.6.2.4.4,0,0,1,.2.4.69.69,0,0,1-.6.7.76.76,0,0,1-.4-.1.6.6,0,0,0-.4-.1.75.75,0,0,0-.5.1,1,1,0,0,0-.5.4c-.1.2-.3.4-.4.6a2,2,0,0,0-.1.8v3c0,.2-.1.3-.2.5C160.7,230.55,160.6,230.65,160.4,230.65Z"/><path class="cls-4" d="M171.5,223.85c.2,0,.3.1.5.2a.76.76,0,0,1,.2.5v5.5c0,.2-.1.3-.2.5a.76.76,0,0,1-.5.2c-.2,0-.3-.1-.5-.2a.76.76,0,0,1-.2-.5v-.9l.3.1a1.69,1.69,0,0,1-.2.5,1.21,1.21,0,0,1-.5.5,2.51,2.51,0,0,1-.7.4,2.92,2.92,0,0,1-.9.2,3,3,0,0,1-1.6-.5,3.18,3.18,0,0,1-1.1-1.2,4.25,4.25,0,0,1,0-3.6,3.18,3.18,0,0,1,1.1-1.2,2.82,2.82,0,0,1,1.5-.4,3,3,0,0,1,1,.2,2.18,2.18,0,0,1,.8.5,2.65,2.65,0,0,1,.5.6,1.42,1.42,0,0,1,.2.6h-.4v-1.3c0-.2.1-.3.2-.5S171.3,223.85,171.5,223.85Zm-2.6,5.8a2.28,2.28,0,0,0,1.1-.3c.4-.2.5-.5.7-.8a2.38,2.38,0,0,0,.3-1.2,2.66,2.66,0,0,0-.3-1.2,1.85,1.85,0,0,0-.7-.8,2,2,0,0,0-1.1-.3,1.69,1.69,0,0,0-1,.3,2.7,2.7,0,0,0-.7.8,2.13,2.13,0,0,0-.3,1.2,2.66,2.66,0,0,0,.3,1.2,1.85,1.85,0,0,0,.7.8A1.69,1.69,0,0,0,168.9,229.65Z"/><path class="cls-4" d="M184.9,221.25c.2,0,.3.1.5.2a.76.76,0,0,1,.2.5v8.1c0,.2-.1.3-.2.5a.76.76,0,0,1-.5.2c-.2,0-.3-.1-.5-.2a.76.76,0,0,1-.2-.5v-.9h.3c0,.2-.1.3-.2.5a1.21,1.21,0,0,1-.5.5,2.51,2.51,0,0,1-.7.4,2.92,2.92,0,0,1-.9.2,3,3,0,0,1-1.6-.5,3.18,3.18,0,0,1-1.1-1.2,4.25,4.25,0,0,1,0-3.6,3.18,3.18,0,0,1,1.1-1.2,2.54,2.54,0,0,1,2.5-.3,2.18,2.18,0,0,1,.8.5,2.65,2.65,0,0,1,.5.6,1.42,1.42,0,0,1,.2.6h-.4v-3.8c0-.2.1-.3.2-.5C184.6,221.35,184.7,221.25,184.9,221.25Zm-2.6,8.4a2,2,0,0,0,1.1-.3,2.7,2.7,0,0,0,.7-.8,2.13,2.13,0,0,0,.3-1.2,2.38,2.38,0,0,0-.3-1.2,2.7,2.7,0,0,0-.7-.8,2,2,0,0,0-1.1-.3,1.69,1.69,0,0,0-1,.3,2.7,2.7,0,0,0-.7.8,2.13,2.13,0,0,0-.3,1.2,2.38,2.38,0,0,0,.3,1.2,2.7,2.7,0,0,0,.7.8A1.69,1.69,0,0,0,182.3,229.65Z"/><path class="cls-4" d="M191.4,230.75a3.17,3.17,0,0,1-3.4-3.4,3,3,0,0,1,.5-1.9,3.45,3.45,0,0,1,1.2-1.2,2.82,2.82,0,0,1,1.5-.4,5,5,0,0,1,1.2.2,2.29,2.29,0,0,1,1,.7,3.59,3.59,0,0,1,.7,1,2.77,2.77,0,0,1,.3,1.3.52.52,0,0,1-.2.4.76.76,0,0,1-.4.2h-4.9l-.3-1.1h4.8l-.2.2v-.3a1.14,1.14,0,0,0-.3-.8,1.79,1.79,0,0,0-.7-.5,2.35,2.35,0,0,0-.8-.2,1.48,1.48,0,0,0-.7.1,2.09,2.09,0,0,0-.6.4,1.61,1.61,0,0,0-.4.7,3.59,3.59,0,0,0-.2,1.1,2.13,2.13,0,0,0,.3,1.2,3,3,0,0,0,.8.8,2,2,0,0,0,1.1.3,2,2,0,0,0,.8-.1c.2-.1.4-.1.5-.2s.3-.2.4-.3a.6.6,0,0,1,.4-.1.71.71,0,0,1,.6.6.55.55,0,0,1-.3.5,3.49,3.49,0,0,1-.9.6A5.54,5.54,0,0,1,191.4,230.75Z"/><path class="cls-4" d="M204,223.85a3,3,0,0,1,1,.2,2.18,2.18,0,0,1,.8.5,2.65,2.65,0,0,1,.5.6,1.69,1.69,0,0,1,.2.5h-.3v-1c0-.2.1-.3.2-.5a.76.76,0,0,1,.5-.2c.2,0,.3.1.5.2a.76.76,0,0,1,.2.5v5.6a2.86,2.86,0,0,1-.5,1.7,2.34,2.34,0,0,1-1.2,1,4.67,4.67,0,0,1-1.7.3,1.7,1.7,0,0,1-.7-.1c-.3-.1-.6-.1-.8-.2a1.69,1.69,0,0,0-.5-.2.78.78,0,0,1-.4-.4.3.3,0,0,1,0-.4q.15-.3.3-.3h.5c.1,0,.2.1.4.1a1.42,1.42,0,0,1,.6.2,1.27,1.27,0,0,0,.6.1,2.07,2.07,0,0,0,1.5-.5,1.73,1.73,0,0,0,.5-1.3v-1.1l.1.1c0,.2-.1.3-.2.5s-.3.3-.5.5a1.61,1.61,0,0,1-.7.4,2.49,2.49,0,0,1-.8.1,3,3,0,0,1-1.6-.5,2.54,2.54,0,0,1-1.1-1.2,4.25,4.25,0,0,1,0-3.6,3.18,3.18,0,0,1,1.1-1.2A2.24,2.24,0,0,1,204,223.85Zm.2,1.2a2,2,0,0,0-1.1.3,1.78,1.78,0,0,0-.7.8,3.5,3.5,0,0,0-.3,1.2,2.38,2.38,0,0,0,.3,1.2,1.85,1.85,0,0,0,.7.8,2.17,2.17,0,0,0,2.2,0,1.78,1.78,0,0,0,.7-.8,2.55,2.55,0,0,0,0-2.4,1.85,1.85,0,0,0-.7-.8A2.28,2.28,0,0,0,204.2,225.05Z"/><path class="cls-4" d="M210.8,230.65c-.2,0-.3-.1-.5-.2a.76.76,0,0,1-.2-.5v-5.4c0-.2.1-.3.2-.5a.76.76,0,0,1,.5-.2c.2,0,.3.1.5.2a.76.76,0,0,1,.2.5V226l-.1-.5c.1-.2.2-.5.3-.7a1.21,1.21,0,0,1,.5-.5,1.61,1.61,0,0,1,.7-.4,2,2,0,0,1,.8-.1,1.42,1.42,0,0,1,.6.2.4.4,0,0,1,.2.4.69.69,0,0,1-.6.7.76.76,0,0,1-.4-.1.6.6,0,0,0-.4-.1.75.75,0,0,0-.5.1,1,1,0,0,0-.5.4c-.1.2-.3.4-.4.6a2,2,0,0,0-.1.8v3c0,.2-.1.3-.2.5A.72.72,0,0,1,210.8,230.65Z"/><path class="cls-4" d="M222,223.85c.2,0,.3.1.5.2a.76.76,0,0,1,.2.5v5.5c0,.2-.1.3-.2.5a.76.76,0,0,1-.5.2c-.2,0-.3-.1-.5-.2a.76.76,0,0,1-.2-.5v-.9l.3.1a1.69,1.69,0,0,1-.2.5,1.21,1.21,0,0,1-.5.5,2.51,2.51,0,0,1-.7.4,2.92,2.92,0,0,1-.9.2,3,3,0,0,1-1.6-.5,3.18,3.18,0,0,1-1.1-1.2,4.25,4.25,0,0,1,0-3.6,3.18,3.18,0,0,1,1.1-1.2,2.82,2.82,0,0,1,1.5-.4,3,3,0,0,1,1,.2,2.18,2.18,0,0,1,.8.5,2.65,2.65,0,0,1,.5.6,1.42,1.42,0,0,1,.2.6h-.4v-1.3c0-.2.1-.3.2-.5A.76.76,0,0,1,222,223.85Zm-2.6,5.8a2.28,2.28,0,0,0,1.1-.3c.4-.2.5-.5.7-.8a2.38,2.38,0,0,0,.3-1.2,2.66,2.66,0,0,0-.3-1.2,1.85,1.85,0,0,0-.7-.8,2,2,0,0,0-1.1-.3,1.69,1.69,0,0,0-1,.3,2.7,2.7,0,0,0-.7.8,2.13,2.13,0,0,0-.3,1.2,2.66,2.66,0,0,0,.3,1.2,1.85,1.85,0,0,0,.7.8A1.49,1.49,0,0,0,219.4,229.65Z"/><path class="cls-4" d="M230.8,221.25c.2,0,.3.1.5.2a.76.76,0,0,1,.2.5v8.1c0,.2-.1.3-.2.5a.76.76,0,0,1-.5.2c-.2,0-.3-.1-.5-.2a.76.76,0,0,1-.2-.5v-.9h.3c0,.2-.1.3-.2.5a1.21,1.21,0,0,1-.5.5,2.51,2.51,0,0,1-.7.4,2.92,2.92,0,0,1-.9.2,3,3,0,0,1-1.6-.5,3.18,3.18,0,0,1-1.1-1.2,4.25,4.25,0,0,1,0-3.6,3.18,3.18,0,0,1,1.1-1.2,2.54,2.54,0,0,1,2.5-.3,2.18,2.18,0,0,1,.8.5,2.65,2.65,0,0,1,.5.6,1.42,1.42,0,0,1,.2.6h-.4v-3.8c0-.2.1-.3.2-.5C230.5,221.35,230.6,221.25,230.8,221.25Zm-2.6,8.4a2,2,0,0,0,1.1-.3,2.7,2.7,0,0,0,.7-.8,2.13,2.13,0,0,0,.3-1.2,2.38,2.38,0,0,0-.3-1.2,2.7,2.7,0,0,0-.7-.8,2,2,0,0,0-1.1-.3,1.69,1.69,0,0,0-1,.3,2.7,2.7,0,0,0-.7.8,2.13,2.13,0,0,0-.3,1.2,2.38,2.38,0,0,0,.3,1.2,2.7,2.7,0,0,0,.7.8A1.93,1.93,0,0,0,228.2,229.65Z"/><path class="cls-4" d="M240.6,227.35a3.17,3.17,0,0,1-1.6,3,3.81,3.81,0,0,1-3.4,0,3.5,3.5,0,0,1-1.7-3,2.73,2.73,0,0,1,.5-1.8,3.45,3.45,0,0,1,1.2-1.2,3.37,3.37,0,0,1,1.7-.5,2.62,2.62,0,0,1,1.7.5,3.17,3.17,0,0,1,1.6,3Zm-1.2,0a2.13,2.13,0,0,0-.3-1.2,2,2,0,0,0-.8-.8,2,2,0,0,0-1.1-.3,2.28,2.28,0,0,0-1.1.3,3,3,0,0,0-.8.8,2.13,2.13,0,0,0-.3,1.2,2.66,2.66,0,0,0,.3,1.2,2,2,0,0,0,.8.8,2,2,0,0,0,1.1.3,2.28,2.28,0,0,0,1.1-.3,3,3,0,0,0,.8-.8A2.66,2.66,0,0,0,239.4,227.35Z"/></g><g class="cls-2"><path class="cls-4" d="M71.3,246a3.17,3.17,0,0,1-3.4-3.4,3,3,0,0,1,.5-1.9,4.56,4.56,0,0,1,1.2-1.2,2.82,2.82,0,0,1,1.5-.4,5,5,0,0,1,1.2.2,2.29,2.29,0,0,1,1,.7,3.59,3.59,0,0,1,.7,1,2.77,2.77,0,0,1,.3,1.3.52.52,0,0,1-.2.4.76.76,0,0,1-.4.2H68.8l-.3-1.1H73l-.2.2v-.3a1.14,1.14,0,0,0-.3-.8,1.79,1.79,0,0,0-.7-.5,2.35,2.35,0,0,0-.8-.2,1.48,1.48,0,0,0-.7.1,2.09,2.09,0,0,0-.6.4,1.61,1.61,0,0,0-.4.7,3.59,3.59,0,0,0-.2,1.1,2.13,2.13,0,0,0,.3,1.2,3,3,0,0,0,.8.8,2,2,0,0,0,1.1.3,2,2,0,0,0,.8-.1c.2-.1.4-.1.5-.2s.3-.2.4-.3.2-.1.4-.1a.71.71,0,0,1,.6.6.55.55,0,0,1-.3.5,3.49,3.49,0,0,1-.9.6A4.72,4.72,0,0,1,71.3,246Z"/><path class="cls-4" d="M80,239.05a2,2,0,0,1,1.4.4,1.83,1.83,0,0,1,.7,1,5.9,5.9,0,0,1,.2,1.4v3.4c0,.2-.1.3-.2.5a.76.76,0,0,1-.5.2c-.2,0-.3-.1-.5-.2a.76.76,0,0,1-.2-.5v-3.4a2,2,0,0,0-.1-.8,2.09,2.09,0,0,0-.4-.6,2,2,0,0,0-.9-.2,2.39,2.39,0,0,0-.9.2.9.9,0,0,0-.6.6,1.88,1.88,0,0,0-.2.8v3.4c0,.2-.1.3-.2.5a.76.76,0,0,1-.5.2c-.2,0-.3-.1-.5-.2a.76.76,0,0,1-.2-.5v-5.4c0-.2.1-.3.2-.5a.76.76,0,0,1,.5-.2c.2,0,.3.1.5.2a.76.76,0,0,1,.2.5v.7l-.2.1.3-.6a1.21,1.21,0,0,1,.5-.5,4.35,4.35,0,0,1,.7-.4A2.77,2.77,0,0,1,80,239.05Z"/><path class="cls-4" d="M92.8,238.65l-2.9,6.8c-.1.1-.1.2-.2.3a.37.37,0,0,1-.3.1.52.52,0,0,1-.4-.2c-.1-.1-.1-.2-.1-.4v-.2l3.2-7.8c.1-.1.1-.3.2-.3s.2-.1.4-.1a.6.6,0,0,1,.4.1c.1.1.2.2.2.3l3.2,7.7c0,.1.1.2.1.3s-.1.3-.2.5a.4.4,0,0,1-.4.2.37.37,0,0,1-.3-.1c-.1-.1-.2-.2-.2-.3l-2.9-6.8Zm-2.3,5,.6-1.2h3.6l.2,1.2Z"/><path class="cls-4" d="M99.3,245.85c-.2,0-.3-.1-.5-.2a.76.76,0,0,1-.2-.5v-5.4c0-.2.1-.3.2-.5a.76.76,0,0,1,.5-.2c.2,0,.3.1.5.2a.76.76,0,0,1,.2.5v1.4l-.1-.5c.1-.2.2-.5.3-.7a1.21,1.21,0,0,1,.5-.5,1.61,1.61,0,0,1,.7-.4,2,2,0,0,1,.8-.1,1.42,1.42,0,0,1,.6.2.4.4,0,0,1,.2.4.69.69,0,0,1-.6.7.76.76,0,0,1-.4-.1.6.6,0,0,0-.4-.1.75.75,0,0,0-.5.1,1,1,0,0,0-.5.4c-.1.2-.3.4-.4.6a2,2,0,0,0-.1.8v3c0,.2-.1.3-.2.5C99.6,245.75,99.5,245.85,99.3,245.85Z"/><path class="cls-4" d="M110.4,239.15c.2,0,.3.1.5.2a.76.76,0,0,1,.2.5v7.9c0,.2-.1.3-.2.5a.76.76,0,0,1-.5.2c-.2,0-.3-.1-.5-.2a.76.76,0,0,1-.2-.5v-3.5h.3c0,.2-.1.3-.2.5a1.21,1.21,0,0,1-.5.5,2.51,2.51,0,0,1-.7.4,2.92,2.92,0,0,1-.9.2,3,3,0,0,1-1.6-.5,3.18,3.18,0,0,1-1.1-1.2,4.25,4.25,0,0,1,0-3.6,3.18,3.18,0,0,1,1.1-1.2,2.54,2.54,0,0,1,2.5-.3,2.18,2.18,0,0,1,.8.5,2.65,2.65,0,0,1,.5.6,1.42,1.42,0,0,1,.2.6h-.4v-1.1c0-.2.1-.3.2-.5S110.2,239.15,110.4,239.15Zm-2.6,5.7a2,2,0,0,0,1.1-.3,2.7,2.7,0,0,0,.7-.8,2.13,2.13,0,0,0,.3-1.2,2.38,2.38,0,0,0-.3-1.2,2.7,2.7,0,0,0-.7-.8,2,2,0,0,0-1.1-.3,1.69,1.69,0,0,0-1,.3,2.7,2.7,0,0,0-.7.8,2.13,2.13,0,0,0-.3,1.2,2.38,2.38,0,0,0,.3,1.2,2.7,2.7,0,0,0,.7.8A1.69,1.69,0,0,0,107.8,244.85Z"/><path class="cls-4" d="M118.8,239.15c.2,0,.3.1.5.2a.76.76,0,0,1,.2.5v3.3a2.81,2.81,0,1,1-5.6,0v-3.3c0-.2.1-.3.2-.5a.76.76,0,0,1,.5-.2c.2,0,.3.1.5.2a.76.76,0,0,1,.2.5v3.3a1.46,1.46,0,0,0,.4,1.2,1.82,1.82,0,0,0,1.1.4,1.25,1.25,0,0,0,1.1-.4,1.59,1.59,0,0,0,.4-1.2v-3.3c0-.2.1-.3.2-.5C118.4,239.25,118.6,239.15,118.8,239.15Z"/><path class="cls-4" d="M122.7,238.25a.75.75,0,0,1-.5-.1.59.59,0,0,1-.2-.5v-.1c0-.2.1-.4.2-.4a.75.75,0,0,1,.5-.1c.3,0,.4,0,.5.1a.52.52,0,0,1,.2.4v.2a.76.76,0,0,1-.2.5Zm.7,7c0,.2-.1.3-.2.5a.76.76,0,0,1-.5.2c-.2,0-.3-.1-.5-.2a.76.76,0,0,1-.2-.5v-5.4c0-.2.1-.3.2-.5a.76.76,0,0,1,.5-.2c.2,0,.3.1.5.2a.76.76,0,0,1,.2.5Z"/><path class="cls-4" d="M126,239.25h3a.52.52,0,0,1,.4.2.6.6,0,0,1-.4,1h-3a.52.52,0,0,1-.4-.2.5.5,0,0,1,0-.8A.52.52,0,0,1,126,239.25Zm1.3-1.6c.2,0,.3.1.5.2a.76.76,0,0,1,.2.5v5.9c0,.2,0,.3.1.4s.1.2.2.2.2.1.3.1.2,0,.2-.1.2-.1.3-.1a.37.37,0,0,1,.3.1c.1.1.1.2.1.4a.55.55,0,0,1-.3.5,1.85,1.85,0,0,1-.7.2H128a1.42,1.42,0,0,1-.6-.2c-.2-.1-.3-.3-.5-.5a2,2,0,0,1-.2-.9v-5.9c0-.2.1-.3.2-.5S127.1,237.65,127.3,237.65Z"/><path class="cls-4" d="M135.1,246a3.17,3.17,0,0,1-3.4-3.4,3,3,0,0,1,.5-1.9,3.45,3.45,0,0,1,1.2-1.2,2.82,2.82,0,0,1,1.5-.4,5,5,0,0,1,1.2.2,2.29,2.29,0,0,1,1,.7,3.59,3.59,0,0,1,.7,1,2.77,2.77,0,0,1,.3,1.3.52.52,0,0,1-.2.4.76.76,0,0,1-.4.2h-4.9l-.3-1.1h4.8l-.2.2v-.3a1.14,1.14,0,0,0-.3-.8,1.79,1.79,0,0,0-.7-.5,2.35,2.35,0,0,0-.8-.2,1.48,1.48,0,0,0-.7.1,2.09,2.09,0,0,0-.6.4,1.61,1.61,0,0,0-.4.7,3.59,3.59,0,0,0-.2,1.1,2.13,2.13,0,0,0,.3,1.2,3,3,0,0,0,.8.8,2,2,0,0,0,1.1.3,2,2,0,0,0,.8-.1c.2-.1.4-.1.5-.2s.3-.2.4-.3a.6.6,0,0,1,.4-.1.71.71,0,0,1,.6.6.55.55,0,0,1-.3.5,3.49,3.49,0,0,1-.9.6A5.54,5.54,0,0,1,135.1,246Z"/><path class="cls-4" d="M143.3,239.05a4.12,4.12,0,0,1,1.2.1,1.51,1.51,0,0,1,.8.4.86.86,0,0,1,.3.6.6.6,0,0,1-.1.4.52.52,0,0,1-.4.2.37.37,0,0,1-.3-.1c-.1-.1-.2-.1-.2-.2s-.1-.1-.2-.2-.2-.1-.4-.1h-.5a2.66,2.66,0,0,0-1.2.3,3,3,0,0,0-.8.8,2.13,2.13,0,0,0-.3,1.2,2.38,2.38,0,0,0,.3,1.2,2.7,2.7,0,0,0,.7.8,2,2,0,0,0,1.1.3c.2,0,.5,0,.6-.1a.6.6,0,0,1,.4-.1c.1-.1.2-.2.3-.2s.2-.1.4-.1a.52.52,0,0,1,.4.2.6.6,0,0,1,.1.4.55.55,0,0,1-.3.5,1.88,1.88,0,0,1-.9.4,5,5,0,0,1-1.2.2,3.1,3.1,0,0,1-1.7-.5,2.54,2.54,0,0,1-1.1-1.2,4.78,4.78,0,0,1-.4-1.8,3.17,3.17,0,0,1,1.6-3A3.66,3.66,0,0,1,143.3,239.05Z"/><path class="cls-4" d="M147.8,239.25h3a.52.52,0,0,1,.4.2.6.6,0,0,1-.4,1h-3a.52.52,0,0,1-.4-.2.5.5,0,0,1,0-.8A.52.52,0,0,1,147.8,239.25Zm1.3-1.6c.2,0,.3.1.5.2a.76.76,0,0,1,.2.5v5.9c0,.2,0,.3.1.4s.1.2.2.2.2.1.3.1.2,0,.2-.1.2-.1.3-.1a.37.37,0,0,1,.3.1c.1.1.1.2.1.4a.55.55,0,0,1-.3.5,1.85,1.85,0,0,1-.7.2h-.5a1.42,1.42,0,0,1-.6-.2c-.2-.1-.3-.3-.5-.5a2,2,0,0,1-.2-.9v-5.9c0-.2.1-.3.2-.5A.37.37,0,0,1,149.1,237.65Z"/><path class="cls-4" d="M158.8,239.15c.2,0,.3.1.5.2a.76.76,0,0,1,.2.5v3.3a2.81,2.81,0,1,1-5.6,0v-3.3c0-.2.1-.3.2-.5a.76.76,0,0,1,.5-.2c.2,0,.3.1.5.2a.76.76,0,0,1,.2.5v3.3a1.46,1.46,0,0,0,.4,1.2,1.82,1.82,0,0,0,1.1.4,1.25,1.25,0,0,0,1.1-.4,1.59,1.59,0,0,0,.4-1.2v-3.3c0-.2.1-.3.2-.5C158.4,239.25,158.6,239.15,158.8,239.15Z"/><path class="cls-4" d="M162.8,245.85c-.2,0-.3-.1-.5-.2a.76.76,0,0,1-.2-.5v-5.4c0-.2.1-.3.2-.5a.76.76,0,0,1,.5-.2c.2,0,.3.1.5.2a.76.76,0,0,1,.2.5v1.4l-.1-.5c.1-.2.2-.5.3-.7a1.21,1.21,0,0,1,.5-.5,1.61,1.61,0,0,1,.7-.4,2,2,0,0,1,.8-.1,1.42,1.42,0,0,1,.6.2.4.4,0,0,1,.2.4.69.69,0,0,1-.6.7.76.76,0,0,1-.4-.1.6.6,0,0,0-.4-.1.75.75,0,0,0-.5.1,1,1,0,0,0-.5.4c-.1.2-.3.4-.4.6a2,2,0,0,0-.1.8v3c0,.2-.1.3-.2.5C163.1,245.75,163,245.85,162.8,245.85Z"/><path class="cls-4" d="M173.9,239.05c.2,0,.3.1.5.2a.76.76,0,0,1,.2.5v5.5c0,.2-.1.3-.2.5a.76.76,0,0,1-.5.2c-.2,0-.3-.1-.5-.2a.76.76,0,0,1-.2-.5v-.9l.3.1a1.69,1.69,0,0,1-.2.5,1.21,1.21,0,0,1-.5.5,2.51,2.51,0,0,1-.7.4,2.92,2.92,0,0,1-.9.2,3,3,0,0,1-1.6-.5,3.18,3.18,0,0,1-1.1-1.2,4.25,4.25,0,0,1,0-3.6,3.18,3.18,0,0,1,1.1-1.2,2.82,2.82,0,0,1,1.5-.4,3,3,0,0,1,1,.2,2.18,2.18,0,0,1,.8.5,2.65,2.65,0,0,1,.5.6,1.42,1.42,0,0,1,.2.6h-.4v-1.2c0-.2.1-.3.2-.5S173.7,239.05,173.9,239.05Zm-2.6,5.8a2.28,2.28,0,0,0,1.1-.3c.4-.2.5-.5.7-.8a2.38,2.38,0,0,0,.3-1.2,2.66,2.66,0,0,0-.3-1.2,1.85,1.85,0,0,0-.7-.8,2,2,0,0,0-1.1-.3,1.69,1.69,0,0,0-1,.3,2.7,2.7,0,0,0-.7.8,2.13,2.13,0,0,0-.3,1.2,2.66,2.66,0,0,0,.3,1.2,1.85,1.85,0,0,0,.7.8A1.69,1.69,0,0,0,171.3,244.85Z"/><path class="cls-4" d="M177.8,245.85a.68.68,0,0,1-.7-.7V245a.68.68,0,0,1,.7-.7h.1a.68.68,0,0,1,.7.7v.2a.68.68,0,0,1-.7.7Z"/><path class="cls-4" d="M192.1,237a.52.52,0,0,1,.4.2.76.76,0,0,1,.2.5v4.8a3.42,3.42,0,0,1-.4,1.8,3.74,3.74,0,0,1-1.2,1.3,3.49,3.49,0,0,1-3.6,0,3,3,0,0,1-1.2-1.3,3.45,3.45,0,0,1-.5-1.8v-4.8c0-.2.1-.3.2-.5s.3-.2.5-.2a.52.52,0,0,1,.4.2.76.76,0,0,1,.2.5v4.8a2.66,2.66,0,0,0,.3,1.2,3,3,0,0,0,.8.8,2.17,2.17,0,0,0,2.2,0,3,3,0,0,0,.8-.8,2.13,2.13,0,0,0,.3-1.2v-4.8c0-.2.1-.3.2-.5A.52.52,0,0,1,192.1,237Z"/><path class="cls-4" d="M202.4,237a.52.52,0,0,1,.4.2.76.76,0,0,1,.2.4v7.6c0,.2-.1.3-.2.5a.76.76,0,0,1-.5.2.37.37,0,0,1-.3-.1.35.35,0,0,1-.2-.1l-5.2-6.7.3-.2v6.5a.57.57,0,0,1-1,.4.76.76,0,0,1-.2-.4v-7.6c0-.2.1-.3.2-.5a.76.76,0,0,1,.5-.2.37.37,0,0,1,.3.1.22.22,0,0,1,.2.2l5.1,6.6-.2.2v-6.5a.52.52,0,0,1,.2-.4A.76.76,0,0,1,202.4,237Z"/><path class="cls-4" d="M212.4,237.45c.2.1.3.2.3.4s0,.4-.2.5a.52.52,0,0,1-.4.2c-.2,0-.3,0-.4-.1a6.89,6.89,0,0,0-.8-.3,2.77,2.77,0,0,0-.9-.1,5.07,5.07,0,0,0-1.3.2,3.59,3.59,0,0,0-1,.7,2.07,2.07,0,0,0-.6,1,5.07,5.07,0,0,0-.2,1.3,5.9,5.9,0,0,0,.2,1.4,2.55,2.55,0,0,0,.7,1,3.33,3.33,0,0,0,1,.6,5.07,5.07,0,0,0,1.3.2,2,2,0,0,0,.8-.1c.3-.1.5-.2.8-.3a.62.62,0,0,1,.8.1,1.69,1.69,0,0,1,.2.5c0,.2-.1.3-.3.4a4.88,4.88,0,0,1-.7.3,2.35,2.35,0,0,1-.8.2c-.3,0-.5.1-.8.1a4.67,4.67,0,0,1-1.7-.3,4.19,4.19,0,0,1-1.4-.9,4.51,4.51,0,0,1-1-1.4,5.33,5.33,0,0,1-.4-1.9,4.84,4.84,0,0,1,.3-1.8,3.32,3.32,0,0,1,1-1.4,4.19,4.19,0,0,1,1.4-.9,5.23,5.23,0,0,1,1.8-.3,5,5,0,0,1,1.2.2C211.7,237.05,212,237.35,212.4,237.45Z"/><path class="cls-4" d="M215.5,245.85a.68.68,0,0,1-.7-.7V245a.68.68,0,0,1,.7-.7h.1a.68.68,0,0,1,.7.7v.2a.68.68,0,0,1-.7.7Z"/></g><path class="cls-5" d="M240.5,206.38H39.6V174c0-14,11-25.31,24.6-25.31H215.9c13.6,0,24.6,11.32,24.6,25.31Z"/><g class="cls-2"><path d="M61.7,193.43a.76.76,0,0,1-.2.4c-.1.1-.2.1-.4.1s-.3,0-.4-.1-.1-.2-.1-.4v-10.5a.6.6,0,0,1,.1-.4c.1-.1.2-.1.4-.1a.6.6,0,0,1,.4.1.52.52,0,0,1,.2.4Z"/><path d="M73.2,182.33c.1,0,.3,0,.3.1a.37.37,0,0,1,.1.3v10.6a.52.52,0,0,1-.2.4c-.1.1-.2.1-.4.1h-.2a.35.35,0,0,0-.2-.1l-7.4-9.9.3-.2v9.8a.35.35,0,0,1-.4.4c-.1,0-.3,0-.3-.1a.37.37,0,0,1-.1-.3v-10.6c0-.2,0-.3.1-.4a.37.37,0,0,1,.3-.1h.2c.1,0,.1.1.2.1l7.3,9.8-.2.3v-9.8a.37.37,0,0,1,.1-.3A2,2,0,0,0,73.2,182.33Z"/><path d="M77.9,193.43a.76.76,0,0,1-.2.4c-.1.1-.2.1-.4.1s-.3,0-.4-.1-.1-.2-.1-.4v-10.5a.6.6,0,0,1,.1-.4c.1-.1.2-.1.4-.1a.6.6,0,0,1,.4.1.52.52,0,0,1,.2.4Z"/><path d="M89.4,183.23c.1.1.2.2.2.3a.6.6,0,0,1-.1.4c-.1.1-.2.2-.3.2a.76.76,0,0,1-.4-.1,3.79,3.79,0,0,0-1.3-.6,3.89,3.89,0,0,0-1.5-.2,4.06,4.06,0,0,0-1.9.4,4,4,0,0,0-1.5,1,4.35,4.35,0,0,0-1,1.6,6.47,6.47,0,0,0-.4,2,4.21,4.21,0,0,0,.4,2,8.64,8.64,0,0,0,1,1.6,3.07,3.07,0,0,0,1.5,1,5.82,5.82,0,0,0,1.9.3,7.72,7.72,0,0,0,1.5-.2,5.17,5.17,0,0,0,1.3-.6.37.37,0,0,1,.3-.1c.1,0,.2.1.3.2a.6.6,0,0,1,.1.4c0,.1-.1.2-.2.3a9.29,9.29,0,0,1-1,.5,5.64,5.64,0,0,1-1.2.4,5.28,5.28,0,0,1-1.3.1,5.38,5.38,0,0,1-2.2-.4,7.61,7.61,0,0,1-1.9-1.2,4.31,4.31,0,0,1-1.3-1.9,6,6,0,0,1-.5-2.4,6.44,6.44,0,0,1,.5-2.4,7.61,7.61,0,0,1,1.2-1.9,4.14,4.14,0,0,1,1.9-1.2,5.87,5.87,0,0,1,2.3-.4,5.66,5.66,0,0,1,1.8.3A3.22,3.22,0,0,1,89.4,183.23Z"/><path d="M92.8,193.43a.76.76,0,0,1-.2.4c-.1.1-.2.1-.4.1s-.3,0-.4-.1-.1-.2-.1-.4v-10.5a.6.6,0,0,1,.1-.4c.1-.1.2-.1.4-.1a.6.6,0,0,1,.4.1.52.52,0,0,1,.2.4Z"/><path d="M106.2,188.13a6.05,6.05,0,0,1-.4,2.4,11.78,11.78,0,0,1-1.1,1.9,5.67,5.67,0,0,1-1.8,1.2,5.38,5.38,0,0,1-2.2.4,5.09,5.09,0,0,1-2.2-.4,7.07,7.07,0,0,1-1.8-1.2,6.15,6.15,0,0,1-1.2-1.9,7.4,7.4,0,0,1,0-4.8,7.61,7.61,0,0,1,1.2-1.9,5.67,5.67,0,0,1,1.8-1.2,6.25,6.25,0,0,1,4.4,0,5.67,5.67,0,0,1,1.8,1.2,4.53,4.53,0,0,1,1.1,1.9A9.27,9.27,0,0,1,106.2,188.13Zm-1.1,0a5.54,5.54,0,0,0-.6-2.6,4.41,4.41,0,0,0-7.8,0,5.26,5.26,0,0,0-.6,2.6,5.54,5.54,0,0,0,.6,2.6,4.36,4.36,0,0,0,1.6,1.7,4.65,4.65,0,0,0,2.3.6,4.14,4.14,0,0,0,2.3-.6,4.36,4.36,0,0,0,1.6-1.7A5.26,5.26,0,0,0,105.1,188.13Z"/><path d="M113.5,182.33c.1,0,.2,0,.2.1a.22.22,0,0,1,.2.2l4.6,6.8h-.4l4.6-6.8a.4.4,0,0,1,.4-.2.37.37,0,0,1,.3.1c.1.1.1.2.1.4v10.6c0,.1-.1.2-.2.3s-.2.1-.4.1a.6.6,0,0,1-.4-.1.37.37,0,0,1-.1-.3v-9.6h.3l-4.2,6.3c0,.1-.1.1-.2.2s-.1.1-.2.1-.2,0-.2-.1-.1-.1-.2-.2l-4.2-6.4.3-.2v9.8a.37.37,0,0,1-.1.3c-.1.1-.2.1-.4.1s-.3,0-.3-.1a.37.37,0,0,1-.1-.3v-10.6a.37.37,0,0,1,.1-.3A1.06,1.06,0,0,1,113.5,182.33Z"/><path d="M127.7,193.43a.76.76,0,0,1-.2.4c-.1.1-.2.1-.4.1s-.3,0-.4-.1-.1-.2-.1-.4v-10.5a.6.6,0,0,1,.1-.4c.1-.1.2-.1.4-.1a.6.6,0,0,1,.4.1.52.52,0,0,1,.2.4Z"/><path d="M134,194.13a5.09,5.09,0,0,1-2.2-.4,9.39,9.39,0,0,1-1.8-1.2c-.1-.1-.1-.1-.1-.2s-.1-.1-.1-.2a.76.76,0,0,1,.2-.4.52.52,0,0,1,.4-.2.76.76,0,0,1,.4.2,4.18,4.18,0,0,0,1.5,1.1,3.66,3.66,0,0,0,1.8.4,5.9,5.9,0,0,0,1.4-.2,3.59,3.59,0,0,0,1-.7,1.5,1.5,0,0,0,.4-1.1,2.14,2.14,0,0,0-.4-1.2,3.13,3.13,0,0,0-1.1-.8,8.8,8.8,0,0,0-1.5-.5,5,5,0,0,1-1.3-.5,10.91,10.91,0,0,1-1.1-.6,2,2,0,0,1-.7-.9,2.77,2.77,0,0,1-.3-1.3,3,3,0,0,1,.5-1.6,2.85,2.85,0,0,1,1.3-1.1,4.21,4.21,0,0,1,2-.4,5.82,5.82,0,0,1,1.9.3,2.43,2.43,0,0,1,1.4,1,.55.55,0,0,1,.2.5c0,.1-.1.2-.2.3a.52.52,0,0,1-.4.2.37.37,0,0,1-.3-.1,4.35,4.35,0,0,0-.7-.6,3.55,3.55,0,0,0-.9-.4,3.75,3.75,0,0,0-1.1-.1,5.9,5.9,0,0,0-1.4.2,3.59,3.59,0,0,0-1,.7,2.1,2.1,0,0,0-.4,1.1,1.37,1.37,0,0,0,.4,1.1,3.59,3.59,0,0,0,1,.7,5.78,5.78,0,0,0,1.4.5,7.84,7.84,0,0,1,1.4.5l1.2.6a2,2,0,0,1,.8,1,3.34,3.34,0,0,1,.3,1.5,2.46,2.46,0,0,1-.5,1.5,3.48,3.48,0,0,1-1.3,1.1C135.4,193.93,134.8,194.13,134,194.13Z"/><path d="M145.1,182.33h6a.6.6,0,0,1,.4.1c.1.1.1.2.1.4s0,.3-.1.3-.2.1-.4.1h-5.7l.2-.3v4.6l-.2-.2h4.9a.6.6,0,0,1,.4.1.37.37,0,0,1,.1.3c0,.1,0,.3-.1.3s-.2.1-.4.1h-4.9l.1-.2v4.8l-.1-.1H151a.6.6,0,0,1,.4.1.37.37,0,0,1,.1.3c0,.1,0,.3-.1.3s-.2.1-.4.1h-6a.6.6,0,0,1-.4-.1.37.37,0,0,1-.1-.3v-10.6a.37.37,0,0,1,.1-.3C144.9,182.43,145,182.33,145.1,182.33Z"/><path d="M157.2,194.13a5.09,5.09,0,0,1-2.2-.4,9.39,9.39,0,0,1-1.8-1.2c-.1-.1-.1-.1-.1-.2s-.1-.1-.1-.2a.76.76,0,0,1,.2-.4.52.52,0,0,1,.4-.2.76.76,0,0,1,.4.2,4.18,4.18,0,0,0,1.5,1.1,3.66,3.66,0,0,0,1.8.4,5.9,5.9,0,0,0,1.4-.2,3.59,3.59,0,0,0,1-.7,1.5,1.5,0,0,0,.4-1.1,2.14,2.14,0,0,0-.4-1.2,3.13,3.13,0,0,0-1.1-.8,8.8,8.8,0,0,0-1.5-.5,5,5,0,0,1-1.3-.5,10.91,10.91,0,0,1-1.1-.6,2,2,0,0,1-.7-.9,2.77,2.77,0,0,1-.3-1.3,3,3,0,0,1,.5-1.6,2.85,2.85,0,0,1,1.3-1.1,4.21,4.21,0,0,1,2-.4,5.82,5.82,0,0,1,1.9.3,2.43,2.43,0,0,1,1.4,1,.55.55,0,0,1,.2.5c0,.1-.1.2-.2.3a.52.52,0,0,1-.4.2.37.37,0,0,1-.3-.1,4.35,4.35,0,0,0-.7-.6,3.55,3.55,0,0,0-.9-.4,3.75,3.75,0,0,0-1.1-.1,5.9,5.9,0,0,0-1.4.2,3.59,3.59,0,0,0-1,.7,2.1,2.1,0,0,0-.4,1.1,1.37,1.37,0,0,0,.4,1.1,3.59,3.59,0,0,0,1,.7,5.78,5.78,0,0,0,1.4.5,7.84,7.84,0,0,1,1.4.5l1.2.6a2,2,0,0,1,.8,1,3.34,3.34,0,0,1,.3,1.5,2.46,2.46,0,0,1-.5,1.5,3.48,3.48,0,0,1-1.3,1.1C158.6,193.93,157.9,194.13,157.2,194.13Z"/><path d="M162.8,183.33a.35.35,0,0,1-.4-.4c0-.1,0-.3.1-.3a.37.37,0,0,1,.3-.1h7.8a.6.6,0,0,1,.4.1.37.37,0,0,1,.1.3c0,.1,0,.3-.1.3s-.2.1-.4.1Zm3.9,10.6c-.2,0-.3,0-.4-.1a.37.37,0,0,1-.1-.3V183h1v10.5a.37.37,0,0,1-.1.3C167,193.93,166.9,193.93,166.7,193.93Z"/><path d="M181.4,182.33a.6.6,0,0,1,.4.1.37.37,0,0,1,.1.3v6.8a4,4,0,0,1-.6,2.2,4.1,4.1,0,0,1-1.6,1.6,4.33,4.33,0,0,1-4.4,0,4.1,4.1,0,0,1-1.6-1.6,4.28,4.28,0,0,1-.6-2.2v-6.8a.37.37,0,0,1,.1-.3c.1-.1.2-.1.4-.1a.35.35,0,0,1,.4.4v6.8a3.37,3.37,0,0,0,.5,1.7,3.45,3.45,0,0,0,1.2,1.2,3.14,3.14,0,0,0,3.4,0,3.45,3.45,0,0,0,1.2-1.2,3.37,3.37,0,0,0,.5-1.7v-6.8a.37.37,0,0,1,.1-.3A2,2,0,0,0,181.4,182.33Z"/><path d="M189.8,182.33a4.65,4.65,0,0,1,2.1.5,3.74,3.74,0,0,1,1.5,1.3,5.57,5.57,0,0,1,.9,1.9,7.8,7.8,0,0,1,.3,2.2,8.81,8.81,0,0,1-.5,2.9,4.25,4.25,0,0,1-1.6,2.1,4.55,4.55,0,0,1-2.7.8h-4.2a.6.6,0,0,1-.4-.1.37.37,0,0,1-.1-.3V183a.37.37,0,0,1,.1-.3c.1-.1.2-.1.4-.1h4.2Zm-.2,10.6a4.14,4.14,0,0,0,2.3-.6,3.71,3.71,0,0,0,1.3-1.7,6.05,6.05,0,0,0,.4-2.4,11,11,0,0,0-.2-1.8,3.48,3.48,0,0,0-.7-1.5,4.26,4.26,0,0,0-1.2-1.1,3.42,3.42,0,0,0-1.8-.4H186l.1-.1v9.9l-.1-.2h3.6Z"/><path d="M198,193.43a.76.76,0,0,1-.2.4c-.1.1-.2.1-.4.1s-.3,0-.4-.1-.1-.2-.1-.4v-10.5a.6.6,0,0,1,.1-.4c.1-.1.2-.1.4-.1a.6.6,0,0,1,.4.1.52.52,0,0,1,.2.4Z"/><path d="M211.4,188.13a6.05,6.05,0,0,1-.4,2.4,11.78,11.78,0,0,1-1.1,1.9,5.67,5.67,0,0,1-1.8,1.2,5.38,5.38,0,0,1-2.2.4,5.09,5.09,0,0,1-2.2-.4,7.07,7.07,0,0,1-1.8-1.2,6.15,6.15,0,0,1-1.2-1.9,7.4,7.4,0,0,1,0-4.8,7.61,7.61,0,0,1,1.2-1.9,5.67,5.67,0,0,1,1.8-1.2,6.25,6.25,0,0,1,4.4,0,5.67,5.67,0,0,1,1.8,1.2,4.53,4.53,0,0,1,1.1,1.9A9.27,9.27,0,0,1,211.4,188.13Zm-1.1,0a5.54,5.54,0,0,0-.6-2.6,4.41,4.41,0,0,0-7.8,0,5.26,5.26,0,0,0-.6,2.6,5.54,5.54,0,0,0,.6,2.6,4.36,4.36,0,0,0,1.6,1.7,4.65,4.65,0,0,0,2.3.6,4.14,4.14,0,0,0,2.3-.6,4.36,4.36,0,0,0,1.6-1.7A5.26,5.26,0,0,0,210.3,188.13Z"/><path d="M216.9,194.13a5.09,5.09,0,0,1-2.2-.4,9.39,9.39,0,0,1-1.8-1.2c-.1-.1-.1-.1-.1-.2s-.1-.1-.1-.2a.76.76,0,0,1,.2-.4.52.52,0,0,1,.4-.2.76.76,0,0,1,.4.2,4.18,4.18,0,0,0,1.5,1.1,3.66,3.66,0,0,0,1.8.4,5.9,5.9,0,0,0,1.4-.2,3.59,3.59,0,0,0,1-.7,1.5,1.5,0,0,0,.4-1.1,2.14,2.14,0,0,0-.4-1.2,3.13,3.13,0,0,0-1.1-.8,8.8,8.8,0,0,0-1.5-.5,5,5,0,0,1-1.3-.5,10.91,10.91,0,0,1-1.1-.6,2,2,0,0,1-.7-.9,2.77,2.77,0,0,1-.3-1.3,3,3,0,0,1,.5-1.6,2.85,2.85,0,0,1,1.3-1.1,4.21,4.21,0,0,1,2-.4,5.82,5.82,0,0,1,1.9.3,2.43,2.43,0,0,1,1.4,1,.55.55,0,0,1,.2.5c0,.1-.1.2-.2.3a.52.52,0,0,1-.4.2.37.37,0,0,1-.3-.1,4.35,4.35,0,0,0-.7-.6,3.55,3.55,0,0,0-.9-.4,3.75,3.75,0,0,0-1.1-.1,5.9,5.9,0,0,0-1.4.2,3.59,3.59,0,0,0-1,.7,2.1,2.1,0,0,0-.4,1.1,1.37,1.37,0,0,0,.4,1.1,3.59,3.59,0,0,0,1,.7,5.78,5.78,0,0,0,1.4.5,7.84,7.84,0,0,1,1.4.5l1.2.6a2,2,0,0,1,.8,1,3.34,3.34,0,0,1,.3,1.5,2.46,2.46,0,0,1-.5,1.5,3.48,3.48,0,0,1-1.3,1.1C218.3,193.93,217.7,194.13,216.9,194.13Z"/></g><line class="cls-5" x1="10.62" y1="206.66" x2="1703.52" y2="206.66"/><path class="cls-6" d="M206.3,111.28c0,9.9-6,16.4-19.8,17.9H61.9l-2-94.5,146.4.5v76.1Z"/><path d="M186.6,129.58H61.9a.43.43,0,0,1-.4-.4l-2-94.5a.35.35,0,0,1,.4-.4l146.4.5a.43.43,0,0,1,.4.4v76.1c.1,10.7-6.7,16.9-20.1,18.3Zm-124.3-.9H186.5c12.8-1.4,19.3-7.2,19.3-17.4V35.68l-145.4-.6Z"/><path class="cls-6" d="M206.3,113.28s.9-14.5-24.3-12.2c4.4-24-1.9-76.7-1.9-76.7s23.2-3.8,26.3,8.4S206.3,113.28,206.3,113.28Z"/><path d="M206.3,113.68h0c-.3,0-.5-.2-.4-.5h0a10.39,10.39,0,0,0-3.2-7.3c-3.9-3.8-10.9-5.3-20.6-4.4a.6.6,0,0,1-.4-.1c-.1-.1-.1-.2-.1-.4,4.3-23.6-1.9-76-1.9-76.6,0-.2.1-.5.4-.5a52.54,52.54,0,0,1,12.1-.4c8.3.8,13.4,3.9,14.7,9.1,3.1,12.1.1,77.2-.1,80.6v.1A.51.51,0,0,1,206.3,113.68Zm-19.1-13.3c7.3,0,12.6,1.6,16,4.9a12.29,12.29,0,0,1,2.8,4.2c.6-14.5,2.6-66.2-.1-76.5-2.8-10.8-22.3-8.6-25.4-8.2.6,5,5.9,53,2,75.8C184.2,100.48,185.7,100.38,187.2,100.38Z"/><path d="M87.2,53.88H70.3a.1.1,0,0,1,0-.2H87.2a.1.1,0,0,1,0,.2Z"/><path d="M94.1,46.18H70.3a.1.1,0,0,1,0-.2H94.2a.1.1,0,0,1,.1.1A.35.35,0,0,1,94.1,46.18Z"/><path d="M158.6,117.48h0l-80-.5a.4.4,0,1,1,0-.8h0l80,.5a.4.4,0,0,1,0,.8Z"/><path d="M155.4,120.38a.76.76,0,0,1-.4-.2c-.1-.2-.1-.5.1-.6l3.6-2.2-3.5-2.8a.43.43,0,0,1,.5-.7l3.9,3.2a.52.52,0,0,1,.2.4c0,.1-.1.3-.2.3l-4.2,2.6Z"/><path d="M82.1,119.58c-.1,0-.2,0-.2-.1l-4.2-2.6c-.1-.1-.2-.2-.2-.3a.76.76,0,0,1,.2-.4l3.9-3.2a.43.43,0,1,1,.5.7l-3.5,2.8,3.6,2.2a.38.38,0,0,1,.1.6C82.4,119.48,82.2,119.58,82.1,119.58Z"/><g class="cls-7"><path d="M207,109.58h0a.1.1,0,0,0-.1-.1,4.05,4.05,0,0,0-.5-.9,10.82,10.82,0,0,0-2.1-2.2,4.23,4.23,0,0,0-1.3-1.1c-5.4-3.2-12.5-4.3-19.1-4.2h-.2a3.08,3.08,0,0,0-2.1.4c-.3.1-.5.2-.6.5a1.06,1.06,0,0,0,.1,1.3,2,2,0,0,0,1.7,1,44,44,0,0,1,5.1.5,56.91,56.91,0,0,1,9.3,2c.1.1.4.1.6.2h-.1a22.13,22.13,0,0,1,3.5,1.6,17.27,17.27,0,0,1,1.9,1.2,9,9,0,0,1,1.2,1l.1.1.2.2a.76.76,0,0,0,.5.2,1.43,1.43,0,0,0,1.7-.8C207.1,110,207.1,109.78,207,109.58Z"/></g><polygon class="cls-6" points="91.6 106.58 149.2 107.18 149.2 63.28 91.6 63.18 91.6 106.58"/><path d="M149.2,107.68h0l-57.6-.6a.43.43,0,0,1-.4-.4V63.18a.35.35,0,0,1,.4-.4h57.6a.43.43,0,0,1,.4.4v44a.37.37,0,0,1-.1.3C149.4,107.58,149.3,107.68,149.2,107.68ZM92,106.18l56.8.6V63.68H92Z"/><polygon class="cls-8" points="130.3 79.48 149.2 79.48 149.2 63.18 130.3 63.28 130.3 79.48"/><path d="M149.2,79.88h-19a.43.43,0,0,1-.4-.4V63.28a.43.43,0,0,1,.4-.4h19a.35.35,0,0,1,.4.4v16.2C149.7,79.68,149.5,79.88,149.2,79.88ZM130.7,79h18.1V63.68H130.7Z"/><rect class="cls-6" x="91.6" y="63.18" width="5.3" height="5.3"/><path d="M96.9,69H91.6a.43.43,0,0,1-.4-.4v-5.3a.43.43,0,0,1,.4-.4h5.3a.43.43,0,0,1,.4.4v5.3A.43.43,0,0,1,96.9,69Zm-4.9-.9h4.4v-4.4H92Z"/><rect class="cls-6" x="91.6" y="101.38" width="5.3" height="5.3"/><path d="M96.9,107.08H91.6a.43.43,0,0,1-.4-.4v-5.3a.43.43,0,0,1,.4-.4h5.3a.43.43,0,0,1,.4.4v5.3A.43.43,0,0,1,96.9,107.08Zm-4.9-.9h4.4v-4.4H92Z"/><rect class="cls-6" x="143.6" y="63.18" width="5.3" height="5.3"/><path d="M148.9,69h-5.3a.43.43,0,0,1-.4-.4v-5.3a.43.43,0,0,1,.4-.4h5.3a.43.43,0,0,1,.4.4v5.3C149.4,68.78,149.2,69,148.9,69Zm-4.8-.9h4.4v-4.4h-4.4Z"/><rect class="cls-6" x="143.9" y="101.78" width="5.3" height="5.3"/><path d="M149.2,107.58h-5.3a.43.43,0,0,1-.4-.4v-5.3a.43.43,0,0,1,.4-.4h5.3a.43.43,0,0,1,.4.4v5.3C149.7,107.38,149.5,107.58,149.2,107.58Zm-4.9-.9h4.4v-4.4h-4.4Z"/><path d="M109.8,79.18h0c-.1,0-.1-.1,0,0l.1-15.6a.1.1,0,1,1,.2,0l-.1,15.5C110,79.18,109.9,79.18,109.8,79.18Z"/><path d="M109.8,107h0a.1.1,0,0,1-.1-.1l.2-15.5v-.1l6.5-6.8c.1-.1.1-.1.2,0s.1.1,0,.2l-6.5,6.8-.2,15.4C110,106.88,109.9,107,109.8,107Z"/><path d="M130.2,107h0a.1.1,0,0,1-.1-.1l.2-15.5c0-.1.1-.2.1-.1a.1.1,0,0,1,.1.1l-.2,15.5Z"/><g class="cls-7"><path d="M148.2,79.68c-4.2-.1-8.4-.1-12.6-.1-1.6.1-3.3,0-5,.2a.63.63,0,0,0,.2,1.2c5.8-.3,11.7-.2,17.5-.1C149.3,80.78,149.2,79.48,148.2,79.68Z"/></g><g class="cls-7"><path d="M148.7,68.68a6.73,6.73,0,0,0-2-.1c-1,0-2,0-3,.1a.63.63,0,0,0,.2,1.2h4.5A.67.67,0,0,0,148.7,68.68Z"/></g><g class="cls-7"><path d="M97,69a1,1,0,0,0-.7-.2h-1c-.6,0-2-.1-2.1-.1-.3,0-.6-.2-.9,0a.59.59,0,0,0,.3,1.1c1.1.1,2.1.1,3.2.1a4.05,4.05,0,0,0,1.1,0C97.2,69.78,97.2,69.28,97,69Z"/></g><path d="M163.6,63.38h0q-7.5-.15-15,0h0a.1.1,0,1,1,0-.2h15a.1.1,0,0,1,.1.1Z"/><path d="M162.8,107.68h0c-4.6-.1-9.2-.1-13.7,0h0a.1.1,0,0,1,0-.2h13.7a.1.1,0,0,1,.1.1C163,107.58,162.9,107.68,162.8,107.68Z"/><path d="M159.8,74.88h0c-.3,0-.4-.2-.4-.5l.2-11.2c0-.2.1-.4.3-.4a.44.44,0,0,1,.5.1l2.7,3.4a.43.43,0,1,1-.7.5l-1.9-2.4-.2,10A.47.47,0,0,1,159.8,74.88Z"/><path d="M157.2,67.28a.37.37,0,0,1-.3-.1.37.37,0,0,1,0-.6c1-1.1,1.9-2.2,2.8-3.3.1-.2.4-.2.6-.1s.2.4.1.6c-.9,1.2-1.9,2.3-2.9,3.4A.37.37,0,0,1,157.2,67.28Z"/><path d="M159.9,107.28c-.1,0-.3-.1-.3-.2l-2.7-3.4a.43.43,0,1,1,.7-.5l1.9,2.4.2-10a.45.45,0,0,1,.9.1l-.2,11.2c0,.2-.1.4-.3.4Z"/><path d="M159.9,107a.37.37,0,0,1-.3-.1c-.2-.1-.2-.4-.1-.6.9-1.2,1.9-2.3,2.9-3.4a.42.42,0,0,1,.6.6c-1,1.1-1.9,2.2-2.8,3.3C160.2,106.88,160,107,159.9,107Z"/><g class="cls-7"><path d="M149.3,107.78h-2.6c-3.7.3-6.9-.2-10.8-.3-7.4-.2-14.7-.2-22.1-.1-5.4.1-10.8-.2-16.2-.5-1.1,0-2.3,0-3.4-.1h.2c-.5-.1-1.1-.1-1.6-.2s-.8-.2-1.2,0a1,1,0,0,0,.4,1.9q4.65.3,9.3.3c2.5.1,4.9.3,7.4.4,2.3.1,4.6-.1,6.9-.1,3.6-.1,7.2,0,10.7,0,3,.1,6.1-.1,9.1-.1,4.2.2,9.5.4,12.3,0,1,0,.8.1,1.4.1h.1c.1,0,.2.1.3.1a.79.79,0,0,0,.8-.8A1.52,1.52,0,0,0,149.3,107.78Z"/></g><path class="cls-6" d="M168.84,292.78c-10.11,3.57-21.3,3-31.9,1.9-12.14-1.19-24.87-2-37-3.21-14.28-1-28.92-1.9-41.42,5.12C39,307.42,33.26,339.08,47.43,356.82c6.78,8.33,16.07,13.33,25.95,16.43,16.9,5.23,34.64,6.07,52,6.19,18.92.35,38.8.35,55.59-8.81s29.64-30.83,22.85-49.88c-2.5-5.83-6.07-11.31-8.45-17.26-4-10.59-2.26-23.68,4.4-33.33C190.15,278.61,180.39,289.45,168.84,292.78Z"/><path d="M200.75,269.45c.47,0,.95,1.07.35,1.55a35,35,0,0,0-4.28,32.25c.71,2.62,2.5,5.36,3.81,8.1s3,5.95,4.16,9.16c7.14,20.12-6.78,42.74-23.57,51.9-17.85,9.53-39.28,8.81-56.06,8.69-17.26-.71-35.24-1-52.5-6.31-11.9-3.69-20.59-9.16-26.42-16.42-6.79-8.33-9.64-21.43-7.38-33.93s9.4-22.61,18.69-28.33c13-7.38,29.28-6.31,41.9-5l37,3.22c10.12.95,21.3,1.66,31.42-2,9.05-3.21,16.91-10.11,24.17-17,2.26-1.78,4.52-4.16,6.78-5.95.6-.48.6-.48,1.07-.36C200.27,268.85,200.27,268.85,200.75,269.45ZM126.59,378.13c17.26.71,37.73,1.19,54.51-8.33,15.72-8.69,28.57-29.88,22.26-48.45a71.29,71.29,0,0,0-4.28-8.57,44.3,44.3,0,0,1-4.29-8.57c-3.21-8.45-2.73-18.69.72-27.5a8.65,8.65,0,0,0-1.07,1c-7.86,6.91-15.72,13.81-25.24,17.38-10.59,4-22.26,2.86-32.38,1.91l-37-3.22C87.66,292.54,72,291,59.45,298.37c-9.16,4.77-15.23,14.88-17.5,26.43-2.26,12,.24,23.57,6.55,31.9,5.48,7.14,13.57,12.14,25,15.83,7.85,2.86,16.42,4.17,24.52,5C107.07,378.25,116.35,378.13,126.59,378.13Z"/><g class="cls-7"><path d="M41.12,321.47c.12-1.07.71-1.43.71-2.5,1.31-3,2.15-6,3.34-8.33a34.1,34.1,0,0,1,20.11-17.38,60.73,60.73,0,0,1,19.65-2.62,11.71,11.71,0,0,1,2,.24,7.31,7.31,0,0,0,1.55.11,11.71,11.71,0,0,1,2,.24c.48,0,1.07.12,1.55.12a11.71,11.71,0,0,1,2,.24c4,.36,8.57.83,13.21,1.31,8.1.83,15.72,1.55,23.33,1.78,1.55.12,3.1.36,4.53.48a52.76,52.76,0,0,0,9.64.48,2.08,2.08,0,0,0,1.43.71,20.59,20.59,0,0,1,6.07.12c1.55-.36,3.57-.12,5.71-.48a67.77,67.77,0,0,0,11.55-3c3.69-1.19,7-3.45,10.24-5.6,2.73-2.26,6.07-5,8.92-7.26a51.51,51.51,0,0,0,5.72-5.59c1.07-.36,2.5.71,2.85,1.78a2.1,2.1,0,0,0-.71,1.43c-.12,1.07-.71,1.43-.71,2.5a41,41,0,0,0-4.65,5.71v-.47a28.66,28.66,0,0,0-1.78,2.38c-.6,1-.6.48-.6.48-1.19,1.9-3.33,2.73-5,4a43.1,43.1,0,0,1-8.69,4.76c-5.83,2.5-9.52,3.1-14.76,4.17a46.09,46.09,0,0,1-14.4.6c-4.52-.48-9.05-1.43-13.57-1.91-7.14-.71-13.69-.83-20.83-1.07a145.58,145.58,0,0,0-14.76-.48c-3.1.24-8.69.12-9.17.12-2.5-.24-4.64,0-7.14-.24-12.26-.23-20.95,5.12-22,6a30.38,30.38,0,0,0-7.74,5.83h0c-1.66,1.31-2.85,3.33-4.52,4.64A28.22,28.22,0,0,0,42.07,321c-.59.48-.71,1.43-1.19,1.43h0C40.64,321.94,40.76,319.92,41.12,321.47Z"/></g><path d="M56,328.85a.41.41,0,0,1-.12.35.44.44,0,0,1-.36.12.42.42,0,0,1-.35-.12.41.41,0,0,1-.12-.35v-9.17a.44.44,0,0,1,.12-.36.45.45,0,0,1,.35-.11.47.47,0,0,1,.36.11.44.44,0,0,1,.12.36Z"/><path d="M63.26,328.85a.41.41,0,0,1-.12.35.44.44,0,0,1-.36.12.43.43,0,0,1-.35-.12.41.41,0,0,1-.12-.35v-9.64a.44.44,0,0,1,.12-.36.43.43,0,0,1,.35-.12.42.42,0,0,1,.48.48Z"/><path d="M69,329.44a3.3,3.3,0,0,1-1.9-.47,3.5,3.5,0,0,1-1.31-1.31,3.64,3.64,0,0,1-.48-2,3.39,3.39,0,0,1,.48-2A4.21,4.21,0,0,1,67,322.3a2.73,2.73,0,0,1,1.67-.48,3.54,3.54,0,0,1,1.19.24,2.81,2.81,0,0,1,1.07.72,1.69,1.69,0,0,1,.71,1.07,6.12,6.12,0,0,1,.36,1.43c0,.12,0,.23-.12.23a.44.44,0,0,1-.36.12H65.76l-.12-.71h5.6L71,325v-.24a2.1,2.1,0,0,0-.48-1.19,1.77,1.77,0,0,0-1-.71,3.44,3.44,0,0,0-1.07-.24,2,2,0,0,0-.83.12,1.92,1.92,0,0,0-.84.47,2.63,2.63,0,0,0-.59.95,4.3,4.3,0,0,0-.24,1.31,3.25,3.25,0,0,0,.36,1.55,2.64,2.64,0,0,0,1,1.07,3.25,3.25,0,0,0,1.55.36,2.62,2.62,0,0,0,1-.12l.71-.36c.24-.11.36-.35.48-.47a.44.44,0,0,1,.36-.12c.11,0,.23,0,.23.12s.12.12.12.24a.42.42,0,0,1-.12.35c-.23.36-.71.6-1.07,1A2.34,2.34,0,0,1,69,329.44Z"/><path d="M79.69,322.06a.41.41,0,0,1,.35.12.44.44,0,0,1,.12.36V329a.42.42,0,0,1-.12.35.41.41,0,0,1-.35.12.44.44,0,0,1-.36-.12.42.42,0,0,1-.12-.35V327.3l.24-.12a2.91,2.91,0,0,1-.24.83,1.82,1.82,0,0,1-.59.72,6.72,6.72,0,0,1-1,.59,3.1,3.1,0,0,1-2.85-.23,2.8,2.8,0,0,1-1.19-1.43,5,5,0,0,1-.48-1.91,3.87,3.87,0,0,1,.48-2,3.14,3.14,0,0,1,1.19-1.31,2.7,2.7,0,0,1,1.66-.48,4.13,4.13,0,0,1,1.19.24,2.61,2.61,0,0,1,1,.6,2.12,2.12,0,0,1,.59.83,2.77,2.77,0,0,1,.24.95l-.36-.24v-1.78a.44.44,0,0,1,.12-.36A.91.91,0,0,1,79.69,322.06Zm-3,6.55a2.38,2.38,0,0,0,1.31-.36,2.7,2.7,0,0,0,1-1.07,3.28,3.28,0,0,0,.36-1.55,3.24,3.24,0,0,0-.36-1.54A2.06,2.06,0,0,0,78,323a2.47,2.47,0,0,0-1.31-.35,2.49,2.49,0,0,0-1.31.35,2.9,2.9,0,0,0-1,1.08,3.24,3.24,0,0,0-.36,1.54,3.28,3.28,0,0,0,.36,1.55,2.12,2.12,0,0,0,1,1.07A2.73,2.73,0,0,0,76.71,328.61Z"/><path d="M82.78,329.32a.42.42,0,0,1-.47-.47v-6.43a.44.44,0,0,1,.12-.36.41.41,0,0,1,.35-.12.42.42,0,0,1,.48.48v2.14H83a2.21,2.21,0,0,1,.24-.95,4.24,4.24,0,0,1,.59-.95,5.22,5.22,0,0,1,.84-.72,3.37,3.37,0,0,1,1.07-.23.73.73,0,0,1,.47.11c.12.12.24.24.24.36a.44.44,0,0,1-.12.36c-.12.12-.12.12-.23.12s-.24,0-.24-.12-.24-.12-.36-.12a2.91,2.91,0,0,0-.83.24,3.12,3.12,0,0,0-.72.59,2.42,2.42,0,0,0-.47.95,3.71,3.71,0,0,0-.24,1v3.57a.44.44,0,0,1-.12.36A.34.34,0,0,1,82.78,329.32Z"/><path d="M91.35,321.82a3,3,0,0,1,1.55.36,2.55,2.55,0,0,1,.83,1.07,5.94,5.94,0,0,1,.24,1.43v4.17a.41.41,0,0,1-.12.35.43.43,0,0,1-.35.12.44.44,0,0,1-.36-.12.41.41,0,0,1-.12-.35v-4.17a3.44,3.44,0,0,0-.24-1.07,1.2,1.2,0,0,0-.59-.71c-.24-.24-.6-.24-1.07-.24a4.26,4.26,0,0,0-1.2.24,6.34,6.34,0,0,0-1,.71,1.89,1.89,0,0,0-.35,1.07v4.17a.41.41,0,0,1-.12.35.6.6,0,0,1-.72,0,.41.41,0,0,1-.12-.35v-6.43a.48.48,0,1,1,1,0v1.19l-.36.48a1.73,1.73,0,0,1,.24-.84,2,2,0,0,1,.71-.71,3.69,3.69,0,0,1,1-.48A5.31,5.31,0,0,1,91.35,321.82Z"/><path d="M99.45,329.44a3.31,3.31,0,0,1-1.91-.47,3.58,3.58,0,0,1-1.31-1.31,3.73,3.73,0,0,1-.47-2,3.46,3.46,0,0,1,.47-2,4.34,4.34,0,0,1,1.19-1.31,2.74,2.74,0,0,1,1.67-.48,3.49,3.49,0,0,1,1.19.24,2.81,2.81,0,0,1,1.07.72,1.7,1.7,0,0,1,.72,1.07,6.63,6.63,0,0,1,.35,1.43c0,.12,0,.23-.12.23a.41.41,0,0,1-.35.12H96.23l-.12-.71h5.6l-.24.12v-.24a2.1,2.1,0,0,0-.48-1.19,1.74,1.74,0,0,0-.95-.71,3.38,3.38,0,0,0-1.07-.24,2,2,0,0,0-.83.12,1.92,1.92,0,0,0-.84.47,2.78,2.78,0,0,0-.59.95,4.3,4.3,0,0,0-.24,1.31,3.25,3.25,0,0,0,.36,1.55,2.71,2.71,0,0,0,1,1.07,3.28,3.28,0,0,0,1.55.36,2.59,2.59,0,0,0,1-.12L101,328c.24-.11.36-.35.48-.47a.44.44,0,0,1,.36-.12c.12,0,.24,0,.24.12s.12.12.12.24a.42.42,0,0,1-.12.35,8.73,8.73,0,0,1-1.08,1A2.33,2.33,0,0,1,99.45,329.44Z"/><path d="M110.16,318.73a.42.42,0,0,1,.48.48V329a.42.42,0,0,1-.12.35.6.6,0,0,1-.72,0,.42.42,0,0,1-.12-.35V327.3l.24-.24a2.22,2.22,0,0,1-.24.84,3.46,3.46,0,0,1-.59.83,2.63,2.63,0,0,1-1,.59,3.51,3.51,0,0,1-1.07.24,2.78,2.78,0,0,1-1.67-.47,4.19,4.19,0,0,1-1.19-1.31,5,5,0,0,1-.48-1.91,3.21,3.21,0,0,1,.48-1.9,2.56,2.56,0,0,1,1.19-1.31,2.73,2.73,0,0,1,1.67-.48,2.86,2.86,0,0,1,1.07.24,2.78,2.78,0,0,1,1,.59,2,2,0,0,1,.59.84,2.77,2.77,0,0,1,.24.95l-.35-.24v-5.35a.47.47,0,0,1,.11-.36C109.92,318.85,110,318.73,110.16,318.73Zm-3,9.88a2.36,2.36,0,0,0,1.31-.36,2.8,2.8,0,0,0,1-1.07,3.4,3.4,0,0,0,.35-1.55,3.36,3.36,0,0,0-.35-1.54,2.12,2.12,0,0,0-1-1.08,2.61,2.61,0,0,0-2.61,0,2.83,2.83,0,0,0-1,1.08,3.24,3.24,0,0,0-.35,1.54,3.28,3.28,0,0,0,.35,1.55,2.1,2.1,0,0,0,1,1.07A2.66,2.66,0,0,0,107.18,328.61Z"/><path d="M122.78,322.06a.44.44,0,0,1,.36.12.47.47,0,0,1,.11.36V329a.45.45,0,0,1-.11.35.6.6,0,0,1-.72,0,.42.42,0,0,1-.12-.35V327.3l.24-.12a2.91,2.91,0,0,1-.24.83,1.82,1.82,0,0,1-.59.72,6.72,6.72,0,0,1-1,.59,3.1,3.1,0,0,1-2.85-.23,2.8,2.8,0,0,1-1.19-1.43,5,5,0,0,1-.48-1.91,3.87,3.87,0,0,1,.48-2,3.14,3.14,0,0,1,1.19-1.31,2.7,2.7,0,0,1,1.66-.48,4.13,4.13,0,0,1,1.19.24,2.61,2.61,0,0,1,1,.6,2.12,2.12,0,0,1,.59.83,2.77,2.77,0,0,1,.24.95l-.36-.24v-1.78a.44.44,0,0,1,.12-.36A.91.91,0,0,1,122.78,322.06Zm-3,6.55a2.38,2.38,0,0,0,1.31-.36,2.7,2.7,0,0,0,1-1.07,3.28,3.28,0,0,0,.36-1.55,3.24,3.24,0,0,0-.36-1.54,2.06,2.06,0,0,0-1-1.08,2.47,2.47,0,0,0-1.31-.35,2.49,2.49,0,0,0-1.31.35,2.9,2.9,0,0,0-.95,1.08,3.24,3.24,0,0,0-.36,1.54,3.28,3.28,0,0,0,.36,1.55,2.12,2.12,0,0,0,.95,1.07A2.41,2.41,0,0,0,119.8,328.61Z"/><path d="M130.28,328.85a.41.41,0,0,1-.12.35.6.6,0,0,1-.72,0,.44.44,0,0,1-.11-.35v-9.64a.47.47,0,0,1,.11-.36.48.48,0,0,1,.84.36Z"/><path d="M139.44,325.63a3.31,3.31,0,0,1-.47,1.91,2.86,2.86,0,0,1-1.31,1.31,5,5,0,0,1-1.91.47,2.89,2.89,0,0,1-1.78-.47,7.07,7.07,0,0,1-1.31-1.31,3.49,3.49,0,0,1-.48-1.91,3.21,3.21,0,0,1,.48-1.9,2.77,2.77,0,0,1,1.31-1.31,3.32,3.32,0,0,1,1.78-.48,3.49,3.49,0,0,1,1.91.48,4.66,4.66,0,0,1,1.31,1.31A5.11,5.11,0,0,1,139.44,325.63Zm-.95,0a3.24,3.24,0,0,0-.36-1.54,2.73,2.73,0,0,0-.95-1.08,2.61,2.61,0,0,0-1.43-.35,3.31,3.31,0,0,0-1.43.35,2.14,2.14,0,0,0-.95,1.08,3.24,3.24,0,0,0-.35,1.54,3.28,3.28,0,0,0,.35,1.55,2.47,2.47,0,0,0,2.38,1.43,3.12,3.12,0,0,0,1.43-.36,2.7,2.7,0,0,0,.95-1.07A3.28,3.28,0,0,0,138.49,325.63Z"/><path d="M140.75,322.06h3.34c.11,0,.23,0,.23.12s.12.12.12.24,0,.24-.12.24-.12.12-.23.12h-3.34c-.12,0-.24,0-.24-.12s-.11-.12-.11-.24,0-.24.11-.24S140.63,322.06,140.75,322.06Zm1.43-2a.44.44,0,0,1,.36.12.43.43,0,0,1,.12.35v7.15a.87.87,0,0,0,.12.59c.12.12.12.24.23.24s.24.12.36.12h.48c.12,0,.12,0,.24.12s.11.12.11.24-.11.23-.23.35a.9.9,0,0,1-.6.12H143c-.12,0-.35-.12-.47-.12a.92.92,0,0,1-.48-.47,2.25,2.25,0,0,1-.24-1v-7.27a.42.42,0,0,1,.12-.35C141.94,320,142.06,320,142.18,320Z"/><path d="M156,322.06a.44.44,0,0,1,.36.12.47.47,0,0,1,.11.36V329a.45.45,0,0,1-.11.35.6.6,0,0,1-.72,0,.42.42,0,0,1-.12-.35V327.3l.24-.12a2.91,2.91,0,0,1-.24.83,1.74,1.74,0,0,1-.59.72,7.17,7.17,0,0,1-.95.59,3.5,3.5,0,0,1-1.08.24,3.4,3.4,0,0,1-1.78-.47,2.8,2.8,0,0,1-1.19-1.43,5,5,0,0,1-.48-1.91,3.87,3.87,0,0,1,.48-2,3.14,3.14,0,0,1,1.19-1.31,2.7,2.7,0,0,1,1.66-.48,4.26,4.26,0,0,1,1.2.24,2.66,2.66,0,0,1,.95.6,2,2,0,0,1,.59.83,2.77,2.77,0,0,1,.24.95l-.36-.24v-1.78a.44.44,0,0,1,.12-.36A.91.91,0,0,1,156,322.06Zm-3,6.55a2.36,2.36,0,0,0,1.31-.36,2.7,2.7,0,0,0,1-1.07,3.28,3.28,0,0,0,.36-1.55,3.24,3.24,0,0,0-.36-1.54,2.06,2.06,0,0,0-1-1.08,2.44,2.44,0,0,0-1.31-.35,2.49,2.49,0,0,0-1.31.35,2.9,2.9,0,0,0-.95,1.08,3.24,3.24,0,0,0-.36,1.54,3.28,3.28,0,0,0,.36,1.55,2.12,2.12,0,0,0,.95,1.07A2.41,2.41,0,0,0,153,328.61Z"/><path d="M162.06,321.82a2.74,2.74,0,0,1,1.67.48,3.21,3.21,0,0,1,1.19,1.31,5.18,5.18,0,0,1,.47,2,3.31,3.31,0,0,1-.47,1.91,3.62,3.62,0,0,1-1.19,1.43,2.8,2.8,0,0,1-1.67.47,2.56,2.56,0,0,1-.95-.12,1.92,1.92,0,0,1-.84-.47,3.38,3.38,0,0,1-.71-.6,2.47,2.47,0,0,1-.48-.71l.24-.24V329a.42.42,0,0,1-.12.35.43.43,0,0,1-.35.12.44.44,0,0,1-.36-.12.42.42,0,0,1-.12-.35v-9.76a.42.42,0,0,1,.48-.48.43.43,0,0,1,.35.12.44.44,0,0,1,.12.36V324l-.24-.12a3,3,0,0,1,.48-.84c.24-.23.36-.47.59-.59a5.22,5.22,0,0,1,.84-.48A3.64,3.64,0,0,1,162.06,321.82Zm0,.84a2.47,2.47,0,0,0-1.31.35,2.81,2.81,0,0,0-.95,1.08,3.24,3.24,0,0,0-.36,1.54,3.28,3.28,0,0,0,.36,1.55,2.08,2.08,0,0,0,.95,1.07,2.56,2.56,0,0,0,2.62,0,2.78,2.78,0,0,0,.95-1.07,3.28,3.28,0,0,0,.36-1.55,3.24,3.24,0,0,0-.36-1.54,2.1,2.1,0,0,0-.95-1.08A2.47,2.47,0,0,0,162.06,322.66Z"/><path d="M174.08,325.63a3.31,3.31,0,0,1-.47,1.91,2.86,2.86,0,0,1-1.31,1.31,5,5,0,0,1-1.91.47,2.89,2.89,0,0,1-1.78-.47,6.77,6.77,0,0,1-1.31-1.31,3.49,3.49,0,0,1-.48-1.91,3.21,3.21,0,0,1,.48-1.9,2.73,2.73,0,0,1,1.31-1.31,3.32,3.32,0,0,1,1.78-.48,3.49,3.49,0,0,1,1.91.48,4.66,4.66,0,0,1,1.31,1.31A3.53,3.53,0,0,1,174.08,325.63Zm-.83,0a3.24,3.24,0,0,0-.36-1.54,2.81,2.81,0,0,0-.95-1.08,2.61,2.61,0,0,0-1.43-.35,3.27,3.27,0,0,0-1.43.35,2.14,2.14,0,0,0-1,1.08,3.24,3.24,0,0,0-.36,1.54,3.28,3.28,0,0,0,.36,1.55,2.47,2.47,0,0,0,2.38,1.43,3.16,3.16,0,0,0,1.43-.36,2.78,2.78,0,0,0,.95-1.07A3.28,3.28,0,0,0,173.25,325.63Z"/><path d="M181.34,322.06a.42.42,0,0,1,.48.48v4a2.56,2.56,0,0,1-.83,2.14,3.15,3.15,0,0,1-2.15.71,2.67,2.67,0,0,1-3-2.85v-4a.44.44,0,0,1,.12-.36.42.42,0,0,1,.35-.12.42.42,0,0,1,.48.48v4a2.19,2.19,0,0,0,3.69,1.54,2,2,0,0,0,.6-1.54v-4a.47.47,0,0,1,.11-.36C181.1,322.06,181.22,322.06,181.34,322.06Z"/><path d="M183.6,322.06h3.34c.12,0,.24,0,.24.12s.11.12.11.24,0,.24-.11.24-.12.12-.24.12H183.6c-.11,0-.23,0-.23-.12s-.12-.12-.12-.24,0-.24.12-.24S183.49,322.06,183.6,322.06Zm1.43-2a.44.44,0,0,1,.36.12.43.43,0,0,1,.12.35v7.15a.87.87,0,0,0,.12.59c.12.12.12.24.24.24s.23.12.35.12h.48c.12,0,.12,0,.24.12s.12.12.12.24-.12.23-.24.35a.9.9,0,0,1-.6.12h-.35c-.12,0-.36-.12-.48-.12a.92.92,0,0,1-.48-.47,2.41,2.41,0,0,1-.23-1v-7.27a.42.42,0,0,1,.12-.35C184.8,320,184.91,320,185,320Z"/><path d="M79.45,337.3a.44.44,0,0,1-.36-.12c-.12-.12-.12-.12-.12-.24a.44.44,0,0,1,.12-.36.47.47,0,0,1,.36-.11h6.78a.47.47,0,0,1,.36.11c.12.12.12.12.12.36s0,.24-.12.24a.44.44,0,0,1-.36.12Zm3.45,9.16a.4.4,0,0,1-.47-.47v-9.05h.95V346a.44.44,0,0,1-.12.36A.47.47,0,0,1,82.9,346.46Z"/><path d="M89,336.47h5.24a.47.47,0,0,1,.36.11.48.48,0,0,1-.36.84H89.33l.12-.24v4.05l-.12-.24h4.28a.44.44,0,0,1,.36.12.43.43,0,0,1,.12.35.42.42,0,0,1-.48.48H89.33l.12-.12V346l-.12-.12h4.88a.42.42,0,0,1,.48.48.43.43,0,0,1-.12.35.44.44,0,0,1-.36.12H89a.41.41,0,0,1-.35-.12.43.43,0,0,1-.12-.35v-9.17a.44.44,0,0,1,.12-.36C88.73,336.7,88.85,336.47,89,336.47Z"/><path d="M100,337.54l-3.45,8.57c0,.12-.12.12-.12.24s-.12.11-.24.11a.45.45,0,0,1-.35-.11c-.12-.12-.12-.12-.12-.24V346l3.81-9.29c0-.12.12-.12.12-.23s.11-.12.23-.12.24,0,.24.12.12.11.12.23l3.81,9.17V346a.44.44,0,0,1-.12.36.47.47,0,0,1-.36.11c-.12,0-.23,0-.23-.11s-.12-.12-.12-.24l-3.57-8.69Zm-2.74,6.07.36-.84h4.41l.12.84Z"/><path d="M106.35,336.47h.24a.11.11,0,0,1,.12.11l3.93,6h-.36l3.93-6c.12-.11.24-.23.35-.23s.24,0,.24.12.12.23.12.35V346a.44.44,0,0,1-.12.36.46.46,0,0,1-.35.11.47.47,0,0,1-.36-.11A.44.44,0,0,1,114,346v-8.22h.24l-3.57,5.48-.12.12H110a.12.12,0,0,1-.12-.12l-3.57-5.48.24-.23V346a.44.44,0,0,1-.12.36.47.47,0,0,1-.36.11.45.45,0,0,1-.35-.11.44.44,0,0,1-.12-.36v-9.17c0-.12,0-.24.12-.24S106.23,336.47,106.35,336.47Z"/><path d="M129.33,336.47a.46.46,0,0,1,.35.11.44.44,0,0,1,.12.36v.24l-3.21,9.17c0,.11-.12.11-.12.23s-.12.12-.24.12-.24,0-.24-.12-.12-.12-.12-.23l-2.5-6.31h.12l-2.5,6.19c0,.12-.12.12-.24.23s-.11.12-.23.12-.12,0-.24-.12-.12-.11-.12-.23L117,337.06v-.12a.4.4,0,0,1,.47-.47c.12,0,.24,0,.24.11s.12.12.12.24l2.86,8.34h-.12L123,339c0-.12.12-.12.12-.24s.11-.12.23-.12.12,0,.24.12.12.12.12.24l2.5,6.19h-.12L129,336.7c0-.12.12-.12.12-.23Z"/><path d="M140.4,341.46a5.55,5.55,0,0,1-.36,2,8.23,8.23,0,0,1-.95,1.67,4.74,4.74,0,0,1-1.55,1.07,5.11,5.11,0,0,1-1.91.35,5.06,5.06,0,0,1-1.9-.35,4.64,4.64,0,0,1-1.55-1.07,4,4,0,0,1-1-1.67,5.88,5.88,0,0,1,0-4.05,7.78,7.78,0,0,1,1-1.67,3.69,3.69,0,0,1,1.55-1.07,5.06,5.06,0,0,1,1.9-.35,5.11,5.11,0,0,1,1.91.35,4.74,4.74,0,0,1,1.55,1.07,4,4,0,0,1,.95,1.67A5.54,5.54,0,0,1,140.4,341.46Zm-1,0a4.93,4.93,0,0,0-.47-2.26,5.73,5.73,0,0,0-1.31-1.54,3.68,3.68,0,0,0-2-.6,4,4,0,0,0-2,.6,3.63,3.63,0,0,0-1.43,1.54,4.51,4.51,0,0,0-.47,2.26,4.82,4.82,0,0,0,.47,2.27,4.5,4.5,0,0,0,1.43,1.54,3.72,3.72,0,0,0,4,0,2.82,2.82,0,0,0,1.31-1.54A5,5,0,0,0,139.44,341.46Z"/><path d="M142.89,346.46a.46.46,0,0,1-.35-.11.44.44,0,0,1-.12-.36v-9.17a.41.41,0,0,1,.12-.35.43.43,0,0,1,.35-.12h3.81a2.58,2.58,0,0,1,1.43.35,2.36,2.36,0,0,1,1,1,2.49,2.49,0,0,1,.36,1.42,3.44,3.44,0,0,1-.24,1.19,2.13,2.13,0,0,1-.59.84,2.63,2.63,0,0,1-1,.59l-.48-.12a1.34,1.34,0,0,1,.95.36,1.63,1.63,0,0,1,.72.83,2,2,0,0,1,.23,1.19,2.34,2.34,0,0,0,.12,1c0,.23.12.35.12.47a.26.26,0,0,0,.24.24c.12,0,.12.12.24.24v.36a.12.12,0,0,1-.12.12h-.48l-.35-.36a2,2,0,0,1-.36-.72,4,4,0,0,1-.12-1.31,2.31,2.31,0,0,0-.12-.95,2.21,2.21,0,0,0-.47-.59c-.24-.12-.36-.24-.6-.24a4.55,4.55,0,0,1-.59-.12h-3.34l.12-.24v4.05a.44.44,0,0,1-.12.36A.34.34,0,0,1,142.89,346.46Zm.24-5h3.57a1.58,1.58,0,0,0,1-.35l.71-.72a1.93,1.93,0,0,0,.24-1.19,1.71,1.71,0,0,0-.6-1.31,2,2,0,0,0-1.42-.59h-3.46l.12-.24v4.52Z"/><path d="M152.42,346.46a.47.47,0,0,1-.36-.11.44.44,0,0,1-.12-.36v-9.17a.41.41,0,0,1,.12-.35.44.44,0,0,1,.36-.12.42.42,0,0,1,.47.47V346a.44.44,0,0,1-.12.36A.44.44,0,0,1,152.42,346.46Zm6.54-10c.12,0,.24,0,.24.11a.37.37,0,0,1,.12.24s0,.24-.12.24l-6.43,6.07-.11-.95,6-5.71C158.73,336.58,158.85,336.47,159,336.47Zm.24,10a.44.44,0,0,1-.35-.11l-4-5.12.71-.72,4.05,5.12a.6.6,0,0,1,0,.72A1,1,0,0,1,159.2,346.46Z"/><path d="M161.58,346.46a.45.45,0,0,1-.35-.11.44.44,0,0,1-.12-.36v-.36c0-.12,0-.36.12-.36a.45.45,0,0,1,.35-.11h.12c.12,0,.36,0,.36.11a.44.44,0,0,1,.12.36V346a.44.44,0,0,1-.12.36c-.12.11-.24.11-.48.11Zm0-2.85c-.23,0-.23-.12-.35-.36l-.12-6.31c0-.24,0-.36.12-.47a.42.42,0,0,1,.35-.12.44.44,0,0,1,.36.12c.12.11.12.23.12.47l-.12,6.31C161.94,343.61,161.82,343.61,161.58,343.61Z"/></svg>