<svg id="Capa_1" data-name="Capa 1" xmlns="http://www.w3.org/2000/svg" viewBox="0 0 269.1 392"><defs><style>.cls-1{fill:none;stroke:#f0be15;stroke-width:3px;}.cls-1,.cls-6{stroke-miterlimit:10;}.cls-2{isolation:isolate;}.cls-3{fill:#7d7d7d;}.cls-4,.cls-6{fill:#f8afa0;}.cls-5{fill:#fff;}.cls-6{stroke:#f8afa0;}.cls-7{opacity:0.13;}</style></defs><title>timeline</title><line class="cls-1" x1="-278.48" y1="206.85" x2="1414.42" y2="206.85"/><g class="cls-2"><path d="M124.4,196.65a.35.35,0,0,1,.4.4c0,.1,0,.3-.1.3a.37.37,0,0,1-.3.1h-6.2a.6.6,0,0,1-.4-.1.52.52,0,0,1-.2-.4.37.37,0,0,1,.1-.3l3.8-4.2a15,15,0,0,0,1.4-1.8,3.74,3.74,0,0,0,.5-1.5,2.06,2.06,0,0,0-.7-1.7,2.48,2.48,0,0,0-1.8-.7,3.55,3.55,0,0,0-1,.2,2.36,2.36,0,0,0-.9.6,1.56,1.56,0,0,0-.6.8c-.1.1-.1.2-.2.2a.35.35,0,0,0-.2.1.35.35,0,0,1-.4-.4c0-.1,0-.2.1-.2s.1-.2.2-.3a3.45,3.45,0,0,1,.8-.9,4.73,4.73,0,0,1,1.2-.7,3.6,3.6,0,0,1,3.1.1,4.26,4.26,0,0,1,1.2,1.1,3.06,3.06,0,0,1,.4,1.7,4.89,4.89,0,0,1-.5,1.9,13.39,13.39,0,0,1-1.6,2.2l-3.2,3.6-.2-.2h5.3Z"/><path d="M130.6,197.75a3.29,3.29,0,0,1-2.2-.8,4.44,4.44,0,0,1-1.3-2.1,11.45,11.45,0,0,1,0-6,4.44,4.44,0,0,1,1.3-2.1,3.42,3.42,0,0,1,4.4,0,4.44,4.44,0,0,1,1.3,2.1,11.45,11.45,0,0,1,0,6,4.44,4.44,0,0,1-1.3,2.1A3.29,3.29,0,0,1,130.6,197.75Zm0-1a2.27,2.27,0,0,0,1.6-.6,4,4,0,0,0,1-1.7,11.42,11.42,0,0,0,0-5.2,3.23,3.23,0,0,0-1-1.7,2.43,2.43,0,0,0-3.2,0,4,4,0,0,0-1,1.7,9.78,9.78,0,0,0-.3,2.6,10.32,10.32,0,0,0,.3,2.6,4,4,0,0,0,1,1.7A2.27,2.27,0,0,0,130.6,196.75Z"/><path d="M139.3,197.55c-.2,0-.3,0-.4-.1a.37.37,0,0,1-.1-.3v-9.9l.2.2-2.2,1.5a.37.37,0,0,1-.3.1.76.76,0,0,1-.4-.2c-.1-.1-.2-.2-.2-.3s.1-.3.3-.4l2.8-1.8c.1,0,.1-.1.2-.1h.2c.1,0,.3.1.3.2s.1.2.1.3v10.6a.37.37,0,0,1-.1.3A.76.76,0,0,0,139.3,197.55Z"/><path d="M145.5,197.65a6.75,6.75,0,0,1-1.4-.2,2.4,2.4,0,0,1-1.2-.7l-.2-.2a.35.35,0,0,0-.1-.2.37.37,0,0,1,.1-.3c.1-.1.2-.2.3-.2a.76.76,0,0,1,.4.1,4.05,4.05,0,0,0,.9.5,3.55,3.55,0,0,0,1,.2,3.29,3.29,0,0,0,1.7-.4,2,2,0,0,0,1.1-1.1,4.19,4.19,0,0,0,.4-1.6,2.82,2.82,0,0,0-.4-1.5,3.18,3.18,0,0,0-1-1,3.77,3.77,0,0,0-1.6-.4,3.59,3.59,0,0,0-1.1.2,2,2,0,0,0-.8.4.73.73,0,0,1-.6.2.37.37,0,0,1-.3-.1l-.2-.2v-.3l.7-4.4c0-.1.1-.2.2-.3s.2-.1.4-.1h5a.37.37,0,0,1,.3.1c.1.1.1.2.1.4a.35.35,0,0,1-.4.4h-4.6l.1-.1-.7,3.9-.3-.2a1.63,1.63,0,0,1,.6-.3l.9-.3a3.75,3.75,0,0,1,1.1-.1,3.83,3.83,0,0,1,1.9.5,3.25,3.25,0,0,1,1.3,1.3,4.14,4.14,0,0,1,.5,1.9,4.65,4.65,0,0,1-.5,2.1,2.94,2.94,0,0,1-1.5,1.4A4.69,4.69,0,0,1,145.5,197.65Z"/></g><g class="cls-2"><path class="cls-3" d="M78.2,226.34a.76.76,0,0,1-.5-.2c-.2-.1-.2-.3-.2-.5V218c0-.2.1-.3.2-.5a.76.76,0,0,1,.5-.2h3.6a2.77,2.77,0,0,1,1.3.3,2,2,0,0,1,.9.9,2.9,2.9,0,0,1,.3,1.4,3.55,3.55,0,0,1-.2,1,2.1,2.1,0,0,1-1.3,1.3l-.1-.3a1.61,1.61,0,0,1,.7.4c.2.2.3.4.5.6a1.08,1.08,0,0,1,.2.8,1.48,1.48,0,0,0,.1.7c0,.2.1.3.1.4s.1.2.2.3.2.2.3.4a.9.9,0,0,1-.1.5c-.1.1-.2.2-.3.2H84c-.1,0-.2-.1-.3-.1s-.3-.2-.4-.4a4.88,4.88,0,0,1-.3-.7,3.42,3.42,0,0,1-.1-1.1.75.75,0,0,0-.1-.5c-.1-.1-.2-.3-.3-.4a.76.76,0,0,0-.4-.2,4.33,4.33,0,0,0-.5-.1H78.9l.2-.3v3c0,.2-.1.3-.2.5C78.5,226.24,78.4,226.34,78.2,226.34Zm.4-4.5h3a1.42,1.42,0,0,0,.6-.2.92.92,0,0,0,.4-.6,2.39,2.39,0,0,0,.2-.9,1.28,1.28,0,0,0-.4-1,1,1,0,0,0-.9-.4h-3l.1-.3v3.4Z"/><path class="cls-3" d="M90.1,226.44a3.17,3.17,0,0,1-3.4-3.4,3,3,0,0,1,.5-1.9,4.56,4.56,0,0,1,1.2-1.2,2.82,2.82,0,0,1,1.5-.4,5,5,0,0,1,1.2.2,2.29,2.29,0,0,1,1,.7,3.59,3.59,0,0,1,.7,1,2.77,2.77,0,0,1,.3,1.3.52.52,0,0,1-.2.4.76.76,0,0,1-.4.2H87.6l-.3-1.1h4.8l-.2.2v-.3a1.14,1.14,0,0,0-.3-.8,1.79,1.79,0,0,0-.7-.5,2.35,2.35,0,0,0-.8-.2,1.48,1.48,0,0,0-.7.1,2.09,2.09,0,0,0-.6.4,1.61,1.61,0,0,0-.4.7,3.59,3.59,0,0,0-.2,1.1,2.13,2.13,0,0,0,.3,1.2,3,3,0,0,0,.8.8,2,2,0,0,0,1.1.3,2,2,0,0,0,.8-.1c.2-.1.4-.1.5-.2s.3-.2.4-.3.2-.1.4-.1a.71.71,0,0,1,.6.6.55.55,0,0,1-.3.5,3.49,3.49,0,0,1-.9.6C90.9,226.34,90.5,226.44,90.1,226.44Z"/><path class="cls-3" d="M98.3,219.54a4.12,4.12,0,0,1,1.2.1,1.51,1.51,0,0,1,.8.4.86.86,0,0,1,.3.6.6.6,0,0,1-.1.4.52.52,0,0,1-.4.2.37.37,0,0,1-.3-.1c-.1-.1-.2-.1-.2-.2l-.2-.2c-.1-.1-.2-.1-.4-.1h-.5a2.66,2.66,0,0,0-1.2.3,3,3,0,0,0-.8.8,2.13,2.13,0,0,0-.3,1.2,2.38,2.38,0,0,0,.3,1.2,2.7,2.7,0,0,0,.7.8,2,2,0,0,0,1.1.3c.2,0,.5,0,.6-.1s.3-.1.4-.1.2-.2.3-.2.2-.1.4-.1a.52.52,0,0,1,.4.2.6.6,0,0,1,.1.4.55.55,0,0,1-.3.5,1.88,1.88,0,0,1-.9.4,5,5,0,0,1-1.2.2,3.1,3.1,0,0,1-1.7-.5,2.54,2.54,0,0,1-1.1-1.2,3.36,3.36,0,0,1,3-5.2Z"/><path class="cls-3" d="M103.4,218.74a.75.75,0,0,1-.5-.1.59.59,0,0,1-.2-.5V218c0-.2.1-.4.2-.4a.75.75,0,0,1,.5-.1c.3,0,.4,0,.5.1a.52.52,0,0,1,.2.4v.2a.76.76,0,0,1-.2.5Zm.7,7c0,.2-.1.3-.2.5a.76.76,0,0,1-.5.2c-.2,0-.3-.1-.5-.2a.76.76,0,0,1-.2-.5v-5.4c0-.2.1-.3.2-.5s.3-.2.5-.2.3.1.5.2a.76.76,0,0,1,.2.5Z"/><path class="cls-3" d="M110.1,219.54a2.93,2.93,0,0,1,1.6.4,3.18,3.18,0,0,1,1.1,1.2,4.25,4.25,0,0,1,0,3.6,3.18,3.18,0,0,1-1.1,1.2,3,3,0,0,1-1.5.5,2.92,2.92,0,0,1-.9-.2,3,3,0,0,1-.8-.4c-.2-.2-.4-.3-.5-.5a2.19,2.19,0,0,0-.3-.5l.3-.2v1.1c0,.2-.1.3-.2.5a.4.4,0,0,1-.4.2c-.2,0-.3-.1-.5-.2a.76.76,0,0,1-.2-.5v-8.2c0-.2.1-.3.2-.5a.76.76,0,0,1,.5-.2.52.52,0,0,1,.4.2.76.76,0,0,1,.2.5v3.6l-.2-.1c0-.2.1-.3.2-.5s.3-.3.5-.5a1.61,1.61,0,0,1,.7-.4A3.44,3.44,0,0,1,110.1,219.54Zm-.1,1.2a2,2,0,0,0-1.1.3,2.7,2.7,0,0,0-.7.8,2.13,2.13,0,0,0-.3,1.2,2.38,2.38,0,0,0,.3,1.2,1.85,1.85,0,0,0,.7.8,2,2,0,0,0,1.1.3,1.69,1.69,0,0,0,1-.3,2.7,2.7,0,0,0,.7-.8,2.38,2.38,0,0,0,.3-1.2,2.66,2.66,0,0,0-.3-1.2,2.7,2.7,0,0,0-.7-.8A1.49,1.49,0,0,0,110,220.74Z"/><path class="cls-3" d="M122,223a3.17,3.17,0,0,1-1.6,3,3.81,3.81,0,0,1-3.4,0,3.5,3.5,0,0,1-1.7-3,2.73,2.73,0,0,1,.5-1.8A3.45,3.45,0,0,1,117,220a3.37,3.37,0,0,1,1.7-.5,2.62,2.62,0,0,1,1.7.5,3.17,3.17,0,0,1,1.6,3Zm-1.2,0a2.13,2.13,0,0,0-.3-1.2,2,2,0,0,0-.8-.8,2,2,0,0,0-1.1-.3,2.28,2.28,0,0,0-1.1.3,3,3,0,0,0-.8.8,2.13,2.13,0,0,0-.3,1.2,2.66,2.66,0,0,0,.3,1.2,2,2,0,0,0,.8.8,2,2,0,0,0,1.1.3,2.28,2.28,0,0,0,1.1-.3,3,3,0,0,0,.8-.8A2.66,2.66,0,0,0,120.8,223Z"/><path class="cls-3" d="M132.3,219.54a2,2,0,0,1,1.4.5,2.4,2.4,0,0,1,.7,1.2l-.2-.1.1-.2c.1-.2.3-.4.5-.7a5.55,5.55,0,0,1,.8-.6,3,3,0,0,1,1-.2,2.12,2.12,0,0,1,1.4.4,2.55,2.55,0,0,1,.7,1,3.18,3.18,0,0,1,.2,1.4v3.4c0,.2-.1.3-.2.5a.76.76,0,0,1-.5.2c-.2,0-.3-.1-.5-.2a.76.76,0,0,1-.2-.5v-3.3a2,2,0,0,0-.1-.8,2.09,2.09,0,0,0-.4-.6,1.88,1.88,0,0,0-.8-.2,2.92,2.92,0,0,0-.9.2.9.9,0,0,0-.6.6,1.88,1.88,0,0,0-.2.8v3.3c0,.2-.1.3-.2.5a.76.76,0,0,1-.5.2c-.2,0-.3-.1-.5-.2a.76.76,0,0,1-.2-.5v-3.4a2,2,0,0,0-.1-.8,2.09,2.09,0,0,0-.4-.6,1.88,1.88,0,0,0-.8-.2,2.92,2.92,0,0,0-.9.2.9.9,0,0,0-.6.6,1.88,1.88,0,0,0-.2.8v3.4c0,.2-.1.3-.2.5a.76.76,0,0,1-.5.2c-.2,0-.3-.1-.5-.2a.76.76,0,0,1-.2-.5v-5.4c0-.2.1-.3.2-.5a.76.76,0,0,1,.5-.2c.2,0,.3.1.5.2a.76.76,0,0,1,.2.5v.8l-.2.1.3-.6a1.21,1.21,0,0,1,.5-.5,1.61,1.61,0,0,1,.7-.4C131.8,219.64,132,219.54,132.3,219.54Z"/><path class="cls-3" d="M142.2,218.74a.75.75,0,0,1-.5-.1.59.59,0,0,1-.2-.5V218c0-.2.1-.4.2-.4a.75.75,0,0,1,.5-.1c.3,0,.4,0,.5.1a.52.52,0,0,1,.2.4v.2a.76.76,0,0,1-.2.5Zm.6,7c0,.2-.1.3-.2.5a.76.76,0,0,1-.5.2c-.2,0-.3-.1-.5-.2a.76.76,0,0,1-.2-.5v-5.4c0-.2.1-.3.2-.5a.76.76,0,0,1,.5-.2c.2,0,.3.1.5.2a.76.76,0,0,1,.2.5Z"/><path class="cls-3" d="M150,219.74h3a.52.52,0,0,1,.4.2.6.6,0,0,1-.4,1h-3a.52.52,0,0,1-.4-.2.5.5,0,0,1,0-.8C149.6,219.84,149.8,219.74,150,219.74Zm1.3-1.6c.2,0,.3.1.5.2a.76.76,0,0,1,.2.5v5.9c0,.2,0,.3.1.4s.1.2.2.2.2.1.3.1.2,0,.2-.1.2-.1.3-.1a.37.37,0,0,1,.3.1c.1.1.1.2.1.4a.55.55,0,0,1-.3.5,1.85,1.85,0,0,1-.7.2H152a1.42,1.42,0,0,1-.6-.2c-.2-.1-.3-.3-.5-.5a2,2,0,0,1-.2-.9v-5.9c0-.2.1-.3.2-.5S151.1,218.14,151.3,218.14Z"/><path class="cls-3" d="M157.1,225.74c0,.2-.1.3-.2.5a.76.76,0,0,1-.5.2c-.2,0-.3-.1-.5-.2a.76.76,0,0,1-.2-.5v-5.4c0-.2.1-.3.2-.5a.76.76,0,0,1,.5-.2c.2,0,.3.1.5.2a.76.76,0,0,1,.2.5Zm-.6-6.5c-.1,0-.1,0-.2-.1s-.1-.1-.1-.3,0-.1.1-.2l.7-1.3c.1-.1.1-.2.2-.3s.2-.1.4-.1a.76.76,0,0,1,.5.2c.1.1.1.2.1.4s0,.2-.1.2a.35.35,0,0,1-.1.2l-1,1.1c-.1.1-.2.1-.2.2C156.7,219.14,156.6,219.24,156.5,219.24Z"/><path class="cls-3" d="M159.7,219.74h3a.52.52,0,0,1,.4.2.6.6,0,0,1-.4,1h-3a.52.52,0,0,1-.4-.2.6.6,0,0,1,.4-1Zm1.4-1.6c.2,0,.3.1.5.2a.76.76,0,0,1,.2.5v5.9c0,.2,0,.3.1.4s.1.2.2.2.2.1.3.1.2,0,.2-.1.2-.1.3-.1a.37.37,0,0,1,.3.1c.1.1.1.2.1.4a.55.55,0,0,1-.3.5,1.85,1.85,0,0,1-.7.2h-.5a1.42,1.42,0,0,1-.6-.2c-.2-.1-.3-.3-.5-.5a2,2,0,0,1-.2-.9v-5.9c0-.2.1-.3.2-.5S160.9,218.14,161.1,218.14Z"/><path class="cls-3" d="M170.7,219.64c.2,0,.3.1.5.2a.76.76,0,0,1,.2.5v3.3a2.81,2.81,0,1,1-5.6,0v-3.3c0-.2.1-.3.2-.5a.76.76,0,0,1,.5-.2c.2,0,.3.1.5.2a.76.76,0,0,1,.2.5v3.3a1.46,1.46,0,0,0,.4,1.2,1.82,1.82,0,0,0,1.1.4,1.25,1.25,0,0,0,1.1-.4,1.59,1.59,0,0,0,.4-1.2v-3.3c0-.2.1-.3.2-.5C170.3,219.74,170.5,219.64,170.7,219.64Z"/><path class="cls-3" d="M175.4,225.74c0,.2-.1.3-.2.5a.76.76,0,0,1-.5.2c-.2,0-.3-.1-.5-.2a.76.76,0,0,1-.2-.5v-8.1c0-.2.1-.3.2-.5a.76.76,0,0,1,.5-.2c.2,0,.3.1.5.2a.76.76,0,0,1,.2.5Z"/><path class="cls-3" d="M184.7,223a3.17,3.17,0,0,1-1.6,3,3.81,3.81,0,0,1-3.4,0,3.5,3.5,0,0,1-1.7-3,2.73,2.73,0,0,1,.5-1.8,3.45,3.45,0,0,1,1.2-1.2,3.37,3.37,0,0,1,1.7-.5,2.62,2.62,0,0,1,1.7.5,3.17,3.17,0,0,1,1.6,3Zm-1.3,0a2.13,2.13,0,0,0-.3-1.2,2,2,0,0,0-.8-.8,2,2,0,0,0-1.1-.3,2.28,2.28,0,0,0-1.1.3,3,3,0,0,0-.8.8,2.13,2.13,0,0,0-.3,1.2,2.66,2.66,0,0,0,.3,1.2,2,2,0,0,0,.8.8,2,2,0,0,0,1.1.3,2.28,2.28,0,0,0,1.1-.3,3,3,0,0,0,.8-.8A2.66,2.66,0,0,0,183.4,223Z"/><path class="cls-3" d="M197.1,216.94c.2,0,.3.1.5.2a.76.76,0,0,1,.2.5v8.1c0,.2-.1.3-.2.5a.76.76,0,0,1-.5.2c-.2,0-.3-.1-.5-.2a.76.76,0,0,1-.2-.5v-.9h.3c0,.2-.1.3-.2.5a1.21,1.21,0,0,1-.5.5,2.51,2.51,0,0,1-.7.4,2.92,2.92,0,0,1-.9.2,3,3,0,0,1-1.6-.5,3.18,3.18,0,0,1-1.1-1.2,4.25,4.25,0,0,1,0-3.6,3.18,3.18,0,0,1,1.1-1.2,2.54,2.54,0,0,1,2.5-.3,2.18,2.18,0,0,1,.8.5,2.65,2.65,0,0,1,.5.6,1.42,1.42,0,0,1,.2.6h-.4v-3.8c0-.2.1-.3.2-.5C196.8,217,196.9,216.94,197.1,216.94Zm-2.6,8.4a2,2,0,0,0,1.1-.3,2.7,2.7,0,0,0,.7-.8,2.13,2.13,0,0,0,.3-1.2,2.38,2.38,0,0,0-.3-1.2,2.7,2.7,0,0,0-.7-.8,2,2,0,0,0-1.1-.3,1.69,1.69,0,0,0-1,.3,2.7,2.7,0,0,0-.7.8,2.13,2.13,0,0,0-.3,1.2,2.38,2.38,0,0,0,.3,1.2,2.7,2.7,0,0,0,.7.8A1.69,1.69,0,0,0,194.5,225.34Z"/><path class="cls-3" d="M203.6,226.44a3.17,3.17,0,0,1-3.4-3.4,3,3,0,0,1,.5-1.9,3.45,3.45,0,0,1,1.2-1.2,2.82,2.82,0,0,1,1.5-.4,5,5,0,0,1,1.2.2,2.29,2.29,0,0,1,1,.7,3.59,3.59,0,0,1,.7,1,2.77,2.77,0,0,1,.3,1.3.52.52,0,0,1-.2.4.76.76,0,0,1-.4.2h-4.9l-.3-1.1h4.8l-.2.2v-.3a1.14,1.14,0,0,0-.3-.8,1.79,1.79,0,0,0-.7-.5,2.35,2.35,0,0,0-.8-.2,1.48,1.48,0,0,0-.7.1,2.09,2.09,0,0,0-.6.4,1.61,1.61,0,0,0-.4.7,3.59,3.59,0,0,0-.2,1.1,2.13,2.13,0,0,0,.3,1.2,3,3,0,0,0,.8.8,2,2,0,0,0,1.1.3,2,2,0,0,0,.8-.1c.2-.1.4-.1.5-.2s.3-.2.4-.3a.6.6,0,0,1,.4-.1.71.71,0,0,1,.6.6.55.55,0,0,1-.3.5,3.49,3.49,0,0,1-.9.6A5.24,5.24,0,0,1,203.6,226.44Z"/></g><g class="cls-2"><path class="cls-3" d="M107.3,234.34l-2.9,6.8c-.1.1-.1.2-.2.3a.37.37,0,0,1-.3.1.52.52,0,0,1-.4-.2c-.1-.1-.1-.2-.1-.4v-.2l3.2-7.8c.1-.1.1-.3.2-.3s.2-.1.4-.1a.6.6,0,0,1,.4.1c.1.1.2.2.2.3l3.2,7.7c0,.1.1.2.1.3s-.1.3-.2.5a.4.4,0,0,1-.4.2.37.37,0,0,1-.3-.1c-.1-.1-.2-.2-.2-.3l-2.9-6.8Zm-2.3,5,.6-1.2h3.6l.2,1.2Z"/><path class="cls-3" d="M113.8,241.54c-.2,0-.3-.1-.5-.2a.76.76,0,0,1-.2-.5v-5.4c0-.2.1-.3.2-.5a.76.76,0,0,1,.5-.2c.2,0,.3.1.5.2a.76.76,0,0,1,.2.5v1.4l-.1-.5c.1-.2.2-.5.3-.7a1.21,1.21,0,0,1,.5-.5,1.61,1.61,0,0,1,.7-.4,2,2,0,0,1,.8-.1,1.42,1.42,0,0,1,.6.2.4.4,0,0,1,.2.4.76.76,0,0,1-.2.5.52.52,0,0,1-.4.2.76.76,0,0,1-.4-.1.6.6,0,0,0-.4-.1.75.75,0,0,0-.5.1,1,1,0,0,0-.5.4,2.09,2.09,0,0,0-.4.6,2,2,0,0,0-.1.8v3c0,.2-.1.3-.2.5C114.1,241.44,114,241.54,113.8,241.54Z"/><path class="cls-3" d="M124.9,234.84c.2,0,.3.1.5.2a.76.76,0,0,1,.2.5v7.9c0,.2-.1.3-.2.5a.76.76,0,0,1-.5.2c-.2,0-.3-.1-.5-.2a.76.76,0,0,1-.2-.5v-3.5h.3c0,.2-.1.3-.2.5a1.21,1.21,0,0,1-.5.5c-.2.1-.5.3-.7.4a2.92,2.92,0,0,1-.9.2,3,3,0,0,1-1.6-.5,3.18,3.18,0,0,1-1.1-1.2,4.25,4.25,0,0,1,0-3.6,3.18,3.18,0,0,1,1.1-1.2,2.54,2.54,0,0,1,2.5-.3,2.18,2.18,0,0,1,.8.5,2.65,2.65,0,0,1,.5.6,1.42,1.42,0,0,1,.2.6h-.4v-1.1c0-.2.1-.3.2-.5C124.6,234.94,124.7,234.84,124.9,234.84Zm-2.6,5.7a2,2,0,0,0,1.1-.3,2.7,2.7,0,0,0,.7-.8,2.13,2.13,0,0,0,.3-1.2,2.38,2.38,0,0,0-.3-1.2,2.7,2.7,0,0,0-.7-.8,2,2,0,0,0-1.1-.3,1.69,1.69,0,0,0-1,.3,2.7,2.7,0,0,0-.7.8,2.13,2.13,0,0,0-.3,1.2,2.38,2.38,0,0,0,.3,1.2,2.7,2.7,0,0,0,.7.8A1.69,1.69,0,0,0,122.3,240.54Z"/><path class="cls-3" d="M133.3,234.84c.2,0,.3.1.5.2a.76.76,0,0,1,.2.5v3.3a2.81,2.81,0,1,1-5.6,0v-3.3c0-.2.1-.3.2-.5a.76.76,0,0,1,.5-.2c.2,0,.3.1.5.2a.76.76,0,0,1,.2.5v3.3a1.46,1.46,0,0,0,.4,1.2,1.37,1.37,0,0,0,1.1.4,1.25,1.25,0,0,0,1.1-.4,2.14,2.14,0,0,0,.4-1.2v-3.3c0-.2.1-.3.2-.5C132.9,234.94,133.1,234.84,133.3,234.84Z"/><path class="cls-3" d="M137.2,233.94a.75.75,0,0,1-.5-.1.59.59,0,0,1-.2-.5v-.2c0-.2.1-.4.2-.4a.75.75,0,0,1,.5-.1c.3,0,.4,0,.5.1a.52.52,0,0,1,.2.4v.2a.76.76,0,0,1-.2.5C137.7,233.94,137.5,233.94,137.2,233.94Zm.7,7c0,.2-.1.3-.2.5a.76.76,0,0,1-.5.2c-.2,0-.3-.1-.5-.2a.76.76,0,0,1-.2-.5v-5.4c0-.2.1-.3.2-.5a.76.76,0,0,1,.5-.2c.2,0,.3.1.5.2a.76.76,0,0,1,.2.5Z"/><path class="cls-3" d="M140.5,234.94h3a.52.52,0,0,1,.4.2.6.6,0,0,1-.4,1h-3a.52.52,0,0,1-.4-.2.5.5,0,0,1,0-.8A.52.52,0,0,1,140.5,234.94Zm1.3-1.6c.2,0,.3.1.5.2a.76.76,0,0,1,.2.5v5.9c0,.2,0,.3.1.4s.1.2.2.2.2.1.3.1.2,0,.2-.1.2-.1.3-.1a.37.37,0,0,1,.3.1c.1.1.1.2.1.4a.55.55,0,0,1-.3.5,1.85,1.85,0,0,1-.7.2h-.5a1.42,1.42,0,0,1-.6-.2c-.2-.1-.3-.3-.5-.5a2,2,0,0,1-.2-.9v-5.9c0-.2.1-.3.2-.5S141.6,233.34,141.8,233.34Z"/><path class="cls-3" d="M149.6,241.64a3.17,3.17,0,0,1-3.4-3.4,3,3,0,0,1,.5-1.9,3.45,3.45,0,0,1,1.2-1.2,2.82,2.82,0,0,1,1.5-.4,5,5,0,0,1,1.2.2,2.29,2.29,0,0,1,1,.7,3.59,3.59,0,0,1,.7,1,2.77,2.77,0,0,1,.3,1.3.52.52,0,0,1-.2.4.76.76,0,0,1-.4.2h-4.9l-.3-1.1h4.8l-.2.2v-.3a1.14,1.14,0,0,0-.3-.8,1.79,1.79,0,0,0-.7-.5,2.35,2.35,0,0,0-.8-.2,1.48,1.48,0,0,0-.7.1,2.09,2.09,0,0,0-.6.4,1.61,1.61,0,0,0-.4.7,3.59,3.59,0,0,0-.2,1.1,2.13,2.13,0,0,0,.3,1.2,3,3,0,0,0,.8.8,2,2,0,0,0,1.1.3,2,2,0,0,0,.8-.1c.2-.1.4-.1.5-.2s.3-.2.4-.3a.6.6,0,0,1,.4-.1.71.71,0,0,1,.6.6.55.55,0,0,1-.3.5,3.49,3.49,0,0,1-.9.6A5.54,5.54,0,0,1,149.6,241.64Z"/><path class="cls-3" d="M157.8,234.74a4.12,4.12,0,0,1,1.2.1,1.51,1.51,0,0,1,.8.4.86.86,0,0,1,.3.6.6.6,0,0,1-.1.4.52.52,0,0,1-.4.2.37.37,0,0,1-.3-.1c-.1-.1-.2-.1-.2-.2s-.1-.1-.2-.2-.2-.1-.4-.1H158a2.66,2.66,0,0,0-1.2.3,3,3,0,0,0-.8.8,2.13,2.13,0,0,0-.3,1.2,2.38,2.38,0,0,0,.3,1.2,2.7,2.7,0,0,0,.7.8,2,2,0,0,0,1.1.3c.2,0,.5,0,.6-.1a.6.6,0,0,1,.4-.1c.1-.1.2-.2.3-.2s.2-.1.4-.1a.52.52,0,0,1,.4.2.6.6,0,0,1,.1.4.55.55,0,0,1-.3.5,1.88,1.88,0,0,1-.9.4,5,5,0,0,1-1.2.2,3.1,3.1,0,0,1-1.7-.5,2.54,2.54,0,0,1-1.1-1.2,4.78,4.78,0,0,1-.4-1.8,3.17,3.17,0,0,1,1.6-3A3.66,3.66,0,0,1,157.8,234.74Z"/><path class="cls-3" d="M162.3,234.94h3a.52.52,0,0,1,.4.2.6.6,0,0,1-.4,1h-3a.52.52,0,0,1-.4-.2.5.5,0,0,1,0-.8A.52.52,0,0,1,162.3,234.94Zm1.3-1.6c.2,0,.3.1.5.2a.76.76,0,0,1,.2.5v5.9c0,.2,0,.3.1.4s.1.2.2.2.2.1.3.1.2,0,.2-.1.2-.1.3-.1a.37.37,0,0,1,.3.1c.1.1.1.2.1.4a.55.55,0,0,1-.3.5,1.85,1.85,0,0,1-.7.2h-.5a1.42,1.42,0,0,1-.6-.2c-.2-.1-.3-.3-.5-.5a2,2,0,0,1-.2-.9v-5.9c0-.2.1-.3.2-.5A.37.37,0,0,1,163.6,233.34Z"/><path class="cls-3" d="M173.7,234.74c.2,0,.3.1.5.2a.76.76,0,0,1,.2.5v5.5c0,.2-.1.3-.2.5a.76.76,0,0,1-.5.2c-.2,0-.3-.1-.5-.2a.76.76,0,0,1-.2-.5V240l.3.1a1.69,1.69,0,0,1-.2.5,1.21,1.21,0,0,1-.5.5,2.51,2.51,0,0,1-.7.4,2.92,2.92,0,0,1-.9.2,3,3,0,0,1-1.6-.5,3.18,3.18,0,0,1-1.1-1.2,4.25,4.25,0,0,1,0-3.6,3.18,3.18,0,0,1,1.1-1.2,2.82,2.82,0,0,1,1.5-.4,3,3,0,0,1,1,.2,2.18,2.18,0,0,1,.8.5,2.65,2.65,0,0,1,.5.6,1.42,1.42,0,0,1,.2.6H173v-1.2c0-.2.1-.3.2-.5A.91.91,0,0,1,173.7,234.74Zm-2.5,5.8a2.28,2.28,0,0,0,1.1-.3c.4-.2.5-.5.7-.8a2.38,2.38,0,0,0,.3-1.2,2.66,2.66,0,0,0-.3-1.2,1.85,1.85,0,0,0-.7-.8,2,2,0,0,0-1.1-.3,1.69,1.69,0,0,0-1,.3,2.7,2.7,0,0,0-.7.8,2.13,2.13,0,0,0-.3,1.2,2.66,2.66,0,0,0,.3,1.2,1.85,1.85,0,0,0,.7.8A1.49,1.49,0,0,0,171.2,240.54Z"/></g><path class="cls-1" d="M218,151.05H66.3a24.58,24.58,0,0,0-24.6,24.6v31.5H242.6v-31.4A24.67,24.67,0,0,0,218,151.05Z"/><g class="cls-2"><path d="M71.6,164.85a.35.35,0,0,1-.4-.4c0-.1,0-.3.1-.3a.37.37,0,0,1,.3-.1h7.8a.6.6,0,0,1,.4.1.37.37,0,0,1,.1.3c0,.1,0,.3-.1.3s-.2.1-.4.1Zm3.9,10.7c-.2,0-.3,0-.4-.1a.37.37,0,0,1-.1-.3v-10.5h1v10.5a.37.37,0,0,1-.1.3C75.8,175.45,75.6,175.55,75.5,175.55Z"/><path d="M83.1,175a.76.76,0,0,1-.2.4c-.1.1-.2.1-.4.1s-.3,0-.4-.1-.1-.2-.1-.4v-10.5a.6.6,0,0,1,.1-.4c.1-.1.2-.1.4-.1a.6.6,0,0,1,.4.1.52.52,0,0,1,.2.4Zm-.5-11.8c-.1,0-.2,0-.2-.1s-.1-.1-.1-.2v-.2l.1-.1,1.5-1.1c.1,0,.1-.1.2-.1s.2-.1.3-.1a.6.6,0,0,1,.4.1c.1.1.1.2.1.4a.37.37,0,0,1-.1.3c-.1.1-.1.2-.2.2l-1.6.8c-.1,0-.1,0-.2.1S82.7,163.15,82.6,163.15Z"/><path d="M85.7,164.85a.35.35,0,0,1-.4-.4c0-.1,0-.3.1-.3a.37.37,0,0,1,.3-.1h7.8a.6.6,0,0,1,.4.1.37.37,0,0,1,.1.3c0,.1,0,.3-.1.3s-.2.1-.4.1Zm3.9,10.7c-.2,0-.3,0-.4-.1a.37.37,0,0,1-.1-.3v-10.5h1v10.5a.37.37,0,0,1-.1.3C89.9,175.45,89.7,175.55,89.6,175.55Z"/><path d="M104.3,164a.6.6,0,0,1,.4.1.37.37,0,0,1,.1.3v6.8a4,4,0,0,1-.6,2.2,4.1,4.1,0,0,1-1.6,1.6,4.33,4.33,0,0,1-4.4,0,4.1,4.1,0,0,1-1.6-1.6,4.28,4.28,0,0,1-.6-2.2v-6.8a.37.37,0,0,1,.1-.3c.1-.1.2-.1.4-.1a.35.35,0,0,1,.4.4v6.8a3.37,3.37,0,0,0,.5,1.7,3.45,3.45,0,0,0,1.2,1.2,3.14,3.14,0,0,0,3.4,0,3.45,3.45,0,0,0,1.2-1.2,3.37,3.37,0,0,0,.5-1.7v-6.8a.37.37,0,0,1,.1-.3A1.34,1.34,0,0,1,104.3,164Z"/><path d="M114.3,174.55a.6.6,0,0,1,.4.1.37.37,0,0,1,.1.3.6.6,0,0,1-.1.4c-.1.1-.2.1-.4.1h-5.9a.6.6,0,0,1-.4-.1.37.37,0,0,1-.1-.3v-10.6a.37.37,0,0,1,.1-.3c.1-.1.2-.1.4-.1a.6.6,0,0,1,.4.1c.1.1.2.2.2.3v10.4l-.3-.3Z"/><path d="M127,169.75a6.05,6.05,0,0,1-.4,2.4,11.78,11.78,0,0,1-1.1,1.9,5.67,5.67,0,0,1-1.8,1.2,5.38,5.38,0,0,1-2.2.4,5.09,5.09,0,0,1-2.2-.4,7.07,7.07,0,0,1-1.8-1.2,6.15,6.15,0,0,1-1.2-1.9,7.4,7.4,0,0,1,0-4.8,7.61,7.61,0,0,1,1.2-1.9,5.67,5.67,0,0,1,1.8-1.2,6.25,6.25,0,0,1,4.4,0,5.67,5.67,0,0,1,1.8,1.2,4.53,4.53,0,0,1,1.1,1.9A8.6,8.6,0,0,1,127,169.75Zm-1,0a5.54,5.54,0,0,0-.6-2.6,4.41,4.41,0,0,0-7.8,0,5.26,5.26,0,0,0-.6,2.6,5.54,5.54,0,0,0,.6,2.6,4.36,4.36,0,0,0,1.6,1.7,4.65,4.65,0,0,0,2.3.6,4.14,4.14,0,0,0,2.3-.6,4.36,4.36,0,0,0,1.6-1.7A5.54,5.54,0,0,0,126,169.75Z"/><path d="M138.6,164a4.65,4.65,0,0,1,2.1.5,3.74,3.74,0,0,1,1.5,1.3,5.57,5.57,0,0,1,.9,1.9,7.8,7.8,0,0,1,.3,2.2,8.81,8.81,0,0,1-.5,2.9,4.25,4.25,0,0,1-1.6,2.1,4.55,4.55,0,0,1-2.7.8h-4.2a.6.6,0,0,1-.4-.1.37.37,0,0,1-.1-.3v-10.6a.37.37,0,0,1,.1-.3c.1-.1.2-.1.4-.1h4.2Zm-.2,10.6a4.14,4.14,0,0,0,2.3-.6,3.71,3.71,0,0,0,1.3-1.7,6.05,6.05,0,0,0,.4-2.4,11,11,0,0,0-.2-1.8,3.48,3.48,0,0,0-.7-1.5,4.26,4.26,0,0,0-1.2-1.1,3.42,3.42,0,0,0-1.8-.4h-3.6l.1-.1v9.9l-.1-.2h3.5Z"/><path d="M146.3,164h6a.6.6,0,0,1,.4.1c.1.1.1.2.1.4s0,.3-.1.3-.2.1-.4.1h-5.7l.2-.3v4.6l-.2-.2h4.9a.6.6,0,0,1,.4.1.37.37,0,0,1,.1.3c0,.1,0,.3-.1.3s-.2.1-.4.1h-4.9l.1-.2v4.8l-.1-.1h5.6a.6.6,0,0,1,.4.1.37.37,0,0,1,.1.3c0,.1,0,.3-.1.3s-.2.1-.4.1h-6a.6.6,0,0,1-.4-.1.37.37,0,0,1-.1-.3v-10.6a.37.37,0,0,1,.1-.3A.55.55,0,0,0,146.3,164Z"/><path d="M164.8,175.65a6.37,6.37,0,0,1-2.4-.4,6.15,6.15,0,0,1-1.9-1.2,6.41,6.41,0,0,1-1.3-1.9,6.05,6.05,0,0,1-.4-2.4,6.72,6.72,0,0,1,.4-2.4,4.31,4.31,0,0,1,1.3-1.9,4.74,4.74,0,0,1,1.9-1.2,6.05,6.05,0,0,1,2.4-.4,9.85,9.85,0,0,1,1.7.2,4.71,4.71,0,0,1,1.5.6l.2.2a.35.35,0,0,0,.1.2.76.76,0,0,1-.2.4.37.37,0,0,1-.3.1h-.1a.1.1,0,0,1-.1-.1,6.12,6.12,0,0,0-1.2-.5,5.9,5.9,0,0,0-1.4-.2,4.3,4.3,0,0,0-2.5.7,4.24,4.24,0,0,0-1.7,1.8,5.51,5.51,0,0,0,0,5,5.81,5.81,0,0,0,1.7,1.8,4.23,4.23,0,0,0,2.5.6,7.72,7.72,0,0,0,1.5-.2,3.1,3.1,0,0,0,1.3-.6l-.1.3v-3.8l.2.2H165a.6.6,0,0,1-.4-.1.37.37,0,0,1-.1-.3c0-.2,0-.3.1-.4s.2-.1.4-.1h3.1c.2,0,.3,0,.4.1s.1.2.1.4v4c0,.1,0,.2-.1.2s-.1.1-.2.2a8,8,0,0,1-1.6.8A5.82,5.82,0,0,1,164.8,175.65Z"/><path d="M171.7,175.55c-.2,0-.3,0-.4-.1s-.2-.2-.2-.3v-10.6a.37.37,0,0,1,.1-.3c.1-.1.2-.1.4-.1h4.5a3.29,3.29,0,0,1,1.7.4,3.18,3.18,0,0,1,1.2,1.1,2.93,2.93,0,0,1,.4,1.6,2.77,2.77,0,0,1-.3,1.3,3.59,3.59,0,0,1-.7,1,2.38,2.38,0,0,1-1.1.6l-.6-.2a2.1,2.1,0,0,1,1.1.4,2.58,2.58,0,0,1,.9.9,3.19,3.19,0,0,1,.3,1.4,3.42,3.42,0,0,0,.1,1.1.85.85,0,0,0,.2.6l.3.3c.1.1.2.2.2.3v.3a.22.22,0,0,1-.2.2c-.1,0-.2.1-.3.1s-.2,0-.2-.1a1.76,1.76,0,0,1-.5-.4,2,2,0,0,1-.4-.8,6.05,6.05,0,0,1-.2-1.5,2.51,2.51,0,0,0-.2-1,1,1,0,0,0-.5-.6,2.12,2.12,0,0,0-.7-.3c-.2,0-.5-.1-.7-.1h-3.8l.2-.2v4.7a.37.37,0,0,1-.1.3C172,175.45,171.8,175.55,171.7,175.55Zm.3-5.9h4.1a1.78,1.78,0,0,0,1-.4,2.36,2.36,0,0,0,.8-.9,2.77,2.77,0,0,0,.3-1.3,2.45,2.45,0,0,0-.6-1.6,2.35,2.35,0,0,0-1.7-.6H172l.1-.2v5.2Z"/><path d="M186.1,165.25l-4,10a.22.22,0,0,1-.2.2.37.37,0,0,1-.3.1c-.2,0-.3,0-.4-.1a.37.37,0,0,1-.1-.3V175l4.4-10.7c0-.1.1-.2.2-.3s.2-.1.3-.1a.37.37,0,0,1,.3.1l.2.2,4.3,10.6v.2c0,.2,0,.3-.1.4a.5.5,0,0,1-.6,0l-.2-.2-4.1-10Zm-3.1,6.9.4-1h5.1l.2,1Z"/><path d="M197.6,164a4.65,4.65,0,0,1,2.1.5,3.74,3.74,0,0,1,1.5,1.3,5.57,5.57,0,0,1,.9,1.9,7.8,7.8,0,0,1,.3,2.2,8.81,8.81,0,0,1-.5,2.9,4.25,4.25,0,0,1-1.6,2.1,4.55,4.55,0,0,1-2.7.8h-4.2a.6.6,0,0,1-.4-.1.37.37,0,0,1-.1-.3v-10.6a.37.37,0,0,1,.1-.3c.1-.1.2-.1.4-.1h4.2Zm-.2,10.6a4.14,4.14,0,0,0,2.3-.6,3.71,3.71,0,0,0,1.3-1.7,6.05,6.05,0,0,0,.4-2.4,11,11,0,0,0-.2-1.8,3.48,3.48,0,0,0-.7-1.5,4.26,4.26,0,0,0-1.2-1.1,3.42,3.42,0,0,0-1.8-.4h-3.6l.1-.1v9.9l-.1-.2h3.5Z"/><path d="M215.1,169.75a6.05,6.05,0,0,1-.4,2.4,11.78,11.78,0,0,1-1.1,1.9,5.67,5.67,0,0,1-1.8,1.2,5.38,5.38,0,0,1-2.2.4,5.09,5.09,0,0,1-2.2-.4,7.07,7.07,0,0,1-1.8-1.2,6.15,6.15,0,0,1-1.2-1.9,7.4,7.4,0,0,1,0-4.8,7.61,7.61,0,0,1,1.2-1.9,5.67,5.67,0,0,1,1.8-1.2,6.25,6.25,0,0,1,4.4,0,5.67,5.67,0,0,1,1.8,1.2,4.53,4.53,0,0,1,1.1,1.9A8.6,8.6,0,0,1,215.1,169.75Zm-1.1,0a5.54,5.54,0,0,0-.6-2.6,4.41,4.41,0,0,0-7.8,0,5.26,5.26,0,0,0-.6,2.6,5.54,5.54,0,0,0,.6,2.6,4.36,4.36,0,0,0,1.6,1.7,4.65,4.65,0,0,0,2.3.6,4.14,4.14,0,0,0,2.3-.6,4.36,4.36,0,0,0,1.6-1.7A5.54,5.54,0,0,0,214,169.75Z"/></g><path class="cls-4" d="M119,63.85a9.78,9.78,0,0,1-2,10.9c-1.6,1.4-3.7,2.2-5.4,3.5s-3,3.6-2.2,5.5c.2.5.5,1,.7,1.5.3,1.4-1.1,2.6-2.1,3.6-2.3,2.4-2.8,6.6-.4,8.9,1.9,1.8,4.8,1.8,7.4,1.5,3.5-.3,7.1-.8,10.1-2.6a15.43,15.43,0,0,0,6.3-8.1,29.71,29.71,0,0,0,1.5-10.2c-.1-4-.7-8.2-3-11.4C127.4,63.75,122.9,61.85,119,63.85Z"/><path d="M112.9,99.65a8,8,0,0,1-5.5-1.7,5.35,5.35,0,0,1-1.6-3.9,7.71,7.71,0,0,1,2-5.4c.1-.2.3-.3.4-.5.9-.9,1.8-1.8,1.6-2.9a3.55,3.55,0,0,0-.4-.9l-.3-.6c-.9-2.1.6-4.5,2.3-5.9a15.76,15.76,0,0,1,2.4-1.5,14.92,14.92,0,0,0,2.9-2,9.53,9.53,0,0,0,1.9-10.6c-.1-.1,0-.3.1-.4,4.1-2.1,8.8.1,11.1,3.2,2,2.8,3,6.4,3.1,11.5a26.66,26.66,0,0,1-1.5,10.3,15.75,15.75,0,0,1-6.4,8.2c-3,1.9-6.7,2.4-10.2,2.7A3,3,0,0,1,112.9,99.65ZM119.3,64c1.6,3.8.7,8.4-2.1,10.9a19.57,19.57,0,0,1-3,2c-.8.5-1.6.9-2.4,1.5-1.6,1.2-2.9,3.4-2.1,5.2.1.2.2.3.2.5a4.18,4.18,0,0,1,.4,1c.3,1.4-.8,2.5-1.7,3.4-.1.2-.3.3-.4.4a7.58,7.58,0,0,0-1.9,5,4.91,4.91,0,0,0,1.5,3.5c1.8,1.7,4.5,1.7,7.2,1.5,3.4-.3,7-.8,10-2.6a16,16,0,0,0,6.2-7.9,29.87,29.87,0,0,0,1.5-10.1c-.1-5-1-8.5-3-11.2C127.4,64.25,123.1,62.15,119.3,64Z"/><path class="cls-4" d="M135.1,47.35c1.1,5.6,2.4,11.6,6.6,15.5,1.3,1.3,2.9,2.3,4.2,3.7a14,14,0,0,1,3,5.8c1.3,4,1.8,8.4.2,12.3s-5.5,7-9.7,6.4c-3.6-.5-6.5-3.6-7.7-7s-1.1-7.2-.9-10.9A137.65,137.65,0,0,1,135.1,47.35Z"/><path d="M140.4,91.35a2.77,2.77,0,0,1-.9-.1c-3.4-.4-6.5-3.3-7.9-7.2-1.3-3.6-1.1-7.4-.9-11a127.31,127.31,0,0,1,4.3-25.9c0-.1.1-.2.3-.2s.2.1.3.2c1.2,6.2,2.6,11.7,6.5,15.4l1.8,1.5a25,25,0,0,1,2.4,2.2,14.86,14.86,0,0,1,3.1,5.9c1.5,4.8,1.6,9,.2,12.4C147.8,88.65,144.1,91.35,140.4,91.35Zm-5.3-42.9a130.31,130.31,0,0,0-3.9,24.7c-.2,3.5-.4,7.3.9,10.8,1.3,3.7,4.3,6.4,7.5,6.8,3.7.5,7.8-2.2,9.4-6.3,1.3-3.3,1.3-7.4-.2-12.1a15.17,15.17,0,0,0-3-5.7,15.71,15.71,0,0,0-2.4-2.1l-1.8-1.5C137.7,59.45,136.3,54.35,135.1,48.45Z"/><path class="cls-5" d="M137,78.55a67,67,0,0,1-2.3-9.1,13.42,13.42,0,0,0-4-.1c-.6.1-1.3.2-1.6.7a1.93,1.93,0,0,0-.3,1c-.3,2.5-.5,4.9-.8,7.4v.6c.1.3.3.4.6.6A7.11,7.11,0,0,0,137,78.55Z"/><path d="M132.1,80.85a7,7,0,0,1-3.5-.9,1.58,1.58,0,0,1-.7-.7.85.85,0,0,1,0-.7l.8-7.4A2.66,2.66,0,0,1,129,70a2.17,2.17,0,0,1,1.8-.8,11.31,11.31,0,0,1,4.1.1.22.22,0,0,1,.2.2,67,67,0,0,0,2.3,9.1.37.37,0,0,1-.1.3A7.69,7.69,0,0,1,132.1,80.85Zm.4-11.3a10.87,10.87,0,0,0-1.8.1,2.25,2.25,0,0,0-1.4.6,1.49,1.49,0,0,0-.2.9l-.8,7.4V79a1,1,0,0,0,.5.4,7,7,0,0,0,7.9-.9,80.68,80.68,0,0,1-2.2-8.8C133.9,69.65,133.2,69.55,132.5,69.55Z"/><path class="cls-5" d="M136.8,48.05c.7,2.7,1.3,5.6,3.1,7.8.9,1.2,3.9,8.3-.9,12.6a11.75,11.75,0,0,1-9.9,2.9,10.94,10.94,0,0,1-7.9-7.3,2.84,2.84,0,0,1-4.4-.8,2.26,2.26,0,0,1,1.2-2.8,2,2,0,0,1,1.7-.1,22.86,22.86,0,0,0-1.8-6c1-3,3.7-5.4,6.6-7.2a12.32,12.32,0,0,1,3.1-1.4C130.9,45,136.1,45.35,136.8,48.05Z"/><path d="M131,72a12.1,12.1,0,0,1-1.9-.1,11.24,11.24,0,0,1-8-7.2,3.39,3.39,0,0,1-2.6.4,2.91,2.91,0,0,1-1.9-1.5,2.54,2.54,0,0,1,.1-1.9,2.37,2.37,0,0,1,1.3-1.3,2.05,2.05,0,0,1,1.5-.2,26,26,0,0,0-1.7-5.6v-.2c1.2-3.4,4.3-5.8,6.8-7.3a13.7,13.7,0,0,1,3.2-1.5c2.2-.6,5.8-.7,7.8.5a3,3,0,0,1,1.6,1.9c.1.3.2.7.3,1a18.49,18.49,0,0,0,2.8,6.8c1.2,1.5,3.9,8.6-1,13A12.53,12.53,0,0,1,131,72Zm-9.8-8.1c.1,0,.1.1,0,0,.2,0,.2.1.3.2,1.1,4,5.2,6.8,7.7,7.1a11.51,11.51,0,0,0,9.6-2.9c4.9-4.4,1.5-11.4.9-12.3a19,19,0,0,1-2.8-6.9c-.1-.3-.2-.7-.3-1h0a2.67,2.67,0,0,0-1.4-1.6c-2-1.1-5.3-1.1-7.4-.5a10.45,10.45,0,0,0-3,1.4c-2.3,1.4-5.3,3.8-6.5,6.9a28,28,0,0,1,1.8,6c0,.1,0,.2-.1.2a.37.37,0,0,1-.3.1,1.82,1.82,0,0,0-1.6.1,1.52,1.52,0,0,0-.9,1,1.76,1.76,0,0,0-.1,1.4,2.29,2.29,0,0,0,1.5,1.2,3,3,0,0,0,2.4-.5C121.1,64,121.2,63.85,121.2,63.85Z"/><path class="cls-5" d="M164.1,67.75a.91.91,0,0,1,.3-.7c.2-.2.5-.2.7-.3a25.87,25.87,0,0,1,9.2-.6c.3,0,.7.1.7.4a.76.76,0,0,1-.2.4,4.77,4.77,0,0,1-2.2,1.2,13,13,0,0,1-7.3.3C164.9,68.35,164.2,68.25,164.1,67.75Z"/><path d="M127.1,63.25A4.42,4.42,0,0,1,123,60h0a4.69,4.69,0,0,1,.3-3.3,4,4,0,0,1,2.4-2,3.86,3.86,0,0,1,3.1.5,5.51,5.51,0,0,1,2,2.7,4.3,4.3,0,0,1-2.7,5.3A3.4,3.4,0,0,1,127.1,63.25Zm-.4-8.2a2,2,0,0,0-.8.1,3.52,3.52,0,0,0-2.1,1.7,4.78,4.78,0,0,0-.3,2.9h0a3.67,3.67,0,0,0,4.4,2.8,3.72,3.72,0,0,0,2.3-4.7,4.63,4.63,0,0,0-1.7-2.4A5.26,5.26,0,0,0,126.7,55.05Z"/><path d="M137.5,59.45a4.2,4.2,0,0,1-2.1-.6,5.51,5.51,0,0,1-2-2.7,4.3,4.3,0,0,1,2.7-5.3,4.14,4.14,0,0,1,5,3.2,4.69,4.69,0,0,1-.3,3.3,4,4,0,0,1-2.4,2A2.77,2.77,0,0,1,137.5,59.45Zm-.4-8.2a2,2,0,0,0-.8.1,3.72,3.72,0,0,0-2.3,4.7,4.63,4.63,0,0,0,1.7,2.4,3.23,3.23,0,0,0,2.7.4,3.52,3.52,0,0,0,2.1-1.7,4.78,4.78,0,0,0,.3-2.9A4.1,4.1,0,0,0,137.1,51.25Z"/><path class="cls-5" d="M173.4,61a17.38,17.38,0,0,1-1.3-1.5c-.8-.9-1.5-1.8-2.3-2.7-.1,0-.2,0-.2.1a2.12,2.12,0,0,0-1.9-.4,10.59,10.59,0,0,1-1.2,1c-.2.1-.3.3-.5.4s-.2.1-.3.2h0l-.1.1a.1.1,0,0,0-.1.1,7.63,7.63,0,0,0-1.1.8.37.37,0,0,1-.3.1v.1a5.53,5.53,0,0,0,.6,3.6,15.55,15.55,0,0,1,1.2,5.9c1.8.6,3.1-.1,5-.4a11.7,11.7,0,0,0,2-.5,42.48,42.48,0,0,0,1.2-6A9.68,9.68,0,0,0,173.4,61Z"/><circle class="cls-6" cx="116" cy="40.75" r="7"/><path class="cls-4" d="M120.1,60.65a19.12,19.12,0,0,0,0-8.9c7.6,1,13.1-2,18.8-4.7a5.93,5.93,0,0,0-1.7-2.7A11,11,0,0,0,129,41a17.94,17.94,0,0,0-9.1,2.1,13.73,13.73,0,0,0-5.3,6.4,12.44,12.44,0,0,0-.7,7.2c.4,2.1,1.5,3.3,3.1,4.8.4-.5.7-.9,1.3-1A2.75,2.75,0,0,1,120.1,60.65Z"/><path d="M117.1,61.75c-.1,0-.1,0-.2-.1-1.5-1.5-2.8-2.8-3.2-5a12.87,12.87,0,0,1,.7-7.3,13.66,13.66,0,0,1,5.4-6.5,18.82,18.82,0,0,1,9.2-2.2,11.3,11.3,0,0,1,8.4,3.5,6.42,6.42,0,0,1,1.8,2.9c0,.1,0,.3-.1.3-.5.2-1,.5-1.5.7-5.1,2.4-10.3,4.9-17.2,4.1a20.67,20.67,0,0,1-.1,8.6c0,.1-.1.1-.1.2H120a3.19,3.19,0,0,0-1.6-.2,1.94,1.94,0,0,0-1.1.9v.1c-.1-.1-.1,0-.2,0Zm11.5-20.6a16.73,16.73,0,0,0-8.5,2.1,13.85,13.85,0,0,0-5.2,6.3,11.86,11.86,0,0,0-.7,7,8.5,8.5,0,0,0,2.8,4.5,2.07,2.07,0,0,1,1.3-.9,4.33,4.33,0,0,1,1.6.1,18.3,18.3,0,0,0,0-8.4c0-.1,0-.2.1-.2s.1-.1.2-.1c6.9.9,12.1-1.6,17.2-4l1.2-.6a5.36,5.36,0,0,0-1.6-2.4,11,11,0,0,0-8.1-3.4Z"/><path class="cls-5" d="M166.4,59.35a2.93,2.93,0,0,1,.7-2.2A5.38,5.38,0,0,0,168,56a1.06,1.06,0,0,0-.2-1.3.94.94,0,0,0-.9-.1,4.35,4.35,0,0,0-2,1.3,3.45,3.45,0,0,0-.9,1.2,3.08,3.08,0,0,0-.3,1.3,2,2,0,0,0,.1.8,1.27,1.27,0,0,0,.9.7,2.66,2.66,0,0,0,1.2.3C166.3,60.15,166.4,59.75,166.4,59.35Z"/><path d="M131.8,67.65c-.8,0-1.3-.6-1.9-1.2a2.65,2.65,0,0,1-.5-.6.37.37,0,0,1-.1-.3.22.22,0,0,1,.2-.2,20.9,20.9,0,0,1,5,0,.35.35,0,0,1,.2.1v.2a4.45,4.45,0,0,1-2.9,2Zm-1.7-1.8.2.2c.5.5,1,1.1,1.5,1.1h0A5.38,5.38,0,0,0,134,66,17,17,0,0,0,130.1,65.85Z"/><path class="cls-5" d="M122,109.85c-.5-5.6-.9-9.7-1.4-15.3-.7,3.8-2.7,11.3-3.6,15.4,8.1.3,13.4.5,20.4,1.4a10.56,10.56,0,0,0-3,4,19.53,19.53,0,0,0-1,4.8c-8.6-.3-17.1-.4-25.6-.2a5.33,5.33,0,0,1-2.8-.4,3.71,3.71,0,0,1-1.3-1.7c-.7-1.8-.3-3.9.2-5.8,1.3-5.7,3.8-16.4,6.2-21.7a21.48,21.48,0,0,1,3.9-6.3c3.6-3.8,9-5.2,14.2-6.4.2,1.3,1.6,2.1,2.9,2.3a6,6,0,0,0,3.5-.2,4.36,4.36,0,0,0,2.5-2.9,38.57,38.57,0,0,1,8.3-.1,10.83,10.83,0,0,1,6.1,3.7c3.2,3.5,4.9,6.5,8.3,10.6a62.2,62.2,0,0,0,4.5-23.5c.7,1.7,10.1,1.5,11.1-1.1-.7,9.8-1.3,19.8-4.3,29.1a23.93,23.93,0,0,1-4.3,8.4c-2.1,2.4-5.1,4.2-8.2,4.1s-5.2-1-7.2-4.9a6.08,6.08,0,0,0-.9,1.8c0,4.2.4,9.1.4,13.2-9.3,1.5-19.1.2-28.5-.4C122.2,115.05,122.2,112.25,122,109.85Z"/><path d="M126.9,58a.66.66,0,0,1,.5-.8.63.63,0,0,1,.8.4.66.66,0,0,1-.5.8A.68.68,0,0,1,126.9,58Z"/><path d="M136.1,54.75a.66.66,0,0,1,.5-.8.63.63,0,0,1,.8.4.66.66,0,0,1-.5.8A.68.68,0,0,1,136.1,54.75Z"/><path d="M149.6,117.75a.3.3,0,0,1,0-.6h.8a37.61,37.61,0,0,1-.3-6c0-1.9,0-4-.2-6.1,0-.1.1-.3.2-.3s.3.1.3.2c.2,2.1.2,4.2.2,6.1a39.59,39.59,0,0,0,.3,6.2c0,.1,0,.2-.1.2s-.1.1-.2.1l-1,.2Z"/><path class="cls-5" d="M84.4,18.15v121.4H187.3V18.15Zm94.8,97.9H91.9V30.65h87.3Z"/><path d="M187.3,139.85H84.4a.32.32,0,0,1-.3-.3V18.15a.32.32,0,0,1,.3-.3H187.3a.32.32,0,0,1,.3.3v121.4Q187.45,139.85,187.3,139.85Zm-102.6-.5H187V18.45H84.7Zm94.5-23H91.9a.32.32,0,0,1-.3-.3V30.65a.32.32,0,0,1,.3-.3h87.3a.32.32,0,0,1,.3.3v85.4A.27.27,0,0,1,179.2,116.35Zm-87-.5H179V31.05H92.2Z"/><path d="M134.8,61.45c-.1,0-.1,0-.2-.1a.3.3,0,0,1,0-.4l.7-.7.1-.1-.1-.1a4.11,4.11,0,0,1-2-3c0-.1.1-.3.2-.3s.3.1.3.2a3.28,3.28,0,0,0,1.8,2.6c.1.1.4.2.4.5s-.2.4-.2.5l-.7.7C135,61.45,134.9,61.45,134.8,61.45Zm.6-1.2Z"/><path class="cls-5" d="M132.6,118.45a21.57,21.57,0,0,1,5.1.6,4.92,4.92,0,0,1,1.7.6,5.11,5.11,0,0,1,2.2,3.1l.3.9c.2.3.4.5.7.5s.6-.3.5-.5a2,2,0,0,1,.4.8.9.9,0,0,0,.6.6c.5.1.9-.4,1-.9a5.7,5.7,0,0,0,0-2.6,11,11,0,0,0-1.1-3.5,3.7,3.7,0,0,1,2,2.4,30.28,30.28,0,0,1,.6,3.2c.1.4.3.9.7.8s.5-.4.6-.7a10.24,10.24,0,0,0-.1-4.6,15.35,15.35,0,0,1,2.1,2.9c.1.2.3.4.4.6a.88.88,0,0,0,.7.1c.2-.1.3-.5.3-.8a7.52,7.52,0,0,0-2.3-4.8,16.89,16.89,0,0,0-3.6-3,8,8,0,0,0-4.5-1.2c-1.8-.2-3.5-.5-5.3-.7-.3,0-.6-.1-.9.1a.78.78,0,0,0-.4.4A7.89,7.89,0,0,0,132.6,118.45Z"/><path d="M130,56.75h-.1c-.1-.1-.2-.2-.1-.4a3.07,3.07,0,0,1,2.4-1.7,1.42,1.42,0,0,1,1.6.7c.1.1,0,.3-.2.4s-.3,0-.4-.2-.6-.4-1-.3a2.89,2.89,0,0,0-2,1.4A.35.35,0,0,1,130,56.75Z"/><path d="M120.3,60.65a.22.22,0,0,1-.2-.2c-.1-.1,0-.3.1-.4l2.8-1.3c.1-.1.3,0,.4.1s0,.3-.1.4l-2.8,1.3A.35.35,0,0,0,120.3,60.65Z"/><path d="M142.6,124.45q-.75,0-1.2-1.2v-.1a6.77,6.77,0,0,0-1.2-2.4,5.35,5.35,0,0,0-2.6-1.4,18.2,18.2,0,0,0-3.8-.4H133c-.1,0-.3-.1-.2-.3s.1-.3.3-.2h.8a19.1,19.1,0,0,1,3.9.4,5.47,5.47,0,0,1,2.8,1.6,6.38,6.38,0,0,1,1.3,2.6v.1c.1.3.3.9.7.8a.35.35,0,0,0,.2-.1,1.5,1.5,0,0,0,.2-1,9.63,9.63,0,0,0-1.3-3.7c-.1-.1,0-.3.1-.4s.3,0,.4.1a9.49,9.49,0,0,1,1.3,3.9,1.82,1.82,0,0,1-.3,1.4q0,.3-.6.3Z"/><path d="M144.5,125.25a1.07,1.07,0,0,1-.6-.2,3.38,3.38,0,0,1-.8-1.9c0-.1.1-.3.2-.3s.3.1.3.2c.1,1,.4,1.4.6,1.5s.3.2.4.1a.76.76,0,0,0,.2-.5,10.09,10.09,0,0,0-.9-6.1c-.1-.1,0-.2.1-.3a.19.19,0,0,1,.3,0,4.76,4.76,0,0,1,2.1,2.5,11.43,11.43,0,0,1,.7,3.2,1.27,1.27,0,0,0,.1.6c.1.1.2.2.3.2s.2-.2.3-.5a7,7,0,0,0-1.4-6.5.28.28,0,0,1,.4-.4,7.37,7.37,0,0,1,1.5,7c-.1.5-.4.8-.7.8a.69.69,0,0,1-.8-.5,1.85,1.85,0,0,1-.2-.7,14.5,14.5,0,0,0-.6-3,7.12,7.12,0,0,0-1.1-1.7,10.45,10.45,0,0,1,.6,5.5,1.62,1.62,0,0,1-.5.9A.9.9,0,0,1,144.5,125.25Z"/><path d="M150.9,123.15h0a.93.93,0,0,1-.7-.4h0a7.05,7.05,0,0,0-.7-.9c-.9-1.2-1.3-1.8-1.9-2.5a.28.28,0,0,1,.4-.4,22.61,22.61,0,0,1,1.9,2.5,5.5,5.5,0,0,0,.7.9h0a.22.22,0,0,0,.2.2c.1,0,.1,0,.2-.1a1.25,1.25,0,0,0,.1-.9c-.4-2.5-2.2-4.4-4.7-6.5a6.45,6.45,0,0,0-2.3-1.4,10.89,10.89,0,0,0-2.6-.5l-3-.3-3-.3c-.1,0-.3-.2-.2-.3s.2-.3.3-.2l3,.3,3,.3a8.76,8.76,0,0,1,2.7.6,9.72,9.72,0,0,1,2.5,1.5c2.6,2.2,4.4,4.2,4.9,6.9,0,.3,0,1.1-.3,1.3C151.3,123.15,151.1,123.15,150.9,123.15Z"/><path d="M148.8,106.85c-.1,0-.1,0-.2-.1a.6.6,0,0,1-.1-.4c1.6-2.1,3.2-4.2,4.7-6.4.2-.3.4-.5.4-.8a2.54,2.54,0,0,0-.2-.7L149,87.85c-.1-.1,0-.3.1-.4s.3,0,.4.1l4.4,10.6a2.39,2.39,0,0,1,.2.9,1.6,1.6,0,0,1-.5,1c-1.5,2.1-3.1,4.3-4.7,6.4C148.9,106.85,148.8,106.85,148.8,106.85Z"/><path class="cls-5" d="M133.5,110.85l-6.8-.6-3.3-.3c-.5,0-1-.1-1.4-.1v.3c-1.6-.1-3.2-.1-5-.2.2-.8.4-1.8.6-2.8h-1.7c-3.6,0-7.3,0-10.9.1-.4,1.8-.8,3.5-1.1,4.9-.4,1.9-.9,4-.2,5.8a3.71,3.71,0,0,0,1.3,1.7,4.4,4.4,0,0,0,2.8.4c8.4-.3,16.9-.1,25.5.2a8.26,8.26,0,0,1,.2-3.1c.3-.9.6-1.8,1-2.7a11.22,11.22,0,0,1,1.6-2.2,11.41,11.41,0,0,1,1.1-1.1A22.18,22.18,0,0,1,133.5,110.85Z"/><path d="M133.3,120.45h0c-10.4-.3-18.3-.4-25.6-.2a5,5,0,0,1-2.9-.5,3.31,3.31,0,0,1-1.4-1.8c-.8-2-.3-4.2.2-5.9,1-4.4,3.7-16.2,6.2-21.8a22.06,22.06,0,0,1,4-6.4c3.6-3.7,8.6-5.1,14.3-6.5h.2c.1,0,.1.1.1.2.2,1.2,1.5,1.9,2.7,2.1a5.45,5.45,0,0,0,3.3-.2,4.28,4.28,0,0,0,2.4-2.8.22.22,0,0,1,.2-.2,38.73,38.73,0,0,1,8.3-.1c2.9.4,5.4,2.8,6.3,3.8a71.94,71.94,0,0,1,4.6,5.7,56,56,0,0,0,3.5,4.5,60.79,60.79,0,0,0,4.3-23c0-.1.1-.2.2-.3s.3.1.3.2c.2.5,1.4,1,3.8,1,3,0,6.3-.8,6.7-2.1,0-.1.2-.2.3-.2s.2.1.2.3c-.6,9.7-1.3,19.7-4.3,29.2a24.39,24.39,0,0,1-4.3,8.5,11.46,11.46,0,0,1-8.5,4.2c-3.2-.1-5.4-.9-7.3-5.1-.1-.1,0-.3.1-.4s.3,0,.4.1c1.8,3.9,3.8,4.7,6.8,4.8a10.41,10.41,0,0,0,8-4,23.27,23.27,0,0,0,4.2-8.3c2.9-9.1,3.6-18.8,4.2-28.1-1.4,1.2-4.5,1.6-6.6,1.6a8.54,8.54,0,0,1-3.8-.7A62.21,62.21,0,0,1,159.9,91a.22.22,0,0,1-.2.2.37.37,0,0,1-.3-.1c-1.5-1.8-2.7-3.4-3.8-4.9a69.73,69.73,0,0,0-4.5-5.7c-.9-1-3.2-3.2-6-3.6a36,36,0,0,0-8,.1,4.71,4.71,0,0,1-2.6,2.9,6.17,6.17,0,0,1-3.6.2,4,4,0,0,1-3-2.3c-5.5,1.3-10.4,2.7-13.8,6.3a19.48,19.48,0,0,0-3.9,6.3c-2.4,5.5-5.1,17.2-6.1,21.7-.4,1.7-.9,3.8-.2,5.6a2.78,2.78,0,0,0,1.2,1.5,4.62,4.62,0,0,0,2.6.4c7.3-.2,15-.2,25.2.1a9,9,0,0,1,.7-4.7v-.1c.5-1.3,1.1-2.8,2.6-3.5-6.2-.8-11.1-1-19.3-1.3-.1,0-.2,0-.2-.1s-.1-.1-.1-.2c.4-1.8,1-4.2,1.6-6.7.8-3.2,1.6-6.5,2-8.7,0-.1.1-.2.3-.2s.2.1.3.2c.2,2.8.5,5.3.7,7.6s.5,4.8.7,7.6v.1c5.7.2,9.8.6,15.1,1.2.1,0,.2.1.2.3s-.1.2-.2.3c-2,.5-2.7,2.2-3.2,3.6v.1c-.6,1.6-1,3.7-.6,4.7v.3C133.5,120.45,133.4,120.45,133.3,120.45Zm-16-10.7c1.6.1,3,.1,4.4.2-.2-2.8-.5-5.3-.7-7.6-.2-1.8-.4-3.7-.5-5.8-.4,2-1,4.4-1.6,6.8S117.7,108.05,117.3,109.75Z"/><path d="M137.9,112.75h0a.32.32,0,0,1-.3-.3c0-.2,0-.5-.2-.6l-.1-.1c-.1,0-.3,0-.3-.2s0-.3.2-.3.5.1.7.3a1.93,1.93,0,0,1,.3,1C138.1,112.65,138,112.75,137.9,112.75Z"/><path d="M133.8,120.65a.75.75,0,0,1-.8-.5c-.1-.1,0-.3.1-.4s.3,0,.4.1.2.2.4.2a1.33,1.33,0,0,0,.9-.6,6.47,6.47,0,0,0,.8-.9.29.29,0,1,1,.5.3c-.3.3-.6.7-.9,1a1.85,1.85,0,0,1-1.2.7C133.9,120.65,133.9,120.65,133.8,120.65Z"/><path d="M164.1,67.85c-.1,0-.3-.1-.3-.2s0-.4.2-.5l.3-.3a5.64,5.64,0,0,1,1.8-.5c.1,0,.3.1.3.2s-.1.3-.2.3a4.58,4.58,0,0,0-1.6.4.22.22,0,0,0-.2.2l-.1.1c.1.1,0,.3-.2.3Z"/><path d="M175.2,66.85h0a.27.27,0,0,1-.3-.3v-.1c-.1,0-.1-.1-.2-.1a1.7,1.7,0,0,0-.7-.1.3.3,0,1,1,0-.6,2.77,2.77,0,0,1,.9.1.76.76,0,0,1,.4.2c.2.1.2.3.2.5S175.3,66.85,175.2,66.85Z"/><path d="M131.5,82.55a5.38,5.38,0,0,1-4.6-2.7c-.1-.1,0-.3.1-.4s.3,0,.4.1a4.6,4.6,0,0,0,4.5,2.4c.1,0,.3.1.3.2s-.1.3-.2.3A1.34,1.34,0,0,1,131.5,82.55Z"/><path d="M127.1,82.75h0a2.61,2.61,0,0,1-1.8-2c0-.1.1-.3.2-.3s.3.1.3.2a2.14,2.14,0,0,0,1.3,1.6.52.52,0,0,1,.2.4C127.3,82.75,127.2,82.75,127.1,82.75Z"/><path d="M114.6,46.65h0c-.2-.1-.3-.2-.3-.4a6.26,6.26,0,0,1,1.6-2.5,13,13,0,0,1,2.3-1.8c.1-.1.3,0,.4.1s0,.3-.1.4a12.82,12.82,0,0,0-2.2,1.7,6.51,6.51,0,0,0-1.5,2.3C114.9,46.65,114.7,46.65,114.6,46.65Z"/><path d="M158.4,93.35c-.1,0-.1,0-.2-.1a.3.3,0,0,1,0-.4,8.57,8.57,0,0,0,1.4-2.5c.1-.1.2-.2.3-.2s.2.2.2.3a10,10,0,0,1-1.5,2.7C158.6,93.35,158.5,93.35,158.4,93.35Z"/><path d="M113.9,110.55c-.1,0-.2-.1-.3-.2s.1-.3.2-.3a17.31,17.31,0,0,1,4-.2.3.3,0,1,1,0,.6,12.76,12.76,0,0,0-3.9.1Z"/><path d="M120.6,63a.22.22,0,0,1-.2-.2,7.42,7.42,0,0,1-.5-2.5.32.32,0,0,1,.3-.3h0a.32.32,0,0,1,.3.3,5.93,5.93,0,0,0,.5,2.3c.1.1,0,.3-.1.4Z"/><g class="cls-7"><path d="M121.9,40.15c-.2,0-.4.1-.7.1s-.7.3-1,.4a14,14,0,0,0-4.8,3.9c-.3.4-.6.9-.9,1.4a1.8,1.8,0,0,0-.4.9.8.8,0,0,0,1.5.4,10.67,10.67,0,0,1,3-3.7,10,10,0,0,1,2.3-1.5c.3-.1.6-.3.9-.4s.5-.2.6-.5A.65.65,0,0,0,121.9,40.15Z"/></g><g class="cls-7"><path d="M136.5,48.65a.59.59,0,0,0-.7-.1,1.33,1.33,0,0,0-.5.3c-.6.3-1.1.6-1.7.9a24.81,24.81,0,0,1-3.5,1.3,27.21,27.21,0,0,1-4.5,1,13.86,13.86,0,0,1-4.5-.3c-.3,0-.6-.2-.9,0s-.2.8.2.8a18.3,18.3,0,0,0,5.7.4,19.09,19.09,0,0,0,3.3-.6,25.82,25.82,0,0,0,2.6-.8c1.3-.5,2.6-.9,3.8-1.5l.6-.3c.1-.1.2-.1.3-.3A.78.78,0,0,0,136.5,48.65Z"/></g><g class="cls-7"><path d="M136,74.55c-.1-.2-.1-.5-.2-.7a6.47,6.47,0,0,1-.4-1.3c-.1-.4-.2-.8-.3-1.3v-.2c0-.1,0-.2.1-.2-.3-.2-.7.1-1,.2a4.05,4.05,0,0,1-1,.3,13.55,13.55,0,0,1-2,.2c-.1,0-.2.1-.3.2a4.88,4.88,0,0,0-.7-.3c-.1-.1-.3-.1-.4-.2h-1v.4c0,.1-.1.3-.1.4a.1.1,0,0,1,.1.1c1.2.6,2.5,1.2,3.8,1.9.6.3,1.2.7,1.8,1,.3.1.5.3.8.3h.4c.2-.1.4-.2.4-.4l.1-.1C136.1,74.75,136,74.65,136,74.55Z"/></g><g class="cls-7"><path d="M163,106.25c-.3,0-.2,0-.4.1a6.34,6.34,0,0,1-2.4.3,10.7,10.7,0,0,1-3.3-.7,1.33,1.33,0,0,1-.5-.3c-.1-.1-.5-.3-.6-.4a3,3,0,0,1-.8-.8h0a19.65,19.65,0,0,1-1.3-2.5v-.1c-.1-.2-.1-.4-.2-.6s-.1-.2-.2-.2-.1.2-.2.2a.1.1,0,0,1-.1.1l-.2.2c-.4.5-.8,1.1-1.2,1.6,0,.1,0,.1.1.2a8.65,8.65,0,0,0,.7,1,4.74,4.74,0,0,0,2.8,2.9,13.52,13.52,0,0,0,2.9.5,10.87,10.87,0,0,0,1.8-.1h1.3a2.2,2.2,0,0,0,.8-.1.55.55,0,0,0,.3-.5c.2-.1.4-.1.6-.2s.3-.1.4-.2A.78.78,0,0,0,163,106.25Z"/></g><g class="cls-7"><path d="M175.2,66.45a.32.32,0,0,0-.3-.3h-.1c-.1-.3-.4-.4-.6-.2l-.6.6-.2.2c-.3.1-.7.2-1.1.3a4.19,4.19,0,0,1-1.5.4c-.6.1-.6.1-1.4.2a17.3,17.3,0,0,1-2.7.4c-1.1.3.3-1.8-.6-1.6a11.15,11.15,0,0,0-1.3.3c-.1.1-.3.2-.4.3v.1h-.1c-.4,0-.5.6-.2.8a7.14,7.14,0,0,0,3.1.8c.4,0,.7-.1,1.1-.1h1.1a17,17,0,0,0,2.2-.4h0a3.55,3.55,0,0,0,1-.2,4.1,4.1,0,0,0,2.2-1.2c0-.1.1-.1.1-.2h0C175.2,66.75,175.2,66.55,175.2,66.45Z"/></g><g class="cls-7"><path d="M171.5,59h0C171.6,58.85,171.7,58.85,171.5,59Z"/></g><path class="cls-5" d="M161.5,53.55a91.1,91.1,0,0,1,7.2,9.2c1.1,1.7,2.4,3.6,4.3,4.4a2,2,0,0,0,1.3.2,2,2,0,0,0,1.5-1.2,4.43,4.43,0,0,0,.3-2,2.82,2.82,0,0,0-.4-1.5,4.81,4.81,0,0,0-.9-1.1c-1.1-.9-.7-1.3-.9-2.2-.6-2.7-4.5-2.7-6.1-4.9a4.81,4.81,0,0,0,1.1-.9,2.23,2.23,0,0,0,.6-1.3,3.86,3.86,0,0,0-.8-2,77.25,77.25,0,0,1,15.8-3.7c-1.2-2.3-2.1-4.7-3.1-7.1-1.3-3.3-2.6-6.5-4-9.6a60.7,60.7,0,0,1-11.6,8.5,90.86,90.86,0,0,1-8.6,4.9c-1.6.7-3.4,1.5-4.1,3.1a4.2,4.2,0,0,0,0,3.3,13.5,13.5,0,0,0,1.6,2.9,3.41,3.41,0,0,0,2.1,1.8A7.62,7.62,0,0,0,161.5,53.55Z"/><path class="cls-5" d="M183.5,32.65a48.43,48.43,0,0,0,3.2,7.9,2.59,2.59,0,0,0,1.8-1.6,5.07,5.07,0,0,0,.4-2.4,3.4,3.4,0,0,0-.1-1,3,3,0,0,0-.4-.8,5.72,5.72,0,0,0-1.5-1.6A3.78,3.78,0,0,0,183.5,32.65Z"/><path class="cls-4" d="M184.2,47c-2.3-5.8-4.6-11.5-6.9-17.4a11.3,11.3,0,0,0,2.9-4.3s9.2,22.2,9.2,22.1A9.14,9.14,0,0,0,184.2,47Z"/><path d="M165.5,51.75a.22.22,0,0,1-.2-.2,82.44,82.44,0,0,1-4-10.4.37.37,0,0,1,.1-.3c1.1-.7,2.3-1.4,3.4-2.1,6.5-4,13.3-8.1,15.3-13.8a.22.22,0,0,1,.2-.2c.1,0,.2.1.3.2l9.4,22.4c.1.1,0,.3-.1.4h-.2c-.1,0-.2.1-.2,0-6.6-2.6-23.8,3.9-24,4Zm-3.7-10.6c1.1,3.4,2.4,6.7,3.8,9.9,2.2-.8,17.1-6.2,23.6-4l-8.9-21.4c-2.3,5.6-8.9,9.6-15.2,13.5C164,39.85,162.8,40.45,161.8,41.15Z"/><path d="M184.1,46.75c-.1,0-.2-.1-.3-.2l-6.6-16.4c-.1-.1,0-.3.2-.4s.3,0,.4.1l6.6,16.4c.1.1,0,.3-.2.4C184.2,46.75,184.2,46.75,184.1,46.75Z"/><path d="M187,40.85c-.1,0-.2,0-.2-.1s0-.3.1-.4a4.3,4.3,0,0,0,1.8-2.6,4.1,4.1,0,0,0-.6-3.1,5.73,5.73,0,0,0-1.1-1.1,3.19,3.19,0,0,0-3-.4c-.1.1-.3,0-.4-.1s0-.3.1-.4a3.38,3.38,0,0,1,3.5.5,8,8,0,0,1,1.3,1.3,4.94,4.94,0,0,1,.7,3.6,4.77,4.77,0,0,1-2,3C187.1,40.85,187,40.85,187,40.85Z"/><path d="M157.6,55a2.77,2.77,0,0,1-1.3-.3A5.17,5.17,0,0,1,154,52a9.65,9.65,0,0,1-1.3-3.1,4.33,4.33,0,0,1,.6-3.4,4.93,4.93,0,0,1,1.9-1.4c2-1.1,4-2.1,6.3-3.2.1-.1.3,0,.4.1s0,.3-.1.4c-2.3,1.1-4.3,2.1-6.3,3.2a4.31,4.31,0,0,0-1.7,1.3,3.52,3.52,0,0,0-.5,2.9,11,11,0,0,0,1.2,2.9,5.56,5.56,0,0,0,2.1,2.4c1.2.6,2.7,0,4.1-.7a26.78,26.78,0,0,0,2.4-1.2l2.4-1.2c.1-.1.3,0,.4.1s0,.3-.1.4a26.78,26.78,0,0,0-2.4,1.2l-2.4,1.2A8.4,8.4,0,0,1,157.6,55Z"/><path d="M173.8,67.85a5,5,0,0,1-3.2-1.7,20.45,20.45,0,0,1-2.5-3.5,5.58,5.58,0,0,0-.5-.8,45,45,0,0,0-6.4-8,.28.28,0,1,1,.4-.4,45.64,45.64,0,0,1,6.4,8.1,5.58,5.58,0,0,0,.5.8,20.76,20.76,0,0,0,2.4,3.4c.5.6,1.9,1.9,3.4,1.4,1.3-.4,1.9-2.2,1.5-3.5s-1.1-1.8-2.2-2.6c-.2-.2-.4-.3-.6-.5l-.1-.1a28.89,28.89,0,0,1-5.1-5.3,8.91,8.91,0,0,1-1.3-2.4c-.3-.5-.5-1-.8-1.5-.1-.1,0-.3.1-.4s.3,0,.4.1c.3.5.5,1,.8,1.5a11.74,11.74,0,0,0,1.3,2.3,31.56,31.56,0,0,0,5.1,5.2l.1.1c.2.2.4.3.6.5a6.09,6.09,0,0,1,2.4,2.9c.4,1.5-.2,3.6-1.8,4.1A1.9,1.9,0,0,1,173.8,67.85Z"/><path d="M167.9,54.75c-.1,0-.1,0-.2-.1a.3.3,0,0,1,0-.4l.9-.9a1.38,1.38,0,0,0,.3-.4,1.26,1.26,0,0,0,0-1.2,4.13,4.13,0,0,0-.7-1.1.28.28,0,1,1,.4-.4,5.67,5.67,0,0,1,.8,1.3,1.76,1.76,0,0,1-.1,1.6c-.1.2-.3.3-.4.5l-.9.9C168.1,54.75,168,54.75,167.9,54.75Z"/><path d="M155.3,47.55a.35.35,0,0,1-.2-.1c-.1-.1,0-.3.1-.4,1.7-.9,3.6-1.7,5.4-2.5.1-.1.3,0,.4.2s0,.3-.2.4a50.54,50.54,0,0,0-5.3,2.4C155.4,47.45,155.4,47.55,155.3,47.55Z"/><path d="M156.4,49.75a.22.22,0,0,1-.2-.2c-.1-.1,0-.3.1-.4,1.8-.8,3.6-1.5,5.4-2.3.1-.1.3,0,.4.2s0,.3-.2.4c-1.8.7-3.6,1.5-5.4,2.2Z"/><path d="M157.4,52.15a.35.35,0,0,1-.2-.1c-.1-.1,0-.3.1-.4a41.65,41.65,0,0,1,5.4-2.3c.1-.1.3,0,.3.2s0,.3-.2.3c-1.8.7-3.6,1.4-5.4,2.3Z"/><path d="M188.7,31.85c-.1,0-.1,0-.2-.1a.3.3,0,0,1,0-.4,11.45,11.45,0,0,0,3.2-5.9c0-.1.2-.2.3-.2s.2.2.2.3a11.08,11.08,0,0,1-3.3,6.2C188.9,31.85,188.8,31.85,188.7,31.85Z"/><path d="M190.4,34.15c-.1,0-.2,0-.2-.1s0-.3.1-.4a17.68,17.68,0,0,1,4.1-2.1c.1-.1.3,0,.4.2s0,.3-.2.4a15.3,15.3,0,0,0-4,2.1C190.5,34.05,190.5,34.15,190.4,34.15Z"/><path d="M197.6,38h-.1a12.91,12.91,0,0,0-6.1-1.3.3.3,0,1,1,0-.6,12.93,12.93,0,0,1,6.4,1.3c.1.1.2.2.1.4S197.7,38,197.6,38Z"/><path d="M181.4,45.65h0l-2-3.7v-.1h.1l1.9,3.7c.1,0,.1.1,0,.1Z"/><path d="M179.7,46.15h0l-1.1-1.9v-.1h.1l1,1.8c.1.1.1.1,0,.2Z"/><path d="M177.9,46.85h0l-.8-1.4v-.1h.1l.8,1.4a.1.1,0,0,0-.1.1Z"/><path d="M175.8,47.25h0l-.6-1.1v-.1h.1l.5,1.1c.1,0,.1.1,0,.1Z"/><g class="cls-7"><path d="M189,37a.44.44,0,0,0-.7-.2.76.76,0,0,0-.2.5,4.36,4.36,0,0,1-1,1.5c-.4.4-.3.2-.7.6-.4.6.4,1.3.9.8a4.39,4.39,0,0,0,1.6-2.1,1.85,1.85,0,0,0,.2-.7A.76.76,0,0,1,189,37Z"/></g><g class="cls-7"><path d="M188.8,45.75a11.72,11.72,0,0,0-2.7-.4,32.31,32.31,0,0,0-6.2.4,25.12,25.12,0,0,1-2.7.4,18.92,18.92,0,0,0-2.3.5c-2.3.6-4.6,1-6.8,1.8a57.87,57.87,0,0,0-6.7,3.1,12,12,0,0,1-3.6,1.5A5.85,5.85,0,0,1,156,53a.63.63,0,0,0-.8.3.57.57,0,0,0,.5.8,13.8,13.8,0,0,0,2,.3c1.6,0,2.9-.9,4.3-1.5.1-.1.3-.1.4-.2a2.09,2.09,0,0,0-.6.4c-.4.2-.7.6-.4,1a.71.71,0,0,0,.6.3.66.66,0,0,0,.6.1c.4-.2.7-.3,1.1-.5a6.37,6.37,0,0,1,.9-.2h.3a1.23,1.23,0,0,1,.5.2c.1.1.2.1.3.2l1.4,1.4c.2.3.5.5.7.8l.4.4.1.1c.2.2.4.3.6.5s.5.5.8.7a6,6,0,0,0,.7.6c.2.2.5.4.7.2a.4.4,0,0,0,.2-.4c-.1,0-.1-.1-.2-.1a4.62,4.62,0,0,1-.7-.7,18.48,18.48,0,0,1-1.4-1.4,19,19,0,0,1-2.2-3.3c-.1-.1,0-.2.1-.3a.52.52,0,0,1-.2-.4,10.46,10.46,0,0,1,1.7-.4h0a.68.68,0,0,0,.8-.4.65.65,0,0,0-.9-.8h-.1c-.2,0-.4.1-.6.1a5.93,5.93,0,0,1,1.4-.5c1.8-.6,3.3-1,5.3-1.5,1.3-.3,1.8-.6,2.9-.8,1.5-.3,2.9-.6,4.4-.8.5-.1.9-.1,1.4-.2s.4,0,.6-.1.2-.1.3-.2h0a14,14,0,0,1,2.9,0,5.41,5.41,0,0,1,1.9.3h.1a.66.66,0,0,0,.7-.2C189.8,46.35,189.3,46,188.8,45.75ZM166,51.45a.1.1,0,0,1-.1-.1c.1,0,.1,0,.2-.1A.35.35,0,0,1,166,51.45Z"/></g><g class="cls-7"><path d="M138.1,112c-.1-.2-.4-.2-.6-.3a4.05,4.05,0,0,0-1.1,0c-.2,0-.4,0-.5.2a.35.35,0,0,0-.1.5c-.2.1-.3.3-.5.5a8.52,8.52,0,0,0-1.7,2.9c-.2.8-.2.9-.4,1.6a4.57,4.57,0,0,0,0,2.6c.4.7,1.2.3,1.7-.1.1-.1.2-.1.2-.2.3-.2.5-.5.3-.8a.48.48,0,0,0-.6-.2c-.2,0-.5,0-.6.2s-.1.1-.1.2h0a4.14,4.14,0,0,1,.2-1.5,8.81,8.81,0,0,1,.9-2.6,10.38,10.38,0,0,1,1.2-1.7,2.09,2.09,0,0,1,.6-.4c.1-.1.3-.1.5-.2h.2A.45.45,0,0,0,138.1,112Z"/></g><g class="cls-7"><path d="M119.2,98.75c-.4,0-.4.4-.5.7-.2.6-.3,1.2-.5,1.8a24.47,24.47,0,0,1-1.5,4,20.7,20.7,0,0,1-1.5,3c-.1.3-.3.5-.4.8s-.2.3-.2.5a.75.75,0,0,0,.1.5,10.28,10.28,0,0,1,1.7-.1.1.1,0,0,0,.1-.1,4.24,4.24,0,0,0,1.2-2.4c.1-.2.1-.5.2-.7s.1-.3,0-.4-.1-.1-.2-.2c.4-1.2.8-2.4,1.2-3.5.3-.9.4-1.8.6-2.6,0-.3.1-.6.1-.8S119.4,98.85,119.2,98.75Z"/></g><g class="cls-7"><path d="M139.4,120a9.31,9.31,0,0,0-2.4-.9h-.2a1.88,1.88,0,0,0-.8.2c-.5.4-1,1-1.1,1h0c-.1,0-.1.1-.2.1a.6.6,0,0,1-.4.1c-.7,0-1.5-.1-2.2-.1a17.7,17.7,0,0,0-2.3-.1,22.75,22.75,0,0,0-2.6-.2c-1.5-.2-3.1-.1-4.7-.2-1.2-.1-2.5,0-3.7,0-2.1,0-4.3.1-6.4.2a26.91,26.91,0,0,1-5.7-.1c-.3-.1-.7-.3-1-.2a.44.44,0,0,0,.1.8,16.28,16.28,0,0,0,3,.7,22.43,22.43,0,0,0,3.8.1c1.2-.1,2.4-.1,3.6-.1s2.6,0,3.9,0h2.3c1.1.1,2.2,0,3.3.1,1.5.1,3,.3,4.5.3a16.2,16.2,0,0,1,2.2.1,5.66,5.66,0,0,0,2.9-.2,3.23,3.23,0,0,0,1.4-1.2h0a5.07,5.07,0,0,1,.9.2,7.26,7.26,0,0,1,3.1,1.7c.3.4.2.2.4.5.1.1.1.3.2.3a.63.63,0,0,0,1-.5C142.1,121.45,140.4,120.35,139.4,120Z"/></g><path class="cls-5" d="M174.4,61.15c.2-.3.2,0,.3-.4a2.44,2.44,0,0,0,0-1.2,1.07,1.07,0,0,0-.9-.7,1.85,1.85,0,0,0-1.2.7,9.51,9.51,0,0,0-1.5,2c-.1.3-.3.6-.1.9a.76.76,0,0,0,.4.2,2.11,2.11,0,0,0,1.3-.5,1.76,1.76,0,0,1,.4-.5c.1-.1.4-.3.4-.5C173.8,60.65,173.8,60.25,174.4,61.15Z"/><path class="cls-5" d="M173.2,59.65a3.7,3.7,0,0,0,.5-1.1,2.44,2.44,0,0,0,0-1.2,1.07,1.07,0,0,0-.9-.7,1.85,1.85,0,0,0-1.2.7,9.51,9.51,0,0,0-1.5,2c-.1.3-.3.6-.1.9a.76.76,0,0,0,.4.2c.5,0,.9.2,1.2-.2C171.8,60.05,173.2,58.85,173.2,59.65Z"/><path class="cls-5" d="M172.2,57.75a3.7,3.7,0,0,0,.5-1.1,2.44,2.44,0,0,0,0-1.2,1.07,1.07,0,0,0-.9-.7,1.85,1.85,0,0,0-1.2.7,9.51,9.51,0,0,0-1.5,2c-.1.3-.3.6-.1.9.1.1.3.6.4.6.5,0,.9-.6,1.3-.9C170.8,57.85,172.1,57,172.2,57.75Z"/><path class="cls-5" d="M171.7,54.85c.4,0,0-1.4-.1-1.8a1.07,1.07,0,0,0-.9-.7,1.85,1.85,0,0,0-1.2.7,9.51,9.51,0,0,0-1.5,2c-.1.3-.3.6-.1.9.1.1-.2,1.7,0,1.7a2.39,2.39,0,0,0,1.4-.5C169.4,57,170.7,54.85,171.7,54.85Z"/><path class="cls-5" d="M166.8,56.55c.6-.8,2.1-2.5,1.3-3-.4-.2-1.4.3-1.8.6-.6.6-1.7,1.2-2.1,1.9-.1.3-.7,1.8-.5,2s0,1.6.2,1.6c.5,0,2.4.6,2.7.2A3.1,3.1,0,0,1,166.8,56.55Z"/><path d="M171.5,63.15h-.2a1,1,0,0,1-.7-.5c-.3-.9,1-2.4,1.4-2.9a2.45,2.45,0,0,1,1.7-1.1,1.38,1.38,0,0,1,1.4,1,2.32,2.32,0,0,1-.4,1.8h0c-.1.1-.2.2-.4.1s-.2-.2-.1-.4h0c.2-.5.5-1,.3-1.4s-.4-.7-.8-.6a2.63,2.63,0,0,0-1.4,1c-.7.8-1.4,1.9-1.3,2.3,0,0,0,.1.3.2.7.1,1.6-1.3,2-1.9,0-.1.1-.1.1-.2s.3-.2.4-.1.2.3.1.4-.1.1-.1.2C173.3,61.75,172.4,63.15,171.5,63.15Z"/><path d="M169.1,60.15a.52.52,0,0,1-.4-.2,3,3,0,0,1,0-2.5c.5-1.1,1.5-2.5,2.4-2.8a1.49,1.49,0,0,1,1.5.1,2.14,2.14,0,0,1,.6,2c0,.1-.2.3-.3.2s-.3-.2-.2-.3a1.61,1.61,0,0,0-.4-1.5c-.2-.2-.5-.2-1,0a4.82,4.82,0,0,0-2.1,2.5,3.54,3.54,0,0,0-.2,1.9h.1a.94.94,0,0,0,.7-.5c.1-.1.2-.2.4-.1s.2.2.1.4a1.55,1.55,0,0,1-1.1.8Z"/><path d="M170.4,62.25a1.85,1.85,0,0,1-.7-.2,1.22,1.22,0,0,1-.3-.9,5.09,5.09,0,0,1,.4-2,4.52,4.52,0,0,1,2-2.3,2.11,2.11,0,0,1,1.9,0,1.81,1.81,0,0,1,.6,2c0,.1-.2.3-.3.2s-.3-.2-.2-.3c.1-.5.1-1.2-.4-1.5a1.22,1.22,0,0,0-1.3,0,4.7,4.7,0,0,0-1.8,2.1,4.54,4.54,0,0,0-.4,1.8.59.59,0,0,0,.2.5.6.6,0,0,0,.7,0,.28.28,0,1,1,.4.4A1.88,1.88,0,0,1,170.4,62.25Z"/><path d="M166.3,68.65h0a.27.27,0,0,1-.3-.3,9.61,9.61,0,0,0-1.3-5.1,17.25,17.25,0,0,1-1-2.4l-.1-.2a6.84,6.84,0,0,1-.2-4,5.65,5.65,0,0,1,1.7-2.1l.1-.1a13.44,13.44,0,0,1,1.4-1.1c.6-.3,1.1-.4,1.4-.2a.85.85,0,0,1,.3.6,2.66,2.66,0,0,1-.9,2.2,2.18,2.18,0,0,0-.4.5,3.32,3.32,0,0,0-.2,3.7c.1.1,0,.3-.1.4s-.3,0-.4-.1a3.92,3.92,0,0,1,.2-4.3,1.76,1.76,0,0,0,.4-.5,2.14,2.14,0,0,0,.7-1.8v-.1a2.68,2.68,0,0,0-.9.2,11.32,11.32,0,0,0-1.3,1l-.1.1a4.81,4.81,0,0,0-1.6,1.9c-.5,1.1-.1,2.4.2,3.7l.1.2a21.85,21.85,0,0,0,.9,2.3,10.38,10.38,0,0,1,1.3,5.3C166.6,68.55,166.4,68.65,166.3,68.65Z"/><path d="M168.3,58.35a1,1,0,0,1-.4-.1c-.7-.3-.7-1.3-.4-2l.1-.2a13.61,13.61,0,0,1,1.1-2.5c.5-.8,1.7-1.8,2.7-1.5s.9,1.5.9,2.2v.5a.32.32,0,0,1-.3.3.27.27,0,0,1-.3-.3v-.5c.1-.8,0-1.5-.5-1.7s-1.6.6-2,1.2a8.66,8.66,0,0,0-1,2.4l-.1.2c-.1.4-.3,1.1.1,1.3.1,0,.2.1.4,0s.3-.2.4-.4.2-.2.4-.1.2.2.1.4a1.58,1.58,0,0,1-.7.7A1.34,1.34,0,0,1,168.3,58.35Z"/><circle class="cls-5" cx="96" cy="23.95" r="3.2"/><path d="M96,27.45A3.5,3.5,0,1,1,99.5,24,3.48,3.48,0,0,1,96,27.45Zm0-6.4A2.9,2.9,0,1,0,98.9,24,2.84,2.84,0,0,0,96,21.05Z"/><path d="M130.1,24.25H103.4a.3.3,0,0,1,0-.6h26.7a.3.3,0,1,1,0,.6Z"/><path d="M119.3,124.25H92.6a.3.3,0,1,1,0-.6h26.7a.32.32,0,0,1,.3.3A.27.27,0,0,1,119.3,124.25Z"/><path d="M111.4,128.75H92.6a.32.32,0,0,1-.3-.3.27.27,0,0,1,.3-.3h18.8a.3.3,0,0,1,0,.6Z"/><g class="cls-7"><path d="M187.3,139.85a1.1,1.1,0,0,0-.8,0h-.2c-1.1,0-2.2,0-3.4.1-2.5,0-4.9-.1-7.4-.1-2.8,0-5.6-.1-8.4-.2-2.5.1-4.9.1-7.4,0-2.1,0-4.1-.1-6.2-.1-3.9.1-7.9.1-11.8.1-3.7.1-7.4.3-11.1.2-1.7,0-3.5-.1-5.2-.1-2.4,0-4.8.1-7.2.1-1.6.1-3.2,0-4.8,0q-4.2.15-8.4,0c-2.3-.1-4.5,0-6.8,0s-4.4-.1-6.6-.1c-1.7.1-3.3,0-5,0a8.58,8.58,0,0,0-2.3.2.73.73,0,0,0,.3,1.4,46.88,46.88,0,0,1,5.3-.1c2.4-.1,4.7-.1,7.1,0h5.8c2.3,0,4.6.1,6.9.1s4.7-.1,7,0c2.5,0,5.1-.1,7.6-.1,3.4,0,6.9.2,10.3.1,3.1,0,6.2-.1,9.3-.2,3.3,0,6.7-.1,10-.1,4.1,0,8.1.2,12.2.1,3.1,0,6.2.2,9.3.2,1.6,0,3.2-.1,4.8-.1h6.1a.9.9,0,0,0,.5-.1h0c.2,0,.4,0,.5-.2A.59.59,0,0,0,187.3,139.85Z"/></g><path class="cls-5" d="M73.81,255.44c5.8,11.15,6,25.44.26,36.31-3.43,6-8,11.31-11.42,17.3-9.83,19.49,1.07,44.55,17.86,56.46s38.09,14.71,58.4,16.85c18.67,2.09,37.86,3.69,56.66.23,11.05-1.89,21.65-6.06,30.06-14.07,17.49-17.16,15.55-51.86-3.84-66.12-12.42-9.15-28.34-10-43.75-10.92-13.14-.32-26.91-1.16-40-1.47-11.51-.28-23.63-1.08-33.87-6.26C91.85,278.39,82.93,265.53,73.81,255.44Z"/><path d="M73.85,253.8c.51,0,.51,0,1.13.53,2.1,2.2,4.3,5,6.4,7.37,7,8.39,14.39,16.79,23.64,21.44,10.37,5.18,22.36,6,33.36,6.24l40.05,1.6c13.78.34,31.34,1.27,44.26,10.94,9.18,7.43,15.47,19.09,16.28,32.77S235,362,226.6,370.18c-7.38,7-17.35,11.73-30.56,14.06-19.31,3.33-38.48,1.22-57.17-.24-18-2.08-41.12-4.28-58.9-16.86C63.18,355.23,51.17,329,61.66,308.4c1.72-3.25,4-6.49,5.66-9.23s3.92-5.34,5.13-8.09a38,38,0,0,0-.29-35.17c-.5-.52,0-1.64.54-1.63C73.22,253.79,73.22,253.79,73.85,253.8Zm94.63,129.78c8.85.21,18.09-.07,27-2.13,12.71-2.48,22.17-6.68,28.91-13.6,7.91-8,12-20.07,11.3-33.24-.83-12.67-6-24.3-15.19-30.59-12.42-9.66-29.48-10.08-42.63-10.39l-40.05-1.48c-11-.26-23.64-.57-34.5-6.27-9.74-5.17-17.26-13.57-24.77-22.1l-1.11-1.17c2.55,9.93,1.65,20.91-2.86,29.66A52.94,52.94,0,0,1,68.92,301a83.08,83.08,0,0,0-5.65,8.72C54,328.7,65,353.12,80.66,364.5c16.77,12.55,38.73,14.73,57.28,16.19C148.79,382,158.62,383.34,168.48,383.58Z"/><g class="cls-7"><path d="M236.87,332.49h0c-.5,0-.47-1.15-1.09-1.67a32.49,32.49,0,0,0-3.62-7.3c-1.6-1.68-2.69-3.86-4.29-5.54h0a31,31,0,0,0-7.54-7.39c-1.11-1.17-9.67-7.95-22.92-9.41-2.78-.07-4.91-.62-7.7-.69a98.58,98.58,0,0,1-9.83-1.38c-5.42-.63-11-1.4-15.9-1.52-7.7-.69-14.76-1.49-22.47-1.68-4.93-.12-9.87.27-14.8.15a53,53,0,0,1-15.37-2.52c-5.39-1.78-9.29-3-15.27-6.45a46.89,46.89,0,0,1-8.7-6.28c-1.61-1.68-3.73-2.87-4.82-5.05,0,0,0,.51-.49-.51-1.08-2.18-1.1-1.67-1.57-2.82l0,.5a50,50,0,0,0-4.26-6.68c0-1.14-.47-1.65-.44-2.79a2.12,2.12,0,0,0-.47-1.66c.54-1.12,2.2-2.09,3.33-1.56a61.53,61.53,0,0,0,5.28,6.7L92.54,276a45.33,45.33,0,0,0,10.32,7.45,79.28,79.28,0,0,0,12,4.72c2.13.56,4.41.61,6,1.29a28.65,28.65,0,0,1,6.56.66,2.13,2.13,0,0,0,1.65-.46,72.33,72.33,0,0,0,10.48.75l4.93.12c8.2.71,16.42.91,25.27,1.12l14.28.35,2.15.05,1.64,0,2.15,0,1.65,0,2.14.05a64.92,64.92,0,0,1,20.74,5.44A36.49,36.49,0,0,1,233.79,319c1.07,2.81,1.49,6.11,2.55,9.42,0,1.14.47,1.66.44,2.79C237.45,329.72,237.4,331.87,236.87,332.49Z"/></g><path d="M107.51,315.32l-3.67,9.11c0,.12-.12.12-.12.25s-.13.13-.26.13a.47.47,0,0,1-.38-.13c-.12-.13-.12-.13-.12-.25v-.13l4-9.86c0-.13.13-.13.13-.25s.13-.13.25-.13.26,0,.26.13.12.12.12.25l4,9.73v.13a.46.46,0,0,1-.13.38.45.45,0,0,1-.38.13c-.12,0-.25,0-.25-.13s-.13-.13-.13-.25l-3.79-9.23Zm-2.78,6.45.38-.88h4.68l.12.88Z"/><path d="M117,317.22c.13,0,.26,0,.26.13s.12.12.12.25,0,.25-.12.25-.13.13-.26.13h-3.66c-.13,0-.26,0-.26-.13s-.12-.12-.12-.25,0-.25.12-.25.13-.13.26-.13Zm-.63-3.54h.51c.12,0,.38.13.5.13s.26.25.26.38,0,.25-.13.25-.13.12-.25.12a.47.47,0,0,1-.38-.12c-.13,0-.26-.13-.51-.13s-.38,0-.5.13l-.38.38c-.13.12-.13.38-.13.63v8.72a.45.45,0,0,1-.13.38c-.25.26-.25.26-.38.26a.47.47,0,0,1-.38-.13.48.48,0,0,1-.12-.38v-8.72a2,2,0,0,1,.5-1.52A2.74,2.74,0,0,1,116.36,313.68Z"/><path d="M118.51,317.09h3.54c.13,0,.25,0,.25.13s.13.13.13.25,0,.26-.13.26-.12.12-.25.12h-3.54c-.13,0-.25,0-.25-.12s-.13-.13-.13-.26,0-.25.13-.25S118.38,317.09,118.51,317.09Zm1.52-2.15a.47.47,0,0,1,.38.13.48.48,0,0,1,.12.38V323a.93.93,0,0,0,.13.63c.13.12.13.25.25.25s.26.13.38.13h.51c.12,0,.12,0,.25.12s.13.13.13.26-.13.25-.26.38-.38.12-.63.12h-.38c-.12,0-.38-.12-.5-.12a1,1,0,0,1-.51-.51,2.31,2.31,0,0,1-.25-1v-7.71a.47.47,0,0,1,.12-.38C119.9,314.94,119.9,314.94,120,314.94Z"/><path d="M127.61,324.93a3.46,3.46,0,0,1-2-.5A3.71,3.71,0,0,1,124.2,323a3.9,3.9,0,0,1-.51-2.15,3.59,3.59,0,0,1,.51-2.15,4.49,4.49,0,0,1,1.26-1.39,2.91,2.91,0,0,1,1.77-.51,3.92,3.92,0,0,1,1.27.25,3,3,0,0,1,1.14.76,1.84,1.84,0,0,1,.76,1.14,6.48,6.48,0,0,1,.37,1.52c0,.12,0,.25-.12.25a.46.46,0,0,1-.38.13H124.2l-.13-.76h6l-.26.12V320a2.27,2.27,0,0,0-.5-1.26,2,2,0,0,0-1-.76,3.6,3.6,0,0,0-1.14-.25,2.31,2.31,0,0,0-.89.12,2,2,0,0,0-.88.51,2.67,2.67,0,0,0-.63,1,4.41,4.41,0,0,0-.26,1.39,3.51,3.51,0,0,0,.38,1.64,3,3,0,0,0,1,1.14,3.58,3.58,0,0,0,1.65.38,2.7,2.7,0,0,0,1-.13l.76-.37a1.83,1.83,0,0,0,.5-.51.47.47,0,0,1,.38-.13c.13,0,.26,0,.26.13s.12.13.12.25a.47.47,0,0,1-.12.38,9.71,9.71,0,0,1-1.14,1A2.3,2.3,0,0,1,127.61,324.93Z"/><path d="M133.18,324.81a.45.45,0,0,1-.38-.13.46.46,0,0,1-.13-.38v-6.83a.44.44,0,0,1,.51-.5.43.43,0,0,1,.5.5v2.28h-.25a2.46,2.46,0,0,1,.25-1,4.15,4.15,0,0,1,.64-1,4.87,4.87,0,0,1,.88-.76,3.62,3.62,0,0,1,1.14-.26.73.73,0,0,1,.5.13c.13.13.26.25.26.38a.46.46,0,0,1-.13.38c-.13.13-.13.13-.25.13s-.26,0-.26-.13-.25-.13-.37-.13a3.11,3.11,0,0,0-.89.26,3,3,0,0,0-.76.63,2.46,2.46,0,0,0-.5,1,3.85,3.85,0,0,0-.26,1v3.79a.47.47,0,0,1-.12.38C133.43,324.81,133.3,324.81,133.18,324.81Z"/><path d="M145.82,324.93a2.66,2.66,0,0,1-1.52-.38,6.67,6.67,0,0,1-1.13-.88,3.89,3.89,0,0,1-.64-1.27,5.57,5.57,0,0,1-.25-1.39,5.94,5.94,0,0,1,.13-1.51,8,8,0,0,1,.5-1.65,7,7,0,0,1,.89-1.64,6.69,6.69,0,0,1,1.26-1.39,7,7,0,0,1,1.65-1H147a.48.48,0,0,1,.38.12.49.49,0,0,1,.12.38c0,.13,0,.25-.12.25s-.13.13-.25.13a3.43,3.43,0,0,0-1.27.76l-1.14,1.14a5.06,5.06,0,0,0-.88,1.39,7.35,7.35,0,0,0-.51,1.52l-.38.25a1.75,1.75,0,0,1,.76-.89,4.65,4.65,0,0,1,1-.63,3.33,3.33,0,0,1,2.53,0,6.8,6.8,0,0,1,1,.76,5,5,0,0,1,.64,1.14,4.69,4.69,0,0,1,.25,1.26,3.37,3.37,0,0,1-1.52,2.91A2.72,2.72,0,0,1,145.82,324.93Zm0-.88a2.17,2.17,0,0,0,1.27-.38,3,3,0,0,0,.88-.89,2.1,2.1,0,0,0,.25-1.26,3.67,3.67,0,0,0-.25-1.27,2,2,0,0,0-.76-1,2.16,2.16,0,0,0-1.26-.38,2.56,2.56,0,0,0-1.39.38,2.4,2.4,0,0,0-.89,1,2.32,2.32,0,0,0-.25,1.27,4.69,4.69,0,0,0,.25,1.26,2,2,0,0,0,.89.89A2.16,2.16,0,0,0,145.82,324.05Z"/><path d="M160.87,317a.43.43,0,0,1,.5.5v6.7a3.47,3.47,0,0,1-.5,2,4,4,0,0,1-1.27,1.26,5.36,5.36,0,0,1-3.16.25,5,5,0,0,1-.88-.38c-.13-.12-.26-.12-.26-.25s-.12-.25,0-.38a.28.28,0,0,1,.26-.25h.38a2,2,0,0,0,.75.38,3,3,0,0,0,1.14.25,2.48,2.48,0,0,0,1.39-.38,3.73,3.73,0,0,0,1-1,2.93,2.93,0,0,0,.38-1.52V323l.13.38a1.85,1.85,0,0,1-.63.75,6.83,6.83,0,0,1-1,.64,3.89,3.89,0,0,1-1.14.25,2.74,2.74,0,0,1-1.52-.38,2.17,2.17,0,0,1-.88-1,2.69,2.69,0,0,1-.26-1.52v-4.68a.47.47,0,0,1,.13-.38.66.66,0,0,1,.76,0,.47.47,0,0,1,.13.38V322a2.16,2.16,0,0,0,.5,1.65,1.72,1.72,0,0,0,1.52.63,3.19,3.19,0,0,0,1.14-.25,5.81,5.81,0,0,0,.88-.76,2.07,2.07,0,0,0,.38-1.14V317.6a.46.46,0,0,1,.13-.38C161,317.09,160.61,317,160.87,317Z"/><path d="M167.19,324.93a3.42,3.42,0,0,1-2-.5,3.57,3.57,0,0,1-1.39-1.39,3.9,3.9,0,0,1-.51-2.15,3.59,3.59,0,0,1,.51-2.15,4.26,4.26,0,0,1,1.26-1.39,2.91,2.91,0,0,1,1.77-.51,3.86,3.86,0,0,1,1.26.25,3,3,0,0,1,1.14.76A1.84,1.84,0,0,1,170,319a7,7,0,0,1,.38,1.52c0,.12,0,.25-.13.25a.45.45,0,0,1-.38.13h-6.06l-.13-.76h5.94l-.25.12V320a2.21,2.21,0,0,0-.51-1.26,1.91,1.91,0,0,0-1-.76,3.6,3.6,0,0,0-1.14-.25,2.23,2.23,0,0,0-.88.12,2.06,2.06,0,0,0-.89.51,2.8,2.8,0,0,0-.63,1,4.42,4.42,0,0,0-.25,1.39,3.39,3.39,0,0,0,.38,1.64,2.91,2.91,0,0,0,1,1.14,3.51,3.51,0,0,0,1.64.38,2.7,2.7,0,0,0,1-.13l.76-.37c.26-.13.38-.38.51-.51a.45.45,0,0,1,.38-.13c.12,0,.25,0,.25.13s.13.13.13.25a.45.45,0,0,1-.13.38c-.25.38-.76.63-1.14,1A2.45,2.45,0,0,1,167.19,324.93Z"/><path d="M178.57,317.09a.46.46,0,0,1,.38.13.48.48,0,0,1,.12.38v6.83a.49.49,0,0,1-.12.38.66.66,0,0,1-.76,0,.47.47,0,0,1-.13-.38v-1.77l.26-.13a3.21,3.21,0,0,1-.26.89,1.78,1.78,0,0,1-.63.75,6.83,6.83,0,0,1-1,.64,3.89,3.89,0,0,1-1.14.25,3.6,3.6,0,0,1-1.9-.51,2.94,2.94,0,0,1-1.26-1.51,5.42,5.42,0,0,1-.51-2,4.17,4.17,0,0,1,.51-2.15,3.39,3.39,0,0,1,1.26-1.39,2.91,2.91,0,0,1,1.77-.5,4.4,4.4,0,0,1,1.27.25,2.8,2.8,0,0,1,1,.63,2.22,2.22,0,0,1,.63.89,2.9,2.9,0,0,1,.26,1l-.38-.25v-1.9a.48.48,0,0,1,.12-.38A1,1,0,0,1,178.57,317.09Zm-3.16,7a2.59,2.59,0,0,0,1.39-.38,2.91,2.91,0,0,0,1-1.14,3.75,3.75,0,0,0,0-3.29,2.3,2.3,0,0,0-1-1.14,2.8,2.8,0,0,0-2.78,0,3.06,3.06,0,0,0-1,1.14,3.75,3.75,0,0,0,0,3.29,2.18,2.18,0,0,0,1,1.14A2.88,2.88,0,0,0,175.41,324.05Z"/><path d="M181.86,324.81a.45.45,0,0,1-.38-.13.46.46,0,0,1-.13-.38v-6.83a.44.44,0,0,1,.51-.5.43.43,0,0,1,.5.5v2.28h-.25a2.46,2.46,0,0,1,.25-1,4.42,4.42,0,0,1,.63-1,5.34,5.34,0,0,1,.89-.76,3.62,3.62,0,0,1,1.14-.26.73.73,0,0,1,.5.13c.13.13.26.25.26.38a.46.46,0,0,1-.13.38c-.13.13-.13.13-.25.13s-.26,0-.26-.13-.25-.13-.38-.13a3.16,3.16,0,0,0-.88.26,3,3,0,0,0-.76.63,2.6,2.6,0,0,0-.51,1,4.2,4.2,0,0,0-.25,1v3.79a.47.47,0,0,1-.12.38C182.11,324.81,182,324.81,181.86,324.81Z"/><path d="M188.43,324.93a1.84,1.84,0,0,1-.25.76,1.53,1.53,0,0,1-.63.63,2.16,2.16,0,0,1-.64.26c-.12,0-.12,0-.25-.13s-.13-.13-.13-.25,0-.26.13-.26a.48.48,0,0,0,.38-.12c.13-.13.25-.13.38-.26a.44.44,0,0,0,.13-.37c0-.13,0-.26-.13-.26s-.13-.12-.25-.12h-.26c-.12,0-.12,0-.25.12l-.13-.12v-.26a.91.91,0,0,1,.89-.76.69.69,0,0,1,.63.38A.77.77,0,0,1,188.43,324.93Z"/><path d="M195.51,324.3a.48.48,0,0,1-.12.38.47.47,0,0,1-.38.13.45.45,0,0,1-.38-.13.46.46,0,0,1-.13-.38v-9.61a.46.46,0,0,1,.13-.38.47.47,0,0,1,.38-.12.49.49,0,0,1,.38.12.48.48,0,0,1,.12.38Z"/><path d="M79.57,343a.44.44,0,0,1-.51-.5v-6.83a.46.46,0,0,1,.13-.38.45.45,0,0,1,.38-.13.47.47,0,0,1,.38.13.48.48,0,0,1,.12.38V338h-.25a2.55,2.55,0,0,1,.25-1,4.35,4.35,0,0,1,.64-1,5.81,5.81,0,0,1,.88-.76,3.89,3.89,0,0,1,1.14-.25.73.73,0,0,1,.5.13c.13.12.26.25.26.38a.47.47,0,0,1-.13.38c-.13.12-.13.12-.25.12s-.26,0-.26-.12-.25-.13-.37-.13a3.4,3.4,0,0,0-.89.25,3.52,3.52,0,0,0-.76.63,2.57,2.57,0,0,0-.5,1,3.85,3.85,0,0,0-.26,1v3.79a.48.48,0,0,1-.12.38C79.82,343,79.69,343,79.57,343Z"/><path d="M88.54,343.14a3.46,3.46,0,0,1-2-.51,3.64,3.64,0,0,1-1.39-1.39,3.86,3.86,0,0,1-.51-2.15,3.63,3.63,0,0,1,.51-2.15,4.61,4.61,0,0,1,1.26-1.39,2.91,2.91,0,0,1,1.77-.5,3.67,3.67,0,0,1,1.27.25,3,3,0,0,1,1.14.76,1.84,1.84,0,0,1,.76,1.14,7,7,0,0,1,.38,1.51c0,.13,0,.26-.13.26a.48.48,0,0,1-.38.12H85.13l-.13-.75h6l-.26.12v-.25a2.27,2.27,0,0,0-.5-1.27,1.9,1.9,0,0,0-1-.75,3.62,3.62,0,0,0-1.14-.26,2.14,2.14,0,0,0-.89.13,2.05,2.05,0,0,0-.88.5,2.79,2.79,0,0,0-.63,1,4.41,4.41,0,0,0-.26,1.39,3.51,3.51,0,0,0,.38,1.64,3,3,0,0,0,1,1.14,3.58,3.58,0,0,0,1.65.38,2.7,2.7,0,0,0,1-.13l.76-.38c.25-.12.38-.38.5-.5a.47.47,0,0,1,.38-.13c.13,0,.26,0,.26.13s.12.12.12.25a.48.48,0,0,1-.12.38,9.71,9.71,0,0,1-1.14,1A2.47,2.47,0,0,1,88.54,343.14Z"/><path d="M97,335.05a5.49,5.49,0,0,1,1.39.12,10.58,10.58,0,0,1,1,.38.71.71,0,0,1,.38.64c0,.12,0,.25-.13.25s-.13.12-.25.12-.25,0-.25-.12-.13-.13-.26-.25a.88.88,0,0,0-.38-.26c-.12-.12-.38-.12-.63-.12s-.51-.13-.88-.13a3,3,0,0,0-1.52.38,3.19,3.19,0,0,0-1.14,1.14,3.73,3.73,0,0,0,0,3.28A2.61,2.61,0,0,0,96.89,342c.38,0,.76,0,.88-.12s.38-.13.51-.26.38-.25.38-.38a.48.48,0,0,1,.38-.12c.12,0,.25,0,.25.12s.13.13.13.26a.68.68,0,0,1-.38.5,3.73,3.73,0,0,1-1,.51,4.78,4.78,0,0,1-1.39.25,3.75,3.75,0,0,1-2-.51,4.72,4.72,0,0,1-1.39-1.39,4.33,4.33,0,0,1,0-4,4.07,4.07,0,0,1,1.39-1.52A4.9,4.9,0,0,1,97,335.05Z"/><path d="M105,343.14a3.42,3.42,0,0,1-2-.51,3.64,3.64,0,0,1-1.39-1.39,3.86,3.86,0,0,1-.51-2.15,3.63,3.63,0,0,1,.51-2.15,4.61,4.61,0,0,1,1.26-1.39,2.91,2.91,0,0,1,1.77-.5,3.67,3.67,0,0,1,1.27.25,3,3,0,0,1,1.13.76,1.8,1.8,0,0,1,.76,1.14,6,6,0,0,1,.38,1.51c0,.13,0,.26-.12.26a.49.49,0,0,1-.38.12h-6.07l-.13-.75h5.94l-.25.12v-.25a2.21,2.21,0,0,0-.51-1.27,1.9,1.9,0,0,0-1-.75,3.62,3.62,0,0,0-1.13-.26,2.1,2.1,0,0,0-.89.13,2.05,2.05,0,0,0-.88.5,2.81,2.81,0,0,0-.64,1,4.72,4.72,0,0,0-.25,1.39,3.51,3.51,0,0,0,.38,1.64,2.91,2.91,0,0,0,1,1.14,3.54,3.54,0,0,0,1.64.38,2.76,2.76,0,0,0,1-.13l.75-.38c.26-.12.38-.38.51-.5a.46.46,0,0,1,.38-.13c.13,0,.25,0,.25.13s.13.12.13.25a.46.46,0,0,1-.13.38c-.25.38-.76.63-1.14,1A2.43,2.43,0,0,1,105,343.14Z"/><path d="M110.42,334.16c-.25,0-.38,0-.51-.12a.49.49,0,0,1-.12-.38v-.13c0-.13,0-.38.12-.38s.26-.13.51-.13.38,0,.5.13a.46.46,0,0,1,.13.38v.13c0,.12,0,.38-.13.38S110.67,334.16,110.42,334.16Zm.5,8.35a.43.43,0,0,1-.5.5.48.48,0,0,1-.38-.12.47.47,0,0,1-.13-.38v-7a.47.47,0,0,1,.13-.38.48.48,0,0,1,.38-.12.43.43,0,0,1,.5.5Z"/><path d="M113.07,335.05c.13,0,.13,0,.26.12s.12.13.12.26l2.66,6.32-.25.13,2.65-6.45c.13-.26.25-.26.38-.26s.25,0,.25.13.13.13.13.25v.26l-3,6.95c-.12.13-.25.25-.37.25s-.13,0-.26-.12-.12-.13-.12-.26l-3-6.95v-.25c0-.13,0-.26.13-.26S113,335.05,113.07,335.05Z"/><path d="M124.71,343.14a3.47,3.47,0,0,1-2-.51,3.64,3.64,0,0,1-1.39-1.39,3.85,3.85,0,0,1-.5-2.15,3.63,3.63,0,0,1,.5-2.15,4.51,4.51,0,0,1,1.27-1.39,2.87,2.87,0,0,1,1.77-.5,3.66,3.66,0,0,1,1.26.25,3,3,0,0,1,1.14.76,1.84,1.84,0,0,1,.76,1.14,7,7,0,0,1,.38,1.51c0,.13,0,.26-.13.26a.48.48,0,0,1-.38.12h-6.07l-.12-.75h5.94l-.25.12v-.25a2.28,2.28,0,0,0-.51-1.27,1.9,1.9,0,0,0-1-.75,3.62,3.62,0,0,0-1.14-.26,2.14,2.14,0,0,0-.89.13,2.12,2.12,0,0,0-.88.5,2.79,2.79,0,0,0-.63,1,4.41,4.41,0,0,0-.26,1.39,3.51,3.51,0,0,0,.38,1.64,3,3,0,0,0,1,1.14,3.51,3.51,0,0,0,1.64.38,2.7,2.7,0,0,0,1-.13l.76-.38c.25-.12.38-.38.51-.5a.44.44,0,0,1,.37-.13c.13,0,.26,0,.26.13s.12.12.12.25a.48.48,0,0,1-.12.38,9.71,9.71,0,0,1-1.14,1A2.28,2.28,0,0,1,124.71,343.14Z"/><path d="M136.21,331.76a.46.46,0,0,1,.38.13.45.45,0,0,1,.13.38v10.24a.47.47,0,0,1-.13.38.48.48,0,0,1-.38.12.43.43,0,0,1-.5-.5v-1.77l.25-.26a2.43,2.43,0,0,1-.25.89,3.76,3.76,0,0,1-.64.88,2.69,2.69,0,0,1-1,.64,3.89,3.89,0,0,1-1.14.25,2.91,2.91,0,0,1-1.77-.51,4.35,4.35,0,0,1-1.26-1.39,5.32,5.32,0,0,1-.51-2,3.42,3.42,0,0,1,.51-2,2.7,2.7,0,0,1,1.26-1.39,2.91,2.91,0,0,1,1.77-.51,3.14,3.14,0,0,1,1.14.25,2.69,2.69,0,0,1,1,.64,2.21,2.21,0,0,1,.64.88,3.12,3.12,0,0,1,.25,1l-.38-.25v-5.44a.47.47,0,0,1,.13-.38C136,331.89,136.09,331.76,136.21,331.76Zm-3.16,10.49a2.56,2.56,0,0,0,1.39-.37,3.06,3.06,0,0,0,1-1.14,3.75,3.75,0,0,0,0-3.29,2.18,2.18,0,0,0-1-1.14,2.73,2.73,0,0,0-2.78,0,2.91,2.91,0,0,0-1,1.14,3.75,3.75,0,0,0,0,3.29,2.25,2.25,0,0,0,1,1.14A2.9,2.9,0,0,0,133.05,342.25Z"/><path d="M146.71,335.17a2.54,2.54,0,0,1,1.64.51,2,2,0,0,1,.88,1.52H149l.13-.26a3.7,3.7,0,0,1,.63-.88,2.67,2.67,0,0,1,1-.63,3.62,3.62,0,0,1,1.14-.26,2.74,2.74,0,0,1,1.52.38,2.81,2.81,0,0,1,.88,1.14,6.21,6.21,0,0,1,.26,1.52v4.3a.47.47,0,0,1-.13.38.66.66,0,0,1-.76,0,.47.47,0,0,1-.13-.38v-4.3a3.6,3.6,0,0,0-.25-1.14,1.33,1.33,0,0,0-.63-.76c-.25-.25-.63-.25-1.14-.25a3.19,3.19,0,0,0-1.14.25,5,5,0,0,0-.88.76,2,2,0,0,0-.38,1.14v4.3a.44.44,0,0,1-.51.5.43.43,0,0,1-.5-.5v-4.3a3.42,3.42,0,0,0-.13-1.14,1.33,1.33,0,0,0-.63-.76c-.25-.25-.63-.25-1.14-.25a3.89,3.89,0,0,0-1.14.25c-.38.13-.63.51-.88.76a1.73,1.73,0,0,0-.38,1.14v4.3a.44.44,0,0,1-.51.5.43.43,0,0,1-.5-.5v-6.83a.48.48,0,0,1,.12-.38.47.47,0,0,1,.38-.13.45.45,0,0,1,.38.13.46.46,0,0,1,.13.38v1.39l-.38.51a2.43,2.43,0,0,1,.25-.89,2,2,0,0,1,.63-.76c.26-.25.64-.38.89-.63S146.33,335.17,146.71,335.17Z"/><path d="M162.76,335.17a.45.45,0,0,1,.38.13.46.46,0,0,1,.13.38v6.7a3.42,3.42,0,0,1-.51,2,3.92,3.92,0,0,1-1.26,1.27,4.29,4.29,0,0,1-1.9.38,4.16,4.16,0,0,1-1.26-.13,6.59,6.59,0,0,1-.89-.38c-.12-.12-.25-.12-.25-.25s-.13-.25,0-.38a.27.27,0,0,1,.25-.25h.38a2.27,2.27,0,0,0,.76.38,3.14,3.14,0,0,0,1.14.25,2.59,2.59,0,0,0,1.39-.38,3.73,3.73,0,0,0,1-1,3,3,0,0,0,.38-1.52v-1.14l.13.38a1.88,1.88,0,0,1-.63.76,7.58,7.58,0,0,1-1,.63,3.62,3.62,0,0,1-1.13.26,2.71,2.71,0,0,1-1.52-.38,2.36,2.36,0,0,1-.89-1,2.78,2.78,0,0,1-.25-1.52v-4.68a.46.46,0,0,1,.13-.38.45.45,0,0,1,.38-.13.47.47,0,0,1,.38.13.48.48,0,0,1,.12.38v4.55a2.16,2.16,0,0,0,.51,1.65,1.74,1.74,0,0,0,1.51.63,3,3,0,0,0,1.14-.26,5.38,5.38,0,0,0,.89-.75,2.07,2.07,0,0,0,.38-1.14v-4.55a.47.47,0,0,1,.12-.38C162.89,335.3,162.64,335.17,162.76,335.17Z"/><path d="M176.17,331.76a.44.44,0,0,1,.5.51v10.24a.43.43,0,0,1-.5.5.44.44,0,0,1-.51-.5v-1.77l.25-.26a2.25,2.25,0,0,1-.25.89,4,4,0,0,1-.63.88,2.69,2.69,0,0,1-1,.64,3.89,3.89,0,0,1-1.14.25,2.89,2.89,0,0,1-1.77-.51,4.39,4.39,0,0,1-1.27-1.39,5.32,5.32,0,0,1-.5-2,3.49,3.49,0,0,1,.5-2,2.72,2.72,0,0,1,1.27-1.39,2.89,2.89,0,0,1,1.77-.51,3.19,3.19,0,0,1,1.14.25,2.69,2.69,0,0,1,1,.64,2.28,2.28,0,0,1,.63.88,2.88,2.88,0,0,1,.25,1l-.38-.25v-5.44a.47.47,0,0,1,.13-.38C175.91,331.89,176,331.76,176.17,331.76ZM173,342.25a2.58,2.58,0,0,0,1.39-.37,3.15,3.15,0,0,0,1-1.14,3.75,3.75,0,0,0,0-3.29,2.26,2.26,0,0,0-1-1.14,2.75,2.75,0,0,0-2.79,0,3.07,3.07,0,0,0-1,1.14,3.75,3.75,0,0,0,0,3.29,2.35,2.35,0,0,0,1,1.14A2.93,2.93,0,0,0,173,342.25Z"/><path d="M182.49,343.14a3.42,3.42,0,0,1-2-.51,3.6,3.6,0,0,1-1.4-1.39,3.94,3.94,0,0,1-.5-2.15,3.71,3.71,0,0,1,.5-2.15,4.51,4.51,0,0,1,1.27-1.39,2.89,2.89,0,0,1,1.77-.5,3.66,3.66,0,0,1,1.26.25,3,3,0,0,1,1.14.76,1.84,1.84,0,0,1,.76,1.14,7,7,0,0,1,.38,1.51c0,.13,0,.26-.13.26a.47.47,0,0,1-.38.12h-6.07l-.12-.75h5.94l-.25.12v-.25a2.28,2.28,0,0,0-.51-1.27,1.9,1.9,0,0,0-1-.75,3.62,3.62,0,0,0-1.14-.26,2.07,2.07,0,0,0-.88.13,2.15,2.15,0,0,0-.89.5,2.93,2.93,0,0,0-.63,1,4.42,4.42,0,0,0-.25,1.39,3.39,3.39,0,0,0,.38,1.64,2.91,2.91,0,0,0,1,1.14,3.51,3.51,0,0,0,1.64.38,2.7,2.7,0,0,0,1-.13l.76-.38c.25-.12.38-.38.51-.5A.45.45,0,0,1,185,341c.12,0,.25,0,.25.13s.13.12.13.25a.46.46,0,0,1-.13.38c-.25.38-.76.63-1.14,1A2.45,2.45,0,0,1,182.49,343.14Z"/><path d="M190.71,335.05a3.66,3.66,0,0,1,1.26.25,2.8,2.8,0,0,1,1,.63,3.21,3.21,0,0,1,.63.76,1.77,1.77,0,0,1,.26.76l-.26-.38v-1.39a.51.51,0,1,1,1,0v6.57a3.47,3.47,0,0,1-.51,2,3.39,3.39,0,0,1-1.39,1.26,5.11,5.11,0,0,1-1.9.38,3.33,3.33,0,0,1-1.13-.13,9.54,9.54,0,0,1-1-.37,1.84,1.84,0,0,1-.5-.38c-.13-.13-.13-.13-.13-.26s0-.12.13-.25.25-.13.25,0,.25.13.51.25.25.13.38.13a5.14,5.14,0,0,0,.63.13c.25,0,.5.12.76.12a3,3,0,0,0,2.15-.76,2.87,2.87,0,0,0,.75-2v-1.52h.13a2.09,2.09,0,0,1-.5.89,3.78,3.78,0,0,1-.76.63,3.62,3.62,0,0,1-1.9.51,3.06,3.06,0,0,1-1.9-.51,4.35,4.35,0,0,1-1.26-1.39,3.69,3.69,0,0,1-.51-2,3.47,3.47,0,0,1,.51-2,3.52,3.52,0,0,1,1.26-1.39A6.82,6.82,0,0,1,190.71,335.05Zm.12.88a3.38,3.38,0,0,0-1.51.38,3,3,0,0,0-1,1.14,3.84,3.84,0,0,0,0,3.29,3.17,3.17,0,0,0,1,1.14,2.7,2.7,0,0,0,1.51.37,3.4,3.4,0,0,0,1.52-.37,3.06,3.06,0,0,0,1-1.14,3.75,3.75,0,0,0,0-3.29,2.91,2.91,0,0,0-1-1.14A2.71,2.71,0,0,0,190.83,335.93Z"/><path d="M197.41,343a.48.48,0,0,1-.38-.12.47.47,0,0,1-.13-.38v-6.83a.46.46,0,0,1,.51-.51.47.47,0,0,1,.38.13.48.48,0,0,1,.12.38V338h-.25a2.55,2.55,0,0,1,.25-1,4.35,4.35,0,0,1,.64-1,5.81,5.81,0,0,1,.88-.76,3.89,3.89,0,0,1,1.14-.25.72.72,0,0,1,.5.13c.13.12.26.25.26.38a.47.47,0,0,1-.13.38c-.13.12-.13.12-.25.12s-.25,0-.25-.12-.26-.13-.38-.13a3.4,3.4,0,0,0-.89.25,3.78,3.78,0,0,0-.76.63,2.57,2.57,0,0,0-.5,1,3.85,3.85,0,0,0-.26,1v3.79a.48.48,0,0,1-.12.38C197.66,343,197.53,343,197.41,343Z"/><path d="M206.39,343.14a3.47,3.47,0,0,1-2-.51,3.64,3.64,0,0,1-1.39-1.39,3.85,3.85,0,0,1-.5-2.15,3.63,3.63,0,0,1,.5-2.15,4.51,4.51,0,0,1,1.27-1.39,2.87,2.87,0,0,1,1.77-.5,3.66,3.66,0,0,1,1.26.25,3,3,0,0,1,1.14.76,1.84,1.84,0,0,1,.76,1.14,7,7,0,0,1,.38,1.51c0,.13,0,.26-.13.26a.48.48,0,0,1-.38.12H203l-.13-.75h5.95l-.26.12v-.25a2.27,2.27,0,0,0-.5-1.27,1.9,1.9,0,0,0-1-.75,3.62,3.62,0,0,0-1.14-.26,2.14,2.14,0,0,0-.89.13,2.12,2.12,0,0,0-.88.5,2.79,2.79,0,0,0-.63,1,4.41,4.41,0,0,0-.26,1.39,3.51,3.51,0,0,0,.38,1.64,3.07,3.07,0,0,0,1,1.14,3.58,3.58,0,0,0,1.65.38,2.7,2.7,0,0,0,1-.13l.76-.38c.25-.12.38-.38.5-.5a.47.47,0,0,1,.38-.13c.13,0,.26,0,.26.13s.12.12.12.25a.48.48,0,0,1-.12.38,9.71,9.71,0,0,1-1.14,1A2.45,2.45,0,0,1,206.39,343.14Z"/><path d="M215,343.14a3.44,3.44,0,0,1-2-.51,3.64,3.64,0,0,1-1.39-1.39,3.86,3.86,0,0,1-.51-2.15,3.63,3.63,0,0,1,.51-2.15,4.61,4.61,0,0,1,1.26-1.39,2.91,2.91,0,0,1,1.77-.5,3.67,3.67,0,0,1,1.27.25,3,3,0,0,1,1.14.76,1.79,1.79,0,0,1,.75,1.14,6,6,0,0,1,.38,1.51c0,.13,0,.26-.12.26a.49.49,0,0,1-.38.12h-6.07l-.13-.75h5.95l-.26.12v-.25a2.27,2.27,0,0,0-.5-1.27,2,2,0,0,0-1-.75,3.62,3.62,0,0,0-1.14-.26,2.12,2.12,0,0,0-.89.13,2.05,2.05,0,0,0-.88.5,2.81,2.81,0,0,0-.64,1,4.72,4.72,0,0,0-.25,1.39,3.51,3.51,0,0,0,.38,1.64,2.91,2.91,0,0,0,1,1.14,3.55,3.55,0,0,0,1.65.38,2.7,2.7,0,0,0,1-.13l.76-.38c.25-.12.38-.38.5-.5a.47.47,0,0,1,.38-.13c.13,0,.25,0,.25.13s.13.12.13.25a.46.46,0,0,1-.13.38,8.83,8.83,0,0,1-1.13,1A2.47,2.47,0,0,1,215,343.14Z"/><path d="M220.17,343a.44.44,0,0,1-.51-.5v-.38c0-.13,0-.38.13-.38a.45.45,0,0,1,.38-.13h.12a.45.45,0,0,1,.38.13.46.46,0,0,1,.13.38v.38a.47.47,0,0,1-.13.38c-.12.12-.25.12-.5.12Z"/></svg>