<svg id="Capa_1" data-name="Capa 1" xmlns="http://www.w3.org/2000/svg" viewBox="0 0 269.1 392"><defs><style>.cls-1{fill:none;stroke:#f0be15;stroke-miterlimit:10;stroke-width:3px;}.cls-2{isolation:isolate;}.cls-3{fill:#7d7d7d;}.cls-4{fill:#f0be15;}.cls-5{fill:#fff;}.cls-6{fill:#f8afa0;}.cls-7{opacity:0.13;}</style></defs><title>timeline</title><line class="cls-1" x1="-1434.88" y1="206.85" x2="258.02" y2="206.85"/><polygon class="cls-1" points="253.57 211.06 252.63 210.34 257.48 206.85 252.63 203.46 253.57 202.64 259.5 206.85 253.57 211.06"/><g class="cls-2"><path class="cls-3" d="M47.23,219.65a.52.52,0,0,1,.4.2.76.76,0,0,1,.2.5v.2c0,.1-.1.1-.1.2l-2.9,4.1.2-.7v3.9c0,.2-.1.3-.2.5a.76.76,0,0,1-.4.2c-.2,0-.3-.1-.5-.2a.76.76,0,0,1-.2-.5v-3.8l.1.4L41,221a.37.37,0,0,1-.1-.3v-.2c0-.2.1-.3.2-.5a.76.76,0,0,1,.5-.2.55.55,0,0,1,.5.3l2.5,3.5h-.3l2.4-3.4C46.83,219.75,47,219.65,47.23,219.65Z"/><path class="cls-3" d="M54,227.55a.6.6,0,0,1-.1-.4.54.54,0,0,1,.3-.4c.1-.1.2-.1.4-.1a.76.76,0,0,1,.4.2,1.56,1.56,0,0,0,.8.6,1.82,1.82,0,0,0,1.1.2.9.9,0,0,0,.5-.1c.2,0,.3-.1.5-.3a.72.72,0,0,0,0-1,2.19,2.19,0,0,0-.5-.3,1.85,1.85,0,0,0-.7-.2c-.3-.1-.5-.2-.8-.3a1.61,1.61,0,0,1-.7-.4,1,1,0,0,1-.5-.6,2,2,0,0,1-.2-.9,1.69,1.69,0,0,1,.3-1,2.18,2.18,0,0,1,.9-.7,2.54,2.54,0,0,1,1.2-.2,2.2,2.2,0,0,1,.8.1c.3.1.5.2.8.3a1.79,1.79,0,0,1,.7.5c.1.1.1.2.1.4a.52.52,0,0,1-.2.4c-.1.1-.2.1-.4.1s-.3-.1-.4-.1a2.65,2.65,0,0,0-.6-.5,2.39,2.39,0,0,0-.9-.2.9.9,0,0,0-.5.1.52.52,0,0,0-.4.2.72.72,0,0,0,0,1,1.63,1.63,0,0,0,.6.3,1.85,1.85,0,0,0,.7.2c.3.1.5.1.8.2a1.61,1.61,0,0,1,.7.4,1,1,0,0,1,.5.6,2.39,2.39,0,0,1,.2.9,1.5,1.5,0,0,1-.4,1.1,2.18,2.18,0,0,1-.9.7,2.54,2.54,0,0,1-1.2.2,3.19,3.19,0,0,1-1.4-.3A2,2,0,0,1,54,227.55Z"/><path class="cls-3" d="M64.63,228.75a3.17,3.17,0,0,1-3.4-3.4,3,3,0,0,1,.5-1.9,4.56,4.56,0,0,1,1.2-1.2,2.82,2.82,0,0,1,1.5-.4,5,5,0,0,1,1.2.2,3.51,3.51,0,0,1,1.7,1.7,2.77,2.77,0,0,1,.3,1.3.52.52,0,0,1-.2.4.76.76,0,0,1-.4.2h-4.9l-.3-1.1h4.8l-.2.2v-.3a1.14,1.14,0,0,0-.3-.8,1.79,1.79,0,0,0-.7-.5,2.35,2.35,0,0,0-.8-.2,1.48,1.48,0,0,0-.7.1,2.09,2.09,0,0,0-.6.4,1.61,1.61,0,0,0-.4.7,3.59,3.59,0,0,0-.2,1.1,2.13,2.13,0,0,0,.3,1.2,3,3,0,0,0,.8.8,2,2,0,0,0,1.1.3,2,2,0,0,0,.8-.1c.2-.1.4-.1.5-.2s.3-.2.4-.3.2-.1.4-.1a.71.71,0,0,1,.6.6.55.55,0,0,1-.3.5,3.49,3.49,0,0,1-.9.6C65.53,228.65,65,228.75,64.63,228.75Z"/><path class="cls-3" d="M72.63,221.75a3,3,0,0,1,1,.2,2.18,2.18,0,0,1,.8.5,2.65,2.65,0,0,1,.5.6,1.69,1.69,0,0,1,.2.5h-.3v-1c0-.2.1-.3.2-.5a.76.76,0,0,1,.5-.2c.2,0,.3.1.5.2a.76.76,0,0,1,.2.5v5.6a2.86,2.86,0,0,1-.5,1.7,2.34,2.34,0,0,1-1.2,1,4.67,4.67,0,0,1-1.7.3,2.49,2.49,0,0,1-.8-.1c-.3-.1-.6-.1-.8-.2a1.69,1.69,0,0,0-.5-.2.78.78,0,0,1-.4-.4.3.3,0,0,1,0-.4q.15-.3.3-.3h.5c.1,0,.2.1.4.1a1.42,1.42,0,0,1,.6.2,1.27,1.27,0,0,0,.6.1,2.07,2.07,0,0,0,1.5-.5,1.73,1.73,0,0,0,.5-1.3v-1.1l.1.1c0,.2-.1.3-.2.5s-.3.3-.5.5a1.61,1.61,0,0,1-.7.4,2.49,2.49,0,0,1-.8.1,3,3,0,0,1-1.6-.5,2.54,2.54,0,0,1-1.1-1.2,4.25,4.25,0,0,1,0-3.6,3.18,3.18,0,0,1,1.1-1.2A4.19,4.19,0,0,1,72.63,221.75Zm.2,1.2a2,2,0,0,0-1.1.3,1.78,1.78,0,0,0-.7.8,2.13,2.13,0,0,0-.3,1.2,2.38,2.38,0,0,0,.3,1.2,2.7,2.7,0,0,0,.7.8,2.17,2.17,0,0,0,2.2,0,1.78,1.78,0,0,0,.7-.8,2.55,2.55,0,0,0,0-2.4,1.85,1.85,0,0,0-.7-.8A2,2,0,0,0,72.83,223Z"/><path class="cls-3" d="M83.83,222c.2,0,.3.1.5.2a.76.76,0,0,1,.2.5V226a2.81,2.81,0,1,1-5.6,0v-3.3c0-.2.1-.3.2-.5a.76.76,0,0,1,.5-.2c.2,0,.3.1.5.2a.76.76,0,0,1,.2.5V226a1.46,1.46,0,0,0,.4,1.2,1.82,1.82,0,0,0,1.1.4,1.25,1.25,0,0,0,1.1-.4,1.59,1.59,0,0,0,.4-1.2v-3.3c0-.2.1-.3.2-.5S83.73,222,83.83,222Z"/><path class="cls-3" d="M87.83,221.05a.75.75,0,0,1-.5-.1.59.59,0,0,1-.2-.5v-.2c0-.2.1-.4.2-.4a.75.75,0,0,1,.5-.1c.3,0,.4,0,.5.1a.52.52,0,0,1,.2.4v.2a.76.76,0,0,1-.2.5A4.33,4.33,0,0,1,87.83,221.05Zm.6,6.9c0,.2-.1.3-.2.5a.76.76,0,0,1-.5.2c-.2,0-.3-.1-.5-.2a.76.76,0,0,1-.2-.5v-5.4c0-.2.1-.3.2-.5a.76.76,0,0,1,.5-.2c.2,0,.3.1.5.2a.76.76,0,0,1,.2.5Z"/><path class="cls-3" d="M91.83,228.55c-.2,0-.3-.1-.5-.2a.76.76,0,0,1-.2-.5v-5.4c0-.2.1-.3.2-.5a.76.76,0,0,1,.5-.2c.2,0,.3.1.5.2a.76.76,0,0,1,.2.5v1.4l-.1-.5c.1-.2.2-.5.3-.7a1.21,1.21,0,0,1,.5-.5,1.61,1.61,0,0,1,.7-.4,2,2,0,0,1,.8-.1,1.42,1.42,0,0,1,.6.2.4.4,0,0,1,.2.4.69.69,0,0,1-.6.7.76.76,0,0,1-.4-.1.6.6,0,0,0-.4-.1.75.75,0,0,0-.5.1,1,1,0,0,0-.5.4c-.1.2-.3.4-.4.6a2,2,0,0,0-.1.8v3c0,.2-.1.3-.2.5C92.13,228.55,91.93,228.55,91.83,228.55Z"/><path class="cls-3" d="M104.93,221.75a4.12,4.12,0,0,1,1.2.1,1.51,1.51,0,0,1,.8.4.86.86,0,0,1,.3.6.6.6,0,0,1-.1.4.52.52,0,0,1-.4.2.37.37,0,0,1-.3-.1c-.1-.1-.2-.1-.2-.2s-.1-.1-.2-.2-.2-.1-.4-.1h-.5a2.66,2.66,0,0,0-1.2.3,3,3,0,0,0-.8.8,2.13,2.13,0,0,0-.3,1.2,2.38,2.38,0,0,0,.3,1.2,2.7,2.7,0,0,0,.7.8,2,2,0,0,0,1.1.3c.2,0,.5,0,.6-.1a.6.6,0,0,1,.4-.1c.1-.1.2-.2.3-.2s.2-.1.4-.1a.52.52,0,0,1,.4.2.6.6,0,0,1,.1.4.55.55,0,0,1-.3.5,1.88,1.88,0,0,1-.9.4,5,5,0,0,1-1.2.2,3.1,3.1,0,0,1-1.7-.5,2.54,2.54,0,0,1-1.1-1.2,4.78,4.78,0,0,1-.4-1.8,3.17,3.17,0,0,1,1.6-3A5.26,5.26,0,0,1,104.93,221.75Z"/><path class="cls-3" d="M115,221.85c.2,0,.3.1.5.2a.76.76,0,0,1,.2.5v5.5c0,.2-.1.3-.2.5a.76.76,0,0,1-.5.2c-.2,0-.3-.1-.5-.2a.76.76,0,0,1-.2-.5v-.9l.3.1a1.69,1.69,0,0,1-.2.5,1.21,1.21,0,0,1-.5.5,2.51,2.51,0,0,1-.7.4,2.92,2.92,0,0,1-.9.2,3,3,0,0,1-1.6-.5,3.18,3.18,0,0,1-1.1-1.2,4.25,4.25,0,0,1,0-3.6,3.18,3.18,0,0,1,1.1-1.2,2.82,2.82,0,0,1,1.5-.4,3,3,0,0,1,1,.2,2.18,2.18,0,0,1,.8.5,2.65,2.65,0,0,1,.5.6,1.42,1.42,0,0,1,.2.6h-.4v-1.2c0-.2.1-.3.2-.5S114.83,221.85,115,221.85Zm-2.6,5.7a2.28,2.28,0,0,0,1.1-.3c.4-.2.5-.5.7-.8a2.38,2.38,0,0,0,.3-1.2,2.66,2.66,0,0,0-.3-1.2,1.85,1.85,0,0,0-.7-.8,2,2,0,0,0-1.1-.3,1.69,1.69,0,0,0-1,.3,2.7,2.7,0,0,0-.7.8,2.13,2.13,0,0,0-.3,1.2,2.66,2.66,0,0,0,.3,1.2,1.85,1.85,0,0,0,.7.8A1.69,1.69,0,0,0,112.43,227.55Z"/><path class="cls-3" d="M121.73,221.85a2.93,2.93,0,0,1,1.6.4,3.18,3.18,0,0,1,1.1,1.2,4.25,4.25,0,0,1,0,3.6,3.18,3.18,0,0,1-1.1,1.2,2.82,2.82,0,0,1-1.5.4,2.92,2.92,0,0,1-.9-.2,3,3,0,0,1-.8-.4,1.18,1.18,0,0,1-.5-.5,2.19,2.19,0,0,0-.3-.5l.3-.2v3.5c0,.2-.1.3-.2.5a.76.76,0,0,1-.5.2c-.2,0-.3-.1-.5-.2a.76.76,0,0,1-.2-.5v-7.9c0-.2.1-.3.2-.5a.76.76,0,0,1,.5-.2c.2,0,.3.1.5.2a.76.76,0,0,1,.2.5v.9l-.2-.1c0-.2.1-.3.2-.5s.3-.3.5-.5a1.61,1.61,0,0,1,.7-.4Zm-.1,1.1a2,2,0,0,0-1.1.3,2.7,2.7,0,0,0-.7.8,2.13,2.13,0,0,0-.3,1.2,2.66,2.66,0,0,0,.3,1.2,1.85,1.85,0,0,0,.7.8,2,2,0,0,0,1.1.3,1.69,1.69,0,0,0,1-.3,2.7,2.7,0,0,0,.7-.8,2.38,2.38,0,0,0,.3-1.2,2.66,2.66,0,0,0-.3-1.2,2.7,2.7,0,0,0-.7-.8A1.69,1.69,0,0,0,121.63,223Z"/><path class="cls-3" d="M132.73,221.85c.2,0,.3.1.5.2a.76.76,0,0,1,.2.5v5.5c0,.2-.1.3-.2.5a.76.76,0,0,1-.5.2c-.2,0-.3-.1-.5-.2a.76.76,0,0,1-.2-.5v-.9l.3.1a1.69,1.69,0,0,1-.2.5,1.21,1.21,0,0,1-.5.5,2.51,2.51,0,0,1-.7.4,2.92,2.92,0,0,1-.9.2,3,3,0,0,1-1.6-.5,3.18,3.18,0,0,1-1.1-1.2,4.25,4.25,0,0,1,0-3.6,3.18,3.18,0,0,1,1.1-1.2,2.82,2.82,0,0,1,1.5-.4,3,3,0,0,1,1,.2,2.18,2.18,0,0,1,.8.5,2.65,2.65,0,0,1,.5.6,1.42,1.42,0,0,1,.2.6H132v-1.2c0-.2.1-.3.2-.5S132.53,221.85,132.73,221.85Zm-2.6,5.7a2.28,2.28,0,0,0,1.1-.3c.4-.2.5-.5.7-.8a2.38,2.38,0,0,0,.3-1.2,2.66,2.66,0,0,0-.3-1.2,1.85,1.85,0,0,0-.7-.8,2,2,0,0,0-1.1-.3,1.69,1.69,0,0,0-1,.3,2.7,2.7,0,0,0-.7.8,2.13,2.13,0,0,0-.3,1.2,2.66,2.66,0,0,0,.3,1.2,1.85,1.85,0,0,0,.7.8A1.69,1.69,0,0,0,130.13,227.55Z"/><path class="cls-3" d="M139.13,221.75a4.12,4.12,0,0,1,1.2.1,1.51,1.51,0,0,1,.8.4.86.86,0,0,1,.3.6.6.6,0,0,1-.1.4.52.52,0,0,1-.4.2.37.37,0,0,1-.3-.1c-.1-.1-.2-.1-.2-.2s-.1-.1-.2-.2-.2-.1-.4-.1h-.5a2.66,2.66,0,0,0-1.2.3,3,3,0,0,0-.8.8,2.13,2.13,0,0,0-.3,1.2,2.38,2.38,0,0,0,.3,1.2,2.7,2.7,0,0,0,.7.8,2,2,0,0,0,1.1.3c.2,0,.5,0,.6-.1a.6.6,0,0,1,.4-.1c.1-.1.2-.2.3-.2s.2-.1.4-.1a.52.52,0,0,1,.4.2.6.6,0,0,1,.1.4.55.55,0,0,1-.3.5,1.88,1.88,0,0,1-.9.4,5,5,0,0,1-1.2.2,3.1,3.1,0,0,1-1.7-.5,2.54,2.54,0,0,1-1.1-1.2,4.78,4.78,0,0,1-.4-1.8,3.17,3.17,0,0,1,1.6-3A4.78,4.78,0,0,1,139.13,221.75Z"/><path class="cls-3" d="M144.23,221.05a.75.75,0,0,1-.5-.1.59.59,0,0,1-.2-.5v-.2c0-.2.1-.4.2-.4a.75.75,0,0,1,.5-.1c.3,0,.4,0,.5.1a.52.52,0,0,1,.2.4v.2a.76.76,0,0,1-.2.5A1.21,1.21,0,0,1,144.23,221.05Zm.7,6.9c0,.2-.1.3-.2.5a.76.76,0,0,1-.5.2c-.2,0-.3-.1-.5-.2a.76.76,0,0,1-.2-.5v-5.4c0-.2.1-.3.2-.5a.76.76,0,0,1,.5-.2c.2,0,.3.1.5.2a.76.76,0,0,1,.2.5Z"/><path class="cls-3" d="M147.53,222h3a.52.52,0,0,1,.4.2.6.6,0,0,1-.4,1h-3a.52.52,0,0,1-.4-.2.5.5,0,0,1,0-.8A.52.52,0,0,1,147.53,222Zm1.3-1.6c.2,0,.3.1.5.2a.76.76,0,0,1,.2.5V227c0,.2,0,.3.1.4s.1.2.2.2.2.1.3.1.2,0,.2-.1.2-.1.3-.1a.37.37,0,0,1,.3.1c.1.1.1.2.1.4a.55.55,0,0,1-.3.5,1.85,1.85,0,0,1-.7.2h-.5a1.42,1.42,0,0,1-.6-.2c-.2-.1-.3-.3-.5-.5a2,2,0,0,1-.2-.9v-5.9c0-.2.1-.3.2-.5S148.63,220.35,148.83,220.35Z"/><path class="cls-3" d="M158.93,221.85c.2,0,.3.1.5.2a.76.76,0,0,1,.2.5v5.5c0,.2-.1.3-.2.5a.76.76,0,0,1-.5.2c-.2,0-.3-.1-.5-.2a.76.76,0,0,1-.2-.5v-.9l.3.1a1.69,1.69,0,0,1-.2.5,1.21,1.21,0,0,1-.5.5,2.51,2.51,0,0,1-.7.4,2.92,2.92,0,0,1-.9.2,3,3,0,0,1-1.6-.5,3.18,3.18,0,0,1-1.1-1.2,4.25,4.25,0,0,1,0-3.6,3.18,3.18,0,0,1,1.1-1.2,2.82,2.82,0,0,1,1.5-.4,3,3,0,0,1,1,.2,2.18,2.18,0,0,1,.8.5,2.65,2.65,0,0,1,.5.6,1.42,1.42,0,0,1,.2.6h-.4v-1.2c0-.2.1-.3.2-.5S158.73,221.85,158.93,221.85Zm-2.6,5.7a2.28,2.28,0,0,0,1.1-.3c.4-.2.5-.5.7-.8a2.38,2.38,0,0,0,.3-1.2,2.66,2.66,0,0,0-.3-1.2,1.85,1.85,0,0,0-.7-.8,2,2,0,0,0-1.1-.3,1.69,1.69,0,0,0-1,.3,2.7,2.7,0,0,0-.7.8,2.13,2.13,0,0,0-.3,1.2,2.66,2.66,0,0,0,.3,1.2,1.85,1.85,0,0,0,.7.8A1.69,1.69,0,0,0,156.33,227.55Zm.1-6.1c-.1,0-.1,0-.2-.1s-.1-.1-.1-.3,0-.1.1-.2l.7-1.3c.1-.1.1-.2.2-.3s.2-.1.4-.1a.76.76,0,0,1,.5.2c.1.1.1.2.1.4s0,.2-.1.2a.35.35,0,0,1-.1.2l-1,1.1c-.1.1-.2.1-.2.2Z"/><path class="cls-3" d="M165.83,221.75a2,2,0,0,1,1.4.4,1.83,1.83,0,0,1,.7,1,5.9,5.9,0,0,1,.2,1.4V228c0,.2-.1.3-.2.5a.76.76,0,0,1-.5.2c-.2,0-.3-.1-.5-.2a.76.76,0,0,1-.2-.5v-3.4a2,2,0,0,0-.1-.8,2.09,2.09,0,0,0-.4-.6,2,2,0,0,0-.9-.2,2.39,2.39,0,0,0-.9.2.9.9,0,0,0-.6.6,1.88,1.88,0,0,0-.2.8V228c0,.2-.1.3-.2.5a.76.76,0,0,1-.5.2c-.2,0-.3-.1-.5-.2a.76.76,0,0,1-.2-.5v-5.4c0-.2.1-.3.2-.5a.76.76,0,0,1,.5-.2c.2,0,.3.1.5.2a.76.76,0,0,1,.2.5v.7l-.2.1.3-.6a1.21,1.21,0,0,1,.5-.5,1.61,1.61,0,0,1,.7-.4C165.23,221.85,165.53,221.75,165.83,221.75Z"/><path class="cls-3" d="M176.33,219.25c.2,0,.3.1.5.2a.76.76,0,0,1,.2.5v8.1c0,.2-.1.3-.2.5a.76.76,0,0,1-.5.2c-.2,0-.3-.1-.5-.2a.76.76,0,0,1-.2-.5v-.9h.3c0,.2-.1.3-.2.5a1.21,1.21,0,0,1-.5.5,2.51,2.51,0,0,1-.7.4,2.92,2.92,0,0,1-.9.2,3,3,0,0,1-1.6-.5,3.18,3.18,0,0,1-1.1-1.2,4.25,4.25,0,0,1,0-3.6,3.18,3.18,0,0,1,1.1-1.2,2.54,2.54,0,0,1,2.5-.3,2.18,2.18,0,0,1,.8.5,2.65,2.65,0,0,1,.5.6,1.42,1.42,0,0,1,.2.6h-.4v-3.8c0-.2.1-.3.2-.5A.75.75,0,0,1,176.33,219.25Zm-2.6,8.3a2,2,0,0,0,1.1-.3,2.7,2.7,0,0,0,.7-.8,2.13,2.13,0,0,0,.3-1.2,2.38,2.38,0,0,0-.3-1.2,2.7,2.7,0,0,0-.7-.8,2,2,0,0,0-1.1-.3,1.69,1.69,0,0,0-1,.3,2.7,2.7,0,0,0-.7.8,2.13,2.13,0,0,0-.3,1.2,2.38,2.38,0,0,0,.3,1.2,2.7,2.7,0,0,0,.7.8A1.49,1.49,0,0,0,173.73,227.55Z"/><path class="cls-3" d="M186.13,225.25a3.17,3.17,0,0,1-1.6,3,3.81,3.81,0,0,1-3.4,0,3.5,3.5,0,0,1-1.7-3,2.73,2.73,0,0,1,.5-1.8,3.45,3.45,0,0,1,1.2-1.2,3.37,3.37,0,0,1,1.7-.5,2.62,2.62,0,0,1,1.7.5,3.45,3.45,0,0,1,1.2,1.2A4.78,4.78,0,0,1,186.13,225.25Zm-1.3,0a2.13,2.13,0,0,0-.3-1.2,2,2,0,0,0-.8-.8,2,2,0,0,0-1.1-.3,2.28,2.28,0,0,0-1.1.3,3,3,0,0,0-.8.8,2.13,2.13,0,0,0-.3,1.2,2.66,2.66,0,0,0,.3,1.2,2,2,0,0,0,.8.8,2,2,0,0,0,1.1.3,2.28,2.28,0,0,0,1.1-.3,3,3,0,0,0,.8-.8A2.66,2.66,0,0,0,184.83,225.25Z"/><path class="cls-3" d="M191.83,221.85a2,2,0,0,1,1.4.5,2.4,2.4,0,0,1,.7,1.2l-.2-.1.1-.2c.1-.2.3-.4.5-.7a5.55,5.55,0,0,1,.8-.6,3,3,0,0,1,1-.2,2.12,2.12,0,0,1,1.4.4,2.55,2.55,0,0,1,.7,1,3.18,3.18,0,0,1,.2,1.4V228c0,.2-.1.3-.2.5a.76.76,0,0,1-.5.2c-.2,0-.3-.1-.5-.2a.76.76,0,0,1-.2-.5v-3.3a2,2,0,0,0-.1-.8,2.09,2.09,0,0,0-.4-.6,1.88,1.88,0,0,0-.8-.2,2.92,2.92,0,0,0-.9.2.9.9,0,0,0-.6.6,1.88,1.88,0,0,0-.2.8V228c0,.2-.1.3-.2.5a.76.76,0,0,1-.5.2c-.2,0-.3-.1-.5-.2a.76.76,0,0,1-.2-.5v-3.4a2,2,0,0,0-.1-.8,2.09,2.09,0,0,0-.4-.6,1.88,1.88,0,0,0-.8-.2,2.92,2.92,0,0,0-.9.2.9.9,0,0,0-.6.6,1.88,1.88,0,0,0-.2.8V228c0,.2-.1.3-.2.5a.76.76,0,0,1-.5.2c-.2,0-.3-.1-.5-.2a.76.76,0,0,1-.2-.5v-5.4c0-.2.1-.3.2-.5a.76.76,0,0,1,.5-.2c.2,0,.3.1.5.2a.76.76,0,0,1,.2.5v.7l-.2.1.3-.6a1.21,1.21,0,0,1,.5-.5,1.61,1.61,0,0,1,.7-.4Z"/><path class="cls-3" d="M204.23,228.75a3.17,3.17,0,0,1-3.4-3.4,3,3,0,0,1,.5-1.9,3.45,3.45,0,0,1,1.2-1.2,2.82,2.82,0,0,1,1.5-.4,5,5,0,0,1,1.2.2,2.29,2.29,0,0,1,1,.7,3.59,3.59,0,0,1,.7,1,2.77,2.77,0,0,1,.3,1.3.52.52,0,0,1-.2.4.76.76,0,0,1-.4.2h-4.9l-.3-1.1h4.8l-.2.2v-.3a1.14,1.14,0,0,0-.3-.8,1.79,1.79,0,0,0-.7-.5,2.35,2.35,0,0,0-.8-.2,1.48,1.48,0,0,0-.7.1,2.09,2.09,0,0,0-.6.4,1.61,1.61,0,0,0-.4.7,3.59,3.59,0,0,0-.2,1.1,2.13,2.13,0,0,0,.3,1.2,3,3,0,0,0,.8.8,2,2,0,0,0,1.1.3,2,2,0,0,0,.8-.1c.2-.1.4-.1.5-.2s.3-.2.4-.3a.6.6,0,0,1,.4-.1.71.71,0,0,1,.6.6.55.55,0,0,1-.3.5,3.49,3.49,0,0,1-.9.6A5.24,5.24,0,0,1,204.23,228.75Z"/><path class="cls-3" d="M210.13,228.55a.68.68,0,0,1-.7-.7v-.2a.68.68,0,0,1,.7-.7h.1a.68.68,0,0,1,.7.7v.2a.68.68,0,0,1-.7.7Zm0-2.7a.37.37,0,0,1-.4-.4l-.3-5a.73.73,0,0,1,.2-.6.55.55,0,0,1,.5-.2.76.76,0,0,1,.5.2,1.07,1.07,0,0,1,.2.6l-.3,5C210.53,225.75,210.43,225.85,210.13,225.85Z"/></g><path class="cls-4" d="M205.13,151.05H45.23c-14.3,0-25.9,11-25.9,24.6v31.5H231v-31.4C231,162.15,219.53,151.05,205.13,151.05Z"/><g class="cls-2"><path class="cls-5" d="M27.13,190.45a.78.78,0,0,1,.7.3.91.91,0,0,1,.3.7v.3a.78.78,0,0,1-.3.7.91.91,0,0,1-.7.3h-.2a.78.78,0,0,1-.7-.3.91.91,0,0,1-.3-.7v-.3a.78.78,0,0,1,.3-.7.91.91,0,0,1,.7-.3Zm-.1,3.7a.53.53,0,0,1,.6.6l.5,6.1a1.61,1.61,0,0,1-.3.9,1.22,1.22,0,0,1-1.6,0,1.22,1.22,0,0,1-.3-.9l.5-6.1A.53.53,0,0,1,27,194.15Z"/><path class="cls-5" d="M34.73,190.45l-3.6,8.4a1,1,0,0,1-.4.5c-.2.1-.3.2-.5.2a1.45,1.45,0,0,1-.7-.2,1.42,1.42,0,0,1-.2-.6.37.37,0,0,1,.1-.3l4.1-9.9a1,1,0,0,1,.4-.5.66.66,0,0,1,.6-.1,1.42,1.42,0,0,1,.6.2,1,1,0,0,1,.4.5l4.1,9.7a.6.6,0,0,1,.1.4.91.91,0,0,1-.3.7.86.86,0,0,1-.6.3.76.76,0,0,1-.5-.2,1,1,0,0,1-.4-.5l-3.6-8.3Zm-3.1,6.4.9-1.9H37l.3,1.9Z"/><path class="cls-5" d="M45.83,187.85a3,3,0,0,1,1.6.5,3.74,3.74,0,0,1,1.2,1.3,3.83,3.83,0,0,1,.5,1.9,4.14,4.14,0,0,1-.5,1.9,3.34,3.34,0,0,1-2.8,1.8h-3l.2-.3v3.4a1,1,0,0,1-2,0v-9.5a1,1,0,0,1,1-1Zm0,5.6a.86.86,0,0,0,.6-.3,1.79,1.79,0,0,0,.5-.7,2.13,2.13,0,0,0,0-1.8,1.79,1.79,0,0,0-.5-.7.86.86,0,0,0-.6-.3h-3.1l.2-.3v4.2l-.2-.3h3.1Z"/><path class="cls-5" d="M52.23,199.45a1.14,1.14,0,0,1-.8-.3,1,1,0,0,1-.4-.7V189a1,1,0,0,1,1-1h4.8a3.34,3.34,0,0,1,2.8,1.8,3.74,3.74,0,0,1,.5,1.8,2.66,2.66,0,0,1-.3,1.2,4.13,4.13,0,0,1-.7,1.1,2.29,2.29,0,0,1-1,.7v-.4a5.55,5.55,0,0,1,.8.6,3,3,0,0,1,.5.7,2.35,2.35,0,0,1,.2.8c0,.3.1.5.1.7a.75.75,0,0,0,.1.5.32.32,0,0,0,.3.3,1,1,0,0,1,.5.6.62.62,0,0,1-.2.7,2.19,2.19,0,0,1-.5.3h-.6c-.2,0-.3-.1-.5-.2a2.65,2.65,0,0,1-.6-.5,3.6,3.6,0,0,1-.5-.9,5.21,5.21,0,0,1-.2-1.4.75.75,0,0,0-.1-.5,1.38,1.38,0,0,0-.3-.4,2.19,2.19,0,0,0-.5-.3,1.48,1.48,0,0,0-.7-.1h-3.3l.2-.4v3.6a1.45,1.45,0,0,1-.2.7C52.73,199.35,52.43,199.45,52.23,199.45Zm.6-5.9h3.8a.86.86,0,0,0,.6-.3,4.23,4.23,0,0,0,.5-.7,3.55,3.55,0,0,0,.2-1,1.59,1.59,0,0,0-.4-1.2c-.3-.3-.5-.5-.8-.5h-3.8l.2-.5v4.7Z"/><path class="cls-5" d="M63.33,187.85h5.5a1,1,0,0,1,0,2h-4.6l.1-.3v3.2l-.1-.1h3.9a1,1,0,0,1,0,2h-3.8l.1-.1v3.3l-.1-.1h4.6a1,1,0,0,1,0,2h-5.5a1,1,0,0,1-1-1v-9.5a.91.91,0,0,1,.3-.7C62.83,188,63,187.85,63.33,187.85Z"/><path class="cls-5" d="M80.53,187.85a.6.6,0,0,1,.6.3.84.84,0,0,1,.2.7v9.6a1,1,0,0,1-1,1,.6.6,0,0,1-.4-.1c-.1,0-.3-.1-.3-.2l-6.5-8.2.4-.3v7.9a1,1,0,0,1-1,1,.6.6,0,0,1-.6-.3.84.84,0,0,1-.2-.7V189a1.05,1.05,0,0,1,1.5-.9,1.38,1.38,0,0,1,.4.3l6.3,8-.3.2v-7.7a1.45,1.45,0,0,1,.2-.7A1.33,1.33,0,0,1,80.53,187.85Z"/><path class="cls-5" d="M88.93,187.85a4.64,4.64,0,0,1,2.1.4,6.1,6.1,0,0,1,1.6,1.2,5.73,5.73,0,0,1,1,1.9,5.34,5.34,0,0,1,.3,2.2,6.84,6.84,0,0,1-.6,2.9,4.43,4.43,0,0,1-1.7,2.1,4.55,4.55,0,0,1-2.7.8H85a1,1,0,0,1-1-1v-9.5a1,1,0,0,1,1-1Zm-.2,9.7a2.86,2.86,0,0,0,1.7-.5,3.59,3.59,0,0,0,1-1.4,5.82,5.82,0,0,0,.3-1.9,7.72,7.72,0,0,0-.2-1.5,3.34,3.34,0,0,0-.5-1.2c-.2-.4-.6-.6-.9-.9a2.77,2.77,0,0,0-1.3-.3h-2.9l.2-.1v8.1l-.1-.2h2.7Z"/><path class="cls-5" d="M96.73,187.85h5.5a1,1,0,0,1,0,2h-4.6l.1-.3v3.2l-.1-.1h3.9a1,1,0,0,1,0,2h-3.8l.1-.1v3.3l-.1-.1h4.6a1,1,0,0,1,0,2h-5.5a1,1,0,0,1-1-1v-9.5a.91.91,0,0,1,.3-.7C96.33,188.35,96.53,187.85,96.73,187.85Z"/><path class="cls-5" d="M106.43,199.45a1.14,1.14,0,0,1-.8-.3,1,1,0,0,1-.4-.7V189a1,1,0,0,1,1-1H111a3.34,3.34,0,0,1,2.8,1.8,3.45,3.45,0,0,1,.5,1.8,2.66,2.66,0,0,1-.3,1.2,4.13,4.13,0,0,1-.7,1.1,2.29,2.29,0,0,1-1,.7v-.4a5.55,5.55,0,0,1,.8.6,3,3,0,0,1,.5.7,2.35,2.35,0,0,1,.2.8c0,.3.1.5.1.7a.75.75,0,0,0,.1.5.32.32,0,0,0,.3.3,1,1,0,0,1,.5.6.62.62,0,0,1-.2.7,2.19,2.19,0,0,1-.5.3h-.6c-.2,0-.3-.1-.5-.2a2.65,2.65,0,0,1-.6-.5,3.6,3.6,0,0,1-.5-.9,5.21,5.21,0,0,1-.2-1.4.75.75,0,0,0-.1-.5,1.38,1.38,0,0,0-.3-.4,2.19,2.19,0,0,0-.5-.3,1.48,1.48,0,0,0-.7-.1h-3.3l.2-.4v3.6a1.45,1.45,0,0,1-.2.7C106.73,199.15,106.63,199.45,106.43,199.45Zm.6-5.9h3.8a.86.86,0,0,0,.6-.3,4.23,4.23,0,0,0,.5-.7,3.55,3.55,0,0,0,.2-1,1.59,1.59,0,0,0-.4-1.2c-.3-.3-.5-.5-.8-.5h-3.8l.2-.5v4.7Z"/><path class="cls-5" d="M126.13,187.85a4.64,4.64,0,0,1,2.1.4,6.1,6.1,0,0,1,1.6,1.2,5.73,5.73,0,0,1,1,1.9,5.34,5.34,0,0,1,.3,2.2,6.84,6.84,0,0,1-.6,2.9,4.43,4.43,0,0,1-1.7,2.1,4.55,4.55,0,0,1-2.7.8h-3.9a1,1,0,0,1-1-1v-9.5a1,1,0,0,1,1-1Zm-.2,9.7a2.86,2.86,0,0,0,1.7-.5,3.59,3.59,0,0,0,1-1.4,5.82,5.82,0,0,0,.3-1.9,7.72,7.72,0,0,0-.2-1.5,3.34,3.34,0,0,0-.5-1.2c-.2-.4-.6-.6-.9-.9a2.77,2.77,0,0,0-1.3-.3h-2.9l.2-.1v8.1l-.1-.2h2.7Z"/><path class="cls-5" d="M134,187.85h5.5a1,1,0,0,1,0,2h-4.6l.1-.3v3.2l-.1-.1h3.9a1,1,0,0,1,0,2H135l.1-.1v3.3l-.1-.1h4.6a1,1,0,0,1,0,2h-5.5a1,1,0,0,1-1-1v-9.5a.91.91,0,0,1,.3-.7C133.63,188.35,133.73,187.85,134,187.85Z"/><path class="cls-5" d="M155.33,187.85a1,1,0,0,1,1,1v6a4.75,4.75,0,0,1-.6,2.4,4.36,4.36,0,0,1-1.6,1.7,5.1,5.1,0,0,1-4.8,0,3.78,3.78,0,0,1-1.6-1.7,4.75,4.75,0,0,1-.6-2.4v-6a.91.91,0,0,1,.3-.7,1.14,1.14,0,0,1,.8-.3,1,1,0,0,1,1,1v6a2.12,2.12,0,0,0,.4,1.4,2,2,0,0,0,.9.9,2.66,2.66,0,0,0,1.2.3,2.77,2.77,0,0,0,1.3-.3,2.84,2.84,0,0,0,1-.9,2.3,2.3,0,0,0,.4-1.4v-6a1.45,1.45,0,0,1,.2-.7A.78.78,0,0,1,155.33,187.85Z"/><path class="cls-5" d="M162.43,199.55a6.65,6.65,0,0,1-2.1-.3,5.42,5.42,0,0,1-1.8-1c-.1-.1-.3-.3-.3-.4a4.33,4.33,0,0,1-.1-.5,1,1,0,0,1,1-1,1.42,1.42,0,0,1,.6.2,8.34,8.34,0,0,0,1.2.8,3.34,3.34,0,0,0,1.5.3,3.59,3.59,0,0,0,1.1-.2,2.18,2.18,0,0,0,.8-.5,1.08,1.08,0,0,0,.3-.7,1.14,1.14,0,0,0-.3-.8,3.49,3.49,0,0,0-.9-.6,5.29,5.29,0,0,0-1.6-.4,7.49,7.49,0,0,1-1.6-.4,3,3,0,0,1-1.1-.7,3.59,3.59,0,0,1-.7-1,2.74,2.74,0,0,1-.2-1.3,2.79,2.79,0,0,1,.6-1.8,4.43,4.43,0,0,1,1.5-1.2,4.64,4.64,0,0,1,2.1-.4,6.45,6.45,0,0,1,2,.3,5.3,5.3,0,0,1,1.5.8c.3.3.5.5.5.9a1.08,1.08,0,0,1-.3.7.91.91,0,0,1-.7.3c-.2,0-.3,0-.4-.1a1.61,1.61,0,0,0-.7-.4,3.18,3.18,0,0,0-.9-.3c-.3,0-.6-.1-.9-.1a3.73,3.73,0,0,0-1.2.2,1.28,1.28,0,0,0-.7.5,1.85,1.85,0,0,0-.2.7,1.14,1.14,0,0,0,.3.8,2.18,2.18,0,0,0,.8.5c.4.1.8.2,1.3.3.7.1,1.2.3,1.7.4a3.37,3.37,0,0,1,1.2.6,2.29,2.29,0,0,1,.7,1,3.18,3.18,0,0,1,.2,1.4,3.29,3.29,0,0,1-.6,1.9,3.25,3.25,0,0,1-1.6,1.2A4.43,4.43,0,0,1,162.43,199.55Z"/><path class="cls-5" d="M168.83,189.75a1,1,0,0,1,0-2h7.3a1,1,0,0,1,0,2Zm3.7,9.7a1.14,1.14,0,0,1-.8-.3.91.91,0,0,1-.3-.7v-9.6h2.1v9.6a1,1,0,0,1-1,1Z"/><path class="cls-5" d="M179.93,187.85h5.5a1,1,0,0,1,0,2h-4.6l.1-.3v3.2l-.1-.1h3.9a1,1,0,0,1,0,2h-3.8l.1-.1v3.3l-.1-.1h4.6a1,1,0,0,1,0,2H180a1,1,0,0,1-1-1v-9.5a.91.91,0,0,1,.3-.7C179.53,188.35,179.63,187.85,179.93,187.85Z"/><path class="cls-5" d="M193.33,187.85a4.64,4.64,0,0,1,2.1.4,6.1,6.1,0,0,1,1.6,1.2,5.73,5.73,0,0,1,1,1.9,5.34,5.34,0,0,1,.3,2.2,6.84,6.84,0,0,1-.6,2.9,4.43,4.43,0,0,1-1.7,2.1,4.55,4.55,0,0,1-2.7.8h-3.9a1,1,0,0,1-1-1v-9.5a1,1,0,0,1,1-1Zm-.2,9.7a2.86,2.86,0,0,0,1.7-.5,3.59,3.59,0,0,0,1-1.4,5.82,5.82,0,0,0,.3-1.9,7.72,7.72,0,0,0-.2-1.5,3.34,3.34,0,0,0-.5-1.2c-.2-.4-.6-.6-.9-.9a2.77,2.77,0,0,0-1.3-.3h-2.9l.2-.1v8.1l-.1-.2h2.7Z"/><path class="cls-5" d="M201.23,187.85h5.5a1,1,0,0,1,0,2h-4.6l.1-.3v3.2l-.1-.1H206a1,1,0,0,1,0,2h-3.8l.1-.1v3.3l-.1-.1h4.6a1,1,0,0,1,0,2h-5.5a1,1,0,0,1-1-1v-9.5a.91.91,0,0,1,.3-.7C200.83,188.35,200.93,187.85,201.23,187.85Z"/><path class="cls-5" d="M213.33,199.55a6.65,6.65,0,0,1-2.1-.3,5.42,5.42,0,0,1-1.8-1c-.1-.1-.3-.3-.3-.4a4.33,4.33,0,0,1-.1-.5,1,1,0,0,1,1-1,1.42,1.42,0,0,1,.6.2,8.34,8.34,0,0,0,1.2.8,3.34,3.34,0,0,0,1.5.3,3.59,3.59,0,0,0,1.1-.2,2.18,2.18,0,0,0,.8-.5,1.08,1.08,0,0,0,.3-.7,1.14,1.14,0,0,0-.3-.8,3.49,3.49,0,0,0-.9-.6,5.29,5.29,0,0,0-1.6-.4,7.49,7.49,0,0,1-1.6-.4,3,3,0,0,1-1.1-.7,3.59,3.59,0,0,1-.7-1,2.74,2.74,0,0,1-.2-1.3,2.79,2.79,0,0,1,.6-1.8,4.43,4.43,0,0,1,1.5-1.2,4.64,4.64,0,0,1,2.1-.4,6.45,6.45,0,0,1,2,.3,5.3,5.3,0,0,1,1.5.8c.3.3.5.5.5.9a1.08,1.08,0,0,1-.3.7.91.91,0,0,1-.7.3c-.2,0-.3,0-.4-.1a1.61,1.61,0,0,0-.7-.4,3.18,3.18,0,0,0-.9-.3c-.3,0-.6-.1-.9-.1a3.73,3.73,0,0,0-1.2.2,1.28,1.28,0,0,0-.7.5,1.85,1.85,0,0,0-.2.7,1.14,1.14,0,0,0,.3.8,2.18,2.18,0,0,0,.8.5c.4.1.8.2,1.3.3.7.1,1.2.3,1.7.4a3.37,3.37,0,0,1,1.2.6,2.29,2.29,0,0,1,.7,1,3.18,3.18,0,0,1,.2,1.4,3.29,3.29,0,0,1-.6,1.9,3.25,3.25,0,0,1-1.6,1.2A4.43,4.43,0,0,1,213.33,199.55Z"/><path class="cls-5" d="M220.33,199.45a.78.78,0,0,1-.7-.3,1.49,1.49,0,0,1-.3-.7v-.3a.78.78,0,0,1,.3-.7.91.91,0,0,1,.7-.3h.2a.78.78,0,0,1,.7.3.91.91,0,0,1,.3.7v.3a.78.78,0,0,1-.3.7.91.91,0,0,1-.7.3Zm.2-3.7a.53.53,0,0,1-.6-.6l-.5-6.1a1.61,1.61,0,0,1,.3-.9,1.22,1.22,0,0,1,1.6,0,1.22,1.22,0,0,1,.3.9l-.5,6.1Q221,195.75,220.53,195.75Z"/></g><g class="cls-2"><path class="cls-5" d="M107.83,175.65a1.37,1.37,0,0,1,1.4,1.4,1,1,0,0,1-.4.9,1.28,1.28,0,0,1-1,.4h-8.4a1.16,1.16,0,0,1-1-.4,1.78,1.78,0,0,1-.4-1,1.5,1.5,0,0,1,.4-1.1l5.4-5.7a8.11,8.11,0,0,0,1.4-2,3.52,3.52,0,0,0,.5-1.8,2.72,2.72,0,0,0-.7-2,2.49,2.49,0,0,0-1.9-.7,4.4,4.4,0,0,0-1,.2,4.7,4.7,0,0,0-.9.6,6.47,6.47,0,0,0-.8.9,1.33,1.33,0,0,1-.6.5,1.09,1.09,0,0,1-.5.1,1.28,1.28,0,0,1-1-.4,1.38,1.38,0,0,1-.5-.9,1.33,1.33,0,0,1,.3-.8,5,5,0,0,1,.7-.8,7.55,7.55,0,0,1,1.4-1.1,4.59,4.59,0,0,1,1.6-.7,4.53,4.53,0,0,1,1.6-.3,5.43,5.43,0,0,1,2.9.7,4.69,4.69,0,0,1,1.9,1.8,6.1,6.1,0,0,1,.7,2.8,7.48,7.48,0,0,1-.8,3,12.13,12.13,0,0,1-2.1,3.1l-3.3,3.5-.3-.2Z"/><path class="cls-5" d="M118.13,178.65a6.15,6.15,0,0,1-3.6-1.1,6.51,6.51,0,0,1-2.2-3.1,13,13,0,0,1-.8-4.6,12.62,12.62,0,0,1,.8-4.6,6.51,6.51,0,0,1,2.2-3.1,6.44,6.44,0,0,1,7.2,0,6.51,6.51,0,0,1,2.2,3.1,13.62,13.62,0,0,1,0,9.2,6.51,6.51,0,0,1-2.2,3.1A6.15,6.15,0,0,1,118.13,178.65Zm0-3a2.41,2.41,0,0,0,1.8-.7,4.27,4.27,0,0,0,1.2-2,13.81,13.81,0,0,0,0-6.6,4.85,4.85,0,0,0-1.2-2,2.87,2.87,0,0,0-1.8-.7,2.41,2.41,0,0,0-1.8.7,4.27,4.27,0,0,0-1.2,2,13.81,13.81,0,0,0,0,6.6,4.85,4.85,0,0,0,1.2,2A2.41,2.41,0,0,0,118.13,175.65Z"/><path class="cls-5" d="M136.83,175.65a1.37,1.37,0,0,1,1.4,1.4,1,1,0,0,1-.4.9,1.28,1.28,0,0,1-1,.4h-8.4a1.16,1.16,0,0,1-1-.4,1.78,1.78,0,0,1-.4-1,1.5,1.5,0,0,1,.4-1.1l5.4-5.7a8.11,8.11,0,0,0,1.4-2,3.52,3.52,0,0,0,.5-1.8,2.72,2.72,0,0,0-.7-2,2.49,2.49,0,0,0-1.9-.7,4.4,4.4,0,0,0-1,.2,4.7,4.7,0,0,0-.9.6,6.47,6.47,0,0,0-.8.9,1.33,1.33,0,0,1-.6.5,1.09,1.09,0,0,1-.5.1,1.28,1.28,0,0,1-1-.4,1.38,1.38,0,0,1-.5-.9,1.33,1.33,0,0,1,.3-.8,5,5,0,0,1,.7-.8,7.55,7.55,0,0,1,1.4-1.1,4.59,4.59,0,0,1,1.6-.7,4.53,4.53,0,0,1,1.6-.3,5.43,5.43,0,0,1,2.9.7,4.69,4.69,0,0,1,1.9,1.8,6.1,6.1,0,0,1,.7,2.8,7.48,7.48,0,0,1-.8,3,12.13,12.13,0,0,1-2.1,3.1l-3.3,3.5-.3-.2Z"/><path class="cls-5" d="M142.33,175a1.09,1.09,0,0,1,.5.1.86.86,0,0,1,.6.3,8.79,8.79,0,0,0,1,.6,2.74,2.74,0,0,0,1.3.2,2.3,2.3,0,0,0,1.4-.4,2.91,2.91,0,0,0,1.1-1.1,3.06,3.06,0,0,0,.4-1.7,2.41,2.41,0,0,0-.4-1.5,2.84,2.84,0,0,0-1-.9,3.08,3.08,0,0,0-1.3-.3,2.22,2.22,0,0,0-.9.1c-.2.1-.5.1-.7.2a2,2,0,0,1-.8.1,1,1,0,0,1-.9-.4,1.61,1.61,0,0,1-.3-.9,1.27,1.27,0,0,1,.1-.6,2.09,2.09,0,0,1,.4-.6l4.3-4.6.7.6h-6a1.37,1.37,0,0,1-1.4-1.4,1,1,0,0,1,.4-.9,1.28,1.28,0,0,1,1-.4h7.5a1.25,1.25,0,0,1,1.1.4,1.37,1.37,0,0,1,.4,1.1,1.42,1.42,0,0,1-.2.6c-.1.2-.3.4-.4.6l-4.3,4.7-.7-.8a1.45,1.45,0,0,1,.7-.2c.3,0,.6-.1.8-.1a4.9,4.9,0,0,1,2.5.7,4.21,4.21,0,0,1,1.6,1.9,5.83,5.83,0,0,1,.6,2.6,5.94,5.94,0,0,1-.8,3.1,4.52,4.52,0,0,1-2.3,2,7.39,7.39,0,0,1-3.4.7,11,11,0,0,1-1.8-.2,3.39,3.39,0,0,1-1.5-.6,1.2,1.2,0,0,1-.7-.7,2.54,2.54,0,0,1-.2-.7,1.67,1.67,0,0,1,.4-1.1A2.37,2.37,0,0,1,142.33,175Z"/></g><path class="cls-5" d="M88.55,134.35A101.9,101.9,0,0,1,76,121.8a15,15,0,0,1-3-5l34-26.7a12.76,12.76,0,0,0,1.83,1.71,79.73,79.73,0,0,0,8.41-14.26,74.29,74.29,0,0,0-8.78-8.78c-.61.61-1.09,1.22-1.7,1.83,0,0-.12.12-.37,0C94.65,62.06,82.7,53.9,70.51,46.34a26.11,26.11,0,0,1,4-7.44,99.8,99.8,0,0,1,9.15-11A19,19,0,0,1,86,25.86l32.19,28.89a23.27,23.27,0,0,0-1.71,2.92c2.68,1.47,5.12,3.66,8.41,4.88a12.31,12.31,0,0,1,1.46-5.85c.13-.24.25-.61.61-.73a.91.91,0,0,1,1.1.36c1.34,2.32,1.46,5.12,1.71,7.93s.36,5.61.49,8.41c1.34-4.15,1.09-8.53,1.46-12.92a7.92,7.92,0,0,1,1-3.78,3.33,3.33,0,0,1,.61-.73A1.47,1.47,0,0,1,135,56a5.83,5.83,0,0,1,.49,2.31,4.89,4.89,0,0,1,1.7-2.19c3.54-3.05,7.81-5.73,9.76-10a3,3,0,0,1,.73-2.43C153.9,34,159.62,24,165.11,14a16.49,16.49,0,0,1,4.76,1,38.48,38.48,0,0,1,14.62,10.12l-25,29.25a13.49,13.49,0,0,0-1.34-.73,16.16,16.16,0,0,0-1.22,1.83,43.1,43.1,0,0,0-5,14.87,37.74,37.74,0,0,0,13.54,9c.12.13.36.13.61.13s.36-.25.48-.37.49-.24,1,.12c6.7,3.42,13.41,7,20,10.36,3.41,1.83,6.83,3.66,10.36,5.37,2.56,1.34,5.12,2.68,7.93,4.26a49.44,49.44,0,0,1-13.41,21.58L155.48,96.2a17.41,17.41,0,0,1,1.1-2.08,34.36,34.36,0,0,0-7.07-5c-1.71,3-3.29,6.09-5,9.14a12.39,12.39,0,0,0-1.83,5c.49-.12.73.61.73,1.09a16.86,16.86,0,0,1-.36,3.54l-8.9-.61s-12.19.85-12.32.73c1-1.22.86-2.8.74-4.39,0-.36,0-.73.24-.85s.24,0,.24-.12c.25-.12.25-.37.25-.61a14.67,14.67,0,0,0-.13-3.41c-.36.12-.6.24-1,.36a7.79,7.79,0,0,0-2.68,2.2l-1.59,1.58c-2.07,2.07-4,4.14-6.09,6.34C104.28,117.53,96.6,125.58,88.55,134.35Z"/><path d="M105,96.44h0a.26.26,0,0,1-.24-.24l.12-3a.26.26,0,0,1,.24-.24.27.27,0,0,1,.25.24l-.13,3A.26.26,0,0,1,105,96.44Z"/><path d="M107.45,99.12a.26.26,0,0,1-.24-.24,43.92,43.92,0,0,1,0-5.85.24.24,0,1,1,.48,0v5.73c0,.24-.12.36-.24.36Z"/><path d="M109.64,101.93a.27.27,0,0,1-.24-.25,62.39,62.39,0,0,1,0-6.7.25.25,0,1,1,.49,0,62.39,62.39,0,0,0,0,6.7.27.27,0,0,1-.25.25Z"/><path d="M111.84,104.24h0a.27.27,0,0,1-.25-.24l.13-6.71a.24.24,0,0,1,.48,0l-.12,6.71A.26.26,0,0,1,111.84,104.24Z"/><path d="M114,105.71h0a.27.27,0,0,1-.24-.25c0-1.95.12-3.9.24-5.85a.25.25,0,0,1,.49,0c-.12,2-.24,3.9-.24,5.85C114.28,105.71,114.15,105.71,114,105.71Z"/><path d="M116.1,103.63a.26.26,0,0,1-.24-.24,10.64,10.64,0,0,1,.12-2,.25.25,0,0,1,.49,0,9.38,9.38,0,0,0-.12,1.83c0,.24,0,.36-.25.36Z"/><path d="M167.91,102.78a.42.42,0,0,1-.24-.12c-.49-1.71-.85-3.54-1.22-5.24a.26.26,0,0,1,.25-.25c.12,0,.24,0,.24.25.36,1.7.73,3.53,1.22,5.24,0,0,0,.12-.25.12Z"/><path d="M172.3,104.85c-.12,0-.12,0-.24-.12a105.68,105.68,0,0,1-3.54-11c0-.12,0-.24.13-.24s.24,0,.24.12a86.88,86.88,0,0,0,3.53,10.85c.13.24.13.36-.12.36Z"/><path d="M176.2,106.68c-.12,0-.12,0-.24-.12-2-5-3.78-10.12-5.36-15.24,0-.12,0-.24.12-.24s.24,0,.24.12c1.59,5.12,3.42,10.24,5.37,15.12.12.24,0,.36-.13.36Z"/><path d="M180.35,109.48c-.12,0-.12,0-.24-.12-2.69-7.07-5.12-14.26-7.2-21.45,0-.12,0-.25.12-.25s.25,0,.25.13c2.07,7.19,4.51,14.38,7.19,21.45.12,0,0,.12-.12.24Z"/><path d="M183.76,111.19c-.12,0-.24,0-.24-.12L175,85.59c0-.12,0-.24.13-.24s.24,0,.24.12L183.88,111c.13,0,0,.12-.12.24Z"/><path d="M188,115c-.12,0-.12,0-.25-.12L178.52,88c0-.12,0-.24.12-.24s.25,0,.25.12l9.26,26.82c.12.12,0,.24-.12.24Z"/><path d="M192.66,118.87c-.12,0-.12,0-.24-.12-3.29-9.27-6.34-18.77-8.9-28.28,0-.12,0-.25.12-.25s.24,0,.24.13c2.69,9.5,5.61,19,8.9,28.28.12,0,.12.12-.12.24Z"/><path d="M194.86,115.09c-.13,0-.13,0-.25-.12-2.68-7.31-5.24-14.87-7.43-22.31,0-.12,0-.24.12-.24s.24,0,.24.12c2.2,7.44,4.76,15,7.44,22.31.12.12.12.24-.12.24Z"/><path d="M197.05,111.31a.42.42,0,0,1-.24-.12l-5.25-16.58c0-.12,0-.24.13-.24s.24,0,.24.12l5.24,16.58c.12.12.12.24-.12.24Z"/><path d="M199.37,107.9a.42.42,0,0,1-.25-.12l-3.05-10.61c0-.12,0-.24.13-.24s.24,0,.24.12l3.05,10.61c.12.12,0,.24-.12.24Z"/><path d="M202.05,104.49a.45.45,0,0,1-.25-.13l-1.46-5.85c0-.12,0-.24.12-.24s.25,0,.25.12l1.46,5.85c.12,0,0,.12-.12.25Z"/><path class="cls-6" d="M121,143.5c.37-11.71.61-23.53.61-35.23a110.07,110.07,0,0,1,21.94.36,339.34,339.34,0,0,0,.73,35.11c-4,.85-8.29-.37-12.43-.61A81,81,0,0,0,121,143.5Z"/><g class="cls-7"><path d="M156.94,91.44c-1.7-1.46-3.41-2.44-4.87-3.78.24-.48.36-1.09.61-1.58a40.21,40.21,0,0,0,.73-6.58,32.57,32.57,0,0,0,.12-3.42c-.12-.48,0-1-.24-1.34a.74.74,0,0,0-1.22.12c-.25.13-.49.37-.37.61a13.4,13.4,0,0,1-1,4.64,28.75,28.75,0,0,1-1.59,4.38,38.19,38.19,0,0,1-2.07,4.27C145.85,91,144.63,93,143.29,95a12.22,12.22,0,0,0-2.8,6.7v.61a1.34,1.34,0,0,0,.36.86l.24.24v.12a15.61,15.61,0,0,0,.13,4.15c.12.12.24.36.36.36a.87.87,0,0,0-.85,1c-.12,2.44,0,4.87,0,7.31-.12,2.07.12,4.15.12,6.22,0,1.46.24,2.92.37,4.51,0,1.34,0,2.68.12,4.14v1.22c0,1.71-.12,3.29,0,4.51a12.1,12.1,0,0,0,.12,2.08,4.16,4.16,0,0,0,0,1.22c0,.73.12,1.34.12,1.82,0,.25-.12.61-.12.86a1.58,1.58,0,0,0,.12.73,1.89,1.89,0,0,0,.37.49c.61-.13,1.1-.13,1.7-.25.13-.12.13-.24.25-.36v-.13c.12-.24,0,0,0,.13h0v-.13a8.41,8.41,0,0,0,.24-1.58v-1.34a1.27,1.27,0,0,0,.12-1c-.12-1.09-.12-1.22-.24-2.31s-.12-2.2-.12-3.29v-2.81c0-.12.12-.24.12-.49V130c0-.74-.12-1.47-.12-2.08,0-.85-.12-1.83-.12-2.68-.13-1.34-.25-2.68-.25-4.14v-.37c0-.49-.12-1-.12-1.46,0-1.95.24-4,.12-6,0-1.22,0-2.43-.12-3.65-.12-.49.12-1.22-.36-1.59a.66.66,0,0,0-.49-.24l.24-.25a6.44,6.44,0,0,0,0-2.19c-.12-.73.25-1.58,0-2.44a.26.26,0,0,0-.24-.24,12.44,12.44,0,0,1,2.07-5.61,75.69,75.69,0,0,0,4.88-8.78.92.92,0,0,0,1,.73c.25.25.61.49.85.74,1.22,1,2.08,1.46,2.81,2.07s.49.36,1.46,1.1a7.49,7.49,0,0,0,1,.48,1.05,1.05,0,0,0,1.22-1.09C157.8,92.05,157.31,91.81,156.94,91.44Z"/></g><g class="cls-7"><path d="M145.36,75.35c0-1.95-.12-4-.24-6a5.81,5.81,0,0,0-.25-1.47,1.41,1.41,0,1,0-2.8.25c.49,2.07.24,7.07.37,10.36.12.73.12,1.46.24,2.2v.12a3.38,3.38,0,0,0,.12,1.09,1,1,0,0,0,1.59.37c.36-.37.24-.85.36-1.22V81h0v-.24A16.18,16.18,0,0,0,145.36,75.35Z"/></g><g class="cls-7"><path d="M121.71,95.71c-.36.73-1,1.1-2.19,1.71h.12c-.37.24-.85.36-1.22.61-.12,0-.12-.13-.24-.13a14.92,14.92,0,0,1-1.83-1.22,44.55,44.55,0,0,1-6.1-5.12c-.36-.36-.73-.85-1.22-.85a.92.92,0,0,0-.61,1.59c1.1,1.09,2.2,2.31,3.42,3.41,1,.85,2.19,1.71,3.17,2.68.61.61,1.34,1.22,1.83,1.83l.24.24c-.12-.12-.12-.24-.24-.24a1.59,1.59,0,0,1,.36.49,2.11,2.11,0,0,0-.85.61h0c-3.42,3.17-6.58,5.36-9.14,7.92a37.7,37.7,0,0,0-4.15,4.51c-1.22,1.46-2.44,2.81-3.66,4.27-2.56,2.8-7.8,8.17-11,12.19A17.72,17.72,0,0,0,87.09,132a.9.9,0,0,0-.24.49,24.24,24.24,0,0,1,1.7,1.95c.86-.25,1.47-1.35,2.08-2.08,0,0,1-1.22,1.22-1.46.85-1,1.7-1.95,2.43-2.93a81.23,81.23,0,0,1,5.49-6.21c.73-.73,1.46-1.59,2.19-2.2.86-.85,1.83-1.58,2.56-2.44,1.22-1.21,2.32-2.56,3.54-3.77,3.29-3.17,6.7-6.1,10.12-9h0c.12-.12.36-.24.48-.36l.74-.73a1.88,1.88,0,0,0-.13-2,1.26,1.26,0,0,0,.74-1.47,6.23,6.23,0,0,0,2.31-2.07h0a4.32,4.32,0,0,0,.86-1.22C123.42,95.59,122.2,94.86,121.71,95.71Z"/></g><g class="cls-7"><path d="M116.59,57.43l-.24-.24c-.86,1.09-1.59,2.19-2.44,3.29-.49.73-1,1.46-1.34,2.07s-.85,1.46-1.22,2.07c-.12.25-.49.37-.61.25-.49.61-.85,1.22-1.34,1.83s-.85,1.46-1.34,2.07a1.74,1.74,0,0,0,2.56,1.1l.36-.37h0l.13-.12a.64.64,0,0,0,.24-.49c0-.12.12-.12.12-.24s.25-.37.37-.61c.61-.86,1.83-2.32,3-4.27.85-1.22,1.58-2.44,2.31-3.66a5.31,5.31,0,0,0,1-1.83A4.94,4.94,0,0,1,116.59,57.43Z"/></g><g class="cls-7"><path d="M193.15,119.12c0-.13-.12-.13-.12-.25a.42.42,0,0,0-.12-.24l-.13-.12a.42.42,0,0,0-.12-.25,1.88,1.88,0,0,0-.49-.49.13.13,0,0,1,.13.13c-.25-.25-.49-.37-.61-.61a42.14,42.14,0,0,0-4.15-2.93c-2.07-1.71-4-2.8-6.83-4.75-3.65-2.69-7.43-5.25-11.21-7.68-1.1-.73-2.2-1.34-3.29-2l-5.12-3.66a20.34,20.34,0,0,0-2.68-1.59,2.44,2.44,0,0,0-1.59-.48,1.37,1.37,0,0,0-.12,2.68c.24.12,1,.49,2,1.1,0,.24.12.36.37.48a53.16,53.16,0,0,1,4.51,3.17c1.7,1,3.41,2.08,5,3.17,1,.61,1.59,1.22,2.81,2,.24.25.61.12.85,0,3.9,3,7.8,6.1,10.61,7.93.85.73,1.7,1.34,2.56,2.07,2.19,1.46,4.39,2.93,6.46,4.39A8.12,8.12,0,0,1,193.15,119.12Z"/></g><g class="cls-7"><path d="M183.27,25.25c-.48-.49-1,.12-1.34.49a15.92,15.92,0,0,1-2,2.07c-2.92,3.41-5.85,6.7-8.65,10.24-2.07,2.19-4,4.63-5.85,7a34.8,34.8,0,0,1-4.15,4.26,16.37,16.37,0,0,1-2.92,2.32c-.37.24-.74.37-.86.85a.88.88,0,0,0,1.34,1c4.51-2.81,7.81-7.19,11-11.22s8-9.87,11.95-14.38A7.63,7.63,0,0,0,183,26.22C183.4,26,183.64,25.74,183.27,25.25Z"/></g><path d="M142.68,103.76a.77.77,0,0,1-.73-.61c-.25-2.81,1.34-5.25,2.8-7.56l.37-.61a55.26,55.26,0,0,0,5.48-12.19,23,23,0,0,0,1.22-7c0-1.1-.24-2.32-1.09-2.44s-1.83,1-2.32,2.07l-.73,1.83c-1.1,2.68-2.2,5.49-4.27,7.68a.56.56,0,0,1-.73.12.81.81,0,0,1-.49-.61l-.73-22.91c0-.86-.24-1.71-.73-1.71s-.73.61-1,1.22a36.05,36.05,0,0,0-2.07,12.43.67.67,0,1,1-1.34.12c-.12-1.58-.36-3.17-.49-4.75-.36-3.78-.73-7.56-1.22-11.34-.12-.73-.36-1.7-.85-1.7h0c-.49,0-.85.85-1,1.58-.49,2.56-.61,5.24-.86,7.92a53.69,53.69,0,0,1-1.22,9.88.66.66,0,0,1-.73.49.58.58,0,0,1-.61-.61c-.36-5.73-.73-11.22-1.22-16.46a2.9,2.9,0,0,0-.36-1.46.75.75,0,0,0-.73-.49c-.61.12-.86,1.1-.86,1.58A78.7,78.7,0,0,0,125,76a.76.76,0,0,1-.61.73c-.36,0-.73-.12-.73-.49-.73-3-1.34-6.21-1.83-9.38-.24-1.47-.61-2.93-1.58-3.54-.12-.12-.37-.24-.37-.12-.24,0-.48.49-.48,1.1-1.1,7.19.61,14.38,2.19,21.45,1.22,5.49,2.44,11.1,2.56,16.83a.73.73,0,0,1-1.46,0c0-5.49-1.34-11.1-2.56-16.46-1.59-7.19-3.29-14.63-2.2-21.94.25-1.83,1.22-2.2,1.71-2.32a2.71,2.71,0,0,1,1.34.37c1.46,1,1.83,2.68,2.2,4.38.12,1,.36,2,.48,2.81a85,85,0,0,1,1.22-11.22c.37-2.07,1.34-2.56,2.07-2.68A2.05,2.05,0,0,1,129,56.7a5.81,5.81,0,0,1,.48,1.95c.37,3.41.61,6.83.86,10.48.12-1.22.24-2.43.24-3.65a60.9,60.9,0,0,1,.85-8.05c.37-1.71,1.22-2.68,2.44-2.68s1.95,1.1,2.2,2.92c.36,2.93.73,5.86,1,8.78A45.82,45.82,0,0,1,138.54,61c.73-1.95,1.7-2.2,2.31-2.2,1.22.12,2,1.22,2,3L143.53,83a32.64,32.64,0,0,0,2.93-5.85l.73-1.83c1-2.19,2.32-3.29,3.9-2.92,1.34.36,2.07,1.7,2.07,3.77a28.38,28.38,0,0,1-1.22,7.32A51.68,51.68,0,0,1,146.34,96l-.37.61c-1.34,2.2-2.68,4.39-2.56,6.71a.71.71,0,0,1-.73.49Z"/><path d="M121.1,144.35h0a.79.79,0,0,1-.73-.73c.49-11.83.61-23.65.49-35.48a.77.77,0,0,1,.61-.73,52.1,52.1,0,0,1,13-.36h.73c2.93.12,5.86.24,8.66.48a.67.67,0,0,1,.49.25.74.74,0,0,1,.12.49,120.16,120.16,0,0,0-.25,16.21l.74,19a.69.69,0,0,1-.61.73h0a.77.77,0,0,1-.73-.61l-.74-19a113.14,113.14,0,0,1,.13-15.72l-7.93-.37h-.73a58.78,58.78,0,0,0-12.19.24c.12,11.58,0,23.41-.49,35A.57.57,0,0,1,121.1,144.35Z"/><path d="M122.32,108.51h0a.79.79,0,0,1-.73-.73l.12-5a.58.58,0,0,1,.61-.61,172.75,172.75,0,0,1,21,.49.68.68,0,0,1,.61.73,27.44,27.44,0,0,1-.37,4.51.68.68,0,0,1-.73.61.69.69,0,0,1-.61-.73c.12-1.22.25-2.44.25-3.66a174.17,174.17,0,0,0-19.51-.49l-.12,4.27C123.05,108.27,122.69,108.51,122.32,108.51Z"/><path d="M88.92,135.09a.7.7,0,0,1-.49-.13.76.76,0,0,1-.12-1c9.51-11.1,19.63-21.7,30.11-31.82a92.34,92.34,0,0,1-11.7-11c-3.78,2.92-7.44,5.85-11.1,8.78C88.43,105.71,81,111.8,73.19,117a.69.69,0,0,1-.85-1.09c7.8-5.25,15.12-11.22,22.31-17,3.78-3,7.68-6.22,11.58-9.14.24-.25.73-.12,1,.12a86.67,86.67,0,0,0,12.67,11.7.89.89,0,0,1,.25.49.62.62,0,0,1-.25.49A406.65,406.65,0,0,0,89.29,135C89.41,135.09,89.16,135.09,88.92,135.09Z"/><path d="M113.79,108.27a.7.7,0,0,1-.49-.13,96.26,96.26,0,0,1-12.19-13.28.7.7,0,1,1,1.1-.86,109.43,109.43,0,0,0,12.07,13,.74.74,0,0,1,0,1A1,1,0,0,1,113.79,108.27Z"/><path d="M108.79,92.3a1,1,0,0,1-.49-.25.74.74,0,0,1,0-1c4.51-4.76,7.07-10.73,9.63-16.83a.64.64,0,0,1,.86-.36.63.63,0,0,1,.36.85c-2.56,6.34-5.12,12.31-9.87,17.31A1,1,0,0,1,108.79,92.3Z"/><path d="M119.15,102.17a.44.44,0,0,1-.36-.12.64.64,0,0,1-.13-1,16.28,16.28,0,0,1,3.91-3.78.75.75,0,0,1,1,.13.76.76,0,0,1-.12,1,16.84,16.84,0,0,0-3.66,3.54A2.06,2.06,0,0,1,119.15,102.17Z"/><path d="M118.3,55.36a.94.94,0,0,1-.49-.12A373.85,373.85,0,0,1,86,26.59a.69.69,0,1,1,1-1,413.55,413.55,0,0,0,31.69,28.53.73.73,0,0,1,.13,1A.92.92,0,0,1,118.3,55.36Z"/><path d="M107,71.45a.44.44,0,0,1-.36-.12C95,62.79,82.82,54.63,70.63,47a.78.78,0,0,1-.24-1,.77.77,0,0,1,1-.24c12.2,7.68,24.39,16,36,24.5a.75.75,0,0,1,.12,1A.94.94,0,0,1,107,71.45Z"/><path d="M106.84,71.45a.47.47,0,0,1-.37-.12.78.78,0,0,1-.24-1c3.66-5.36,7.44-10.72,11.22-15.84a.73.73,0,0,1,1-.13.74.74,0,0,1,.12,1c-3.78,5.12-7.56,10.48-11.21,15.85C107.21,71.45,107.08,71.45,106.84,71.45Z"/><path d="M116.71,78c-.24,0-.36-.12-.61-.24a38.12,38.12,0,0,0-8.29-8.29.7.7,0,0,1,.86-1.1,38.63,38.63,0,0,1,8.65,8.66.72.72,0,0,1-.12,1Z"/><path d="M124.39,63.16A.44.44,0,0,1,124,63a73.13,73.13,0,0,1-7.56-5,.73.73,0,0,1-.12-1,.63.63,0,0,1,1-.13c2.44,1.71,4.88,3.42,7.44,4.88a.65.65,0,0,1,.24,1C124.76,63,124.64,63.16,124.39,63.16Z"/><path d="M192.17,121.68a.42.42,0,0,1-.36-.13c-12.07-8.53-24.51-16.82-36.94-24.74a.76.76,0,0,1-.24-1c3.78-6.22,7.68-12.19,11.21-17.43a.81.81,0,0,1,.86-.24c13.16,6.46,26.33,13.28,39.13,20.48a.64.64,0,0,1,.24,1,.63.63,0,0,1-1,.24c-12.56-6.94-25.6-13.77-38.53-20.11-3.29,5-6.95,10.48-10.48,16.34,12.31,7.8,24.5,16.09,36.33,24.5a.64.64,0,0,1,.12,1A.52.52,0,0,1,192.17,121.68Z"/><path d="M156.09,94.73a.75.75,0,0,1-.49-.12A50.15,50.15,0,0,0,149,89.74a.71.71,0,0,1,.73-1.22,46.81,46.81,0,0,1,6.83,5,.64.64,0,0,1,0,1A.94.94,0,0,1,156.09,94.73Z"/><path d="M165,80.23h-.25a44.56,44.56,0,0,1-13.16-9c-1-1-1.83-1.83-2.68-2.81a44.53,44.53,0,0,0-6.59-6.09.78.78,0,0,1-.24-1c.12-.36.61-.36,1-.24a33.41,33.41,0,0,1,6.82,6.34c.86,1,1.71,1.83,2.68,2.8A44.45,44.45,0,0,0,165.35,79a.67.67,0,0,1,.37.85A.73.73,0,0,1,165,80.23Z"/><path d="M146.7,70.72a.86.86,0,0,1-.48-.25l-4-4.14a.69.69,0,0,1,1-1l4,4.15a.74.74,0,0,1,0,1C147.07,70.72,147,70.72,146.7,70.72Z"/><path d="M159.26,55.11a.47.47,0,0,1-.37-.12c-2.68-1.83-5.36-3.65-8-5.6-1.59-1.1-3.17-2.2-4.76-3.42a.63.63,0,0,1-.24-.49A.72.72,0,0,1,146,45a184.15,184.15,0,0,0,11.46-18.78c2.19-4,4.51-8.16,7.19-12.55a.77.77,0,0,1,1-.25.78.78,0,0,1,.24,1c-2.68,4.39-5,8.53-7.19,12.55a186.87,186.87,0,0,1-11.09,18.29c1.46,1.1,2.92,2.07,4.26,3,2.56,1.83,5.12,3.66,7.56,5.24,8.29-9,16.58-18.9,24.75-28.53a.7.7,0,0,1,1.1.86c-8.17,9.75-16.71,19.87-25.12,29A1.77,1.77,0,0,1,159.26,55.11Z"/><path d="M151.82,71.08h0c-.48-.12-.73-.48-.61-.85,1.1-5.73,2.44-12.31,6.59-17.19a.76.76,0,0,1,1-.12.75.75,0,0,1,.12,1c-3.9,4.63-5.24,11-6.34,16.57A.76.76,0,0,1,151.82,71.08Z"/><path d="M135.61,58.53a.47.47,0,0,1-.37-.12.65.65,0,0,1-.12-1,8.45,8.45,0,0,1,2.44-2.19l.37-.25a26.08,26.08,0,0,0,8.29-8.77.71.71,0,1,1,1.21.73,28.69,28.69,0,0,1-8.77,9.14l-.37.24a6.16,6.16,0,0,0-2.07,1.83C136,58.41,135.85,58.53,135.61,58.53Z"/><path d="M162.31,101.2a.43.43,0,0,1-.37-.13.74.74,0,0,1-.12-1A209.45,209.45,0,0,0,173.4,82.54a.71.71,0,1,1,1.22.74c-3.66,6-7.56,11.94-11.7,17.55A.7.7,0,0,1,162.31,101.2Z"/><path d="M92.45,96.56a.62.62,0,0,1-.48-.24.73.73,0,0,1,0-1c4.39-4,9-7.92,13.65-11.58a.77.77,0,0,1,1,.12.76.76,0,0,1-.13,1c-4.63,3.66-9.26,7.44-13.53,11.46C92.7,96.44,92.58,96.56,92.45,96.56Z"/><path d="M85.87,95a.67.67,0,0,1-.36-1.22A113.25,113.25,0,0,0,95.87,84a.69.69,0,0,1,1,1,132.3,132.3,0,0,1-10.48,9.88A.94.94,0,0,1,85.87,95Z"/><path class="cls-5" d="M189.63,262.89c-11.91,3.83-25.1,2.75-37.47,1.09-14.24-1.9-29.07-3.22-43.3-5.12-16.69-1.55-33.85-3.22-48.81,4.45-23.26,12-31.16,48.84-15.33,70.24C52.4,343.61,63,349.82,74.56,353.7c19.6,6.81,40.49,8.37,60.8,9.23,22.18,1.1,45.53,1.86,65.51-8.26s35.92-34.94,28.73-57.6c-2.67-7-6.63-13.56-9.3-20.45-4.41-12.62-1.69-27.91,6.39-38.86C215.23,247.07,203.3,259.3,189.63,262.89Z"/><path d="M228,236.71a1.14,1.14,0,0,1,.34,1.87,41,41,0,0,0-6.15,37.69c.81,3.15,2.79,6.43,4.18,9.58s3.26,7,4.65,10.87c7.65,23.95-9.57,49.94-29.55,59.94-21.27,10.46-46.36,8.89-66.09,8.14-20.31-1.44-41.21-2.42-61.39-9.35-13.76-4.82-23.78-11.61-30.42-20.27-7.68-10.05-10.45-25.47-7.38-40.05S48,269,59.12,262.61c15.54-8.14,34.57-6.23,49.39-4.33l43.3,5.11c11.78,1.55,25,2.74,36.89-1.2,10.63-3.36,20.1-11.16,29-19.08,2.69-2.1,5.5-4.66,8.07-6.76.7-.46.7-.46,1.29-.46S227.51,236,228,236.71ZM136.88,361.3c20.31,1.45,44.24,2.79,64.23-7.79,18.7-9.54,34.63-34,27.9-56-1.39-3.15-2.67-7-4.64-10.28A48.05,48.05,0,0,1,219.72,277c-3.48-10.05-2.52-22.07,1.82-32.34a6,6,0,0,0-1.29,1.05c-9.47,7.8-18.94,15.6-30.27,19.55-12.62,4.41-26.28,2.51-38.06,1l-43.3-5.11c-14.24-1.9-32.56-4.27-47.52,4C50.23,270.29,42.62,282,39.67,295.37,36.6,309.37,39,323,46.12,333c6.05,8.65,15.5,14.74,28.79,19.44,9.22,3.64,19.14,5.53,28.59,6.84C114.12,360.79,124.86,360.93,136.88,361.3Z"/><g class="cls-7"><path d="M38.86,291.75c.12-1.17.82-1.75.94-2.92,1.64-3.38,2.7-6.88,4.34-9.68,6.33-11.78,16.15-17.12,24.32-19.68a74.39,74.39,0,0,1,23.24-2.4c.58.12,1.75.24,2.33.36s1.17.12,1.75.24,1.76.23,2.34.35,1.17.12,1.75.24,1.75.24,2.33.35c4.79.6,10,1.31,15.41,2,9.45,1.31,18.32,2.38,27.31,3,1.75.24,3.5.48,5.37.71a60.89,60.89,0,0,0,11.32.85c.46.7,1,.7,1.75.82a30.26,30.26,0,0,1,7.23.36c1.87-.34,4.21,0,6.66-.33a83.23,83.23,0,0,0,13.66-3c4.33-1.27,8.3-3.72,12.28-6.16,3.39-2.56,7.36-5.7,10.75-8.26a74.47,74.47,0,0,0,6.9-6.29c1.29-.47,2.92.94,3.27,2.22-.7.47-.7,1-.82,1.75-.12,1.17-.82,1.75-.94,2.92a40.66,40.66,0,0,0-5.62,6.52l.12-.58c-.7,1.05-.7.47-2.23,2.68-.7,1.05-.7.47-.7.47-1.52,2.21-4,3-6.08,4.65a52.58,52.58,0,0,1-10.28,5.23,72.58,72.58,0,0,1-17.41,4.28,55.1,55.1,0,0,1-16.92.2c-5.37-.71-10.62-2-15.87-2.72-8.29-1.07-16.11-1.55-24.4-2-5.37-.71-11.32-.84-17.27-1.09-3.62.11-10.28-.14-10.86-.25-2.92-.36-5.37-.13-8.4-.49a47.64,47.64,0,0,0-26.17,6.13,36.41,36.41,0,0,0-9.35,6.64h0c-2,1.51-3.51,3.72-5.5,5.24a29.14,29.14,0,0,0-5.15,7.11c-.7.46-.82,1.75-1.4,1.63h0C38.16,292.33,38.51,290,38.86,291.75Z"/></g><path d="M82.08,301.68l-3.38,8.41c0,.12-.12.12-.12.23s-.12.12-.23.12a.41.41,0,0,1-.35-.12c-.12-.11-.12-.11-.12-.23V310l3.73-9.1c0-.12.12-.12.12-.24s.12-.11.23-.11.24,0,.24.11.11.12.11.24l3.74,9V310a.42.42,0,0,1-.47.47c-.11,0-.23,0-.23-.12s-.12-.11-.12-.23l-3.5-8.52Zm-2.57,6,.35-.82h4.32l.12.82Z"/><path d="M91.07,303.08a3,3,0,0,1,1.52.35,2.66,2.66,0,0,1,.82,1.06,6.11,6.11,0,0,1,.23,1.4V310a.42.42,0,0,1-.47.47.43.43,0,0,1-.35-.12.41.41,0,0,1-.12-.35v-4.08a3.31,3.31,0,0,0-.23-1.05,1.19,1.19,0,0,0-.58-.7c-.24-.24-.59-.24-1-.24a4.07,4.07,0,0,0-1.17.24,5.63,5.63,0,0,0-.93.7,1.83,1.83,0,0,0-.35,1.05V310a.41.41,0,0,1-.12.35.42.42,0,0,1-.35.12.42.42,0,0,1-.47-.47v-6.3a.42.42,0,0,1,.47-.47.42.42,0,0,1,.35.12.41.41,0,0,1,.12.35v1.17l-.35.46a1.61,1.61,0,0,1,.23-.81,1.93,1.93,0,0,1,.7-.7,2.16,2.16,0,0,1,.93-.47A5.07,5.07,0,0,1,91.07,303.08Z"/><path d="M101.69,300.05a.42.42,0,0,1,.47.47v9.57a.42.42,0,0,1-.12.35.41.41,0,0,1-.35.12.43.43,0,0,1-.35-.12.45.45,0,0,1-.11-.35v-1.64l.23-.23a2.36,2.36,0,0,1-.23.82,3.72,3.72,0,0,1-.59.82,2.58,2.58,0,0,1-.93.58,3.31,3.31,0,0,1-1,.23,2.69,2.69,0,0,1-1.64-.46,4,4,0,0,1-1.16-1.29,4.78,4.78,0,0,1-.47-1.87,3.15,3.15,0,0,1,.47-1.86A2.55,2.55,0,0,1,97,303.9a2.8,2.8,0,0,1,2.69-.23,2.58,2.58,0,0,1,.93.58,2.13,2.13,0,0,1,.59.82,2.88,2.88,0,0,1,.23.93l-.35-.23v-5a.42.42,0,0,1,.12-.35C101.46,300.05,101.58,300.05,101.69,300.05Zm-2.91,9.69a2.39,2.39,0,0,0,1.28-.35,2.75,2.75,0,0,0,.93-1.05,3.48,3.48,0,0,0,0-3,2.08,2.08,0,0,0-.93-1.05,2.53,2.53,0,0,0-2.57,0,2.82,2.82,0,0,0-.93,1.05,3.48,3.48,0,0,0,0,3,2,2,0,0,0,.93,1.05A2.72,2.72,0,0,0,98.78,309.74Z"/><path d="M114,303.32a.45.45,0,0,1,.35.11.44.44,0,0,1,.12.36v6.3a.47.47,0,1,1-.94,0v-1.64l.24-.11a3,3,0,0,1-.24.82,1.72,1.72,0,0,1-.58.7,7.25,7.25,0,0,1-.93.58,3.1,3.1,0,0,1-2.81-.23A2.71,2.71,0,0,1,108,308.8a4.73,4.73,0,0,1-.47-1.86,3.88,3.88,0,0,1,.47-2,3.12,3.12,0,0,1,1.16-1.28,2.71,2.71,0,0,1,1.64-.47,4.41,4.41,0,0,1,1.17.23,2.6,2.6,0,0,1,.93.59,2,2,0,0,1,.58.82,2.67,2.67,0,0,1,.24.93l-.35-.23v-1.75a.47.47,0,0,1,.11-.36A.94.94,0,0,1,114,303.32ZM111,309.74a2.4,2.4,0,0,0,1.29-.35,2.75,2.75,0,0,0,.93-1.05,3.48,3.48,0,0,0,0-3,2.12,2.12,0,0,0-.93-1.05,2.53,2.53,0,0,0-2.57,0,2.93,2.93,0,0,0-.94,1.05,3.48,3.48,0,0,0,0,3,2.1,2.1,0,0,0,.94,1.05A2.71,2.71,0,0,0,111,309.74Z"/><path d="M122.47,303.32a.44.44,0,0,1,.35.11.44.44,0,0,1,.12.36v6.3a.42.42,0,0,1-.12.35.41.41,0,0,1-.35.12.43.43,0,0,1-.35-.12.45.45,0,0,1-.11-.35v-1.64l.23-.11a3.36,3.36,0,0,1-.23.82,1.75,1.75,0,0,1-.59.7,2.58,2.58,0,0,1-.93.58,3.31,3.31,0,0,1-1,.23,3.26,3.26,0,0,1-1.75-.46,2.68,2.68,0,0,1-1.17-1.41,4.91,4.91,0,0,1-.47-1.86,3.88,3.88,0,0,1,.47-2,3.08,3.08,0,0,1,1.17-1.28,2.66,2.66,0,0,1,1.63-.47,4.41,4.41,0,0,1,1.17.23,2.6,2.6,0,0,1,.93.59,2.06,2.06,0,0,1,.59.82,2.88,2.88,0,0,1,.23.93l-.35-.23v-1.75a.44.44,0,0,1,.12-.36A.91.91,0,0,1,122.47,303.32Zm-2.92,6.42a2.4,2.4,0,0,0,1.29-.35,2.75,2.75,0,0,0,.93-1.05,3.48,3.48,0,0,0,0-3,2.08,2.08,0,0,0-.93-1.05,2.53,2.53,0,0,0-2.57,0,2.82,2.82,0,0,0-.93,1.05,3.48,3.48,0,0,0,0,3,2,2,0,0,0,.93,1.05A2.71,2.71,0,0,0,119.55,309.74Z"/><path d="M131,303.32a.4.4,0,0,1,.47.47v6.3a.45.45,0,0,1-.11.35.44.44,0,0,1-.36.12.43.43,0,0,1-.35-.12.45.45,0,0,1-.11-.35v-1.64l.23-.11a3.36,3.36,0,0,1-.23.82,1.75,1.75,0,0,1-.59.7,2.58,2.58,0,0,1-.93.58,3.09,3.09,0,0,1-2.8-.23A2.68,2.68,0,0,1,125,308.8a4.91,4.91,0,0,1-.47-1.86,3.88,3.88,0,0,1,.47-2,3.08,3.08,0,0,1,1.17-1.28,2.68,2.68,0,0,1,1.63-.47,4.41,4.41,0,0,1,1.17.23,2.6,2.6,0,0,1,.93.59,2.06,2.06,0,0,1,.59.82,2.88,2.88,0,0,1,.23.93l-.35-.23v-1.75a.44.44,0,0,1,.12-.36A.91.91,0,0,1,131,303.32Zm-2.91,6.42a2.39,2.39,0,0,0,1.28-.35,2.75,2.75,0,0,0,.93-1.05,3.48,3.48,0,0,0,0-3,2.08,2.08,0,0,0-.93-1.05,2.53,2.53,0,0,0-2.57,0,2.82,2.82,0,0,0-.93,1.05,3.3,3.3,0,0,0-.35,1.52,3.18,3.18,0,0,0,.35,1.52,2.08,2.08,0,0,0,.93,1.05A2.72,2.72,0,0,0,128.08,309.74Z"/><path d="M139.4,303.32a.45.45,0,0,1,.35.11.44.44,0,0,1,.12.36v6.3a.47.47,0,1,1-.94,0v-1.64l.24-.11a3,3,0,0,1-.24.82,1.72,1.72,0,0,1-.58.7,7.25,7.25,0,0,1-.93.58,3.11,3.11,0,0,1-2.81-.23,2.71,2.71,0,0,1-1.16-1.41,4.73,4.73,0,0,1-.47-1.86,3.88,3.88,0,0,1,.47-2,3.12,3.12,0,0,1,1.16-1.28,2.69,2.69,0,0,1,1.64-.47,4.41,4.41,0,0,1,1.17.23,2.6,2.6,0,0,1,.93.59,2,2,0,0,1,.58.82,2.67,2.67,0,0,1,.24.93l-.35-.23v-1.75a.47.47,0,0,1,.11-.36A1.22,1.22,0,0,1,139.4,303.32Zm-2.8,6.42a2.36,2.36,0,0,0,1.28-.35,2.85,2.85,0,0,0,.94-1.05,3.48,3.48,0,0,0,0-3,2.14,2.14,0,0,0-.94-1.05,2.36,2.36,0,0,0-1.28-.35,2.4,2.4,0,0,0-1.29.35,2.82,2.82,0,0,0-.93,1.05,3.48,3.48,0,0,0,0,3,2.08,2.08,0,0,0,.93,1.05A2.4,2.4,0,0,0,136.6,309.74Z"/><path d="M147.92,303.32a.44.44,0,0,1,.35.11.44.44,0,0,1,.12.36v6.3a.42.42,0,0,1-.12.35.41.41,0,0,1-.35.12.43.43,0,0,1-.35-.12.45.45,0,0,1-.11-.35v-1.64l.23-.11a3.36,3.36,0,0,1-.23.82,1.83,1.83,0,0,1-.59.7,2.58,2.58,0,0,1-.93.58,3.31,3.31,0,0,1-1.05.23,3.26,3.26,0,0,1-1.75-.46A2.68,2.68,0,0,1,142,308.8a4.73,4.73,0,0,1-.47-1.86,3.88,3.88,0,0,1,.47-2,3.08,3.08,0,0,1,1.17-1.28,2.66,2.66,0,0,1,1.63-.47,4.41,4.41,0,0,1,1.17.23,2.6,2.6,0,0,1,.93.59,2.16,2.16,0,0,1,.59.82,2.88,2.88,0,0,1,.23.93l-.35-.23v-1.75a.47.47,0,0,1,.11-.36A1,1,0,0,1,147.92,303.32ZM145,309.74a2.4,2.4,0,0,0,1.29-.35,2.75,2.75,0,0,0,.93-1.05,3.48,3.48,0,0,0,0-3,2.12,2.12,0,0,0-.93-1.05,2.53,2.53,0,0,0-2.57,0,2.82,2.82,0,0,0-.93,1.05,3.48,3.48,0,0,0,0,3,2,2,0,0,0,.93,1.05A2.71,2.71,0,0,0,145,309.74Z"/><path d="M156.44,303.32a.44.44,0,0,1,.35.11.44.44,0,0,1,.12.36v6.3a.42.42,0,0,1-.12.35.41.41,0,0,1-.35.12.43.43,0,0,1-.35-.12.45.45,0,0,1-.11-.35v-1.64l.23-.11a3.36,3.36,0,0,1-.23.82,1.75,1.75,0,0,1-.59.7,7.25,7.25,0,0,1-.93.58,3.09,3.09,0,0,1-2.8-.23,2.68,2.68,0,0,1-1.17-1.41,4.91,4.91,0,0,1-.47-1.86,3.88,3.88,0,0,1,.47-2,3.08,3.08,0,0,1,1.17-1.28,2.66,2.66,0,0,1,1.63-.47,4.41,4.41,0,0,1,1.17.23,2.6,2.6,0,0,1,.93.59,2.06,2.06,0,0,1,.59.82,2.88,2.88,0,0,1,.23.93l-.35-.23v-1.75a.44.44,0,0,1,.12-.36A.91.91,0,0,1,156.44,303.32Zm-2.91,6.42a2.39,2.39,0,0,0,1.28-.35,2.75,2.75,0,0,0,.93-1.05,3.48,3.48,0,0,0,0-3,2.08,2.08,0,0,0-.93-1.05,2.53,2.53,0,0,0-2.57,0,2.82,2.82,0,0,0-.93,1.05,3.48,3.48,0,0,0,0,3,2,2,0,0,0,.93,1.05A2.72,2.72,0,0,0,153.53,309.74Z"/><path d="M160,310a.41.41,0,0,1-.12.35.57.57,0,0,1-.7,0A.41.41,0,0,1,159,310V300.4a.47.47,0,1,1,.94,0Z"/><path d="M170.8,303.08a.41.41,0,0,1,.35.12.42.42,0,0,1,.12.35v.24l-2.1,6.42c0,.11-.12.11-.24.23s-.11.12-.23.12-.23-.12-.35-.24l-2-4.67h.23l-1.75,4.56c-.12.11-.23.23-.35.23s-.12,0-.23-.12-.12-.11-.12-.23l-2.22-6.42v-.24a.41.41,0,0,1,.47-.46c.11,0,.11,0,.23.11s.12.12.12.24l2,5.95h-.23l1.75-4.55c.12-.23.23-.23.35-.23s.12,0,.23.11.12.12.12.24l1.87,4.55h-.35l2-6A.31.31,0,0,1,170.8,303.08Z"/><path d="M178.62,303.32a.44.44,0,0,1,.35.11.44.44,0,0,1,.12.36v6.3a.42.42,0,0,1-.12.35.41.41,0,0,1-.35.12.43.43,0,0,1-.35-.12.45.45,0,0,1-.11-.35v-1.64l.23-.11a3.36,3.36,0,0,1-.23.82,1.75,1.75,0,0,1-.59.7,7.25,7.25,0,0,1-.93.58,3.09,3.09,0,0,1-2.8-.23,2.68,2.68,0,0,1-1.17-1.41,4.91,4.91,0,0,1-.47-1.86,3.88,3.88,0,0,1,.47-2,3.08,3.08,0,0,1,1.17-1.28,2.66,2.66,0,0,1,1.63-.47,4.41,4.41,0,0,1,1.17.23,2.6,2.6,0,0,1,.93.59,2.06,2.06,0,0,1,.59.82,2.88,2.88,0,0,1,.23.93l-.35-.23v-1.75a.44.44,0,0,1,.12-.36C178.51,303.32,178.51,303.32,178.62,303.32Zm-2.8,6.42a2.4,2.4,0,0,0,1.29-.35,2.75,2.75,0,0,0,.93-1.05,3.48,3.48,0,0,0,0-3,2.12,2.12,0,0,0-.93-1.05,2.53,2.53,0,0,0-2.57,0,2.93,2.93,0,0,0-.94,1.05,3.48,3.48,0,0,0,0,3,2.1,2.1,0,0,0,.94,1.05A2.39,2.39,0,0,0,175.82,309.74Z"/><path d="M186.68,303.08a.42.42,0,0,1,.47.47v6.19a3.2,3.2,0,0,1-.47,1.87,3.69,3.69,0,0,1-1.17,1.16,3.82,3.82,0,0,1-1.75.35,4.22,4.22,0,0,1-1.17-.11,6.7,6.7,0,0,1-.81-.35c-.12-.12-.24-.12-.24-.24s-.11-.23,0-.35a.26.26,0,0,1,.24-.23h.35a1.84,1.84,0,0,0,.7.35,2.71,2.71,0,0,0,1,.23,2.3,2.3,0,0,0,1.28-.35,3.61,3.61,0,0,0,.94-.93,2.8,2.8,0,0,0,.35-1.4v-1.05l.11.35a1.72,1.72,0,0,1-.58.7,6.29,6.29,0,0,1-.93.58,1.74,1.74,0,0,1-1.06.24,2.52,2.52,0,0,1-1.4-.35,2.07,2.07,0,0,1-.81-.94,2.47,2.47,0,0,1-.24-1.4v-4.32a.47.47,0,1,1,.94,0v4.2a2,2,0,0,0,.46,1.52,1.75,1.75,0,0,0,1.4.59,2.76,2.76,0,0,0,1.06-.24,4.44,4.44,0,0,0,.81-.7,1.83,1.83,0,0,0,.35-1.05v-4.2a.41.41,0,0,1,.12-.35C186.45,303.2,186.56,303.08,186.68,303.08Z"/><path d="M188.9,309.27a.41.41,0,0,1-.12-.35.25.25,0,0,1,.23-.23c.12-.12.12-.12.24-.12s.23,0,.23.12a3.2,3.2,0,0,0,.93.82,2.4,2.4,0,0,0,1.29.35,2.24,2.24,0,0,0,.82-.12,2.67,2.67,0,0,0,.58-.35,1.24,1.24,0,0,0,.23-.7,1.57,1.57,0,0,0-.23-.7,1.82,1.82,0,0,0-.7-.47,2.07,2.07,0,0,0-.82-.23,2.67,2.67,0,0,0-.93-.24,4.68,4.68,0,0,1-.82-.35,1.35,1.35,0,0,1-.58-.58,1.65,1.65,0,0,1-.24-.82,1.91,1.91,0,0,1,.35-1.05,1.48,1.48,0,0,1,.94-.7,4.11,4.11,0,0,1,1.28-.23,2.4,2.4,0,0,1,.82.11c.23.12.58.12.82.36a3.2,3.2,0,0,1,.7.58.37.37,0,0,1,.11.23.59.59,0,0,1-.11.35c-.12,0-.12.12-.24.12s-.23,0-.23-.12a2.14,2.14,0,0,0-.82-.58,2.71,2.71,0,0,0-1-.23,2.06,2.06,0,0,0-.81.11,3,3,0,0,0-.59.35,1.65,1.65,0,0,0-.23.7,1.57,1.57,0,0,0,.23.7,1.82,1.82,0,0,0,.7.47c.35.12.59.23.94.35s.58.12.81.23l.7.35a1.16,1.16,0,0,1,.47.59,2.12,2.12,0,0,1,.23.93,1.39,1.39,0,0,1-.35,1.05,1.76,1.76,0,0,1-.93.7,4.11,4.11,0,0,1-1.28.24,3.62,3.62,0,0,1-1.52-.35C189.48,310.32,189.25,309.74,188.9,309.27Z"/><path d="M90.84,327.25a.42.42,0,0,1-.47-.47v-9.57a.42.42,0,0,1,.12-.35.41.41,0,0,1,.35-.12.43.43,0,0,1,.35.12.45.45,0,0,1,.11.35v9.57a.44.44,0,0,1-.11.35C91.07,327.13,91,327.25,90.84,327.25ZM95.62,320a.41.41,0,0,1,.35.12.36.36,0,0,1,.12.23.41.41,0,0,1-.12.35l-4.67,4v-1.05L95.51,320C95.39,320.13,95.51,320,95.62,320Zm.12,7.24a.42.42,0,0,1-.35-.12l-3.15-3.38.58-.59L96,326.55a.57.57,0,0,1,0,.7Z"/><path d="M101.11,327.37a3.2,3.2,0,0,1-1.87-.47A3.42,3.42,0,0,1,98,325.62a3.61,3.61,0,0,1-.47-2,3.31,3.31,0,0,1,.47-2,4.08,4.08,0,0,1,1.17-1.29,2.66,2.66,0,0,1,1.63-.47,3.37,3.37,0,0,1,1.17.24,2.79,2.79,0,0,1,1,.7,2.11,2.11,0,0,1,.7,1.05,6.52,6.52,0,0,1,.35,1.4c0,.12,0,.23-.12.23a.41.41,0,0,1-.35.12H98l-.12-.7h5.49l-.24.12v-.24a2.09,2.09,0,0,0-.46-1.16,1.82,1.82,0,0,0-.94-.7,3.33,3.33,0,0,0-1-.24,1.9,1.9,0,0,0-.81.12,1.85,1.85,0,0,0-.82.47,2.45,2.45,0,0,0-.58.93,4.11,4.11,0,0,0-.24,1.28,3.27,3.27,0,0,0,.35,1.52,2.77,2.77,0,0,0,.94,1.05,3.12,3.12,0,0,0,1.51.35,2.75,2.75,0,0,0,.94-.11c.23-.12.46-.24.7-.35a1.68,1.68,0,0,0,.46-.47.44.44,0,0,1,.36-.12c.11,0,.23,0,.23.12s.12.12.12.23a.41.41,0,0,1-.12.35,8.27,8.27,0,0,1-1.05.94A3.66,3.66,0,0,1,101.11,327.37Z"/><path d="M109.05,327.37a3.2,3.2,0,0,1-1.87-.47,3.42,3.42,0,0,1-1.28-1.28,3.61,3.61,0,0,1-.47-2,3.31,3.31,0,0,1,.47-2,4.18,4.18,0,0,1,1.16-1.29,2.69,2.69,0,0,1,1.64-.47,3.37,3.37,0,0,1,1.17.24,2.79,2.79,0,0,1,1,.7,1.69,1.69,0,0,1,.7,1.05,6.52,6.52,0,0,1,.35,1.4c0,.12,0,.23-.12.23a.42.42,0,0,1-.35.12h-5.6l-.12-.7h5.49l-.24.12v-.24a2.09,2.09,0,0,0-.46-1.16,1.82,1.82,0,0,0-.94-.7,3.33,3.33,0,0,0-1-.24,2,2,0,0,0-.82.12,1.81,1.81,0,0,0-.81.47,2.47,2.47,0,0,0-.59.93,4.43,4.43,0,0,0-.23,1.28,3.27,3.27,0,0,0,.35,1.52,2.67,2.67,0,0,0,.93,1.05,3.18,3.18,0,0,0,1.52.35,2.75,2.75,0,0,0,.94-.11c.23-.12.46-.24.7-.35a1.68,1.68,0,0,0,.46-.47.43.43,0,0,1,.35-.12c.12,0,.24,0,.24.12s.11.12.11.23a.44.44,0,0,1-.11.35,9,9,0,0,1-1.05.94A2.27,2.27,0,0,1,109.05,327.37Z"/><path d="M117.1,320a2.69,2.69,0,0,1,1.64.47,3.12,3.12,0,0,1,1.16,1.28,4.82,4.82,0,0,1,.47,1.87,3.37,3.37,0,0,1-.47,1.87,3.12,3.12,0,0,1-1.16,1.28,2.69,2.69,0,0,1-1.64.47,2.48,2.48,0,0,1-.93-.12,5,5,0,0,1-.82-.35,3.2,3.2,0,0,1-.7-.58,2.6,2.6,0,0,1-.47-.7l.24-.24v4.32a.41.41,0,0,1-.12.35.57.57,0,0,1-.7,0,.41.41,0,0,1-.12-.35v-9.1a.47.47,0,1,1,.94,0V322l-.24-.12a3.3,3.3,0,0,1,.47-.82c.24-.23.35-.46.59-.58a5.41,5.41,0,0,1,.81-.35A3.51,3.51,0,0,1,117.1,320Zm-.11.82a2.4,2.4,0,0,0-1.29.35,2.67,2.67,0,0,0-.93,1.05,3.16,3.16,0,0,0-.35,1.52,3.12,3.12,0,0,0,.35,1.51,2.1,2.1,0,0,0,.93,1.06,2.72,2.72,0,0,0,1.29.35,2.39,2.39,0,0,0,1.28-.35,2.78,2.78,0,0,0,.93-1.06,3.12,3.12,0,0,0,.35-1.51,3.16,3.16,0,0,0-.35-1.52,2,2,0,0,0-.93-1.05A2.11,2.11,0,0,0,117,320.83Z"/><path d="M125.63,326.08a.41.41,0,0,1-.12-.35.26.26,0,0,1,.23-.23c.12-.12.12-.12.24-.12s.23,0,.23.12a3.2,3.2,0,0,0,.93.82,2.4,2.4,0,0,0,1.29.35,2.2,2.2,0,0,0,.81-.12,2.54,2.54,0,0,0,.59-.35,1.32,1.32,0,0,0,.23-.7,1.7,1.7,0,0,0-.23-.7,1.82,1.82,0,0,0-.7-.47,2.16,2.16,0,0,0-.82-.23,2.67,2.67,0,0,0-.93-.24,4.68,4.68,0,0,1-.82-.35,1.35,1.35,0,0,1-.58-.58,1.65,1.65,0,0,1-.24-.82,1.91,1.91,0,0,1,.35-1.05,1.48,1.48,0,0,1,.94-.7,4.36,4.36,0,0,1,1.28-.23,2.24,2.24,0,0,1,.82.12c.23.11.58.11.81.35a2.8,2.8,0,0,1,.7.58.36.36,0,0,1,.12.23.55.55,0,0,1-.12.35c-.11,0-.11.12-.23.12s-.23,0-.23-.12a2.22,2.22,0,0,0-.82-.58,2.71,2.71,0,0,0-1.05-.23,2.14,2.14,0,0,0-.82.11,3.14,3.14,0,0,0-.58.35,1.65,1.65,0,0,0-.23.7,1.57,1.57,0,0,0,.23.7,1.82,1.82,0,0,0,.7.47c.35.12.58.23.93.35s.59.12.82.23l.7.35a1.21,1.21,0,0,1,.47.59,2.27,2.27,0,0,1,.23.93,1.43,1.43,0,0,1-.35,1,1.76,1.76,0,0,1-.93.7,4.12,4.12,0,0,1-1.29.24,3.61,3.61,0,0,1-1.51-.35C126.21,327.13,126,326.55,125.63,326.08Z"/><path d="M132.16,320.13h3.27c.12,0,.23,0,.23.12s.12.11.12.23,0,.23-.12.23-.11.12-.23.12h-3.27c-.11,0-.23,0-.23-.12s-.12-.11-.12-.23,0-.23.12-.23S132.05,320.13,132.16,320.13Zm1.4-2a.41.41,0,0,1,.35.12.42.42,0,0,1,.12.35v7a.85.85,0,0,0,.12.58c.11.12.11.23.23.23s.23.12.35.12h.47c.11,0,.11,0,.23.12s.12.11.12.23-.12.23-.24.35-.35.12-.58.12h-.35c-.12,0-.35-.12-.47-.12a.88.88,0,0,1-.46-.47,2.12,2.12,0,0,1-.24-.93v-7.12a.41.41,0,0,1,.12-.35C133.33,318.14,133.45,318.14,133.56,318.14Z"/><path d="M142.67,320.13a.42.42,0,0,1,.35.12.41.41,0,0,1,.12.35v4a2.52,2.52,0,0,1-.82,2.11,3.3,3.3,0,0,1-2.1.7,2.86,2.86,0,0,1-2.1-.7,2.9,2.9,0,0,1-.82-2.11v-4a.42.42,0,0,1,.47-.47.41.41,0,0,1,.46.47v4a2,2,0,0,0,.59,1.52,2,2,0,0,0,1.51.59,2,2,0,0,0,2.11-2.11v-4a.44.44,0,0,1,.11-.35C142.44,320.13,142.55,320.13,142.67,320.13Z"/><path d="M151.19,316.86a.42.42,0,0,1,.35.12.41.41,0,0,1,.12.35v9.57a.47.47,0,1,1-.94,0v-1.64L151,325a2.13,2.13,0,0,1-.24.82,3.65,3.65,0,0,1-.58.82,2.58,2.58,0,0,1-.93.58,3.31,3.31,0,0,1-1.05.23,2.69,2.69,0,0,1-1.64-.46,4.07,4.07,0,0,1-1.17-1.29,5,5,0,0,1-.46-1.87,3.14,3.14,0,0,1,.46-1.86,2.56,2.56,0,0,1,1.17-1.29,2.69,2.69,0,0,1,1.64-.46,2.75,2.75,0,0,1,1.05.23,2.58,2.58,0,0,1,.93.58,2.11,2.11,0,0,1,.58.82,2.67,2.67,0,0,1,.24.93l-.35-.23v-5a.45.45,0,0,1,.11-.35C151,316.86,151.07,316.86,151.19,316.86Zm-2.92,9.69a2.4,2.4,0,0,0,1.29-.35,2.67,2.67,0,0,0,.93-1.05,3.48,3.48,0,0,0,0-3,2.12,2.12,0,0,0-.93-1.05,2.53,2.53,0,0,0-2.57,0,2.93,2.93,0,0,0-.94,1.05,3.48,3.48,0,0,0,0,3,2.06,2.06,0,0,0,.94,1.05A2.71,2.71,0,0,0,148.27,326.55Z"/><path d="M159.13,319.89a.42.42,0,0,1,.35.12.43.43,0,0,1,.12.35v6.19a3.2,3.2,0,0,1-.47,1.87,3.69,3.69,0,0,1-1.17,1.16,3.82,3.82,0,0,1-1.75.35,4.22,4.22,0,0,1-1.17-.11,6.7,6.7,0,0,1-.81-.35c-.12-.12-.24-.12-.24-.24s-.11-.23,0-.35a.26.26,0,0,1,.24-.23h.35a1.84,1.84,0,0,0,.7.35,2.71,2.71,0,0,0,1.05.23,2.3,2.3,0,0,0,1.28-.35,3.61,3.61,0,0,0,.94-.93,2.8,2.8,0,0,0,.35-1.4V325.5l.11.35a1.72,1.72,0,0,1-.58.7,6.43,6.43,0,0,1-.94.58,1.69,1.69,0,0,1-1.05.24A2.52,2.52,0,0,1,155,327a2.07,2.07,0,0,1-.81-.94,2.47,2.47,0,0,1-.24-1.4v-4.32a.43.43,0,0,1,.12-.35.57.57,0,0,1,.7,0,.43.43,0,0,1,.12.35v4.2a2,2,0,0,0,.46,1.52,1.75,1.75,0,0,0,1.4.59,2.8,2.8,0,0,0,1.06-.24,4.44,4.44,0,0,0,.81-.7,1.83,1.83,0,0,0,.35-1.05v-4.2a.42.42,0,0,1,.12-.35C158.9,320,159,319.89,159.13,319.89Z"/><path d="M162.16,319c-.23,0-.35,0-.46-.12a.41.41,0,0,1-.12-.35v-.11c0-.12,0-.35.12-.35s.23-.12.46-.12.35,0,.47.12a.41.41,0,0,1,.12.35v.11c0,.12,0,.35-.12.35S162.28,319,162.16,319Zm.35,7.82a.41.41,0,0,1-.46.47.42.42,0,0,1-.47-.47v-6.42a.43.43,0,0,1,.12-.35.41.41,0,0,1,.35-.12.43.43,0,0,1,.35.12.46.46,0,0,1,.11.35Z"/><path d="M168.12,319.89a2.87,2.87,0,0,1,1.52.36,2.46,2.46,0,0,1,.81,1.05,5.63,5.63,0,0,1,.24,1.4v4.08a.41.41,0,0,1-.12.35.57.57,0,0,1-.7,0,.41.41,0,0,1-.12-.35V322.7a3.31,3.31,0,0,0-.23-1.05,1.17,1.17,0,0,0-.59-.7c-.23-.24-.58-.24-1.05-.24a4,4,0,0,0-1.16.24,6.21,6.21,0,0,0-.94.7,1.91,1.91,0,0,0-.35,1.05v4.08a.41.41,0,0,1-.46.47.42.42,0,0,1-.47-.47v-6.3a.42.42,0,0,1,.12-.35A.41.41,0,0,1,165,320a.43.43,0,0,1,.35.12.45.45,0,0,1,.11.35v1.17l-.35.46a1.62,1.62,0,0,1,.24-.81,1.85,1.85,0,0,1,.7-.7,2.27,2.27,0,0,1,.93-.47A5.07,5.07,0,0,1,168.12,319.89Z"/><path d="M175.82,319.89a3.37,3.37,0,0,1,1.17.24,2.58,2.58,0,0,1,.93.58,3.27,3.27,0,0,1,.59.7,1.8,1.8,0,0,1,.23.7l-.23-.35v-1.28a.45.45,0,0,1,.11-.35A.43.43,0,0,1,179,320a.41.41,0,0,1,.35.12.42.42,0,0,1,.12.35v6.07a3.2,3.2,0,0,1-.47,1.87,3.12,3.12,0,0,1-1.28,1.16,4.55,4.55,0,0,1-1.75.35,3.42,3.42,0,0,1-1.05-.11c-.35-.12-.7-.24-.94-.35a1.7,1.7,0,0,1-.46-.35c-.12-.12-.12-.12-.12-.24s0-.11.12-.23.23-.12.23,0,.23.12.47.23.23.12.35.12a5.15,5.15,0,0,0,.58.12c.24,0,.47.11.7.11a2.75,2.75,0,0,0,2-.7,2.65,2.65,0,0,0,.7-1.86v-1.41h.11a1.78,1.78,0,0,1-.46.82,3.27,3.27,0,0,1-.7.59,2.74,2.74,0,0,1-.82.35c-.23,0-.58.11-.93.11a2.85,2.85,0,0,1-1.76-.46,6.8,6.8,0,0,1-1.28-1.29,3.43,3.43,0,0,1-.47-1.87,3.78,3.78,0,0,1,1.64-3.15A4.11,4.11,0,0,1,175.82,319.89Zm.12.82a3.15,3.15,0,0,0-1.4.35,2.93,2.93,0,0,0-.94,1.05,3.48,3.48,0,0,0,0,3,2.77,2.77,0,0,0,.94,1.05,2.52,2.52,0,0,0,1.4.35,3.15,3.15,0,0,0,1.4-.35,2.67,2.67,0,0,0,.93-1.05,3.48,3.48,0,0,0,0-3,2.82,2.82,0,0,0-.93-1.05A3.15,3.15,0,0,0,175.94,320.71Z"/><path d="M181.66,327.25a.42.42,0,0,1-.35-.12.41.41,0,0,1-.12-.35v-.35c0-.11,0-.35.12-.35s.23-.11.35-.11h.12a.4.4,0,0,1,.46.46v.35a.44.44,0,0,1-.11.35c-.12,0-.24.12-.47.12Z"/></svg>