<svg id="Capa_1" data-name="Capa 1" xmlns="http://www.w3.org/2000/svg" viewBox="0 0 269.1 392"><defs><style>.cls-1{fill:none;stroke:#f0be15;stroke-miterlimit:10;stroke-width:3px;}.cls-2{isolation:isolate;}.cls-3{fill:#7d7d7d;}.cls-4{fill:#fff;}.cls-5{fill:#f8afa0;}.cls-6{opacity:0.13;}</style></defs><title>timeline</title><line class="cls-1" x1="-567.58" y1="206.85" x2="1125.32" y2="206.85"/><path class="cls-1" d="M238.5,207.25H37.5V175.11A24.83,24.83,0,0,1,62.1,150H213.8a24.83,24.83,0,0,1,24.6,25.09v32.14Z"/><g class="cls-2"><path d="M127.2,172.42a.35.35,0,0,1,.4.4c0,.1,0,.3-.1.3a.37.37,0,0,1-.3.1H121a.6.6,0,0,1-.4-.1.52.52,0,0,1-.2-.4.37.37,0,0,1,.1-.3l3.8-4.2a15,15,0,0,0,1.4-1.8,3.74,3.74,0,0,0,.5-1.5,2.06,2.06,0,0,0-.7-1.7,2.48,2.48,0,0,0-1.8-.7,3.55,3.55,0,0,0-1,.2,2.36,2.36,0,0,0-.9.6,1.56,1.56,0,0,0-.6.8c-.1.1-.1.2-.2.2a.35.35,0,0,0-.2.1.35.35,0,0,1-.4-.4c0-.1,0-.2.1-.2s.1-.2.2-.3a3.45,3.45,0,0,1,.8-.9,4.73,4.73,0,0,1,1.2-.7,3.6,3.6,0,0,1,3.1.1,4.26,4.26,0,0,1,1.2,1.1,3.06,3.06,0,0,1,.4,1.7,4.89,4.89,0,0,1-.5,1.9,13.39,13.39,0,0,1-1.6,2.2l-3.2,3.6-.2-.2h5.3Z"/><path d="M133.4,173.52a3.29,3.29,0,0,1-2.2-.8,4.44,4.44,0,0,1-1.3-2.1,11.45,11.45,0,0,1,0-6,4.44,4.44,0,0,1,1.3-2.1,3.42,3.42,0,0,1,4.4,0,4.44,4.44,0,0,1,1.3,2.1,11.45,11.45,0,0,1,0,6,4.44,4.44,0,0,1-1.3,2.1A3.11,3.11,0,0,1,133.4,173.52Zm0-1a2.27,2.27,0,0,0,1.6-.6,4,4,0,0,0,1-1.7,11.42,11.42,0,0,0,0-5.2,3.23,3.23,0,0,0-1-1.7,2.43,2.43,0,0,0-3.2,0,4,4,0,0,0-1,1.7,9.78,9.78,0,0,0-.3,2.6,10.32,10.32,0,0,0,.3,2.6,4,4,0,0,0,1,1.7A2.27,2.27,0,0,0,133.4,172.52Z"/><path d="M142.1,173.32c-.2,0-.3,0-.4-.1a.37.37,0,0,1-.1-.3V163l.2.2-2.2,1.5a.37.37,0,0,1-.3.1.76.76,0,0,1-.4-.2c-.1-.1-.2-.2-.2-.3s.1-.3.3-.4l2.8-1.8c.1,0,.1-.1.2-.1h.2c.1,0,.3.1.3.2s.1.2.1.3v10.6a.37.37,0,0,1-.1.3A.6.6,0,0,0,142.1,173.32Z"/><path d="M149.2,173.52a4.67,4.67,0,0,1-1.7-.3,2.73,2.73,0,0,1-1.2-.9,5.39,5.39,0,0,1-.7-1.3,3.89,3.89,0,0,1-.2-1.5,11.14,11.14,0,0,1,.2-1.7,6.36,6.36,0,0,1,.6-1.8,16.18,16.18,0,0,1,1-1.8,6.73,6.73,0,0,1,1.4-1.5,5.24,5.24,0,0,1,1.8-1h.2a.6.6,0,0,1,.4.1.52.52,0,0,1,.2.4.37.37,0,0,1-.1.3c-.1.1-.2.1-.3.2a10,10,0,0,0-1.4.8,8,8,0,0,0-1.3,1.3,13,13,0,0,0-1,1.5,4.92,4.92,0,0,0-.6,1.7l-.4.2a3.92,3.92,0,0,1,.8-1,4.13,4.13,0,0,1,1.1-.7,2.77,2.77,0,0,1,1.3-.3,3.19,3.19,0,0,1,1.4.3,3.13,3.13,0,0,1,1.1.9,7.46,7.46,0,0,1,.7,1.2,3.53,3.53,0,0,1,.3,1.4,4,4,0,0,1-1.8,3.2A8.42,8.42,0,0,1,149.2,173.52Zm0-1a3.19,3.19,0,0,0,1.4-.3,2.19,2.19,0,0,0,.9-1,3.19,3.19,0,0,0,.3-1.4,3.53,3.53,0,0,0-.3-1.4,2.19,2.19,0,0,0-.9-1,2.3,2.3,0,0,0-1.4-.4,2.41,2.41,0,0,0-1.5.4,4.74,4.74,0,0,0-1,1,3.19,3.19,0,0,0-.3,1.4,2.77,2.77,0,0,0,.3,1.3,2.86,2.86,0,0,0,2.5,1.4Z"/></g><path class="cls-3" d="M56.4,226.88l-2.9,6.8c-.1.1-.1.2-.2.3a.37.37,0,0,1-.3.1.52.52,0,0,1-.4-.2c-.1-.1-.1-.2-.1-.4v-.2l3.2-7.8c.1-.1.1-.3.2-.3s.2-.1.4-.1a.6.6,0,0,1,.4.1c.1.1.2.2.2.3l3.2,7.7c0,.1.1.2.1.3s-.1.3-.2.5a.4.4,0,0,1-.4.2.37.37,0,0,1-.3-.1c-.1-.1-.2-.2-.2-.3L56.2,227Zm-2.4,5,.6-1.2h3.6l.2,1.2Z"/><path class="cls-3" d="M62.8,234.08c-.2,0-.3-.1-.5-.2a.76.76,0,0,1-.2-.5V228c0-.2.1-.3.2-.5a.76.76,0,0,1,.5-.2c.2,0,.3.1.5.2a.76.76,0,0,1,.2.5v1.4l-.1-.5c.1-.2.2-.5.3-.7a1.21,1.21,0,0,1,.5-.5,1.61,1.61,0,0,1,.7-.4,2,2,0,0,1,.8-.1,1.42,1.42,0,0,1,.6.2.4.4,0,0,1,.2.4.76.76,0,0,1-.2.5.52.52,0,0,1-.4.2.76.76,0,0,1-.4-.1.6.6,0,0,0-.4-.1.75.75,0,0,0-.5.1,1,1,0,0,0-.5.4,2.09,2.09,0,0,0-.4.6,2,2,0,0,0-.1.8v3c0,.2-.1.3-.2.5A.72.72,0,0,1,62.8,234.08Z"/><path class="cls-3" d="M73.9,227.38c.2,0,.3.1.5.2a.76.76,0,0,1,.2.5V236c0,.2-.1.3-.2.5a.76.76,0,0,1-.5.2c-.2,0-.3-.1-.5-.2a.76.76,0,0,1-.2-.5v-3.5h.3c0,.2-.1.3-.2.5a1.21,1.21,0,0,1-.5.5c-.2.1-.5.3-.7.4a2.92,2.92,0,0,1-.9.2,3,3,0,0,1-1.6-.5,3.18,3.18,0,0,1-1.1-1.2,4.25,4.25,0,0,1,0-3.6,3.18,3.18,0,0,1,1.1-1.2,2.54,2.54,0,0,1,2.5-.3,2.18,2.18,0,0,1,.8.5,2.65,2.65,0,0,1,.5.6,1.42,1.42,0,0,1,.2.6h-.4v-1.1c0-.2.1-.3.2-.5C73.6,227.48,73.8,227.38,73.9,227.38Zm-2.5,5.7a2,2,0,0,0,1.1-.3,2.7,2.7,0,0,0,.7-.8,2.13,2.13,0,0,0,.3-1.2,2.38,2.38,0,0,0-.3-1.2,2.7,2.7,0,0,0-.7-.8,2,2,0,0,0-1.1-.3,1.69,1.69,0,0,0-1,.3,2.7,2.7,0,0,0-.7.8,2.13,2.13,0,0,0-.3,1.2,2.38,2.38,0,0,0,.3,1.2,2.7,2.7,0,0,0,.7.8A1.49,1.49,0,0,0,71.4,233.08Z"/><path class="cls-3" d="M82.3,227.38c.2,0,.3.1.5.2a.76.76,0,0,1,.2.5v3.3a2.81,2.81,0,1,1-5.6,0v-3.3c0-.2.1-.3.2-.5a.76.76,0,0,1,.5-.2c.2,0,.3.1.5.2a.76.76,0,0,1,.2.5v3.3a1.46,1.46,0,0,0,.4,1.2,1.37,1.37,0,0,0,1.1.4,1.25,1.25,0,0,0,1.1-.4,2.14,2.14,0,0,0,.4-1.2v-3.3c0-.2.1-.3.2-.5S82.1,227.38,82.3,227.38Z"/><path class="cls-3" d="M86.3,226.48a.75.75,0,0,1-.5-.1.59.59,0,0,1-.2-.5v-.2c0-.2.1-.4.2-.4a.75.75,0,0,1,.5-.1c.3,0,.4,0,.5.1a.52.52,0,0,1,.2.4v.2a.76.76,0,0,1-.2.5A.75.75,0,0,1,86.3,226.48Zm.6,7c0,.2-.1.3-.2.5a.76.76,0,0,1-.5.2c-.2,0-.3-.1-.5-.2a.76.76,0,0,1-.2-.5V228c0-.2.1-.3.2-.5a.76.76,0,0,1,.5-.2c.2,0,.3.1.5.2a.76.76,0,0,1,.2.5Z"/><path class="cls-3" d="M89.5,227.48h3a.52.52,0,0,1,.4.2.6.6,0,0,1-.4,1h-3a.52.52,0,0,1-.4-.2.5.5,0,0,1,0-.8A.52.52,0,0,1,89.5,227.48Zm1.3-1.6c.2,0,.3.1.5.2a.76.76,0,0,1,.2.5v5.9c0,.2,0,.3.1.4s.1.2.2.2.2.1.3.1.2,0,.2-.1.2-.1.3-.1a.37.37,0,0,1,.3.1c.1.1.1.2.1.4a.55.55,0,0,1-.3.5,1.85,1.85,0,0,1-.7.2h-.5a1.42,1.42,0,0,1-.6-.2c-.2-.1-.3-.3-.5-.5a2,2,0,0,1-.2-.9v-5.9c0-.2.1-.3.2-.5A.37.37,0,0,1,90.8,225.88Z"/><path class="cls-3" d="M98.6,234.18a3.17,3.17,0,0,1-3.4-3.4,3,3,0,0,1,.5-1.9,3.45,3.45,0,0,1,1.2-1.2,2.82,2.82,0,0,1,1.5-.4,5,5,0,0,1,1.2.2,2.29,2.29,0,0,1,1,.7,3.59,3.59,0,0,1,.7,1,2.77,2.77,0,0,1,.3,1.3.52.52,0,0,1-.2.4.76.76,0,0,1-.4.2H96.1l-.3-1.1h4.8l-.2.2v-.3a1.14,1.14,0,0,0-.3-.8,1.79,1.79,0,0,0-.7-.5,2.35,2.35,0,0,0-.8-.2,1.48,1.48,0,0,0-.7.1,2.09,2.09,0,0,0-.6.4,1.61,1.61,0,0,0-.4.7,3.59,3.59,0,0,0-.2,1.1,2.13,2.13,0,0,0,.3,1.2,3,3,0,0,0,.8.8,2,2,0,0,0,1.1.3,2,2,0,0,0,.8-.1c.2-.1.4-.1.5-.2s.3-.2.4-.3a.6.6,0,0,1,.4-.1.71.71,0,0,1,.6.6.55.55,0,0,1-.3.5,3.49,3.49,0,0,1-.9.6A5.54,5.54,0,0,1,98.6,234.18Z"/><path class="cls-3" d="M106.8,227.28a4.12,4.12,0,0,1,1.2.1,1.51,1.51,0,0,1,.8.4.86.86,0,0,1,.3.6.6.6,0,0,1-.1.4.52.52,0,0,1-.4.2.37.37,0,0,1-.3-.1c-.1-.1-.2-.1-.2-.2s-.1-.1-.2-.2-.2-.1-.4-.1H107a2.66,2.66,0,0,0-1.2.3,3,3,0,0,0-.8.8,2.13,2.13,0,0,0-.3,1.2,2.38,2.38,0,0,0,.3,1.2,2.7,2.7,0,0,0,.7.8,2,2,0,0,0,1.1.3c.2,0,.5,0,.6-.1a.6.6,0,0,1,.4-.1c.1-.1.2-.2.3-.2s.2-.1.4-.1a.52.52,0,0,1,.4.2.6.6,0,0,1,.1.4.55.55,0,0,1-.3.5,1.88,1.88,0,0,1-.9.4,5,5,0,0,1-1.2.2,3.1,3.1,0,0,1-1.7-.5,2.54,2.54,0,0,1-1.1-1.2,4.78,4.78,0,0,1-.4-1.8,3.17,3.17,0,0,1,1.6-3A3.92,3.92,0,0,1,106.8,227.28Z"/><path class="cls-3" d="M111.3,227.48h3a.52.52,0,0,1,.4.2.6.6,0,0,1-.4,1h-3a.52.52,0,0,1-.4-.2.6.6,0,0,1,.4-1Zm1.4-1.6c.2,0,.3.1.5.2a.76.76,0,0,1,.2.5v5.9c0,.2,0,.3.1.4s.1.2.2.2.2.1.3.1.2,0,.2-.1.2-.1.3-.1a.37.37,0,0,1,.3.1c.1.1.1.2.1.4a.55.55,0,0,1-.3.5,1.85,1.85,0,0,1-.7.2h-.5a1.42,1.42,0,0,1-.6-.2c-.2-.1-.3-.3-.5-.5a2,2,0,0,1-.2-.9v-5.9c0-.2.1-.3.2-.5S112.5,225.88,112.7,225.88Z"/><path class="cls-3" d="M122.8,227.28c.2,0,.3.1.5.2a.76.76,0,0,1,.2.5v5.5c0,.2-.1.3-.2.5a.76.76,0,0,1-.5.2c-.2,0-.3-.1-.5-.2a.76.76,0,0,1-.2-.5v-.9l.3.1a1.69,1.69,0,0,1-.2.5,1.21,1.21,0,0,1-.5.5,2.51,2.51,0,0,1-.7.4,2.92,2.92,0,0,1-.9.2,3,3,0,0,1-1.6-.5,3.18,3.18,0,0,1-1.1-1.2,4.25,4.25,0,0,1,0-3.6,3.18,3.18,0,0,1,1.1-1.2,2.82,2.82,0,0,1,1.5-.4,3,3,0,0,1,1,.2,2.18,2.18,0,0,1,.8.5,2.65,2.65,0,0,1,.5.6,1.42,1.42,0,0,1,.2.6h-.4V228c0-.2.1-.3.2-.5A.76.76,0,0,1,122.8,227.28Zm-2.6,5.8a2.28,2.28,0,0,0,1.1-.3c.4-.2.5-.5.7-.8a2.38,2.38,0,0,0,.3-1.2,2.66,2.66,0,0,0-.3-1.2,1.85,1.85,0,0,0-.7-.8,2,2,0,0,0-1.1-.3,1.69,1.69,0,0,0-1,.3,2.7,2.7,0,0,0-.7.8,2.13,2.13,0,0,0-.3,1.2,2.66,2.66,0,0,0,.3,1.2,1.85,1.85,0,0,0,.7.8A1.69,1.69,0,0,0,120.2,233.08Z"/><path class="cls-3" d="M131.2,226.48a.75.75,0,0,1-.5-.1.59.59,0,0,1-.2-.5v-.2c0-.2.1-.4.2-.4a.75.75,0,0,1,.5-.1c.3,0,.4,0,.5.1a.52.52,0,0,1,.2.4v.2a.76.76,0,0,1-.2.5C131.7,226.48,131.5,226.48,131.2,226.48Zm.7,7c0,.2-.1.3-.2.5a.76.76,0,0,1-.5.2c-.2,0-.3-.1-.5-.2a.76.76,0,0,1-.2-.5V228c0-.2.1-.3.2-.5a.76.76,0,0,1,.5-.2c.2,0,.3.1.5.2a.76.76,0,0,1,.2.5Z"/><path class="cls-3" d="M138,227.28a2,2,0,0,1,1.4.4,1.83,1.83,0,0,1,.7,1,5.9,5.9,0,0,1,.2,1.4v3.4c0,.2-.1.3-.2.5a.76.76,0,0,1-.5.2c-.2,0-.3-.1-.5-.2a.76.76,0,0,1-.2-.5v-3.4a2,2,0,0,0-.1-.8,2.09,2.09,0,0,0-.4-.6,2,2,0,0,0-.9-.2,2.39,2.39,0,0,0-.9.2.9.9,0,0,0-.6.6,1.88,1.88,0,0,0-.2.8v3.4c0,.2-.1.3-.2.5a.76.76,0,0,1-.5.2c-.2,0-.3-.1-.5-.2a.76.76,0,0,1-.2-.5v-5.4c0-.2.1-.3.2-.5a.76.76,0,0,1,.5-.2c.2,0,.3.1.5.2a.76.76,0,0,1,.2.5v.7l-.2.1.3-.6a1.21,1.21,0,0,1,.5-.5,1.61,1.61,0,0,1,.7-.4A3.08,3.08,0,0,1,138,227.28Z"/><path class="cls-3" d="M148.5,224.68c.2,0,.3.1.5.2a.76.76,0,0,1,.2.5v8.1c0,.2-.1.3-.2.5a.76.76,0,0,1-.5.2c-.2,0-.3-.1-.5-.2a.76.76,0,0,1-.2-.5v-.9h.3c0,.2-.1.3-.2.5a1.21,1.21,0,0,1-.5.5,2.51,2.51,0,0,1-.7.4,2.92,2.92,0,0,1-.9.2,3,3,0,0,1-1.6-.5,3.18,3.18,0,0,1-1.1-1.2,4.25,4.25,0,0,1,0-3.6,3.18,3.18,0,0,1,1.1-1.2,2.54,2.54,0,0,1,2.5-.3,2.18,2.18,0,0,1,.8.5,2.65,2.65,0,0,1,.5.6,1.42,1.42,0,0,1,.2.6h-.4v-3.8c0-.2.1-.3.2-.5C148.2,224.78,148.3,224.68,148.5,224.68Zm-2.6,8.4a2,2,0,0,0,1.1-.3,2.7,2.7,0,0,0,.7-.8,2.13,2.13,0,0,0,.3-1.2,2.38,2.38,0,0,0-.3-1.2,2.7,2.7,0,0,0-.7-.8,2,2,0,0,0-1.1-.3,1.69,1.69,0,0,0-1,.3,2.7,2.7,0,0,0-.7.8,2.13,2.13,0,0,0-.3,1.2,2.38,2.38,0,0,0,.3,1.2,2.7,2.7,0,0,0,.7.8A1.93,1.93,0,0,0,145.9,233.08Z"/><path class="cls-3" d="M155,234.18a3.17,3.17,0,0,1-3.4-3.4,3,3,0,0,1,.5-1.9,3.45,3.45,0,0,1,1.2-1.2,2.82,2.82,0,0,1,1.5-.4,5,5,0,0,1,1.2.2,2.29,2.29,0,0,1,1,.7,3.59,3.59,0,0,1,.7,1,2.77,2.77,0,0,1,.3,1.3.52.52,0,0,1-.2.4.76.76,0,0,1-.4.2h-4.9l-.3-1.1H157l-.2.2v-.3a1.14,1.14,0,0,0-.3-.8,1.79,1.79,0,0,0-.7-.5,2.35,2.35,0,0,0-.8-.2,1.48,1.48,0,0,0-.7.1,2.09,2.09,0,0,0-.6.4,1.61,1.61,0,0,0-.4.7,3.59,3.59,0,0,0-.2,1.1,2.13,2.13,0,0,0,.3,1.2,3,3,0,0,0,.8.8,2,2,0,0,0,1.1.3,2,2,0,0,0,.8-.1c.2-.1.4-.1.5-.2s.3-.2.4-.3a.6.6,0,0,1,.4-.1.71.71,0,0,1,.6.6.55.55,0,0,1-.3.5,3.49,3.49,0,0,1-.9.6A5.24,5.24,0,0,1,155,234.18Z"/><path class="cls-3" d="M163.7,227.28a2.93,2.93,0,0,1,1.6.4,3.18,3.18,0,0,1,1.1,1.2,4.25,4.25,0,0,1,0,3.6,3.18,3.18,0,0,1-1.1,1.2,2.82,2.82,0,0,1-1.5.4,2.92,2.92,0,0,1-.9-.2,3,3,0,0,1-.8-.4,1.18,1.18,0,0,1-.5-.5,2.19,2.19,0,0,0-.3-.5l.3-.2v3.5c0,.2-.1.3-.2.5a.76.76,0,0,1-.5.2c-.2,0-.3-.1-.5-.2a.76.76,0,0,1-.2-.5v-7.9c0-.2.1-.3.2-.5a.76.76,0,0,1,.5-.2c.2,0,.3.1.5.2a.76.76,0,0,1,.2.5v.9l-.2-.1c0-.2.1-.3.2-.5s.3-.3.5-.5a1.61,1.61,0,0,1,.7-.4A2.72,2.72,0,0,0,163.7,227.28Zm-.2,1.2a2,2,0,0,0-1.1.3,2.7,2.7,0,0,0-.7.8,2.13,2.13,0,0,0-.3,1.2,2.66,2.66,0,0,0,.3,1.2,1.85,1.85,0,0,0,.7.8,2,2,0,0,0,1.1.3,1.69,1.69,0,0,0,1-.3,2.7,2.7,0,0,0,.7-.8,2.38,2.38,0,0,0,.3-1.2,2.66,2.66,0,0,0-.3-1.2,2.7,2.7,0,0,0-.7-.8A1.69,1.69,0,0,0,163.5,228.48Z"/><path class="cls-3" d="M172.3,234.18a3.17,3.17,0,0,1-3.4-3.4,3,3,0,0,1,.5-1.9,3.45,3.45,0,0,1,1.2-1.2,2.82,2.82,0,0,1,1.5-.4,5,5,0,0,1,1.2.2,2.29,2.29,0,0,1,1,.7,3.59,3.59,0,0,1,.7,1,2.77,2.77,0,0,1,.3,1.3.52.52,0,0,1-.2.4.76.76,0,0,1-.4.2h-4.9l-.3-1.1h4.8l-.2.2v-.3a1.14,1.14,0,0,0-.3-.8,1.79,1.79,0,0,0-.7-.5,2.35,2.35,0,0,0-.8-.2,1.48,1.48,0,0,0-.7.1,2.09,2.09,0,0,0-.6.4,1.61,1.61,0,0,0-.4.7,3.59,3.59,0,0,0-.2,1.1,2.13,2.13,0,0,0,.3,1.2,3,3,0,0,0,.8.8,2,2,0,0,0,1.1.3,2,2,0,0,0,.8-.1c.2-.1.4-.1.5-.2s.3-.2.4-.3a.6.6,0,0,1,.4-.1.71.71,0,0,1,.6.6.55.55,0,0,1-.3.5,3.49,3.49,0,0,1-.9.6A5.54,5.54,0,0,1,172.3,234.18Z"/><path class="cls-3" d="M181,227.28a2,2,0,0,1,1.4.4,1.83,1.83,0,0,1,.7,1,5.9,5.9,0,0,1,.2,1.4v3.4c0,.2-.1.3-.2.5a.76.76,0,0,1-.5.2c-.2,0-.3-.1-.5-.2a.76.76,0,0,1-.2-.5v-3.4a2,2,0,0,0-.1-.8,2.09,2.09,0,0,0-.4-.6,2,2,0,0,0-.9-.2,2.39,2.39,0,0,0-.9.2.9.9,0,0,0-.6.6,1.88,1.88,0,0,0-.2.8v3.4c0,.2-.1.3-.2.5a.76.76,0,0,1-.5.2c-.2,0-.3-.1-.5-.2a.76.76,0,0,1-.2-.5v-5.4c0-.2.1-.3.2-.5a.76.76,0,0,1,.5-.2c.2,0,.3.1.5.2a.76.76,0,0,1,.2.5v.7l-.2.1.3-.6a1.21,1.21,0,0,1,.5-.5,1.61,1.61,0,0,1,.7-.4A2.77,2.77,0,0,1,181,227.28Z"/><path class="cls-3" d="M191.5,224.68c.2,0,.3.1.5.2a.76.76,0,0,1,.2.5v8.1c0,.2-.1.3-.2.5a.76.76,0,0,1-.5.2c-.2,0-.3-.1-.5-.2a.76.76,0,0,1-.2-.5v-.9h.3c0,.2-.1.3-.2.5a1.21,1.21,0,0,1-.5.5,2.51,2.51,0,0,1-.7.4,2.92,2.92,0,0,1-.9.2,3,3,0,0,1-1.6-.5,3.18,3.18,0,0,1-1.1-1.2,4.25,4.25,0,0,1,0-3.6,3.18,3.18,0,0,1,1.1-1.2,2.54,2.54,0,0,1,2.5-.3,2.18,2.18,0,0,1,.8.5,2.65,2.65,0,0,1,.5.6,1.42,1.42,0,0,1,.2.6h-.4v-3.8c0-.2.1-.3.2-.5A4.33,4.33,0,0,1,191.5,224.68Zm-2.6,8.4a2,2,0,0,0,1.1-.3,2.7,2.7,0,0,0,.7-.8,2.13,2.13,0,0,0,.3-1.2,2.38,2.38,0,0,0-.3-1.2,2.7,2.7,0,0,0-.7-.8,2,2,0,0,0-1.1-.3,1.69,1.69,0,0,0-1,.3,2.7,2.7,0,0,0-.7.8,2.13,2.13,0,0,0-.3,1.2,2.38,2.38,0,0,0,.3,1.2,2.7,2.7,0,0,0,.7.8A1.69,1.69,0,0,0,188.9,233.08Z"/><path class="cls-3" d="M195.4,226.48a.75.75,0,0,1-.5-.1.59.59,0,0,1-.2-.5v-.2c0-.2.1-.4.2-.4a.75.75,0,0,1,.5-.1c.3,0,.4,0,.5.1a.52.52,0,0,1,.2.4v.2a.76.76,0,0,1-.2.5C195.9,226.48,195.7,226.48,195.4,226.48Zm.7,7c0,.2-.1.3-.2.5a.76.76,0,0,1-.5.2c-.2,0-.3-.1-.5-.2a.76.76,0,0,1-.2-.5V228c0-.2.1-.3.2-.5a.76.76,0,0,1,.5-.2c.2,0,.3.1.5.2a.76.76,0,0,1,.2.5Z"/><path class="cls-3" d="M201.9,234.18a3.17,3.17,0,0,1-3.4-3.4,3,3,0,0,1,.5-1.9,3.45,3.45,0,0,1,1.2-1.2,2.82,2.82,0,0,1,1.5-.4,5,5,0,0,1,1.2.2,2.29,2.29,0,0,1,1,.7,3.59,3.59,0,0,1,.7,1,2.77,2.77,0,0,1,.3,1.3.52.52,0,0,1-.2.4.76.76,0,0,1-.4.2h-5.2l-.3-1.1h4.8l-.2.2v-.3a1.14,1.14,0,0,0-.3-.8,1.79,1.79,0,0,0-.7-.5,2.35,2.35,0,0,0-.8-.2,1.48,1.48,0,0,0-.7.1,2.09,2.09,0,0,0-.6.4,1.61,1.61,0,0,0-.4.7,3.59,3.59,0,0,0-.2,1.1,2.13,2.13,0,0,0,.3,1.2,3,3,0,0,0,.8.8,2,2,0,0,0,1.1.3,2,2,0,0,0,.8-.1c.2-.1.4-.1.5-.2s.3-.2.4-.3a.6.6,0,0,1,.4-.1.71.71,0,0,1,.6.6.55.55,0,0,1-.3.5,3.49,3.49,0,0,1-.9.6A3.89,3.89,0,0,1,201.9,234.18Z"/><path class="cls-3" d="M210.6,227.28a2,2,0,0,1,1.4.4,1.83,1.83,0,0,1,.7,1,5.9,5.9,0,0,1,.2,1.4v3.4c0,.2-.1.3-.2.5a.76.76,0,0,1-.5.2c-.2,0-.3-.1-.5-.2a.76.76,0,0,1-.2-.5v-3.4a2,2,0,0,0-.1-.8,2.09,2.09,0,0,0-.4-.6,2,2,0,0,0-.9-.2,2.39,2.39,0,0,0-.9.2.9.9,0,0,0-.6.6,1.88,1.88,0,0,0-.2.8v3.4c0,.2-.1.3-.2.5a.76.76,0,0,1-.5.2c-.2,0-.3-.1-.5-.2a.76.76,0,0,1-.2-.5v-5.4c0-.2.1-.3.2-.5a.76.76,0,0,1,.5-.2c.2,0,.3.1.5.2a.76.76,0,0,1,.2.5v.7l-.2.1.3-.6a1.21,1.21,0,0,1,.5-.5,1.61,1.61,0,0,1,.7-.4A2.77,2.77,0,0,1,210.6,227.28Z"/><path class="cls-3" d="M215.5,227.48h3a.52.52,0,0,1,.4.2.6.6,0,0,1-.4,1h-3a.52.52,0,0,1-.4-.2.6.6,0,0,1,.4-1Zm1.4-1.6c.2,0,.3.1.5.2a.76.76,0,0,1,.2.5v5.9c0,.2,0,.3.1.4s.1.2.2.2.2.1.3.1.2,0,.2-.1.2-.1.3-.1a.37.37,0,0,1,.3.1c.1.1.1.2.1.4a.55.55,0,0,1-.3.5,1.85,1.85,0,0,1-.7.2h-.5a1.42,1.42,0,0,1-.6-.2c-.2-.1-.3-.3-.5-.5a2,2,0,0,1-.2-.9v-5.9c0-.2.1-.3.2-.5S216.7,225.88,216.9,225.88Z"/><path class="cls-3" d="M224.6,234.18a3.17,3.17,0,0,1-3.4-3.4,3,3,0,0,1,.5-1.9,3.45,3.45,0,0,1,1.2-1.2,2.82,2.82,0,0,1,1.5-.4,5,5,0,0,1,1.2.2,2.29,2.29,0,0,1,1,.7,3.59,3.59,0,0,1,.7,1,2.77,2.77,0,0,1,.3,1.3.52.52,0,0,1-.2.4.76.76,0,0,1-.4.2h-4.9l-.3-1.1h4.8l-.2.2v-.3a1.14,1.14,0,0,0-.3-.8,1.79,1.79,0,0,0-.7-.5,2.35,2.35,0,0,0-.8-.2,1.48,1.48,0,0,0-.7.1,2.09,2.09,0,0,0-.6.4,1.61,1.61,0,0,0-.4.7,3.59,3.59,0,0,0-.2,1.1,2.13,2.13,0,0,0,.3,1.2,3,3,0,0,0,.8.8,2,2,0,0,0,1.1.3,2,2,0,0,0,.8-.1c.2-.1.4-.1.5-.2s.3-.2.4-.3a.6.6,0,0,1,.4-.1.71.71,0,0,1,.6.6.55.55,0,0,1-.3.5,3.49,3.49,0,0,1-.9.6A6.89,6.89,0,0,1,224.6,234.18Z"/><g class="cls-2"><path d="M59.4,185.22h6a.6.6,0,0,1,.4.1c.1.1.1.2.1.4s0,.3-.1.3-.2.1-.4.1H59.7l.2-.3v4.6l-.2-.2h4.9a.6.6,0,0,1,.4.1.37.37,0,0,1,.1.3c0,.1,0,.3-.1.3s-.2.1-.4.1H59.7l.1-.2v4.8l-.1-.1h5.6a.6.6,0,0,1,.4.1.37.37,0,0,1,.1.3c0,.1,0,.3-.1.3s-.2.1-.4.1h-6a.6.6,0,0,1-.4-.1.37.37,0,0,1-.1-.3v-10.6a.37.37,0,0,1,.1-.3A.42.42,0,0,0,59.4,185.22Z"/><path d="M71,197a3.29,3.29,0,0,1-1.9-.6,3.74,3.74,0,0,1-1.3-1.5.37.37,0,0,1-.1-.3c0-.1.1-.3.2-.3a.5.5,0,0,1,.6,0l.2.2a2.44,2.44,0,0,0,.9,1.1,2,2,0,0,0,1.3.4,2.77,2.77,0,0,0,1.3-.3,2,2,0,0,0,.9-.9,2.77,2.77,0,0,0,.3-1.3v-7.7a.37.37,0,0,1,.1-.3c.1-.1.2-.1.4-.1s.3,0,.4.1a.37.37,0,0,1,.1.3v7.7a3.45,3.45,0,0,1-.5,1.8,3.25,3.25,0,0,1-1.3,1.3A2.93,2.93,0,0,1,71,197Z"/><path d="M78.2,185.22h6a.6.6,0,0,1,.4.1c.1.1.1.2.1.4s0,.3-.1.3-.2.1-.4.1H78.5l.2-.3v4.6l-.2-.2h4.9a.6.6,0,0,1,.4.1.37.37,0,0,1,.1.3c0,.1,0,.3-.1.3s-.2.1-.4.1H78.5l.1-.2v4.8l-.1-.1h5.6a.6.6,0,0,1,.4.1.37.37,0,0,1,.1.3c0,.1,0,.3-.1.3s-.2.1-.4.1h-6a.6.6,0,0,1-.4-.1.37.37,0,0,1-.1-.3v-10.6a.37.37,0,0,1,.1-.3C78,185.32,78.1,185.22,78.2,185.22Z"/><path d="M87.7,196.82c-.2,0-.3,0-.4-.1s-.2-.2-.2-.3v-10.6a.37.37,0,0,1,.1-.3c.1-.1.2-.1.4-.1h4.5a3.29,3.29,0,0,1,1.7.4,3.18,3.18,0,0,1,1.2,1.1,2.93,2.93,0,0,1,.4,1.6,2.77,2.77,0,0,1-.3,1.3,3.59,3.59,0,0,1-.7,1,2.38,2.38,0,0,1-1.1.6l-.6-.2a2.1,2.1,0,0,1,1.1.4,2.58,2.58,0,0,1,.9.9,3.19,3.19,0,0,1,.3,1.4,3.42,3.42,0,0,0,.1,1.1.85.85,0,0,0,.2.6l.3.3c.1.1.2.2.2.3v.3a.22.22,0,0,1-.2.2c-.1,0-.2.1-.3.1s-.2,0-.2-.1a1.76,1.76,0,0,1-.5-.4,2,2,0,0,1-.4-.8A6.05,6.05,0,0,1,94,194a2.51,2.51,0,0,0-.2-1,1,1,0,0,0-.5-.6,2.12,2.12,0,0,0-.7-.3c-.2,0-.5-.1-.7-.1H88.1l.2-.2v4.7a.37.37,0,0,1-.1.3ZM88,191h4.1a1.78,1.78,0,0,0,1-.4,2.36,2.36,0,0,0,.8-.9,2.77,2.77,0,0,0,.3-1.3,2.45,2.45,0,0,0-.6-1.6,2.35,2.35,0,0,0-1.7-.6H88.1l.1-.2v5.2Z"/><path d="M106,185.22c.2,0,.3,0,.4.1a.5.5,0,0,1,0,.6l-7.5,10v-.1H106a.6.6,0,0,1,.4.1.5.5,0,0,1,0,.6c-.1.1-.2.1-.4.1H98.1a.52.52,0,0,1-.4-.2.5.5,0,0,1,0-.6l7.5-9.9.1.1H98.5a.6.6,0,0,1-.4-.1.37.37,0,0,1-.1-.3c0-.1,0-.3.1-.3s.2-.1.4-.1Z"/><path d="M119.1,191a6.05,6.05,0,0,1-.4,2.4,11.78,11.78,0,0,1-1.1,1.9,5.67,5.67,0,0,1-1.8,1.2,5.38,5.38,0,0,1-2.2.4,5.09,5.09,0,0,1-2.2-.4,7.07,7.07,0,0,1-1.8-1.2,6.15,6.15,0,0,1-1.2-1.9,7.4,7.4,0,0,1,0-4.8,7.61,7.61,0,0,1,1.2-1.9,5.67,5.67,0,0,1,1.8-1.2,6.25,6.25,0,0,1,4.4,0,5.67,5.67,0,0,1,1.8,1.2,4.53,4.53,0,0,1,1.1,1.9A9.27,9.27,0,0,1,119.1,191Zm-1,0a5.54,5.54,0,0,0-.6-2.6,4.41,4.41,0,0,0-7.8,0,5.26,5.26,0,0,0-.6,2.6,5.54,5.54,0,0,0,.6,2.6,4.36,4.36,0,0,0,1.6,1.7,4.65,4.65,0,0,0,2.3.6,4.14,4.14,0,0,0,2.3-.6,4.36,4.36,0,0,0,1.6-1.7A5.26,5.26,0,0,0,118.1,191Z"/><path d="M134.4,186.12c.1.1.2.2.2.3a.6.6,0,0,1-.1.4c-.1.1-.2.2-.3.2a.76.76,0,0,1-.4-.1,3.79,3.79,0,0,0-1.3-.6,6.8,6.8,0,0,0-1.5-.2,4.06,4.06,0,0,0-1.9.4,5.6,5.6,0,0,0-1.5,1,4.35,4.35,0,0,0-1,1.6,6.47,6.47,0,0,0-.4,2,4.21,4.21,0,0,0,.4,2,8.64,8.64,0,0,0,1,1.6,4,4,0,0,0,1.5,1,5.82,5.82,0,0,0,1.9.3,7.72,7.72,0,0,0,1.5-.2c.5-.2.9-.4,1.3-.6a.37.37,0,0,1,.3-.1c.1,0,.2.1.3.2a.6.6,0,0,1,.1.4c0,.1-.1.2-.2.3a9.29,9.29,0,0,1-1,.5,5.64,5.64,0,0,1-1.2.4,5.28,5.28,0,0,1-1.3.1,5.38,5.38,0,0,1-2.2-.4,7.61,7.61,0,0,1-1.9-1.2,4.31,4.31,0,0,1-1.3-1.9,6,6,0,0,1-.5-2.4,6.44,6.44,0,0,1,.5-2.4,7.61,7.61,0,0,1,1.2-1.9,4.14,4.14,0,0,1,1.9-1.2,5.87,5.87,0,0,1,2.3-.4,5.66,5.66,0,0,1,1.8.3A3,3,0,0,1,134.4,186.12Z"/><path d="M147.1,191a6.05,6.05,0,0,1-.4,2.4,11.78,11.78,0,0,1-1.1,1.9,5.67,5.67,0,0,1-1.8,1.2,5.38,5.38,0,0,1-2.2.4,5.09,5.09,0,0,1-2.2-.4,7.07,7.07,0,0,1-1.8-1.2,6.15,6.15,0,0,1-1.2-1.9,7.4,7.4,0,0,1,0-4.8,7.61,7.61,0,0,1,1.2-1.9,5.67,5.67,0,0,1,1.8-1.2,6.25,6.25,0,0,1,4.4,0,5.67,5.67,0,0,1,1.8,1.2,4.53,4.53,0,0,1,1.1,1.9A9.27,9.27,0,0,1,147.1,191Zm-1.1,0a5.54,5.54,0,0,0-.6-2.6,4.41,4.41,0,0,0-7.8,0,5.26,5.26,0,0,0-.6,2.6,5.54,5.54,0,0,0,.6,2.6,4.36,4.36,0,0,0,1.6,1.7,4.65,4.65,0,0,0,2.3.6,4.14,4.14,0,0,0,2.3-.6A4.79,4.79,0,0,0,146,191Z"/><path d="M149.9,185.22c.1,0,.2,0,.2.1a.22.22,0,0,1,.2.2l4.6,6.8h-.4l4.6-6.8a.4.4,0,0,1,.4-.2.37.37,0,0,1,.3.1c.1.1.1.2.1.4v10.6c0,.1-.1.2-.2.3s-.2.1-.4.1a.6.6,0,0,1-.4-.1.37.37,0,0,1-.1-.3v-9.6h.3l-4.2,6.3c0,.1-.1.1-.2.2s-.1.1-.2.1-.2,0-.2-.1-.1-.1-.2-.2l-4.2-6.4.3-.2v9.8a.37.37,0,0,1-.1.3c-.1.1-.2.1-.4.1s-.3,0-.3-.1a.37.37,0,0,1-.1-.3v-10.6a.37.37,0,0,1,.1-.3A1.06,1.06,0,0,1,149.9,185.22Z"/><path d="M173.4,191a6.05,6.05,0,0,1-.4,2.4,11.78,11.78,0,0,1-1.1,1.9,5.67,5.67,0,0,1-1.8,1.2,5.38,5.38,0,0,1-2.2.4,5.09,5.09,0,0,1-2.2-.4,7.07,7.07,0,0,1-1.8-1.2,6.15,6.15,0,0,1-1.2-1.9,7.4,7.4,0,0,1,0-4.8,7.61,7.61,0,0,1,1.2-1.9,5.67,5.67,0,0,1,1.8-1.2,6.25,6.25,0,0,1,4.4,0,5.67,5.67,0,0,1,1.8,1.2,4.53,4.53,0,0,1,1.1,1.9A9.27,9.27,0,0,1,173.4,191Zm-1,0a5.54,5.54,0,0,0-.6-2.6,4.41,4.41,0,0,0-7.8,0,5.26,5.26,0,0,0-.6,2.6,5.54,5.54,0,0,0,.6,2.6,4.36,4.36,0,0,0,1.6,1.7,4.65,4.65,0,0,0,2.3.6,4.14,4.14,0,0,0,2.3-.6,4.36,4.36,0,0,0,1.6-1.7A5.26,5.26,0,0,0,172.4,191Z"/><path d="M184.1,186.52l-4,10a.22.22,0,0,1-.2.2.37.37,0,0,1-.3.1c-.2,0-.3,0-.4-.1a.37.37,0,0,1-.1-.3v-.2l4.4-10.7c0-.1.1-.2.2-.3s.2-.1.3-.1a.37.37,0,0,1,.3.1l.2.2,4.3,10.6v.2c0,.2,0,.3-.1.4a.5.5,0,0,1-.6,0l-.2-.2-4.1-10Zm-3,7,.4-1h5.1l.2,1Z"/><path d="M191.5,196.82c-.2,0-.3,0-.4-.1s-.2-.2-.2-.3v-10.6a.37.37,0,0,1,.1-.3c.1-.1.2-.1.4-.1h4.5a3.29,3.29,0,0,1,1.7.4,3.18,3.18,0,0,1,1.2,1.1,2.93,2.93,0,0,1,.4,1.6,2.77,2.77,0,0,1-.3,1.3,3.59,3.59,0,0,1-.7,1,2.38,2.38,0,0,1-1.1.6l-.6-.2a2.1,2.1,0,0,1,1.1.4,2.58,2.58,0,0,1,.9.9,3.19,3.19,0,0,1,.3,1.4,3.42,3.42,0,0,0,.1,1.1.85.85,0,0,0,.2.6l.3.3c.1.1.2.2.2.3v.3a.22.22,0,0,1-.2.2c-.1,0-.2.1-.3.1s-.2,0-.2-.1a1.76,1.76,0,0,1-.5-.4,2,2,0,0,1-.4-.8,6.05,6.05,0,0,1-.2-1.5,2.51,2.51,0,0,0-.2-1,1,1,0,0,0-.5-.6,2.12,2.12,0,0,0-.7-.3c-.2,0-.5-.1-.7-.1h-3.8l.2-.2v4.7a.37.37,0,0,1-.1.3Zm.3-5.8h4.1a1.78,1.78,0,0,0,1-.4,2.36,2.36,0,0,0,.8-.9,2.77,2.77,0,0,0,.3-1.3,2.45,2.45,0,0,0-.6-1.6,2.35,2.35,0,0,0-1.7-.6h-3.9l.1-.2v5.2Z"/><path d="M212.3,191a6.05,6.05,0,0,1-.4,2.4,11.78,11.78,0,0,1-1.1,1.9,5.67,5.67,0,0,1-1.8,1.2,5.38,5.38,0,0,1-2.2.4,5.09,5.09,0,0,1-2.2-.4,7.07,7.07,0,0,1-1.8-1.2,6.15,6.15,0,0,1-1.2-1.9,7.4,7.4,0,0,1,0-4.8,7.61,7.61,0,0,1,1.2-1.9,5.67,5.67,0,0,1,1.8-1.2,6.25,6.25,0,0,1,4.4,0,5.67,5.67,0,0,1,1.8,1.2,4.53,4.53,0,0,1,1.1,1.9A9.27,9.27,0,0,1,212.3,191Zm-1,0a5.54,5.54,0,0,0-.6-2.6,4.41,4.41,0,0,0-7.8,0,5.26,5.26,0,0,0-.6,2.6,5.54,5.54,0,0,0,.6,2.6,4.36,4.36,0,0,0,1.6,1.7,4.65,4.65,0,0,0,2.3.6,4.14,4.14,0,0,0,2.3-.6,4.36,4.36,0,0,0,1.6-1.7A5.26,5.26,0,0,0,211.3,191Zm1.8,6.7a.35.35,0,0,1,.4.4.55.55,0,0,1-.3.5,2.77,2.77,0,0,1-.8.5,2.93,2.93,0,0,1-1,.3c-.4,0-.7.1-1,.1a6.27,6.27,0,0,1-1.6-.2,6.12,6.12,0,0,1-1.2-.5,9.25,9.25,0,0,0-1-.5,3.73,3.73,0,0,0-1.2-.2.75.75,0,0,0-.5.1c-.1.1-.3.1-.4.2a.6.6,0,0,1-.4.1.35.35,0,0,1-.4-.4c0-.2.1-.4.3-.4l2.9-1h1.5l-2.6.9.2-.2a3.73,3.73,0,0,1,1.2.2,4.67,4.67,0,0,1,1,.5,11.73,11.73,0,0,0,1.1.5,5.07,5.07,0,0,0,1.3.2,3.59,3.59,0,0,0,1.1-.2,4.88,4.88,0,0,0,.7-.3,1.38,1.38,0,0,0,.4-.3Q213,197.72,213.1,197.72Z"/><path d="M214.7,196.82a.52.52,0,0,1-.4-.2.75.75,0,0,1-.1-.5v-.3a.75.75,0,0,1,.1-.5.52.52,0,0,1,.4-.2h.1a.52.52,0,0,1,.4.2.75.75,0,0,1,.1.5v.3a.9.9,0,0,1-.1.5.52.52,0,0,1-.4.2Z"/></g><path d="M131.73,119.51h0l-22.79-.13a.75.75,0,0,1,0-1.5h0l22.79.12a.76.76,0,0,1,0,1.51Z"/><rect class="cls-4" x="57.34" y="71.54" width="45.96" height="48.72"/><path d="M103.3,121h-46a.8.8,0,0,1-.75-.75V71.54a.8.8,0,0,1,.75-.75h46a.8.8,0,0,1,.75.75v48.72A.72.72,0,0,1,103.3,121Zm-45.21-1.5h44.46V72.29H58v47.22Z"/><polygon class="cls-4" points="80.38 44.74 47.44 77.93 113.2 77.93 80.38 44.74"/><path d="M113.2,78.68H47.44c-.25,0-.62-.13-.62-.5a.76.76,0,0,1,.12-.75L79.76,44.24a.76.76,0,0,1,1,0l32.81,33.19a.6.6,0,0,1,.13.75A.46.46,0,0,1,113.2,78.68Zm-63.88-1.5h62.12L80.38,45.86Z"/><rect class="cls-5" x="73.87" y="88.57" width="12.9" height="11.65"/><path d="M86.77,101H73.87a.8.8,0,0,1-.75-.75V88.57a.81.81,0,0,1,.75-.75h12.9a.81.81,0,0,1,.75.75v11.65A.8.8,0,0,1,86.77,101Zm-12.15-1.5H86V89.2H74.62Z"/><path d="M103.3,114.5h0c-15.15-.25-30.56-.25-45.71-.38a.26.26,0,0,1-.25-.25.27.27,0,0,1,.25-.25h0c15.15,0,30.56.13,45.71.38a.26.26,0,0,1,.25.25C103.55,114.5,103.43,114.5,103.3,114.5Z"/><path d="M131.73,45.61H90.4a.81.81,0,0,1-.75-.75.81.81,0,0,1,.75-.75h41.33a.75.75,0,0,1,0,1.5Z"/><g class="cls-6"><path d="M103.43,78.55a2.23,2.23,0,0,0-.88-.12H93c-5.88,0-11.9-.13-17.78.12-5.26.13-10.4-.12-15.66-.25-.25,0-.75,0-.87-.12a1,1,0,0,0-.63.12.69.69,0,0,0-.25,1A1.34,1.34,0,0,0,59,81.43a188.48,188.48,0,0,0,19.41.5c7.26-.12,14.65-.37,21.92-.12a7.65,7.65,0,0,0,2.38-.13,1.51,1.51,0,0,0,.87-1.62c0-.13,0-.13-.12-.25h.25A.81.81,0,0,0,103.43,78.55Z"/></g><g class="cls-6"><path d="M103.8,118.51c-.37-.38-1.25-.13-1.75-.25-9,.12-18,.25-27,.25-5,0-10.15-.25-15.16-.13-.5,0-1.12.13-1.63.13a.67.67,0,0,0-.62.37c-.38.5.25,1.25.87,1.13,5.26-.38,12.9.12,18.92,0,8.64,0,17.28-.25,25.92-.5A.58.58,0,0,0,103.8,118.51Z"/></g><path class="cls-4" d="M140,15.93l2,116.73,109.47-.25Zm19.54,49.85L200.87,108l-40.08.12Z"/><path d="M142,133.28a.81.81,0,0,1-.75-.75l-2-116.6a.77.77,0,0,1,.5-.75,1.11,1.11,0,0,1,.88.12L252.09,131.66a.6.6,0,0,1,.13.75.85.85,0,0,1-.63.5L142,133.28ZM140.75,17.81l1.88,114.1,107.08-.25Zm20.16,90.93a.81.81,0,0,1-.75-.75l-1.25-42.34a.79.79,0,0,1,.5-.75,1.11,1.11,0,0,1,.88.13l41.33,42.2a.59.59,0,0,1,.12.76.82.82,0,0,1-.62.5l-40.21.25Zm-.5-41.21,1.13,39.7,37.57-.12Z"/><path d="M140.75,44.36a.26.26,0,0,1-.25-.25.27.27,0,0,1,.25-.25l5-.38a.26.26,0,0,1,0,.51l-5,.37Z"/><path d="M141.75,80.06a.26.26,0,0,1,0-.51l5-.37a.26.26,0,0,1,.25.25.27.27,0,0,1-.25.25l-5,.38Z"/><path d="M141.25,62.15a.26.26,0,0,1,0-.51l5-.37a.26.26,0,0,1,.25.25.27.27,0,0,1-.25.25l-5,.38Z"/><path d="M142.25,97.84a.25.25,0,0,1,0-.5l5-.38a.27.27,0,0,1,.25.25.26.26,0,0,1-.25.25l-5,.38Z"/><path d="M142.75,115.75a.25.25,0,0,1,0-.5l5-.38a.27.27,0,0,1,.25.25.26.26,0,0,1-.25.25l-5,.38Z"/><g class="cls-6"><path d="M250,130.65a20.5,20.5,0,0,1-2.13-2.5c-2,0-4,.12-6,.12-5.76.13-11.52.26-17.16.26s-11.52-.63-17.41-.76c-9.26-.37-18.66.13-27.92.38-5.14.25-10.4.38-15.53.25-4.51-.13-9-.5-13.66-.5-1.88,0-3.75.12-5.76.25-.75.12-1.63,0-2.25.75-1,1.25-.25,3.51,1.13,3.51,6.26-.75,12.64-.13,18.91-.38h2.13c-.13.63.25,1.38.87,1.38,28.31-1.13,56.61.88,85-.25a1.11,1.11,0,0,0,1-.75A14,14,0,0,0,250,130.65Z"/></g><path class="cls-4" d="M177.63,267.78c-10.48,3.73-22.21,3.17-33.39,2.07-12.69-1.24-25.94-2.07-38.63-3.31-14.91-1-30.22-1.93-43.33,5.24C41.86,283.1,35.92,316.21,50.69,334.7c7.17,8.7,16.83,13.94,27.18,17.11,17.66,5.52,36.29,6.35,54.37,6.49,19.73.41,40.57.27,58.09-9.11S221.38,317,214.2,297c-2.62-6.07-6.35-11.86-8.83-17.94-4.28-11.17-2.35-24.83,4.55-34.77C199.85,252.88,189.64,264.05,177.63,267.78Z"/><path d="M211,243.22c.55,0,1,1.1.41,1.65A36.81,36.81,0,0,0,207,278.68c.82,2.76,2.62,5.66,4,8.42a102.4,102.4,0,0,1,4.41,9.52c7.45,21.11-7.17,44.71-24.7,54.23-18.62,9.93-41,9.24-58.64,9.1-18.08-.69-36.7-1-54.92-6.48-12.42-3.87-21.52-9.66-27.73-17.25-7.18-8.69-10.08-22.35-7.73-35.46s9.8-23.6,19.46-29.53c13.66-7.73,30.63-6.62,43.74-5.24l38.63,3.31c10.63,1.1,22.22,1.65,32.84-2.07,9.39-3.31,17.66-10.49,25.25-17.8,2.35-1.93,4.7-4.28,7-6.21.55-.42.55-.42,1.1-.42C210.61,242.67,210.61,242.67,211,243.22ZM133.48,356.78c18.08.69,39.46,1.24,57-8.69,16.42-9.11,29.8-31.19,23.18-50.64-1.38-2.76-2.62-6.07-4.42-9a49.5,49.5,0,0,1-4.41-9c-3.45-8.83-2.9-19.46.69-28.84a6.81,6.81,0,0,0-1.11,1c-8.14,7.17-16.42,14.35-26.35,18.21-11.18,4.28-23.32,3-33.81,1.93l-38.63-3.31c-12.7-1.24-29.12-2.9-42.23,4.83-9.52,5-16,15.45-18.21,27.6-2.35,12.55.28,24.56,6.76,33.25,5.66,7.45,14.21,12.69,26.08,16.56A111.68,111.68,0,0,0,103.67,356C113.06,356.92,122.72,356.78,133.48,356.78Z"/><g class="cls-6"><path d="M44.2,297.72c.14-1.1.69-1.52.83-2.62,1.38-3,2.21-6.21,3.59-8.69a36,36,0,0,1,21.11-18.22,62,62,0,0,1,20.56-2.76,9.25,9.25,0,0,1,2.07.28c.55,0,1.1.14,1.66.14a10,10,0,0,1,2.07.27c.55,0,1.1.14,1.65.14a9.25,9.25,0,0,1,2.07.28c4.28.41,9,1,13.8,1.38,8.42.83,16.42,1.65,24.42,1.93,1.66.14,3.18.28,4.83.41a61.84,61.84,0,0,0,10.08.42,1.75,1.75,0,0,0,1.51.69,24,24,0,0,1,6.35.14c1.66-.42,3.73-.14,5.93-.42a80.81,80.81,0,0,0,12-3c3.86-1.25,7.31-3.59,10.76-5.94,2.9-2.34,6.35-5.24,9.25-7.59a59.59,59.59,0,0,0,5.93-5.79c1.1-.42,2.62.83,3,1.93a1.74,1.74,0,0,0-.69,1.52c-.14,1.1-.69,1.52-.83,2.62a37.39,37.39,0,0,0-4.83,5.93v-.55a14.82,14.82,0,0,0-1.8,2.48c-.69,1-.55.42-.55.42-1.24,2.07-3.45,2.9-5.24,4.28-2.9,1.79-5.66,3.72-9.11,5-6.07,2.62-9.93,3.31-15.45,4.28a51.17,51.17,0,0,1-15,.69c-4.83-.41-9.52-1.52-14.22-1.93-7.45-.69-14.35-1-21.8-1.11-4.83-.41-10.07-.41-15.45-.41-3.17.28-9.11.14-9.66.14-2.62-.28-4.83,0-7.45-.28-12.83-.27-21.94,5.25-23,6.21A34,34,0,0,0,54.41,286h0c-1.79,1.38-3,3.45-4.83,4.83a31.49,31.49,0,0,0-4.41,6.49c-.55.41-.69,1.52-1.24,1.52h0C43.65,298.14,43.79,296.07,44.2,297.72Z"/></g><path d="M76.22,310.42a6.36,6.36,0,0,1-.42,2.34,8.65,8.65,0,0,1-1.1,1.93,5.22,5.22,0,0,1-1.8,1.25,6.13,6.13,0,0,1-4.41,0,5.19,5.19,0,0,1-1.79-1.25,4.39,4.39,0,0,1-1.11-1.93,6.91,6.91,0,0,1,0-4.69,8.68,8.68,0,0,1,1.11-1.93,4.13,4.13,0,0,1,1.79-1.24,6,6,0,0,1,4.41,0,5.19,5.19,0,0,1,1.8,1.24,4.37,4.37,0,0,1,1.1,1.93A6.38,6.38,0,0,1,76.22,310.42Zm-1.11,0a5.61,5.61,0,0,0-.55-2.62A6.62,6.62,0,0,0,73,306a4.3,4.3,0,0,0-2.34-.69,4.7,4.7,0,0,0-2.35.69,4.28,4.28,0,0,0-1.66,1.8,5.28,5.28,0,0,0-.55,2.62,5.66,5.66,0,0,0,.55,2.62,5.19,5.19,0,0,0,1.66,1.79,4.33,4.33,0,0,0,4.69,0A3.25,3.25,0,0,0,74.56,313,5.66,5.66,0,0,0,75.11,310.42Z"/><path d="M79.11,316.21a.5.5,0,0,1-.41-.14.48.48,0,0,1-.14-.41V305a.51.51,0,0,1,.14-.42.5.5,0,0,1,.41-.14.49.49,0,0,1,.56.56v10.62a.48.48,0,0,1-.14.41A.51.51,0,0,1,79.11,316.21Zm7.59-11.59c.14,0,.28,0,.28.14a.43.43,0,0,1,.14.28s0,.27-.14.27l-7.45,7-.14-1.11,6.9-6.62C86.43,304.76,86.56,304.62,86.7,304.62Zm.14,11.59a.48.48,0,0,1-.41-.14l-4.69-5.93.82-.83,4.69,5.94a.55.55,0,0,1-.41,1Z"/><path d="M92.91,316.35a5.84,5.84,0,0,1-2.21-.41,6.94,6.94,0,0,1-1.79-1.25l-.14-.13v-.28a.48.48,0,0,1,.14-.41.5.5,0,0,1,.41-.14.51.51,0,0,1,.42.14,6.11,6.11,0,0,0,1.52,1.1,3.75,3.75,0,0,0,1.79.41,4,4,0,0,0,1.38-.27,2.64,2.64,0,0,0,1-.69,1.6,1.6,0,0,0,.41-1.11,1.72,1.72,0,0,0-.41-1.24,8.42,8.42,0,0,0-1.11-.83,5,5,0,0,0-1.52-.55l-1.24-.41a3.08,3.08,0,0,1-1.1-.69,2.45,2.45,0,0,1-.69-1,3.91,3.91,0,0,1-.28-1.24,2.78,2.78,0,0,1,.42-1.52,2.89,2.89,0,0,1,1.38-1.1,4.34,4.34,0,0,1,1.93-.41,9.16,9.16,0,0,1,1.93.27,3.55,3.55,0,0,1,1.38,1c.14.14.28.27.28.41s0,.28-.14.28a.51.51,0,0,1-.42.14c-.13,0-.13,0-.27-.14s-.42-.42-.69-.69a6.65,6.65,0,0,0-1-.42,3.19,3.19,0,0,0-1.1-.13,4,4,0,0,0-1.38.27,2.56,2.56,0,0,0-1,.69,1.69,1.69,0,0,0,0,2.21,2.17,2.17,0,0,0,1.11.69c.55.14.82.41,1.38.55.41.14,1,.28,1.38.41a3.17,3.17,0,0,1,1.1.69,6.42,6.42,0,0,1,.83,1,4.23,4.23,0,0,1,.27,1.52,2.77,2.77,0,0,1-.41,1.52,2.94,2.94,0,0,1-1.38,1.1A3.49,3.49,0,0,1,92.91,316.35Z"/><path d="M100.09,316.35a2,2,0,0,1-.28.83,1.7,1.7,0,0,1-.69.69,2.15,2.15,0,0,1-.69.27c-.14,0-.14,0-.27-.13s-.14-.14-.14-.28,0-.28.14-.28a.53.53,0,0,0,.41-.13c.14-.14.28-.14.41-.28a.5.5,0,0,0,.14-.41c0-.14,0-.28-.14-.28s-.13-.14-.27-.14h-.28c-.14,0-.14,0-.27.14l-.14-.14v-.27a.93.93,0,0,1,1-.83.75.75,0,0,1,.69.41A1.19,1.19,0,0,1,100.09,316.35Z"/><path d="M110,307.52a4,4,0,0,1,1.38.28,2.86,2.86,0,0,1,1.11.69,3.85,3.85,0,0,1,.69.82,2.07,2.07,0,0,1,.27.83l-.27-.41v-1.52a.51.51,0,0,1,.13-.41.51.51,0,0,1,.42-.14.49.49,0,0,1,.41.14.48.48,0,0,1,.14.41v7.17a3.79,3.79,0,0,1-.55,2.21,3.69,3.69,0,0,1-1.52,1.38,5.47,5.47,0,0,1-2.07.42,3.76,3.76,0,0,1-1.24-.14,9.42,9.42,0,0,1-1.11-.42,1.83,1.83,0,0,1-.55-.41c-.14-.14-.14-.14-.14-.28s0-.13.14-.27.28-.14.28,0,.27.14.55.27.28.14.41.14a6.28,6.28,0,0,0,.69.14c.28,0,.56.14.83.14a3.26,3.26,0,0,0,2.35-.83,3.14,3.14,0,0,0,.83-2.21v-1.65h.13a2.08,2.08,0,0,1-.55,1,3.42,3.42,0,0,1-.83.69,2.87,2.87,0,0,1-1,.42,3.25,3.25,0,0,1-1.11.13,3.32,3.32,0,0,1-2.07-.55,4.73,4.73,0,0,1-1.38-1.52,4.07,4.07,0,0,1-.55-2.2,4.43,4.43,0,0,1,1.93-3.73A7.59,7.59,0,0,1,110,307.52Zm.14,1a3.66,3.66,0,0,0-1.66.41,3.36,3.36,0,0,0-1.1,1.24,3.75,3.75,0,0,0-.41,1.79,3.79,3.79,0,0,0,.41,1.8,3.36,3.36,0,0,0,1.1,1.24,2.94,2.94,0,0,0,1.66.41,3.66,3.66,0,0,0,1.66-.41,3.36,3.36,0,0,0,1.1-1.24,3.79,3.79,0,0,0,.41-1.8,3.75,3.75,0,0,0-.41-1.79,3.28,3.28,0,0,0-1.1-1.24A3.66,3.66,0,0,0,110.16,308.49Z"/><path d="M120.65,316.35a3.79,3.79,0,0,1-2.21-.55,4.11,4.11,0,0,1-1.52-1.52,4.27,4.27,0,0,1-.55-2.35,4,4,0,0,1,.55-2.34,5.1,5.1,0,0,1,1.38-1.52,3.18,3.18,0,0,1,1.93-.55,4,4,0,0,1,1.38.28,3.11,3.11,0,0,1,1.24.82,2,2,0,0,1,.83,1.24,7.36,7.36,0,0,1,.42,1.66c0,.14,0,.28-.14.28a.54.54,0,0,1-.42.13h-6.62l-.14-.82h6.49l-.28.13V311a2.42,2.42,0,0,0-.55-1.38,2.21,2.21,0,0,0-1.1-.83,4,4,0,0,0-1.24-.27,2.5,2.5,0,0,0-1,.13,2.28,2.28,0,0,0-1,.56,3,3,0,0,0-.69,1.1,5.16,5.16,0,0,0-.27,1.52,3.87,3.87,0,0,0,.41,1.79,3.22,3.22,0,0,0,1.11,1.24,3.75,3.75,0,0,0,1.79.42,3,3,0,0,0,1.1-.14l.83-.42c.28-.13.41-.41.55-.55a.51.51,0,0,1,.42-.14c.13,0,.27,0,.27.14s.14.14.14.28a.49.49,0,0,1-.14.41c-.27.42-.83.69-1.24,1.11A2.51,2.51,0,0,1,120.65,316.35Z"/><path d="M125.61,307.8h3.87c.14,0,.27,0,.27.13s.14.14.14.28,0,.28-.14.28-.13.13-.27.13h-3.87c-.13,0-.27,0-.27-.13s-.14-.14-.14-.28,0-.28.14-.28S125.48,307.8,125.61,307.8Zm1.8-2.35a.49.49,0,0,1,.55.55v8.28a1,1,0,0,0,.14.69c.14.14.14.28.27.28s.28.13.42.13h.55c.14,0,.14,0,.28.14s.13.14.13.28-.13.27-.27.41a1,1,0,0,1-.69.14h-.42c-.13,0-.41-.14-.55-.14a1.09,1.09,0,0,1-.55-.55,2.58,2.58,0,0,1-.28-1.1v-8.42a.48.48,0,0,1,.14-.41C127.13,305.45,127.27,305.45,127.41,305.45Z"/><path d="M135.83,307.8h3.86c.14,0,.27,0,.27.13s.14.14.14.28,0,.28-.14.28-.13.13-.27.13h-3.86c-.14,0-.28,0-.28-.13s-.14-.14-.14-.28,0-.28.14-.28S135.69,307.8,135.83,307.8Zm1.65-2.35a.48.48,0,0,1,.55.55v8.28a1,1,0,0,0,.14.69c.14.14.14.28.28.28s.27.13.41.13h.55c.14,0,.14,0,.28.14s.14.14.14.28-.14.27-.28.41a1,1,0,0,1-.69.14h-.41c-.14,0-.42-.14-.56-.14a1.09,1.09,0,0,1-.55-.55,2.74,2.74,0,0,1-.27-1.1v-8.42a.51.51,0,0,1,.13-.41C137.21,305.45,137.34,305.45,137.48,305.45Z"/><path d="M149.76,311.93a3.79,3.79,0,0,1-.55,2.21,3.25,3.25,0,0,1-1.52,1.52,5.71,5.71,0,0,1-2.21.55,3.38,3.38,0,0,1-2.07-.55,7.77,7.77,0,0,1-1.51-1.52,4,4,0,0,1-.56-2.21,3.71,3.71,0,0,1,.56-2.2,3.23,3.23,0,0,1,1.51-1.52,3.93,3.93,0,0,1,2.07-.55,4.09,4.09,0,0,1,2.21.55,5.24,5.24,0,0,1,1.52,1.52A4.07,4.07,0,0,1,149.76,311.93Zm-1,0a3.75,3.75,0,0,0-.42-1.79,3.27,3.27,0,0,0-1.1-1.24,2.94,2.94,0,0,0-1.66-.41,3.59,3.59,0,0,0-1.65.41,2.45,2.45,0,0,0-1.11,1.24,3.87,3.87,0,0,0-.41,1.79,3.91,3.91,0,0,0,.41,1.8A3.29,3.29,0,0,0,144,315a3.21,3.21,0,0,0,1.65.41,3.63,3.63,0,0,0,1.66-.41,3.27,3.27,0,0,0,1.1-1.24A3.79,3.79,0,0,0,148.8,311.93Z"/><path d="M166.46,307.52a.49.49,0,0,1,.55.55v.28l-2.48,7.59c0,.13-.14.13-.14.27s-.14.14-.28.14-.27-.14-.41-.28l-2.35-5.52h.28l-2.07,5.39c-.14.13-.28.27-.42.27s-.13,0-.27-.14-.14-.13-.14-.27l-2.62-7.59v-.28a.5.5,0,0,1,.14-.41.48.48,0,0,1,.41-.14c.14,0,.14,0,.28.14s.13.14.13.28l2.35,7h-.28l2.07-5.38a.39.39,0,0,1,.42-.27c.14,0,.14,0,.27.13s.14.14.14.28l2.21,5.38h-.41l2.34-7C166.18,307.66,166.32,307.52,166.46,307.52Z"/><path d="M176.81,311.93a3.72,3.72,0,0,1-.56,2.21,3.23,3.23,0,0,1-1.51,1.52,5.71,5.71,0,0,1-2.21.55,3.34,3.34,0,0,1-2.07-.55,8.1,8.1,0,0,1-1.52-1.52,4.09,4.09,0,0,1-.55-2.21,3.78,3.78,0,0,1,.55-2.2,3.29,3.29,0,0,1,1.52-1.52,3.93,3.93,0,0,1,2.07-.55,4.09,4.09,0,0,1,2.21.55,5.2,5.2,0,0,1,1.51,1.52A4,4,0,0,1,176.81,311.93Zm-1,0a3.87,3.87,0,0,0-.41-1.79,3.29,3.29,0,0,0-1.11-1.24,2.88,2.88,0,0,0-1.65-.41,3.63,3.63,0,0,0-1.66.41,2.43,2.43,0,0,0-1.1,1.24,3.75,3.75,0,0,0-.42,1.79,3.79,3.79,0,0,0,.42,1.8,2.83,2.83,0,0,0,2.76,1.65,3.59,3.59,0,0,0,1.65-.41,3.29,3.29,0,0,0,1.11-1.24A3.91,3.91,0,0,0,175.84,311.93Z"/><path d="M179.43,316.21a.51.51,0,0,1-.42-.14.51.51,0,0,1-.13-.41v-7.45a.51.51,0,0,1,.13-.41.51.51,0,0,1,.42-.14.49.49,0,0,1,.41.14.48.48,0,0,1,.14.41v2.48h-.28a2.54,2.54,0,0,1,.28-1.1,4.75,4.75,0,0,1,.69-1.1,5.51,5.51,0,0,1,1-.83,3.91,3.91,0,0,1,1.24-.28.82.82,0,0,1,.55.14c.14.14.28.28.28.41a.51.51,0,0,1-.14.42c-.14.14-.14.14-.28.14s-.27,0-.27-.14-.28-.14-.42-.14a3.46,3.46,0,0,0-1,.28,3.2,3.2,0,0,0-.83.69,2.54,2.54,0,0,0-.55,1.1,4.21,4.21,0,0,0-.28,1.1v4.14a.51.51,0,0,1-.14.42C179.7,316.21,179.57,316.21,179.43,316.21Z"/><path d="M185.91,316.21a.5.5,0,0,1-.41-.14.48.48,0,0,1-.14-.41V304.48a.49.49,0,0,1,.55-.55.51.51,0,0,1,.42.14.5.5,0,0,1,.14.41V315.8a.49.49,0,0,1-.14.41Zm5.66-8.55a.51.51,0,0,1,.42.14.42.42,0,0,1,.13.27.54.54,0,0,1-.13.42l-5.52,4.69v-1.25l5-4.27C191.3,307.8,191.43,307.66,191.57,307.66Zm.14,8.55a.48.48,0,0,1-.41-.14l-3.73-4,.69-.69,3.73,4a.54.54,0,0,1,.13.42.52.52,0,0,1-.13.41Z"/><path d="M194.33,316.21a.49.49,0,0,1-.55-.55v-.41c0-.14,0-.42.14-.42a.48.48,0,0,1,.41-.14h.14a.49.49,0,0,1,.41.14.51.51,0,0,1,.14.42v.41a.48.48,0,0,1-.14.41c-.14.14-.27.14-.55.14Z"/></svg>